<?xml version="1.0" encoding="utf-8"?>
<!-- Generator: Adobe Illustrator 25.2.1, SVG Export Plug-In . SVG Version: 6.00 Build 0)  -->
<svg version="1.1" xmlns="http://www.w3.org/2000/svg" xmlns:xlink="http://www.w3.org/1999/xlink" x="0px" y="0px"
	 viewBox="0 0 1000 1000" style="enable-background:new 0 0 1000 1000;" xml:space="preserve">
<style type="text/css">
	.st0{fill:url(#SVGID_1_);}
	.st1{fill:#BDD0FB;}
	.st2{opacity:0.43;fill:#FFFFFF;}
	.st3{fill:#91B3FA;}
	.st4{fill:#FFFFFF;}
	.st5{fill:url(#SVGID_2_);}
	.st6{fill:url(#SVGID_3_);}
	.st7{fill:url(#SVGID_4_);}
	.st8{fill:url(#SVGID_5_);}
	.st9{fill:url(#SVGID_6_);}
	.st10{fill:url(#SVGID_7_);}
	.st11{fill:url(#SVGID_8_);}
	.st12{fill:url(#SVGID_9_);}
	.st13{fill:url(#SVGID_10_);}
	.st14{fill:url(#SVGID_11_);}
	.st15{fill:url(#SVGID_12_);}
	.st16{fill:url(#SVGID_13_);}
	.st17{fill:url(#SVGID_14_);}
	.st18{fill:url(#SVGID_15_);}
	.st19{opacity:0.63;fill:#FFFFFF;}
	.st20{fill:url(#SVGID_16_);}
	.st21{fill:url(#SVGID_17_);}
	.st22{fill:url(#SVGID_18_);}
	.st23{fill:#F79E6D;}
	.st24{fill:url(#SVGID_19_);}
	.st25{fill:url(#SVGID_20_);}
	.st26{fill:url(#SVGID_21_);}
	.st27{fill:url(#SVGID_22_);}
	.st28{fill:url(#SVGID_23_);}
	.st29{fill:url(#SVGID_24_);}
	.st30{fill:url(#SVGID_25_);}
	.st31{fill:url(#SVGID_26_);}
	.st32{fill:url(#SVGID_27_);}
	.st33{fill:url(#SVGID_28_);}
	.st34{fill:url(#SVGID_29_);}
	.st35{fill:url(#SVGID_30_);}
	.st36{fill:url(#SVGID_31_);}
	.st37{fill:url(#SVGID_32_);}
</style>
<g id="Background">
</g>
<g id="Illustration">
	<g>
		<linearGradient id="SVGID_1_" gradientUnits="userSpaceOnUse" x1="975.8057" y1="1087.3563" x2="308.0378" y2="258.0305">
			<stop  offset="0" style="stop-color:#DAE3FE"/>
			<stop  offset="1" style="stop-color:#E9EFFD"/>
		</linearGradient>
		<path class="st0" d="M786.7,754.2c-13.7,17.6-49.7,54.6-61.5,62.3c-105.5,68.3-259.9,46.6-293.9,39.7c-50.1-10.2-166-1.6-236.1-84
			c-106-124.6-96.1-334.3-13.9-463.9c15-23.7,107.1-164.9,268.6-186c97.7-12.8,244.1,2.3,326.6,71.4
			C949.6,338.7,875.6,640.3,786.7,754.2z"/>
		<g>
			<g>
				<path class="st1" d="M340.6,238.5c0-3.3,4.5-4.4,6-1.4c14.7,28.6,55.5,102.5,102.3,136.6c76.1,55.6,139.9,157.9,111.7,223.3
					C560.6,597.1,336.3,601.2,340.6,238.5z"/>
				<path class="st2" d="M355.4,280.6c0.3,1,0.6,1.8,0.9,2.6l0.9,2.5l1.9,5c1.3,3.3,2.6,6.6,4,9.9c2.7,6.6,5.5,13.1,8.3,19.7
					c5.7,13,11.8,25.9,18,38.7c6.2,12.8,12.8,25.4,19.7,37.9c6.9,12.5,13.9,24.9,21.3,37c14.8,24.3,31,47.9,48.8,70.2
					c9,11.1,18.3,21.9,28.2,32.1c10,10.2,20.4,20,31.5,28.9c0.2,0.2,0.6,0.2,0.8-0.1c0.2-0.2,0.2-0.6-0.1-0.8l0,0
					c-10.7-9.4-20.8-19.3-30.5-29.7c-9.7-10.4-18.8-21.3-27.5-32.4c-8.8-11.1-17.1-22.6-25.1-34.3c-8.1-11.7-15.6-23.7-23.1-35.7
					c-14.9-24.2-28.5-49.1-41.4-74.4c-6.4-12.7-12.6-25.5-18.5-38.4c-3-6.4-5.9-12.9-8.7-19.4l-4.2-9.8l-2-4.9l-1-2.5
					c-0.3-0.8-0.7-1.7-0.9-2.4l0-0.1c-0.1-0.3-0.4-0.4-0.7-0.3C355.5,280,355.3,280.3,355.4,280.6z"/>
			</g>
			<g>
				<path class="st3" d="M451.9,136.3c0.9-3,5.3-2.8,5.9,0.3c5.7,30.3,23,109.2,56.5,153.2c54.6,71.7,85.3,183,41.5,235.3
					C555.9,525.2,349,467.7,451.9,136.3z"/>
				<path class="st2" d="M454,179c0,1,0.1,1.8,0.1,2.6l0.2,2.6l0.4,5.1c0.3,3.4,0.6,6.8,0.9,10.2c0.7,6.8,1.4,13.5,2.3,20.3
					c1.7,13.5,3.7,27,5.9,40.4c2.2,13.4,4.8,26.8,7.7,40.1c2.9,13.3,6,26.6,9.5,39.8c7,26.4,15.4,52.3,25.6,77.6
					c5.2,12.6,10.8,25.1,17.1,37.2c6.4,12.1,13.3,23.9,21,35.1c0.2,0.2,0.5,0.3,0.8,0.1c0.2-0.2,0.3-0.5,0.2-0.7l0,0
					c-7.2-11.5-13.8-23.4-19.9-35.5c-6-12.1-11.4-24.6-16.4-37.2c-5-12.6-9.5-25.4-13.7-38.3c-4.2-12.9-7.9-26-11.4-39.1
					c-7.1-26.2-12.7-52.8-17.6-79.5c-2.4-13.4-4.6-26.8-6.5-40.2c-1-6.7-1.9-13.5-2.7-20.2l-1.2-10.1l-0.5-5.1l-0.2-2.5
					c-0.1-0.8-0.1-1.7-0.2-2.5l0-0.1c0-0.3-0.3-0.5-0.6-0.5C454.2,178.5,454,178.7,454,179z"/>
			</g>
		</g>
		<g>
			<g>
				
					<ellipse transform="matrix(0.7071 -0.7071 0.7071 0.7071 -51.2601 550.8611)" class="st4" cx="639.3" cy="337.3" rx="165.2" ry="165.2"/>
				<g>
					<linearGradient id="SVGID_2_" gradientUnits="userSpaceOnUse" x1="969.66" y1="172.6147" x2="-306.6339" y2="808.9125">
						<stop  offset="0" style="stop-color:#4F52FF"/>
						<stop  offset="1" style="stop-color:#4042E2"/>
					</linearGradient>
					<circle class="st5" cx="639.3" cy="337.3" r="141"/>
					<path class="st4" d="M639.3,485.4c-81.6,0-148.1-66.4-148.1-148.1s66.4-148.1,148.1-148.1s148.1,66.4,148.1,148.1
						S721,485.4,639.3,485.4z M639.3,196.3c-77.8,0-141,63.3-141,141c0,77.8,63.3,141,141,141c77.8,0,141-63.3,141-141
						C780.3,259.6,717.1,196.3,639.3,196.3z"/>
				</g>
				<g>
					<linearGradient id="SVGID_3_" gradientUnits="userSpaceOnUse" x1="1101.2153" y1="17.951" x2="4.3423" y2="776.3295">
						<stop  offset="0" style="stop-color:#4F52FF"/>
						<stop  offset="1" style="stop-color:#4042E2"/>
					</linearGradient>
					<circle class="st6" cx="639.3" cy="337.3" r="86"/>
					<path class="st4" d="M639.3,430.3c-51.3,0-93-41.7-93-93s41.7-93,93-93c51.3,0,93,41.7,93,93S690.6,430.3,639.3,430.3z
						 M639.3,258.4c-43.5,0-78.9,35.4-78.9,78.9s35.4,78.9,78.9,78.9c43.5,0,78.9-35.4,78.9-78.9S682.8,258.4,639.3,258.4z"/>
				</g>
				<g>
					<linearGradient id="SVGID_4_" gradientUnits="userSpaceOnUse" x1="835.1863" y1="-105.9744" x2="729.7533" y2="132.6374">
						<stop  offset="0" style="stop-color:#4F52FF"/>
						<stop  offset="1" style="stop-color:#4042E2"/>
					</linearGradient>
					<circle class="st7" cx="639.3" cy="337.3" r="33.3"/>
					<path class="st4" d="M639.3,377.7c-22.3,0-40.4-18.1-40.4-40.4c0-22.3,18.1-40.4,40.4-40.4c22.3,0,40.4,18.1,40.4,40.4
						C679.7,359.6,661.6,377.7,639.3,377.7z M639.3,311.1c-14.5,0-26.2,11.8-26.2,26.2s11.8,26.2,26.2,26.2
						c14.5,0,26.2-11.8,26.2-26.2S653.8,311.1,639.3,311.1z"/>
				</g>
			</g>
			<g>
				
					<linearGradient id="SVGID_5_" gradientUnits="userSpaceOnUse" x1="-1485.2524" y1="2954.2036" x2="-1535.63" y2="3158.8621" gradientTransform="matrix(-0.7071 -0.7071 0.7071 -0.7071 -2547.2576 1361.9323)">
					<stop  offset="0" style="stop-color:#09005D"/>
					<stop  offset="1" style="stop-color:#1A0F91"/>
				</linearGradient>
				<polygon class="st8" points="839.6,136.5 844.1,141 675.4,309.6 671,305.1 				"/>
				
					<linearGradient id="SVGID_6_" gradientUnits="userSpaceOnUse" x1="-1528.2081" y1="2997.2224" x2="-1543.6019" y2="3162.3569" gradientTransform="matrix(-0.7071 -0.7071 0.7071 -0.7071 -2547.2576 1361.9323)">
					<stop  offset="0" style="stop-color:#09005D"/>
					<stop  offset="1" style="stop-color:#1A0F91"/>
				</linearGradient>
				<path class="st9" d="M674.1,294.4c2.6-2.6,14.6,9.5,12,12l-44.7,35.1c-1.7,1.3-3.8-0.8-2.5-2.5L674.1,294.4z"/>
				<path class="st3" d="M844,141l22.7,2.3l-31.1,31.1c-10.2,10.2-24.4,15.3-38.8,13.9l0,0L844,141z"/>
				<path class="st3" d="M839.5,136.6l-2.3-22.7l-31.1,31.1c-10.2,10.2-15.3,24.4-13.9,38.8l0,0L839.5,136.6z"/>
			</g>
		</g>
		<linearGradient id="SVGID_7_" gradientUnits="userSpaceOnUse" x1="975.9294" y1="317.6981" x2="135.7178" y2="1436.0879">
			<stop  offset="0" style="stop-color:#FF928E"/>
			<stop  offset="1" style="stop-color:#FE7062"/>
		</linearGradient>
		<path class="st10" d="M879.8,884.8H558.1V435.8c0-7.4,6-13.4,13.4-13.4h299.7c7.4,0,13.4,6,13.4,13.4v444.1
			C884.7,882.6,882.5,884.8,879.8,884.8z"/>
		<path class="st3" d="M700.3,886.1H415.7V529.4c0-7.4,6-13.4,13.4-13.4h257.8c7.4,0,13.4,6,13.4,13.4V886.1z"/>
		<linearGradient id="SVGID_8_" gradientUnits="userSpaceOnUse" x1="832.0391" y1="173.7897" x2="-35.9548" y2="1329.16">
			<stop  offset="0" style="stop-color:#FF928E"/>
			<stop  offset="1" style="stop-color:#FE7062"/>
		</linearGradient>
		<path class="st11" d="M501.8,884.8H261.4c-2.7,0-4.9-2.2-4.9-4.9V673c0-7.4,6-13.4,13.4-13.4h218.4c7.4,0,13.4,6,13.4,13.4V884.8z
			"/>
		<path class="st3" d="M360.5,884.8H120.2c-2.7,0-4.9-2.2-4.9-4.9v-119c0-7.4,6-13.4,13.4-13.4h218.4c7.4,0,13.4,6,13.4,13.4V884.8z
			"/>
		<g>
			<linearGradient id="SVGID_9_" gradientUnits="userSpaceOnUse" x1="784.9137" y1="260.6146" x2="781.8308" y2="319.8052">
				<stop  offset="0" style="stop-color:#E1473D"/>
				<stop  offset="1" style="stop-color:#E9605A"/>
			</linearGradient>
			<polygon class="st12" points="783.1,409.1 773.8,409.1 759.2,366.2 799.8,363.7 			"/>
			<linearGradient id="SVGID_10_" gradientUnits="userSpaceOnUse" x1="759.5668" y1="437.7415" x2="774.3644" y2="320.5936">
				<stop  offset="0" style="stop-color:#FF928E"/>
				<stop  offset="1" style="stop-color:#FE7062"/>
			</linearGradient>
			<path class="st13" d="M734.5,286.4c0,3.6,0,74.6,36,86.1c36,11.5,52.3-48.5,51-91.3L734.5,286.4z"/>
			<linearGradient id="SVGID_11_" gradientUnits="userSpaceOnUse" x1="785.6022" y1="304.4072" x2="781.9028" y2="363.5974">
				<stop  offset="0" style="stop-color:#E1473D"/>
				<stop  offset="1" style="stop-color:#E9605A"/>
			</linearGradient>
			<rect x="749.6" y="415.6" class="st14" width="57.6" height="7"/>
			<linearGradient id="SVGID_12_" gradientUnits="userSpaceOnUse" x1="855.8904" y1="317.6654" x2="813.9637" y2="370.6903">
				<stop  offset="0" style="stop-color:#FF928E"/>
				<stop  offset="1" style="stop-color:#FE7062"/>
			</linearGradient>
			<polygon class="st15" points="807.2,415.6 749.6,415.6 764.2,407.8 792.7,407.8 			"/>
			<linearGradient id="SVGID_13_" gradientUnits="userSpaceOnUse" x1="768.5333" y1="312.7204" x2="792.5794" y2="244.8978">
				<stop  offset="0" style="stop-color:#FF928E"/>
				<stop  offset="1" style="stop-color:#FE7062"/>
			</linearGradient>
			<path class="st16" d="M730.3,276.3c-3.2,0.2-5.7,2.5-5.7,5.2v5.5c0,2.7,2.6,4.7,5.8,4.5l98.7-5.3c3.2-0.2,5.8-2.5,5.8-5.2v-6.2
				c0-2.7-2.6-4.7-5.7-4.5L730.3,276.3z"/>
			<linearGradient id="SVGID_14_" gradientUnits="userSpaceOnUse" x1="880.9617" y1="313.2247" x2="741.001" y2="402.0105">
				<stop  offset="0" style="stop-color:#FF928E"/>
				<stop  offset="1" style="stop-color:#FE7062"/>
			</linearGradient>
			<path class="st17" d="M796,378.1c-2.3,0-4.3-1.5-4.6-3.4c-0.3-2.1,1.5-4,4-4.3c0.5,0,33.6-3.5,36.8-21.7c0.5-3.1,0.5-7.1-2.8-8.7
				c-2.7-1.4-7.2-0.9-10.3,1c-1.8,1.1-3.8,3.1-2.9,6c0.6,2.1-0.9,4.2-3.4,4.7c-2.5,0.5-4.9-0.8-5.5-2.9c-1.5-5.4,0.9-10.6,6.5-14.1
				c6.2-3.8,14.6-4.4,20.5-1.4c3.4,1.7,8.9,6.2,7.2,16.5c-1.8,10.1-10.2,18.3-24.5,23.5c-10.2,3.8-19.9,4.7-20.3,4.8
				C796.3,378.1,796.2,378.1,796,378.1z"/>
			
				<linearGradient id="SVGID_15_" gradientUnits="userSpaceOnUse" x1="4316.3125" y1="1884.6982" x2="4176.3521" y2="1973.484" gradientTransform="matrix(-1 0 0 1 7470.1963 0)">
				<stop  offset="0" style="stop-color:#FF928E"/>
				<stop  offset="1" style="stop-color:#FE7062"/>
			</linearGradient>
			<path class="st18" d="M761.6,378.1c2.3,0,4.3-1.5,4.6-3.4c0.3-2.1-1.5-4-4-4.3c-0.5,0-33.6-3.5-36.8-21.7
				c-0.5-3.1-0.5-7.1,2.8-8.7c2.7-1.4,7.2-0.9,10.3,1c1.8,1.1,3.8,3.1,2.9,6c-0.6,2.1,0.9,4.2,3.4,4.7c2.5,0.5,4.9-0.8,5.5-2.9
				c1.5-5.4-0.9-10.6-6.5-14.1c-6.2-3.8-14.6-4.4-20.5-1.4c-3.4,1.7-8.9,6.2-7.2,16.5c1.8,10.1,10.2,18.3,24.5,23.5
				c10.2,3.8,19.9,4.7,20.3,4.8C761.3,378.1,761.4,378.1,761.6,378.1z"/>
			<path class="st19" d="M801.9,280.8c-0.4,0-0.7-0.3-0.7-0.7c0-0.4,0.3-0.8,0.7-0.8l8.8-0.5c0.4,0,0.8,0.3,0.8,0.7
				c0,0.4-0.3,0.8-0.7,0.8L801.9,280.8C802,280.8,801.9,280.8,801.9,280.8z"/>
			<path class="st19" d="M734.5,284.4c-0.4,0-0.7-0.3-0.7-0.7c0-0.4,0.3-0.8,0.7-0.8l52.7-2.8c0.4,0,0.8,0.3,0.8,0.7
				c0,0.4-0.3,0.8-0.7,0.8L734.5,284.4C734.5,284.4,734.5,284.4,734.5,284.4z"/>
			<path class="st19" d="M775.3,364.5C775.2,364.5,775.2,364.4,775.3,364.5c-9.6-1.1-17.3-8.9-22.8-23.1c-4.5-11.7-6.7-25.5-7.7-35
				c0-0.4,0.3-0.8,0.7-0.8c0.4,0,0.8,0.3,0.8,0.7c1.7,16.2,8,54.3,29,56.7c0.4,0,0.7,0.4,0.7,0.8C776,364.2,775.6,364.5,775.3,364.5
				z"/>
			<path class="st19" d="M744.9,299.7c-0.4,0-0.7-0.3-0.7-0.7c-0.1-2.2-0.2-3.4-0.2-3.5c0-0.4,0.3-0.8,0.7-0.8
				c0.4,0,0.8,0.3,0.8,0.7c0,0,0,1.3,0.2,3.4C745.7,299.3,745.4,299.6,744.9,299.7C745,299.7,745,299.7,744.9,299.7z"/>
		</g>
		<g>
			<linearGradient id="SVGID_16_" gradientUnits="userSpaceOnUse" x1="362.0235" y1="515.5606" x2="245.4741" y2="451.3259">
				<stop  offset="0" style="stop-color:#4F52FF"/>
				<stop  offset="1" style="stop-color:#4042E2"/>
			</linearGradient>
			<path class="st20" d="M342.8,477.1l-19.1,29.4c8.9,17.3,18.8,26.9,28.6,31.4c1.8-10.8,8.1-19.7,12.7-25.1
				C347.4,502.9,342.8,477.1,342.8,477.1z"/>
			<linearGradient id="SVGID_17_" gradientUnits="userSpaceOnUse" x1="422.7684" y1="502.299" x2="279.2339" y2="571.8313">
				<stop  offset="0" style="stop-color:#FEBBBA"/>
				<stop  offset="1" style="stop-color:#FF928E"/>
			</linearGradient>
			<path class="st21" d="M408.5,507.6c-19.6,11.6-33.5,10.9-43.4,5.3c-4.6,5.3-10.9,14.3-12.7,25.1c31.4,14.4,62.8-21.9,62.8-21.9
				L408.5,507.6z"/>
			<linearGradient id="SVGID_18_" gradientUnits="userSpaceOnUse" x1="423.453" y1="503.7122" x2="279.9185" y2="573.2446">
				<stop  offset="0" style="stop-color:#FEBBBA"/>
				<stop  offset="1" style="stop-color:#FF928E"/>
			</linearGradient>
			<path class="st22" d="M409.5,512.7c0,0-5.3-9.2,2.3-16.3c0,0,2.4-2.8,5.1,1.3c0,0,8.2-7.4,10.4-4.4c2.2,3,8.2,10.4,2.4,18.8
				C423.9,520.6,412.1,516.8,409.5,512.7z"/>
			<path class="st23" d="M417.6,507.5c-0.8,0-1.6-0.1-2.4-0.6c-0.7-0.4-1.6-1.3-1.9-3.1c-0.1-0.5,0.3-1,0.8-1.1
				c0.5-0.1,1,0.3,1.1,0.8c0.1,0.9,0.4,1.4,0.9,1.7c0.7,0.4,1.8,0.3,2.6,0.2l-1.9-5.9c-0.2-0.5,0.1-1,0.6-1.2c0.5-0.2,1,0.1,1.2,0.6
				l2.1,6.8c0.2,0.5-0.1,1-0.6,1.2C420.1,507.1,418.9,507.5,417.6,507.5z"/>
			<linearGradient id="SVGID_19_" gradientUnits="userSpaceOnUse" x1="129.372" y1="729.5851" x2="151.843" y2="729.5851">
				<stop  offset="0" style="stop-color:#09005D"/>
				<stop  offset="1" style="stop-color:#1A0F91"/>
			</linearGradient>
			<path class="st24" d="M131.6,705c-1.7,1-2.6,3.2-2.2,5.3c1.6,8.3,6.8,30.3,19.6,43.3c0.8,0.9,2.1,0.8,2.8,0
				c-3.2-3.4-7.2-9.1-11.9-18.9C132.8,719.7,131.4,710.5,131.6,705z"/>
			<linearGradient id="SVGID_20_" gradientUnits="userSpaceOnUse" x1="131.6158" y1="728.1724" x2="155.528" y2="728.1724">
				<stop  offset="0" style="stop-color:#09005D"/>
				<stop  offset="1" style="stop-color:#1A0F91"/>
			</linearGradient>
			<path class="st25" d="M148.1,704.7c0,0-8.2-4.5-16.4,0.3c0,0,0,0-0.1,0c-0.2,5.5,1.1,14.7,8.3,29.7c4.7,9.8,8.7,15.5,11.9,18.9
				c0.2-0.2,0.4-0.6,0.5-0.9C154.8,744.3,159.8,721.2,148.1,704.7z"/>
			<linearGradient id="SVGID_21_" gradientUnits="userSpaceOnUse" x1="143.5535" y1="703.9932" x2="161.1376" y2="703.9932">
				<stop  offset="0" style="stop-color:#FEBBBA"/>
				<stop  offset="1" style="stop-color:#FF928E"/>
			</linearGradient>
			<path class="st26" d="M159.9,705.2l-7.4,7.1c-1.3,1.3-3.3,1.5-4.9,0.5c-1.3-0.9-2.8-2.3-3.8-4.7c-0.6-1.4-0.3-3,0.7-4.2l7.4-8.2
				c1.8-1.9,4.9-1.6,6.3,0.6l2.3,3.9C161.5,702,161.2,704,159.9,705.2z"/>
			<linearGradient id="SVGID_22_" gradientUnits="userSpaceOnUse" x1="400.3883" y1="648.9045" x2="434.0739" y2="648.9045">
				<stop  offset="0" style="stop-color:#09005D"/>
				<stop  offset="1" style="stop-color:#1A0F91"/>
			</linearGradient>
			<path class="st27" d="M400.4,669.4c1.7,1,4,0.7,5.7-0.7c6.4-5.5,22.9-20.9,27.9-38.4c0.3-1.2-0.3-2.2-1.4-2.4
				c-1.3,4.5-4.3,10.8-10.5,19.7C412.6,661.1,405.2,666.9,400.4,669.4z"/>
			<linearGradient id="SVGID_23_" gradientUnits="userSpaceOnUse" x1="391.9924" y1="648.5897" x2="432.6106" y2="648.5897">
				<stop  offset="0" style="stop-color:#09005D"/>
				<stop  offset="1" style="stop-color:#1A0F91"/>
			</linearGradient>
			<path class="st28" d="M392,655.3c0,0,0.2,9.3,8.3,14.1c0,0,0,0,0.1,0c4.9-2.5,12.2-8.3,21.7-21.9c6.2-8.9,9.2-15.2,10.5-19.7
				c-0.3-0.1-0.7-0.1-1.1,0C423.1,629.9,400.6,636.9,392,655.3z"/>
			<linearGradient id="SVGID_24_" gradientUnits="userSpaceOnUse" x1="381.2244" y1="647.4133" x2="400.5435" y2="647.4133">
				<stop  offset="0" style="stop-color:#FEBBBA"/>
				<stop  offset="1" style="stop-color:#FF928E"/>
			</linearGradient>
			<path class="st29" d="M391.4,639.8l7.8,6.8c1.4,1.2,1.8,3.2,0.9,4.8c-0.8,1.4-2.1,3-4.3,4.2c-1.3,0.7-3,0.6-4.2-0.3l-8.8-6.7
				c-2.1-1.6-2.1-4.8,0.1-6.3l3.7-2.7C388,638.5,390,638.6,391.4,639.8z"/>
			<linearGradient id="SVGID_25_" gradientUnits="userSpaceOnUse" x1="149.2494" y1="639.6691" x2="279.4077" y2="639.6691">
				<stop  offset="0" style="stop-color:#09005D"/>
				<stop  offset="1" style="stop-color:#1A0F91"/>
			</linearGradient>
			<path class="st30" d="M235.4,571.3c0,0-15.2,51.7-25,74.4c0,0-17.1,2.6-27.8,8.8c-10.6,6.2-33.5,40.6-33.5,40.6s6,11.3,13.2,13.1
				l65.1-45.1l51.9-60.4l-2.5-28L235.4,571.3z"/>
			<linearGradient id="SVGID_26_" gradientUnits="userSpaceOnUse" x1="231.9413" y1="608.6795" x2="391.9924" y2="608.6795">
				<stop  offset="0" style="stop-color:#09005D"/>
				<stop  offset="1" style="stop-color:#1A0F91"/>
			</linearGradient>
			<path class="st31" d="M236.4,567l-4.4,14.2c0,0,4.1,37.1,50.8,30.8c46.8-6.3,52.7-13.9,52.7-13.9s-4.1,23.7,47.1,52.2
				c0,0,7.8-5.9,9.5-12.5l-35.8-59.1c-5-7.7-9.6-9.8-18.7-8.4c-20.1,3.1-57.8,7.3-63.5,6.3L236.4,567z"/>
			<linearGradient id="SVGID_27_" gradientUnits="userSpaceOnUse" x1="286.6503" y1="482.7894" x2="180.6959" y2="651.6539">
				<stop  offset="0" style="stop-color:#4F52FF"/>
				<stop  offset="1" style="stop-color:#4042E2"/>
			</linearGradient>
			<path class="st32" d="M272.9,461.8c-13.6,0.7-35.2,7.2-49.1,20c4.3,4.7,10.9,12.4,15.8,20c4.4-4.1,10.7-7.5,19.5-9.7
				c-7.7,28.6-16.7,55.9-27.8,81.3c-0.7,1.6,0.1,3.4,1.7,4c8.5,3,33.7,10.1,53.9-1.4l44.8-64.1c4.8-6.9,8-14.8,9.3-23.1l1.8-11.6
				C342.8,477.1,302.6,460.3,272.9,461.8z"/>
			<linearGradient id="SVGID_28_" gradientUnits="userSpaceOnUse" x1="244.6386" y1="549.235" x2="159.2132" y2="398.2505">
				<stop  offset="0" style="stop-color:#FEBBBA"/>
				<stop  offset="1" style="stop-color:#FF928E"/>
			</linearGradient>
			<path class="st33" d="M248.5,558.8c-1.9-4.3-8.6-8.3-11.8-10c-2.8-5.7-13.8-31.4,2.9-47c-4.9-7.6-11.5-15.3-15.8-20
				c-16.1,14.8-21.9,38,6.2,70.5c-1.5,8,3.5,17.3,6.2,18.6C237.5,571.6,251.1,564.6,248.5,558.8z"/>
			<linearGradient id="SVGID_29_" gradientUnits="userSpaceOnUse" x1="298.6407" y1="484.6198" x2="307.5805" y2="459.1246">
				<stop  offset="0" style="stop-color:#FEBBBA"/>
				<stop  offset="1" style="stop-color:#FF928E"/>
			</linearGradient>
			<path class="st34" d="M303.2,444.8l-11.7,22.9c-0.7,1.4-0.5,3.1,0.5,4.3c2.8,3.2,9.5,8.3,21.2,4.6c1.3-0.4,2.2-1.5,2.4-2.9
				l3-20.8L303.2,444.8z"/>
			<g>
				<linearGradient id="SVGID_30_" gradientUnits="userSpaceOnUse" x1="324.1016" y1="432.0588" x2="284.8732" y2="462.0745">
					<stop  offset="0" style="stop-color:#FEBBBA"/>
					<stop  offset="1" style="stop-color:#FF928E"/>
				</linearGradient>
				<path class="st35" d="M322.7,418.2c0,0,6.9,15.8,7.3,24c0.5,8.3,2.2,13.6-7.3,15.3c-9.6,1.7-17.6-3.1-22-11.3
					c0,0-6.8-12.7-5.3-17.9C296.9,423.1,322.7,418.2,322.7,418.2z"/>
				<linearGradient id="SVGID_31_" gradientUnits="userSpaceOnUse" x1="296.4865" y1="408.293" x2="333.0215" y2="455.3317">
					<stop  offset="0" style="stop-color:#09005D"/>
					<stop  offset="1" style="stop-color:#1A0F91"/>
				</linearGradient>
				<path class="st36" d="M303.9,440.3l0.5-0.2c0.7-0.3,1-1.1,0.6-1.8c-1.3-2.6-4-8.6-0.6-10c4.4-1.8,21.7-5.3,25.5-11.5
					c3.6-5.9,0.4-13.5-4.4-15.7c-0.3-0.1-0.7,0-0.9,0.3l-0.4,0.8c-0.3,0.5-1,0.4-1.2-0.1l0,0c-0.2-0.5-0.9-0.6-1.2-0.2
					c-1.2,1.8-4.3,4.8-12.6,6.4c-11.8,2.2-19.6,7-19.8,15.1c0,0.5-0.6,0.8-1,0.5c-0.9-0.5-2.3-0.8-4.1,0.8
					c-3.2,2.7-1.9,9.8,5.2,15.6c0.3,0.3,0.3,0.8,0,1c-1.3,0.8-3.2,2.8,1.8,5.5c5.1,2.8,9,2.5,10.5,2.3c0.4-0.1,0.6-0.4,0.5-0.8
					l-1.6-7.2c-0.1-0.4,0.2-0.8,0.6-0.8H303.9z"/>
				<linearGradient id="SVGID_32_" gradientUnits="userSpaceOnUse" x1="319.2358" y1="425.6994" x2="280.0073" y2="455.7153">
					<stop  offset="0" style="stop-color:#FEBBBA"/>
					<stop  offset="1" style="stop-color:#FF928E"/>
				</linearGradient>
				<path class="st37" d="M304.2,441.8c0,0-2.6-10.1-7.1-7.2c-4.5,2.8,2.3,11.3,6,11.7L304.2,441.8z"/>
			</g>
		</g>
	</g>
</g>
</svg>
