<?xml version="1.0" encoding="utf-8"?>
<!-- Generator: Adobe Illustrator 25.2.1, SVG Export Plug-In . SVG Version: 6.00 Build 0)  -->
<svg version="1.1" xmlns="http://www.w3.org/2000/svg" xmlns:xlink="http://www.w3.org/1999/xlink" x="0px" y="0px"
	 viewBox="0 0 1000 1000" style="enable-background:new 0 0 1000 1000;" xml:space="preserve">
<style type="text/css">
	.st0{fill:#E3E5E8;}
	.st1{fill:#D4D5D6;}
	.st2{fill:#C6C6C6;}
	.st3{fill:#2543B1;}
	.st4{fill:#0070D4;}
	.st5{fill:#1E93D9;}
	.st6{opacity:0.5;fill:#1E93D9;}
	.st7{opacity:0.5;}
	.st8{fill:#FCBB8C;}
	.st9{fill:#FB927E;}
	.st10{fill:#3C3C48;}
	.st11{fill:#445279;}
	.st12{fill:#FFFFFF;}
	.st13{fill:#E6765D;}
	.st14{fill:#1A100E;}
	.st15{opacity:0.15;}
</style>
<g id="Background">
</g>
<g id="Illustration">
	<g>
		<g>
			<ellipse class="st0" cx="515.5" cy="812.6" rx="402.5" ry="25.5"/>
		</g>
		<g>
			<g>
				<path class="st1" d="M506.6,803.3c24.4-31.4,84.4-117,51.1-159c-12.7-16-41.1-9.7-46.2,52.6c-3.6,43.7-19.9,87.6-27.6,106.4
					H506.6z"/>
				<g>
					<path class="st2" d="M495.1,803.3c15.8-26.8,26.7-55.2,33.6-76c9.2-28.1,13.1-49,13.2-49.2c0.1-0.7-0.4-1.5-1.1-1.6
						c-0.7-0.1-1.5,0.4-1.6,1.1c0,0.2-3.9,21-13.1,48.9c-6.9,21.1-18,49.8-34.1,76.8H495.1z"/>
				</g>
			</g>
			<g>
				<path class="st0" d="M667.6,623.1c-9.6-28-51.3-33.1-88.5,49.5c-25.6,56.9-68,108.1-88.1,130.6h48.2
					C594.6,765.3,690,688.6,667.6,623.1z"/>
				<g>
					<g>
						<path class="st1" d="M629,658.9c-1-0.6-2.2-0.2-2.7,0.7c-0.2,0.3-15.5,26.7-41.5,60.3c-18.5,23.9-45.4,55.4-77.8,83.3h6.1
							c31.1-27.3,57-57.6,74.9-80.9c26.2-33.9,41.6-60.5,41.8-60.7C630.2,660.7,629.9,659.5,629,658.9z"/>
					</g>
				</g>
			</g>
			<g>
				<path class="st1" d="M190.6,788.3c-0.2,5.8,1.1,11.4,3.2,16.3h53.5c13.7-12.4,17.6-32.8,8.6-49.4c-4-7.4-10.1-13.2-19.4-14.3
					c-29-3.4-8.6-25.4-19.3-42.9c-12.3-20.2-33.5-12.4-41.1-28.3c-10.4-22.2-41.1-33.8-44.2-7c-3.1,26.8,21,36.2,12.2,55.3
					c-8.8,19.1-2.9,38.9,15.3,42.5C177.7,764.2,191.3,765.8,190.6,788.3z"/>
				<g>
					<path class="st2" d="M239.7,804.6L161.9,684c-0.6-1-1.9-1.3-2.9-0.6c-1,0.6-1.3,1.9-0.6,2.9l76.4,118.4H239.7z"/>
				</g>
			</g>
			<g>
				<path class="st0" d="M203.2,717.8c18.4,13.7,32.7,22.8,20,47.5c-6.7,13-6.5,28.3-1.5,39.3h73.5c12.1-9.8,19.5-24.9,18.6-41.4
					c-0.6-10.4-4.3-20.1-14.1-26.3c-30.6-19.3,3.9-33,1.3-58.2c-2.9-29.1-30.9-31.7-30.8-53.5c0.2-30.3-27.9-59.6-45.7-31.4
					c-17.8,28.3,4.1,51.6-15.9,68.3C188.9,678.8,184.8,704.1,203.2,717.8z"/>
				<g>
					<path class="st1" d="M263.5,804.6h5.2l-21.9-171.2c-0.2-1.4-1.5-2.4-2.9-2.2c-1.4,0.2-2.4,1.5-2.2,2.9L263.5,804.6z"/>
				</g>
			</g>
			<g>
				<g>
					<path class="st1" d="M398.8,795.2c-47-115-61.6-196.4-42-236.2c0.8-1.6,0.1-3.5-1.5-4.3c-1.6-0.8-3.5-0.1-4.3,1.5
						c-11.8,23.9-12.1,61.2-1.1,111c8.1,36.3,22.1,79.3,41.9,128H398.8z"/>
				</g>
				<path class="st0" d="M343.8,622.1c0,0-25.3,8.5-38.5-36.7C305.3,585.4,347.8,583.4,343.8,622.1z"/>
				<path class="st0" d="M349.4,645.7c0,0-9.9-24.8,34.5-40.5C383.9,605.2,388.2,647.5,349.4,645.7z"/>
				<path class="st0" d="M347.7,576.7c0,0-17.6-20.1,19-49.7C366.7,527,384.9,565.5,347.7,576.7z"/>
				<path class="st0" d="M359.2,693.6c0,0-21,16.6-48.7-21.5C310.5,672.1,349.8,655.9,359.2,693.6z"/>
				<path class="st0" d="M368.5,716.8c0,0-14-22.7,26.9-45.9C395.5,670.9,407.1,711.8,368.5,716.8z"/>
				<path class="st0" d="M378.2,749.8c0,0-20.7,17-49.1-20.5C329.1,729.3,368.1,712.3,378.2,749.8z"/>
			</g>
			<g>
				<g>
					<path class="st1" d="M661.2,800.1c76.6-97.8,112.8-172.2,104.9-215.8c-0.3-1.7,0.8-3.4,2.6-3.7c1.7-0.3,3.4,0.8,3.7,2.6
						c4.8,26.2-5,62.2-29.2,107.1c-17.7,32.7-42.9,70.2-75.3,111.7L661.2,800.1z"/>
				</g>
				<path class="st0" d="M761.4,648.5c0,0,22.1,15.1,47.1-24.7C808.4,623.8,768.1,610.3,761.4,648.5z"/>
				<path class="st0" d="M749.5,669.7c0,0,16.3-21.2-22.1-48.4C727.4,621.4,711.7,660.9,749.5,669.7z"/>
				<path class="st0" d="M770,603.8c0,0,22.4-14.5-4.7-53C765.3,550.8,737.3,582.8,770,603.8z"/>
				<path class="st0" d="M727,713.1c0,0,15.7,21.7,52.7-7.4C779.7,705.8,746.3,679.4,727,713.1z"/>
				<path class="st0" d="M711.7,732.9c0,0,19.7-18.1-13.4-51.5C698.3,681.4,676,717.6,711.7,732.9z"/>
				<path class="st0" d="M693.4,762c0,0,15.2,22,52.8-6.4C746.2,755.7,713.4,728.7,693.4,762z"/>
			</g>
		</g>
		<g>
			<g>
				<g>
					<g>
						<g>
							<path class="st3" d="M866.8,459.3c4.5,0,8.2,3.7,8.2,8.2s-3.7,8.2-8.2,8.2c-4.5,0-8.2-3.7-8.2-8.2S862.3,459.3,866.8,459.3z
								 M866.8,473.1c3.1,0,5.6-2.5,5.6-5.6c0-3.1-2.5-5.6-5.6-5.6c-3.1,0-5.6,2.5-5.6,5.6C861.2,470.6,863.7,473.1,866.8,473.1z"/>
						</g>
						<g>
							<g>
								<g>
									<g>
										<path class="st4" d="M833.4,448.3c4.5,0,8.2,3.7,8.2,8.2c0,4.5-3.7,8.2-8.2,8.2c-4.5,0-8.2-3.7-8.2-8.2
											C825.2,452,828.9,448.3,833.4,448.3z M833.4,462.1c3.1,0,5.6-2.5,5.6-5.6c0-3.1-2.5-5.6-5.6-5.6c-3.1,0-5.6,2.5-5.6,5.6
											C827.8,459.6,830.3,462.1,833.4,462.1z"/>
									</g>
								</g>
							</g>
						</g>
						<g>
							<g>
								<g>
									<path class="st5" d="M824.2,421.4c0.7,0,1.3,0.6,1.3,1.3v5.7c0,0.7-0.6,1.3-1.3,1.3c-0.7,0-1.3-0.6-1.3-1.3v-5.7
										C822.9,422,823.5,421.4,824.2,421.4z"/>
								</g>
								<g>
									<path class="st5" d="M824.2,411.5c0.7,0,1.3,0.6,1.3,1.3v5.7c0,0.7-0.6,1.3-1.3,1.3c-0.7,0-1.3-0.6-1.3-1.3v-5.7
										C822.9,412.1,823.5,411.5,824.2,411.5z"/>
								</g>
							</g>
							<g>
								<g>
									<path class="st5" d="M816.3,419.3h5.1c0.7,0,1.3,0.6,1.3,1.3c0,0.7-0.6,1.3-1.3,1.3h-5.1c-0.7,0-1.3-0.6-1.3-1.3
										C815,419.8,815.5,419.3,816.3,419.3z"/>
								</g>
								<g>
									<g>
										<g>
											<path class="st5" d="M827,419.3h5.1c0.7,0,1.3,0.6,1.3,1.3c0,0.7-0.6,1.3-1.3,1.3H827c-0.7,0-1.3-0.6-1.3-1.3
												C825.8,419.8,826.3,419.3,827,419.3z"/>
										</g>
									</g>
								</g>
							</g>
						</g>
						<g>
							<g>
								<g>
									<g>
										<g>
											<path class="st4" d="M858.8,430.4c0.7,0,1.3,0.6,1.3,1.3v5.7c0,0.7-0.6,1.3-1.3,1.3c-0.7,0-1.3-0.6-1.3-1.3v-5.7
												C857.5,431,858.1,430.4,858.8,430.4z"/>
										</g>
									</g>
									<g>
										<g>
											<path class="st4" d="M858.8,420.5c0.7,0,1.3,0.6,1.3,1.3v5.7c0,0.7-0.6,1.3-1.3,1.3c-0.7,0-1.3-0.6-1.3-1.3v-5.7
												C857.5,421.1,858.1,420.5,858.8,420.5z"/>
										</g>
									</g>
								</g>
								<g>
									<g>
										<g>
											<path class="st4" d="M850.9,428.3h5.1c0.7,0,1.3,0.6,1.3,1.3c0,0.7-0.6,1.3-1.3,1.3h-5.1c-0.7,0-1.3-0.6-1.3-1.3
												C849.6,428.9,850.2,428.3,850.9,428.3z"/>
										</g>
									</g>
									<g>
										<g>
											<path class="st4" d="M861.7,428.3h5.1c0.7,0,1.3,0.6,1.3,1.3c0,0.7-0.6,1.3-1.3,1.3h-5.1c-0.7,0-1.3-0.6-1.3-1.3
												C860.4,428.9,861,428.3,861.7,428.3z"/>
										</g>
									</g>
								</g>
							</g>
						</g>
					</g>
				</g>
			</g>
			<g>
				<g>
					<g>
						<g>
							<path class="st3" d="M167.6,489c0,4.5-3.7,8.2-8.2,8.2s-8.2-3.7-8.2-8.2c0-4.5,3.7-8.2,8.2-8.2S167.6,484.5,167.6,489z
								 M165,489c0-3.1-2.5-5.6-5.6-5.6c-3.1,0-5.6,2.5-5.6,5.6c0,3.1,2.5,5.6,5.6,5.6C162.5,494.6,165,492.1,165,489z"/>
						</g>
						<g>
							<g>
								<g>
									<g>
										<path class="st4" d="M201,478c0,4.5-3.7,8.2-8.2,8.2c-4.5,0-8.2-3.7-8.2-8.2c0-4.5,3.7-8.2,8.2-8.2
											C197.3,469.8,201,473.5,201,478z M198.4,478c0-3.1-2.5-5.6-5.6-5.6c-3.1,0-5.6,2.5-5.6,5.6c0,3.1,2.5,5.6,5.6,5.6
											C195.9,483.6,198.4,481.1,198.4,478z"/>
									</g>
								</g>
							</g>
						</g>
						<g>
							<g>
								<g>
									<path class="st5" d="M202,442.9c-0.7,0-1.3,0.6-1.3,1.3v5.7c0,0.7,0.6,1.3,1.3,1.3c0.7,0,1.3-0.6,1.3-1.3v-5.7
										C203.3,443.5,202.7,442.9,202,442.9z"/>
								</g>
								<g>
									<path class="st5" d="M202,433c-0.7,0-1.3,0.6-1.3,1.3v5.7c0,0.7,0.6,1.3,1.3,1.3c0.7,0,1.3-0.6,1.3-1.3v-5.7
										C203.3,433.6,202.7,433,202,433z"/>
								</g>
							</g>
							<g>
								<g>
									<path class="st5" d="M209.9,440.8h-5.1c-0.7,0-1.3,0.6-1.3,1.3c0,0.7,0.6,1.3,1.3,1.3h5.1c0.7,0,1.3-0.6,1.3-1.3
										C211.2,441.4,210.6,440.8,209.9,440.8z"/>
								</g>
								<g>
									<g>
										<g>
											<path class="st5" d="M199.1,440.8h-5.1c-0.7,0-1.3,0.6-1.3,1.3c0,0.7,0.6,1.3,1.3,1.3h5.1c0.7,0,1.3-0.6,1.3-1.3
												C200.4,441.4,199.9,440.8,199.1,440.8z"/>
										</g>
									</g>
								</g>
							</g>
						</g>
						<g>
							<g>
								<g>
									<g>
										<g>
											<path class="st4" d="M167.4,452c-0.7,0-1.3,0.6-1.3,1.3v5.7c0,0.7,0.6,1.3,1.3,1.3c0.7,0,1.3-0.6,1.3-1.3v-5.7
												C168.6,452.6,168.1,452,167.4,452z"/>
										</g>
									</g>
									<g>
										<g>
											<path class="st4" d="M167.4,442.1c-0.7,0-1.3,0.6-1.3,1.3v5.7c0,0.7,0.6,1.3,1.3,1.3c0.7,0,1.3-0.6,1.3-1.3v-5.7
												C168.6,442.7,168.1,442.1,167.4,442.1z"/>
										</g>
									</g>
								</g>
								<g>
									<g>
										<g>
											<path class="st4" d="M175.3,449.9h-5.1c-0.7,0-1.3,0.6-1.3,1.3c0,0.7,0.6,1.3,1.3,1.3h5.1c0.7,0,1.3-0.6,1.3-1.3
												C176.6,450.4,176,449.9,175.3,449.9z"/>
										</g>
									</g>
									<g>
										<g>
											<path class="st4" d="M164.5,449.9h-5.1c-0.7,0-1.3,0.6-1.3,1.3c0,0.7,0.6,1.3,1.3,1.3h5.1c0.7,0,1.3-0.6,1.3-1.3
												C165.8,450.4,165.2,449.9,164.5,449.9z"/>
										</g>
									</g>
								</g>
							</g>
						</g>
					</g>
				</g>
			</g>
			<g>
				<g>
					<g>
						<path class="st5" d="M565.5,453.4v25c0,3.3,2.7,6,6,6h45.4l13.7,4.9c1.4,0.5,2.8-0.9,2.2-2.3l-5.2-13.4v-20.3c0-3.3-2.7-6-6-6
							h-50.2C568.2,447.5,565.5,450.1,565.5,453.4z"/>
					</g>
				</g>
				<g>
					<path class="st6" d="M605,466.7c0,2.4,1.9,4.3,4.3,4.3c2.4,0,4.3-1.9,4.3-4.3c0-2.4-1.9-4.3-4.3-4.3
						C606.9,462.3,605,464.3,605,466.7z"/>
					<path class="st6" d="M591.2,466.7c0,2.4,1.9,4.3,4.3,4.3c2.4,0,4.3-1.9,4.3-4.3c0-2.4-1.9-4.3-4.3-4.3
						C593.2,462.3,591.2,464.3,591.2,466.7z"/>
					<path class="st6" d="M577.5,466.7c0,2.4,1.9,4.3,4.3,4.3c2.4,0,4.3-1.9,4.3-4.3c0-2.4-1.9-4.3-4.3-4.3
						C579.5,462.3,577.5,464.3,577.5,466.7z"/>
				</g>
			</g>
		</g>
		<g>
			<g>
				<path class="st0" d="M903.6,580.2l-8.1-7.8l-7.3,7.6c-2.3-1.5-4.8-2.5-7.5-3.2l-0.2-10.3l-11.2,0.3l0.2,9.8
					c-3.4,0.7-6.5,2.1-9.3,4l-7.6-7.3l-7.8,8.1l7.9,7.5c-1.1,2-2,4.1-2.5,6.4l-10.3,0.2l0.3,11.2l9.8-0.2c0.7,3.4,2.1,6.5,4,9.3
					l-6.4,6.7l8.1,7.8l6.6-6.9c2.5,1.4,5.3,2.4,8.2,2.9l0.2,9.8L882,636l-0.2-10.3c3.1-0.9,6-2.4,8.5-4.4l7.7,7.3l7.8-8.1l-8.3-7.9
					c1.1-2.2,1.9-4.6,2.3-7l9.8-0.2l-0.3-11.2l-10.3,0.2c-0.7-2.2-1.6-4.3-2.8-6.2L903.6,580.2z M885,601.2
					c0.1,5.7-4.4,10.4-10.1,10.5c-5.7,0.1-10.4-4.4-10.5-10.1c-0.1-5.7,4.4-10.4,10.1-10.5C880.1,591,884.8,595.5,885,601.2z"/>
				<path class="st0" d="M881.3,530.4l-4.4-4.2l-4,4.2c-1.3-0.8-2.6-1.4-4.1-1.7l-0.1-5.6l-6.1,0.1l0.1,5.4
					c-1.9,0.4-3.6,1.1-5.1,2.2l-4.2-4l-4.2,4.4l4.3,4.1c-0.6,1.1-1.1,2.2-1.4,3.5l-5.6,0.1l0.1,6.1l5.4-0.1c0.4,1.9,1.1,3.6,2.2,5.1
					l-3.5,3.6l4.4,4.2l3.6-3.8c1.4,0.8,2.9,1.3,4.5,1.6l0.1,5.4l6.1-0.1l-0.1-5.6c1.7-0.5,3.3-1.3,4.6-2.4l4.2,4l4.2-4.4l-4.5-4.3
					c0.6-1.2,1-2.5,1.2-3.8l5.4-0.1l-0.1-6.1l-5.6,0.1c-0.4-1.2-0.9-2.4-1.5-3.4L881.3,530.4z M871.1,541.9c0.1,3.1-2.4,5.7-5.5,5.8
					c-3.1,0.1-5.7-2.4-5.8-5.5c-0.1-3.1,2.4-5.7,5.5-5.8C868.4,536.3,871,538.8,871.1,541.9z"/>
			</g>
			<g>
				<path class="st0" d="M217.5,347.2c1.9-1.3,3.5-2.9,5-4.7l9.4,4.2l4.6-10.3l-9-4c0.6-2.5,0.8-4.9,0.6-7.4l10.7-4.1l-4-10.5
					l-9.9,3.8c-1.5-2.8-3.6-5.2-6.1-7.3l4.2-9.4l-10.3-4.6l-4,9c-2.9-0.7-5.9-0.8-8.7-0.5l-3.4-8.9l-10.5,4l3.3,8.6
					c-2.8,1.8-5.3,4.1-7.3,7l-9-4l-4.6,10.3l9.4,4.2c-0.4,2.3-0.4,4.6-0.1,6.8l-10.1,3.9l4,10.5l9.8-3.8c1.8,2.8,4.1,5.3,7,7.3l-4,9
					l10.3,4.6l4.2-9.4c2.8,0.4,5.5,0.4,8.2,0l3.8,9.8l10.5-4L217.5,347.2z M198.7,336c-5.2-2.3-7.5-8.4-5.2-13.6
					c2.3-5.2,8.4-7.5,13.6-5.2c5.2,2.3,7.5,8.4,5.2,13.6C210,336,203.9,338.3,198.7,336z"/>
				<path class="st0" d="M253.8,293.6c1-0.7,1.9-1.6,2.7-2.6l5.1,2.3l2.5-5.6l-4.9-2.2c0.3-1.3,0.4-2.7,0.3-4l5.9-2.3l-2.2-5.7
					l-5.4,2.1c-0.8-1.5-2-2.9-3.3-4l2.3-5.1l-5.6-2.5l-2.2,4.9c-1.6-0.4-3.2-0.5-4.8-0.3l-1.9-4.9l-5.7,2.2l1.8,4.7
					c-1.5,1-2.9,2.3-4,3.8l-4.9-2.2l-2.5,5.6l5.1,2.3c-0.2,1.3-0.2,2.5-0.1,3.7l-5.5,2.1l2.2,5.7l5.4-2.1c1,1.5,2.3,2.9,3.8,4
					l-2.2,4.9l5.6,2.5l2.3-5.1c1.5,0.2,3,0.2,4.5,0l2.1,5.4l5.7-2.2L253.8,293.6z M243.5,287.5c-2.8-1.3-4.1-4.6-2.9-7.4
					c1.3-2.8,4.6-4.1,7.4-2.9c2.8,1.3,4.1,4.6,2.9,7.4C249.6,287.5,246.3,288.8,243.5,287.5z"/>
			</g>
			<path class="st0" d="M628.5,276.4c0,2.7-1.1,5.1-2.9,6.8c-1.7,1.8-4.2,2.9-6.8,2.9H411.6c-5.3,0-9.7-4.4-9.7-9.7
				c0-2.7,1.1-5.1,2.9-6.8c1.7-1.8,4.2-2.9,6.8-2.9h9.8c3.9-9,12.8-15.3,23.2-15.3c7,0,13.3,2.9,17.9,7.4
				c6.1-10.4,17.4-17.3,30.2-17.3c3.5,0,7,0.5,10.2,1.5c6.7-12.7,20.1-21.3,35.4-21.3c18.4,0,34,12.5,38.6,29.4
				c3.4-1.7,7.2-2.7,11.3-2.7c11.5,0,21.2,7.7,24.3,18.2h6.2C624.1,266.8,628.5,271.1,628.5,276.4z"/>
			<path class="st0" d="M867.9,216.8c0,2.2-0.9,4.1-2.3,5.5c-1.4,1.4-3.4,2.3-5.5,2.3h-168c-4.3,0-7.8-3.5-7.8-7.9
				c0-2.2,0.9-4.1,2.3-5.5c1.4-1.4,3.4-2.3,5.5-2.3h7.9c3.1-7.3,10.4-12.4,18.8-12.4c5.7,0,10.8,2.3,14.5,6c4.9-8.4,14.1-14,24.5-14
				c2.9,0,5.6,0.4,8.2,1.2c5.5-10.3,16.3-17.3,28.7-17.3c15,0,27.5,10.1,31.3,23.8c2.8-1.4,5.9-2.2,9.2-2.2
				c9.3,0,17.2,6.2,19.7,14.8h5.1C864.4,208.9,867.9,212.4,867.9,216.8z"/>
			<path class="st0" d="M325.5,205.3c0,2.2-0.9,4.1-2.3,5.5c-1.4,1.4-3.4,2.3-5.5,2.3h-168c-4.3,0-7.8-3.5-7.8-7.9
				c0-2.2,0.9-4.1,2.3-5.5c1.4-1.4,3.4-2.3,5.5-2.3h7.9c3.1-7.3,10.4-12.4,18.8-12.4c5.7,0,10.8,2.3,14.5,6c4.9-8.4,14.1-14,24.5-14
				c2.9,0,5.6,0.4,8.2,1.2c5.5-10.3,16.3-17.3,28.7-17.3c15,0,27.5,10.1,31.3,23.8c2.8-1.4,5.9-2.2,9.2-2.2
				c9.3,0,17.2,6.2,19.7,14.8h5.1C321.9,197.4,325.5,201,325.5,205.3z"/>
			<g>
				<path class="st1" d="M754.1,437.8c0.4,0.5,1,0.8,1.6,0.8c0.4,0,0.9-0.1,1.2-0.4c0.9-0.7,1.1-2,0.4-2.9c-2-2.7-4.1-5.3-6.2-7.9
					c-0.7-0.9-2-1-2.9-0.3c-0.9,0.7-1,2-0.3,2.9C750,432.5,752.1,435.2,754.1,437.8z"/>
				<path class="st1" d="M714.5,395.1c0.4,0.3,0.9,0.5,1.4,0.5c0.6,0,1.1-0.2,1.5-0.7c0.8-0.8,0.7-2.1-0.2-2.9
					c-2.5-2.2-5.1-4.4-7.6-6.6c-0.9-0.7-2.2-0.6-2.9,0.3c-0.7,0.9-0.6,2.2,0.3,2.9C709.5,390.7,712.1,392.9,714.5,395.1z"/>
				<path class="st1" d="M258,809.1c0.9-0.7,1.1-1.9,0.5-2.9c-1.9-2.7-3.8-5.4-5.7-8.1c-0.6-0.9-1.9-1.2-2.8-0.5
					c-0.9,0.6-1.2,1.9-0.6,2.8c1.9,2.8,3.8,5.5,5.8,8.2c0.2,0.3,0.4,0.4,0.7,0.6h2C257.9,809.2,257.9,809.2,258,809.1z"/>
				<path class="st1" d="M728.6,408.5c0.4,0.4,0.9,0.6,1.5,0.6c0.5,0,1-0.2,1.4-0.6c0.8-0.8,0.8-2.1,0-2.9c-2.3-2.4-4.8-4.7-7.2-7.1
					c-0.8-0.8-2.1-0.7-2.9,0.1c-0.8,0.8-0.7,2.1,0.1,2.9C723.9,403.8,726.3,406.2,728.6,408.5z"/>
				<path class="st1" d="M775.7,470c0.4,0.7,1.1,1,1.8,1c0.4,0,0.7-0.1,1-0.3c1-0.6,1.3-1.8,0.7-2.8c-1.7-2.9-3.4-5.8-5.2-8.6
					c-0.6-1-1.9-1.2-2.8-0.6c-1,0.6-1.2,1.9-0.6,2.8C772.3,464.3,774,467.1,775.7,470z"/>
				<path class="st1" d="M764.5,802.4c0.4,0.2,0.8,0.4,1.2,0.4c0.7,0,1.3-0.3,1.7-0.9c1.9-2.8,3.8-5.6,5.6-8.4
					c0.6-1,0.3-2.2-0.6-2.8c-1-0.6-2.2-0.3-2.8,0.6c-1.8,2.8-3.6,5.6-5.5,8.3C763.3,800.5,763.6,801.7,764.5,802.4z"/>
				<path class="st1" d="M762,809.2c0.3-0.8,0.1-1.8-0.7-2.4c-0.9-0.7-2.2-0.5-2.9,0.4c-0.5,0.7-1,1.3-1.4,2H762z"/>
				<path class="st1" d="M765.4,453.5c0.4,0.6,1,0.9,1.7,0.9c0.4,0,0.8-0.1,1.1-0.3c0.9-0.6,1.2-1.9,0.6-2.8
					c-1.9-2.8-3.8-5.5-5.7-8.3c-0.7-0.9-1.9-1.1-2.9-0.5c-0.9,0.7-1.1,1.9-0.5,2.9C761.7,448.1,763.6,450.8,765.4,453.5z"/>
				<path class="st1" d="M741.8,422.8c0.4,0.5,1,0.7,1.5,0.7c0.5,0,1-0.2,1.3-0.5c0.9-0.7,0.9-2,0.2-2.9c-2.2-2.5-4.5-5-6.7-7.5
					c-0.8-0.8-2.1-0.9-2.9-0.1c-0.8,0.8-0.9,2.1-0.1,2.9C737.4,417.8,739.6,420.3,741.8,422.8z"/>
				<path class="st1" d="M605.7,332.1c3.1,1,6.3,2.1,9.4,3.3c0.2,0.1,0.5,0.1,0.7,0.1c0.8,0,1.6-0.5,1.9-1.3
					c0.4-1.1-0.2-2.2-1.2-2.6c-3.1-1.2-6.4-2.3-9.5-3.3c-1.1-0.4-2.2,0.2-2.6,1.3C604,330.6,604.6,331.8,605.7,332.1z"/>
				<path class="st1" d="M623.9,338.8c3.1,1.2,6.2,2.5,9.2,3.9c0.3,0.1,0.5,0.2,0.8,0.2c0.8,0,1.5-0.5,1.9-1.2c0.5-1,0-2.2-1-2.7
					c-3.1-1.3-6.2-2.7-9.3-3.9c-1.1-0.4-2.2,0.1-2.7,1.1C622.4,337.2,622.9,338.4,623.9,338.8z"/>
				<path class="st1" d="M529.6,317.3c3.3,0.2,6.6,0.5,9.9,0.8c0.1,0,0.1,0,0.2,0c1,0,1.9-0.8,2-1.8c0.1-1.1-0.7-2.1-1.8-2.2
					c-3.3-0.3-6.7-0.6-10-0.8c-1.1-0.1-2.1,0.8-2.2,1.9C527.6,316.3,528.5,317.3,529.6,317.3z"/>
				<path class="st1" d="M691.7,376.6c2.7,2,5.3,4,7.9,6c0.4,0.3,0.8,0.4,1.3,0.4c0.6,0,1.2-0.3,1.6-0.8c0.7-0.9,0.5-2.2-0.3-2.9
					c-2.6-2.1-5.3-4.1-8-6.1c-0.9-0.7-2.2-0.5-2.9,0.4C690.6,374.7,690.8,376,691.7,376.6z"/>
				<path class="st1" d="M568.1,322.3c3.2,0.6,6.5,1.3,9.7,2.1c0.2,0,0.3,0.1,0.5,0.1c0.9,0,1.8-0.6,2-1.6c0.3-1.1-0.4-2.2-1.5-2.5
					c-3.3-0.7-6.6-1.4-9.9-2.1c-1.1-0.2-2.2,0.5-2.4,1.6C566.3,321,567,322.1,568.1,322.3z"/>
				<path class="st1" d="M675.7,365.6c2.8,1.8,5.6,3.6,8.3,5.5c0.4,0.2,0.8,0.4,1.2,0.4c0.6,0,1.3-0.3,1.7-0.9
					c0.6-0.9,0.4-2.2-0.5-2.8c-2.7-1.9-5.6-3.8-8.4-5.6c-1-0.6-2.2-0.3-2.8,0.6C674.5,363.7,674.8,365,675.7,365.6z"/>
				<path class="st1" d="M641.8,346.7c3,1.4,6,2.9,8.9,4.4c0.3,0.2,0.6,0.2,0.9,0.2c0.7,0,1.5-0.4,1.8-1.1c0.5-1,0.1-2.2-0.9-2.8
					c-3-1.5-6-3.1-9-4.5c-1-0.5-2.2-0.1-2.7,1C640.3,344.9,640.7,346.2,641.8,346.7z"/>
				<path class="st1" d="M659.1,355.6c2.9,1.6,5.8,3.3,8.6,5c0.3,0.2,0.7,0.3,1.1,0.3c0.7,0,1.4-0.4,1.8-1c0.6-1,0.3-2.2-0.7-2.8
					c-2.9-1.7-5.8-3.4-8.7-5.1c-1-0.6-2.2-0.2-2.8,0.8C657.7,353.8,658.1,355,659.1,355.6z"/>
				<path class="st1" d="M587,326.6c3.2,0.8,6.4,1.7,9.6,2.7c0.2,0.1,0.4,0.1,0.6,0.1c0.9,0,1.7-0.6,2-1.5c0.3-1.1-0.3-2.2-1.4-2.5
					c-3.2-0.9-6.5-1.9-9.7-2.7c-1.1-0.3-2.2,0.4-2.5,1.5C585.3,325.2,585.9,326.4,587,326.6z"/>
				<path class="st1" d="M796,739.3c-1.2,3.1-2.5,6.2-3.8,9.2c-0.5,1,0,2.2,1.1,2.7c0.3,0.1,0.5,0.2,0.8,0.2c0.8,0,1.5-0.5,1.9-1.2
					c1.3-3.1,2.6-6.2,3.9-9.3c0.4-1.1-0.1-2.2-1.1-2.7C797.6,737.8,796.4,738.3,796,739.3z"/>
				<path class="st1" d="M802.6,721c-1,3.1-2.1,6.3-3.2,9.4c-0.4,1.1,0.2,2.2,1.2,2.6c0.2,0.1,0.5,0.1,0.7,0.1
					c0.8,0,1.6-0.5,1.9-1.4c1.1-3.2,2.2-6.4,3.3-9.6c0.3-1.1-0.2-2.2-1.3-2.6C804.1,719.3,802.9,719.9,802.6,721z"/>
				<path class="st1" d="M790.9,756.2c-1-0.5-2.2,0-2.7,1c-1.4,3-2.9,6-4.4,8.9c-0.5,1-0.1,2.2,0.9,2.8c0.3,0.2,0.6,0.2,0.9,0.2
					c0.7,0,1.5-0.4,1.8-1.1c1.5-3,3-6,4.5-9.1C792.4,757.9,792,756.7,790.9,756.2z"/>
				<path class="st1" d="M819.7,623.4c-1.1,0-2,0.9-2,2c0,3.3-0.1,6.6-0.2,9.9c0,1.1,0.9,2.1,2,2.1c0,0,0,0,0.1,0c1.1,0,2-0.9,2-2
					c0.1-3.3,0.2-6.7,0.2-10.1C821.7,624.3,820.8,623.4,819.7,623.4z"/>
				<path class="st1" d="M808,702.3c-0.8,3.2-1.7,6.4-2.6,9.6c-0.3,1.1,0.3,2.2,1.4,2.5c0.2,0.1,0.4,0.1,0.6,0.1
					c0.9,0,1.7-0.6,2-1.5c0.9-3.2,1.8-6.5,2.7-9.7c0.3-1.1-0.4-2.2-1.5-2.5C809.4,700.6,808.3,701.3,808,702.3z"/>
				<path class="st1" d="M774.4,783.1c-0.6,1-0.3,2.2,0.7,2.8c0.3,0.2,0.7,0.3,1,0.3c0.7,0,1.4-0.4,1.8-1c1.7-2.9,3.4-5.8,5-8.7
					c0.5-1,0.2-2.2-0.8-2.8c-1-0.5-2.2-0.2-2.8,0.8C777.8,777.4,776.1,780.3,774.4,783.1z"/>
				<path class="st1" d="M818.3,657c1,0,1.9-0.8,2-1.9c0.3-3.3,0.6-6.7,0.8-10c0.1-1.1-0.8-2.1-1.9-2.2c-1.1-0.1-2.1,0.8-2.2,1.9
					c-0.2,3.3-0.5,6.6-0.8,9.9c-0.1,1.1,0.7,2.1,1.8,2.2C818.2,657,818.2,657,818.3,657z"/>
				<path class="st1" d="M812.2,683.4c-0.6,3.2-1.3,6.5-2,9.7c-0.2,1.1,0.4,2.2,1.6,2.4c0.2,0,0.3,0,0.4,0c0.9,0,1.8-0.6,2-1.6
					c0.7-3.3,1.4-6.6,2-9.9c0.2-1.1-0.5-2.2-1.6-2.4C813.5,681.6,812.4,682.3,812.2,683.4z"/>
				<path class="st1" d="M815.2,664.2c-0.4,3.3-0.9,6.6-1.4,9.8c-0.2,1.1,0.6,2.2,1.7,2.3c0.1,0,0.2,0,0.3,0c1,0,1.9-0.7,2-1.7
					c0.5-3.3,1-6.7,1.4-10c0.1-1.1-0.7-2.1-1.8-2.3C816.4,662.3,815.4,663.1,815.2,664.2z"/>
				<path class="st1" d="M793.1,504.6c0.3,0.8,1.1,1.2,1.9,1.2c0.3,0,0.5-0.1,0.8-0.2c1-0.4,1.5-1.6,1.1-2.7
					c-1.3-3.1-2.7-6.2-4.1-9.2c-0.5-1-1.7-1.5-2.7-1c-1,0.5-1.5,1.7-1,2.7C790.4,498.5,791.8,501.5,793.1,504.6z"/>
				<path class="st1" d="M796.7,513.3c1.2,3.1,2.4,6.2,3.5,9.3c0.3,0.8,1.1,1.4,1.9,1.4c0.2,0,0.5,0,0.7-0.1
					c1.1-0.4,1.6-1.5,1.2-2.6c-1.1-3.2-2.3-6.3-3.5-9.4c-0.4-1.1-1.6-1.6-2.7-1.2C796.8,511.1,796.2,512.3,796.7,513.3z"/>
				<path class="st1" d="M784.9,487c0.4,0.7,1.1,1.1,1.8,1.1c0.3,0,0.6-0.1,0.9-0.2c1-0.5,1.4-1.7,0.9-2.7c-1.5-3-3.1-6-4.7-8.9
					c-0.5-1-1.8-1.4-2.8-0.8c-1,0.5-1.4,1.8-0.8,2.8C781.9,481.1,783.5,484.1,784.9,487z"/>
				<path class="st1" d="M803.1,531.6c1,3.1,2,6.3,2.9,9.5c0.3,0.9,1.1,1.5,2,1.5c0.2,0,0.4,0,0.6-0.1c1.1-0.3,1.7-1.4,1.4-2.5
					c-0.9-3.2-1.9-6.5-2.9-9.6c-0.3-1.1-1.5-1.7-2.6-1.3C803.4,529.4,802.8,530.6,803.1,531.6z"/>
				<path class="st1" d="M808.4,550.3c0.8,3.2,1.6,6.4,2.3,9.7c0.2,1,1.1,1.6,2,1.6c0.1,0,0.3,0,0.4,0c1.1-0.2,1.8-1.3,1.6-2.4
					c-0.7-3.3-1.5-6.6-2.3-9.8c-0.3-1.1-1.4-1.8-2.5-1.5C808.8,548.1,808.2,549.2,808.4,550.3z"/>
				<path class="st1" d="M817.2,586.2c-1.1,0.1-1.9,1.2-1.8,2.3c0.4,3.3,0.7,6.6,1,9.9c0.1,1.1,1,1.9,2,1.9c0.1,0,0.1,0,0.2,0
					c1.1-0.1,2-1.1,1.9-2.2c-0.3-3.3-0.6-6.7-1-10C819.4,586.9,818.4,586.1,817.2,586.2z"/>
				<path class="st1" d="M817.1,607.8c0.2,3.3,0.3,6.6,0.4,9.9c0,1.1,0.9,2,2,2c0,0,0,0,0.1,0c1.1,0,2-1,2-2.1
					c-0.1-3.3-0.2-6.7-0.4-10.1c-0.1-1.1-1-2-2.2-1.9C817.9,605.7,817.1,606.7,817.1,607.8z"/>
				<path class="st1" d="M814.2,566.9c-1.1,0.2-1.8,1.3-1.6,2.4c0.6,3.2,1.1,6.5,1.6,9.8c0.2,1,1,1.7,2,1.7c0.1,0,0.2,0,0.3,0
					c1.1-0.2,1.9-1.2,1.7-2.3c-0.5-3.3-1.1-6.6-1.7-9.9C816.4,567.4,815.3,566.7,814.2,566.9z"/>
				<path class="st1" d="M548.9,319.2c3.3,0.4,6.6,0.9,9.8,1.4c0.1,0,0.2,0,0.3,0c1,0,1.9-0.7,2-1.7c0.2-1.1-0.6-2.2-1.7-2.3
					c-3.3-0.5-6.6-1-10-1.5c-1.1-0.1-2.1,0.6-2.3,1.8C547,318.1,547.8,319.1,548.9,319.2z"/>
				<path class="st1" d="M200.3,587.6c0.1,0,0.2,0,0.3,0c1,0,1.9-0.8,2-1.8c0.4-3.3,0.9-6.6,1.4-9.8c0.2-1.1-0.6-2.2-1.7-2.3
					c-1.1-0.2-2.2,0.6-2.3,1.7c-0.5,3.3-1,6.7-1.4,10C198.3,586.4,199.1,587.4,200.3,587.6z"/>
				<path class="st1" d="M219.4,511.9c0.2,0.1,0.5,0.1,0.8,0.1c0.8,0,1.6-0.5,1.9-1.3c1.2-3.1,2.5-6.2,3.9-9.2c0.5-1,0-2.2-1.1-2.7
					c-1-0.5-2.2,0-2.7,1.1c-1.3,3.1-2.7,6.2-3.9,9.3C217.8,510.3,218.3,511.5,219.4,511.9z"/>
				<path class="st1" d="M198.5,607.1c0,0,0.1,0,0.1,0c1.1,0,2-0.8,2-1.9c0.2-3.3,0.5-6.6,0.8-9.9c0.1-1.1-0.7-2.1-1.8-2.2
					c-1.1-0.1-2.1,0.7-2.2,1.8c-0.3,3.3-0.6,6.7-0.8,10C196.5,606,197.4,607,198.5,607.1z"/>
				<path class="st1" d="M198.7,646.1c1.1-0.1,2-1,1.9-2.2c-0.2-3.3-0.3-6.6-0.4-9.9c0-1.1-1-2-2.1-2c-1.1,0-2,1-2,2.1
					c0.1,3.3,0.2,6.7,0.4,10.1c0.1,1.1,1,1.9,2,1.9C198.6,646.1,198.6,646.1,198.7,646.1z"/>
				<path class="st1" d="M207.4,549.2c0.2,0,0.3,0.1,0.5,0.1c0.9,0,1.7-0.6,2-1.5c0.8-3.2,1.7-6.4,2.7-9.6c0.3-1.1-0.3-2.2-1.4-2.5
					c-1.1-0.3-2.2,0.3-2.5,1.4c-0.9,3.2-1.8,6.5-2.7,9.7C205.7,547.8,206.3,548.9,207.4,549.2z"/>
				<path class="st1" d="M212.8,530.4c0.2,0.1,0.4,0.1,0.6,0.1c0.9,0,1.7-0.5,1.9-1.4c1-3.1,2.1-6.3,3.3-9.4
					c0.4-1.1-0.2-2.2-1.2-2.6c-1.1-0.4-2.2,0.2-2.6,1.2c-1.1,3.1-2.3,6.4-3.3,9.5C211.1,528.9,211.7,530,212.8,530.4z"/>
				<path class="st1" d="M203.2,568.3c0.1,0,0.3,0,0.4,0c1,0,1.8-0.7,2-1.7c0.6-3.2,1.3-6.5,2-9.7c0.2-1.1-0.4-2.2-1.5-2.4
					c-1.1-0.3-2.2,0.4-2.4,1.5c-0.7,3.3-1.4,6.6-2.1,9.9C201.4,567,202.1,568.1,203.2,568.3z"/>
				<path class="st1" d="M200.5,665.6c1.1-0.1,1.9-1.2,1.8-2.3c-0.4-3.3-0.8-6.6-1-9.9c-0.1-1.1-1.1-2-2.2-1.9
					c-1.1,0.1-2,1.1-1.9,2.2c0.3,3.3,0.7,6.7,1.1,10c0.1,1,1,1.8,2,1.8C200.4,665.6,200.5,665.6,200.5,665.6z"/>
				<path class="st1" d="M198,626.6L198,626.6c1.1,0,2-0.9,2.1-2c0-3.3,0.1-6.6,0.2-9.9c0-1.1-0.8-2.1-2-2.1c-1.1,0-2.1,0.8-2.1,2
					c-0.1,3.3-0.2,6.7-0.2,10.1C195.9,625.7,196.8,626.6,198,626.6z"/>
				<path class="st1" d="M243.7,467c0.6-1,0.3-2.2-0.7-2.8c-1-0.6-2.2-0.3-2.8,0.7c-1.7,2.9-3.4,5.8-5,8.7c-0.5,1-0.2,2.2,0.8,2.8
					c0.3,0.2,0.7,0.3,1,0.3c0.7,0,1.4-0.4,1.8-1.1C240.3,472.7,242,469.8,243.7,467z"/>
				<path class="st1" d="M203.6,684.9c1.1-0.2,1.8-1.3,1.6-2.4c-0.6-3.2-1.2-6.5-1.7-9.8c-0.2-1.1-1.2-1.9-2.3-1.7
					c-1.1,0.2-1.9,1.2-1.7,2.3c0.5,3.3,1.1,6.6,1.7,9.9c0.2,1,1,1.7,2,1.7C203.4,684.9,203.5,684.9,203.6,684.9z"/>
				<path class="st1" d="M245.9,793.3c0.4,0,0.8-0.1,1.1-0.3c1-0.6,1.2-1.9,0.6-2.8c-1.8-2.8-3.5-5.6-5.2-8.5
					c-0.6-1-1.8-1.3-2.8-0.7c-1,0.6-1.3,1.8-0.7,2.8c1.7,2.9,3.5,5.8,5.2,8.6C244.5,793,245.2,793.3,245.9,793.3z"/>
				<path class="st1" d="M224.9,747.2c-0.4-1-1.6-1.5-2.7-1.1c-1,0.4-1.5,1.6-1.1,2.7c1.3,3.1,2.7,6.1,4.1,9.2
					c0.3,0.7,1.1,1.2,1.9,1.2c0.3,0,0.6-0.1,0.9-0.2c1-0.5,1.5-1.7,1-2.7C227.6,753.2,226.2,750.2,224.9,747.2z"/>
				<path class="st1" d="M233.1,764.7c-0.5-1-1.7-1.4-2.8-0.9c-1,0.5-1.4,1.7-0.9,2.8c1.5,3,3.1,6,4.7,8.9c0.4,0.7,1.1,1.1,1.8,1.1
					c0.3,0,0.7-0.1,1-0.3c1-0.5,1.4-1.8,0.8-2.8C236.2,770.6,234.6,767.7,233.1,764.7z"/>
				<path class="st1" d="M209.5,701.5c-0.8-3.2-1.6-6.5-2.3-9.7c-0.2-1.1-1.3-1.8-2.4-1.6c-1.1,0.2-1.8,1.3-1.6,2.4
					c0.7,3.3,1.5,6.6,2.3,9.8c0.2,0.9,1.1,1.5,2,1.5c0.2,0,0.3,0,0.5-0.1C209.1,703.7,209.7,702.6,209.5,701.5z"/>
				<path class="st1" d="M214.8,720.1c-1-3.1-2-6.3-2.9-9.5c-0.3-1.1-1.4-1.7-2.5-1.4c-1.1,0.3-1.7,1.4-1.4,2.5
					c0.9,3.2,1.9,6.5,2.9,9.6c0.3,0.9,1.1,1.4,1.9,1.4c0.2,0,0.4,0,0.6-0.1C214.6,722.4,215.2,721.2,214.8,720.1z"/>
				<path class="st1" d="M221.3,738.4c-1.2-3.1-2.4-6.2-3.5-9.3c-0.4-1.1-1.5-1.6-2.6-1.2c-1.1,0.4-1.6,1.6-1.2,2.6
					c1.1,3.1,2.3,6.3,3.5,9.4c0.3,0.8,1.1,1.3,1.9,1.3c0.2,0,0.5,0,0.7-0.1C221.2,740.7,221.8,739.5,221.3,738.4z"/>
				<path class="st1" d="M311.7,387.1c0.5,0,0.9-0.2,1.3-0.5c2.5-2.1,5.2-4.2,7.8-6.2c0.9-0.7,1.1-2,0.4-2.9c-0.7-0.9-2-1.1-2.9-0.4
					c-2.6,2-5.3,4.1-7.9,6.3c-0.9,0.7-1,2-0.3,2.9C310.6,386.9,311.1,387.1,311.7,387.1z"/>
				<path class="st1" d="M395.5,337.9c0.2,0,0.5,0,0.7-0.1c3.1-1.2,6.2-2.4,9.3-3.5c1.1-0.4,1.6-1.5,1.2-2.6
					c-0.4-1.1-1.5-1.6-2.6-1.2c-3.1,1.1-6.3,2.3-9.4,3.5c-1.1,0.4-1.6,1.6-1.2,2.7C394,337.5,394.7,337.9,395.5,337.9z"/>
				<path class="st1" d="M432.8,326c0.2,0,0.3,0,0.5-0.1c3.2-0.8,6.5-1.6,9.7-2.3c1.1-0.2,1.8-1.3,1.6-2.4c-0.2-1.1-1.3-1.8-2.4-1.6
					c-3.3,0.7-6.6,1.5-9.8,2.3c-1.1,0.3-1.8,1.4-1.5,2.5C431,325.4,431.8,326,432.8,326z"/>
				<path class="st1" d="M414,331.4c0.2,0,0.4,0,0.6-0.1c3.1-1,6.3-2,9.5-2.9c1.1-0.3,1.7-1.4,1.4-2.5c-0.3-1.1-1.4-1.7-2.5-1.4
					c-3.2,0.9-6.5,1.9-9.6,2.9c-1.1,0.3-1.7,1.5-1.3,2.6C412.3,330.8,413.1,331.4,414,331.4z"/>
				<path class="st1" d="M377.6,345.6c0.3,0,0.6-0.1,0.9-0.2c3-1.4,6-2.7,9-4c1-0.4,1.5-1.6,1.1-2.7c-0.4-1-1.6-1.5-2.7-1.1
					c-3.1,1.3-6.1,2.7-9.2,4.1c-1,0.5-1.5,1.7-1,2.7C376.1,345.2,376.9,345.6,377.6,345.6z"/>
				<path class="st1" d="M227.1,493.9c0.3,0.1,0.6,0.2,0.9,0.2c0.8,0,1.5-0.4,1.8-1.2c1.4-3,2.9-6,4.4-8.9c0.5-1,0.1-2.2-0.9-2.8
					c-1-0.5-2.2-0.1-2.8,0.9c-1.5,3-3,6-4.5,9C225.7,492.2,226.1,493.4,227.1,493.9z"/>
				<path class="st1" d="M360.2,354.4c0.3,0,0.7-0.1,1-0.3c2.9-1.6,5.8-3.1,8.8-4.6c1-0.5,1.4-1.7,0.9-2.7c-0.5-1-1.7-1.4-2.7-0.9
					c-3,1.5-6,3.1-8.9,4.7c-1,0.5-1.4,1.8-0.8,2.8C358.8,354,359.5,354.4,360.2,354.4z"/>
				<path class="st1" d="M451.9,321.9c0.1,0,0.2,0,0.4,0c3.2-0.6,6.5-1.2,9.8-1.7c1.1-0.2,1.9-1.2,1.7-2.3c-0.2-1.1-1.2-1.9-2.3-1.7
					c-3.3,0.5-6.6,1.1-9.9,1.7c-1.1,0.2-1.8,1.3-1.6,2.4C450,321.2,450.9,321.9,451.9,321.9z"/>
				<path class="st1" d="M471.2,318.9c0.1,0,0.2,0,0.2,0c3.3-0.4,6.6-0.7,9.9-1c1.1-0.1,2-1.1,1.9-2.2c-0.1-1.1-1.1-2-2.2-1.9
					c-3.3,0.3-6.7,0.6-10,1c-1.1,0.1-1.9,1.2-1.8,2.3C469.3,318.2,470.2,318.9,471.2,318.9z"/>
				<path class="st1" d="M490.6,317.2c0,0,0.1,0,0.1,0c3.3-0.2,6.6-0.3,9.9-0.4c1.1,0,2-1,2-2.1c0-1.1-1-2-2.1-2
					c-3.3,0.1-6.7,0.2-10.1,0.4c-1.1,0.1-2,1-1.9,2.2C488.7,316.3,489.6,317.2,490.6,317.2z"/>
				<path class="st1" d="M256.9,443.4c0.4,0.3,0.8,0.4,1.2,0.4c0.6,0,1.3-0.3,1.7-0.8c2-2.7,4-5.3,6-7.9c0.7-0.9,0.5-2.2-0.3-2.9
					c-0.9-0.7-2.2-0.5-2.9,0.3c-2.1,2.6-4.1,5.3-6.1,8C255.8,441.4,256,442.7,256.9,443.4z"/>
				<path class="st1" d="M270.1,428.4c0.6,0,1.2-0.2,1.6-0.7c2.1-2.5,4.3-5.1,6.5-7.5c0.8-0.8,0.7-2.1-0.2-2.9
					c-0.8-0.8-2.1-0.7-2.9,0.2c-2.2,2.5-4.4,5.1-6.6,7.6c-0.7,0.9-0.6,2.2,0.3,2.9C269.2,428.2,269.7,428.4,270.1,428.4z"/>
				<path class="st1" d="M343.4,364.3c0.4,0,0.8-0.1,1.1-0.3c2.8-1.8,5.6-3.5,8.5-5.2c1-0.6,1.3-1.8,0.7-2.8c-0.6-1-1.8-1.3-2.8-0.7
					c-2.9,1.7-5.8,3.4-8.6,5.2c-1,0.6-1.2,1.9-0.6,2.8C342,364,342.7,364.3,343.4,364.3z"/>
				<path class="st1" d="M245.9,459.6c0.3,0.2,0.7,0.3,1.1,0.3c0.7,0,1.3-0.3,1.7-0.9c1.8-2.8,3.6-5.6,5.5-8.3
					c0.6-0.9,0.4-2.2-0.5-2.8c-0.9-0.6-2.2-0.4-2.8,0.5c-1.9,2.8-3.8,5.6-5.6,8.4C244.7,457.7,244.9,459,245.9,459.6z"/>
				<path class="st1" d="M283.1,413.7c0.5,0,1.1-0.2,1.5-0.6c2.3-2.4,4.6-4.8,6.9-7.1c0.8-0.8,0.8-2.1,0-2.9c-0.8-0.8-2.1-0.8-2.9,0
					c-2.4,2.4-4.7,4.8-7,7.2c-0.8,0.8-0.7,2.1,0.1,2.9C282.1,413.6,282.6,413.7,283.1,413.7z"/>
				<path class="st1" d="M327.2,375.2c0.4,0,0.8-0.1,1.2-0.4c2.7-1.9,5.4-3.8,8.1-5.7c0.9-0.6,1.2-1.9,0.6-2.8
					c-0.6-0.9-1.9-1.2-2.8-0.6c-2.8,1.9-5.5,3.8-8.2,5.8c-0.9,0.7-1.1,1.9-0.5,2.9C325.9,374.9,326.6,375.2,327.2,375.2z"/>
				<path class="st1" d="M510.2,316.7c3.3,0,6.6,0.1,9.9,0.2c0,0,0,0,0.1,0c1.1,0,2-0.9,2-2c0-1.1-0.8-2.1-2-2.1
					c-3.3-0.1-6.7-0.2-10.1-0.2h0c-1.1,0-2,0.9-2,2C508.1,315.7,509.1,316.7,510.2,316.7z"/>
				<path class="st1" d="M297,400c0.5,0,1-0.2,1.4-0.5c2.4-2.2,4.9-4.5,7.4-6.7c0.9-0.7,0.9-2,0.2-2.9c-0.7-0.9-2-0.9-2.9-0.2
					c-2.5,2.2-5,4.5-7.5,6.7c-0.8,0.8-0.9,2.1-0.1,2.9C295.9,399.8,296.5,400,297,400z"/>
			</g>
		</g>
		<g>
			<path class="st4" d="M896.6,704h-59.1v-7.3c0-1.5-1.2-2.8-2.8-2.8h-62.9c-1.5,0-2.8,1.2-2.8,2.8v95.1c0,3.5,0,16.1,3.5,16.1H893
				c3.5,0,5.5-3.7,5.5-7.2l4.5-90.4C902.9,706.9,900.1,704,896.6,704z"/>
			<g>
				<path class="st0" d="M895.1,715v-22.7c0-2.2-1.8-3.9-3.9-3.9h-60.6c-2.2,0-3.9,1.8-3.9,3.9V715H895.1z"/>
				<path class="st1" d="M851.7,697.8h-17c-0.6,0-1.1-0.5-1.1-1.1V696c0-0.6,0.5-1.1,1.1-1.1h17c0.6,0,1.1,0.5,1.1,1.1v0.7
					C852.8,697.3,852.3,697.8,851.7,697.8z"/>
				<g class="st7">
					<path class="st1" d="M889,705.5H835c-0.8,0-1.4-0.6-1.4-1.4l0,0c0-0.8,0.6-1.4,1.4-1.4H889c0.8,0,1.4,0.6,1.4,1.4l0,0
						C890.4,704.9,889.8,705.5,889,705.5z"/>
					<path class="st1" d="M889,712.9H835c-0.8,0-1.4-0.6-1.4-1.4l0,0c0-0.8,0.6-1.4,1.4-1.4H889c0.8,0,1.4,0.6,1.4,1.4l0,0
						C890.4,712.3,889.8,712.9,889,712.9z"/>
				</g>
			</g>
			<g>
				<path class="st0" d="M822.6,707.3v-22.7c0-2.2-1.3-3.9-2.9-3.9h-44.8c-1.6,0-2.9,1.8-2.9,3.9v22.7H822.6z"/>
				<path class="st1" d="M790.2,690.1h-12c-0.6,0-1.1-0.5-1.1-1.1v-0.7c0-0.6,0.5-1.1,1.1-1.1h12c0.6,0,1.1,0.5,1.1,1.1v0.7
					C791.3,689.6,790.8,690.1,790.2,690.1z"/>
				<g class="st7">
					<path class="st1" d="M818.1,697.8h-39.9c-0.6,0-1.1-0.6-1.1-1.4l0,0c0-0.8,0.5-1.4,1.1-1.4h39.9c0.6,0,1.1,0.6,1.1,1.4l0,0
						C819.1,697.2,818.7,697.8,818.1,697.8z"/>
					<path class="st1" d="M818.1,705.2h-39.9c-0.6,0-1.1-0.6-1.1-1.4l0,0c0-0.8,0.5-1.4,1.1-1.4h39.9c0.6,0,1.1,0.6,1.1,1.4l0,0
						C819.1,704.6,818.7,705.2,818.1,705.2z"/>
				</g>
			</g>
			<path class="st5" d="M892.1,713.8h-59.1v-7.3c0-1.5-1.2-2.8-2.8-2.8h-62.9c-1.5,0-2.8,1.2-2.8,2.8v95.1c0,3.5,2.8,6.4,6.4,6.4
				h121.1c3.5,0,6.4-2.8,6.4-6.4v-81.5C898.5,716.6,895.6,713.8,892.1,713.8z"/>
		</g>
		<g>
			<g>
				<path class="st8" d="M696,592l-1.8,17.3l-1.1,10.8l-16.7,161.6c-6,1.9-11,2.8-16.1-2.4c0,0-3.3-61.9-3.3-115.8
					c0-10.6,0.2-23.6,0.5-36.8c0.1-5.8,0.3-11.7,0.4-17.4c0.7-28.9,1.6-54.6,1.6-54.6L696,592z"/>
				<path class="st9" d="M657.8,609.4h36.4l-1.1,10.8c-3.8-0.4-10.3-0.3-16,3.3c-5.5,3.4-14,3.6-19.7,3.3
					C657.5,621,657.7,615.1,657.8,609.4z"/>
			</g>
			<g>
				<path class="st8" d="M750.2,777.8l-14.6,2.1L716.8,627l-2.2-17.6l-1.8-15.1l32.8-37.2c0,0,1.3,24.5,2.8,52.2
					c0.3,4.7,0.5,9.6,0.8,14.4c1,19.4,2.1,38.6,2.7,50.7C753.7,707,750.2,777.8,750.2,777.8z"/>
				<path class="st9" d="M749.2,623.7c-2.7-0.6-5.9-1.3-8.7-1.7c-6.5-0.9-18.2,5.4-23.7,4.9l-2.2-17.6h33.7
					C748.6,614.1,748.9,618.9,749.2,623.7z"/>
			</g>
			<g>
				<path class="st10" d="M773.9,611.1c0,0-0.2,0.6-0.7,1.5c-1.9,3.2-8.1,9.8-24.8,4.6c-0.5-0.2-1.1-0.3-1.6-0.4
					c-3.5-0.9-6.4-1.1-9-0.9c-9.8,0.8-15.7,7-35.5,0.5c-17.9-5.8-22.7-1.3-31.2,0.9c-1.7,0.4-3.5,0.8-5.6,1c-1,0.1-2,0.1-3,0
					c-7.9-0.4-15.3-4.9-19.7-8.2c-2.6-1.9-4.2-3.5-4.2-3.5c0.4-1.5,0.9-3.1,1.3-4.7c1.7-6.5,3.5-14.3,5.3-22.9
					c0.5-2.6,1.1-5.2,1.6-7.9c1.3-6.5,2.6-13.3,3.9-20.1l0,0c0,0,0-0.1,0-0.1c0.5-2.8,1-5.6,1.5-8.4c0-0.1,0-0.3,0.1-0.4
					c1.6-9,3.1-17.7,4.4-25.7c0.5-3,1-5.9,1.4-8.7c2.5-15.1,4.1-25.5,4.1-25.5l47.9,3.4l47.9-0.3c0,0,0.5,5.3,1.3,13.9
					c0.3,2.7,0.5,5.7,0.9,8.9c0.8,8.6,1.9,18.9,3.1,29.8c0.3,2.9,0.6,5.7,1,8.7c2.3,20.4,5.1,41.8,8,57
					C772.9,606.3,773.4,608.8,773.9,611.1z"/>
				<g>
					<path class="st11" d="M673,497c-0.1,2.5-2.2,4.4-4.7,4.4c-2.5-0.1-4.4-2.2-4.4-4.7c0.1-2.5,2.2-4.4,4.7-4.4
						C671.1,492.4,673.1,494.5,673,497z"/>
					<path class="st11" d="M683.6,514.8c-0.1,2.5-2.2,4.4-4.7,4.4c-2.5-0.1-4.4-2.2-4.4-4.7c0.1-2.5,2.2-4.4,4.7-4.4
						C681.7,510.2,683.7,512.3,683.6,514.8z"/>
					<path class="st11" d="M705.9,506.5c-0.1,2.5-2.2,4.4-4.7,4.4c-2.5-0.1-4.4-2.2-4.4-4.7c0.1-2.5,2.2-4.4,4.7-4.4
						C704.1,501.9,706,504,705.9,506.5z"/>
					<path class="st11" d="M670.3,532.9c-0.1,2.5-2.2,4.4-4.7,4.4c-2.5-0.1-4.4-2.2-4.4-4.7c0.1-2.5,2.2-4.4,4.7-4.4
						C668.4,528.4,670.4,530.4,670.3,532.9z"/>
					<path class="st11" d="M697.9,531.9c-0.1,2.5-2.2,4.4-4.7,4.4c-2.5-0.1-4.4-2.2-4.4-4.7c0.1-2.5,2.2-4.4,4.7-4.4
						C696,527.3,697.9,529.4,697.9,531.9z"/>
					<path class="st11" d="M661.2,512.1c-0.1,2.3-1.9,4.2-4.2,4.4c0.5-3,1-5.9,1.4-8.7C660.1,508.5,661.2,510.1,661.2,512.1z"/>
					<path class="st11" d="M741.8,559.8c-0.1,2.5-2.2,4.4-4.7,4.4c-2.5-0.1-4.4-2.2-4.4-4.7c0.1-2.5,2.2-4.4,4.7-4.4
						C740,555.3,741.9,557.4,741.8,559.8z"/>
					<path class="st11" d="M740.5,535.2c-0.1,2.5-2.2,4.4-4.7,4.4c-2.5-0.1-4.4-2.2-4.4-4.7c0.1-2.5,2.2-4.4,4.7-4.4
						C738.6,530.6,740.6,532.7,740.5,535.2z"/>
					<path class="st11" d="M764.5,546.6c-0.6,0.2-1.2,0.3-1.8,0.3c-2.5-0.1-4.4-2.2-4.4-4.7c0.1-2.5,2.2-4.4,4.7-4.4
						c0.2,0,0.3,0,0.5,0.1C763.8,540.8,764.1,543.7,764.5,546.6z"/>
					<path class="st11" d="M743.6,577.9c-0.1,2.5-2.2,4.4-4.7,4.4c-2.5-0.1-4.4-2.2-4.4-4.7c0.1-2.5,2.2-4.4,4.7-4.4
						S743.7,575.4,743.6,577.9z"/>
					<path class="st11" d="M763.1,571.3c-0.1,2.5-2.2,4.4-4.7,4.4c-2.5-0.1-4.4-2.2-4.4-4.7c0.1-2.5,2.2-4.4,4.7-4.4
						C761.3,566.8,763.2,568.9,763.1,571.3z"/>
					<path class="st11" d="M723.3,586.5c-0.1,2.5-2.2,4.4-4.7,4.4c-2.5-0.1-4.4-2.2-4.4-4.7c0.1-2.5,2.2-4.4,4.7-4.4
						C721.4,582,723.3,584,723.3,586.5z"/>
					<path class="st11" d="M717.3,606.3c-0.1,2.5-2.2,4.4-4.7,4.4c-2.5-0.1-4.4-2.2-4.4-4.7c0.1-2.5,2.2-4.4,4.7-4.4
						C715.4,601.8,717.3,603.8,717.3,606.3z"/>
					<path class="st11" d="M671.3,616.6c0,0.2,0,0.5-0.1,0.7c-1.7,0.4-3.5,0.8-5.6,1c-1,0.1-2,0.1-3,0c-0.3-0.6-0.4-1.3-0.4-2
						c0.1-2.5,2.2-4.4,4.7-4.4C669.4,612.1,671.4,614.2,671.3,616.6z"/>
					<path class="st11" d="M746.9,616.6c0,0.1,0,0.1,0,0.2c-3.5-0.9-6.4-1.1-9-0.9c0.3-2.3,2.3-4.1,4.6-4
						C745,612,747,614.1,746.9,616.6z"/>
					<path class="st11" d="M763.2,594.6c-0.1,2.5-2.2,4.4-4.7,4.4c-2.5-0.1-4.4-2.2-4.4-4.7c0.1-2.5,2.2-4.4,4.7-4.4
						C761.4,590,763.3,592.1,763.2,594.6z"/>
					<path class="st11" d="M773.9,611.1c0,0-0.2,0.6-0.7,1.5c-0.2,0-0.4,0-0.7,0c-2.5-0.1-4.4-2.2-4.4-4.7c0.1-2.3,1.9-4.2,4.2-4.4
						C772.9,606.3,773.4,608.8,773.9,611.1z"/>
					<path class="st11" d="M666.4,561.3c-0.1,2.5-2.2,4.4-4.7,4.4c-2.5-0.1-4.4-2.2-4.4-4.7c0.1-2.5,2.2-4.4,4.7-4.4
						C664.5,556.7,666.5,558.8,666.4,561.3z"/>
					<path class="st11" d="M654.9,546.7c-0.1,2.3-1.8,4.1-4.1,4.3c0,0,0-0.1,0-0.1c0.5-2.8,1-5.6,1.5-8.4
						C654,543.3,655,544.9,654.9,546.7z"/>
					<path class="st11" d="M648.8,574.8c-0.1,2-1.5,3.7-3.4,4.2c0.5-2.6,1.1-5.2,1.6-7.9C648.1,572,648.8,573.3,648.8,574.8z"/>
					<path class="st11" d="M677.1,577.7c-0.1,2.5-2.2,4.4-4.7,4.4c-2.5-0.1-4.4-2.2-4.4-4.7c0.1-2.5,2.2-4.4,4.7-4.4
						C675.2,573.1,677.1,575.2,677.1,577.7z"/>
					<path class="st11" d="M701,574.9c-0.1,2.5-2.2,4.4-4.7,4.4c-2.5-0.1-4.4-2.2-4.4-4.7c0.1-2.5,2.2-4.4,4.7-4.4
						C699.1,570.3,701,572.4,701,574.9z"/>
					<path class="st11" d="M684.7,552.2c-0.1,2.5-2.2,4.4-4.7,4.4c-2.5-0.1-4.4-2.2-4.4-4.7c0.1-2.5,2.2-4.4,4.7-4.4
						C682.8,547.6,684.8,549.7,684.7,552.2z"/>
					<path class="st11" d="M709.1,548.5c-0.1,2.5-2.2,4.4-4.7,4.4s-4.4-2.2-4.4-4.7c0.1-2.5,2.2-4.4,4.7-4.4
						C707.2,543.9,709.2,546,709.1,548.5z"/>
					<path class="st11" d="M720.7,525c-0.1,2.5-2.2,4.4-4.7,4.4c-2.5-0.1-4.4-2.2-4.4-4.7c0.1-2.5,2.2-4.4,4.7-4.4
						C718.9,520.4,720.8,522.5,720.7,525z"/>
					<path class="st11" d="M760.4,508.1c-0.3,0.1-0.6,0.1-1,0.1c-2.5-0.1-4.4-2.2-4.4-4.7c0.1-2.4,2.1-4.3,4.5-4.4
						C759.8,501.9,760.1,504.9,760.4,508.1z"/>
					<path class="st11" d="M736.9,507.5c-0.1,2.5-2.2,4.4-4.7,4.4s-4.4-2.2-4.4-4.7c0.1-2.5,2.2-4.4,4.7-4.4
						C735,502.9,737,505,736.9,507.5z"/>
					<path class="st11" d="M752.9,524.1c-0.1,2.5-2.2,4.4-4.7,4.4c-2.5-0.1-4.4-2.2-4.4-4.7c0.1-2.5,2.2-4.4,4.7-4.4
						C751,519.5,753,521.6,752.9,524.1z"/>
					<path class="st11" d="M724,563.2c-0.1,2.5-2.2,4.4-4.7,4.4c-2.5-0.1-4.4-2.2-4.4-4.7c0.1-2.5,2.2-4.4,4.7-4.4
						C722.1,558.6,724.1,560.7,724,563.2z"/>
					<path class="st11" d="M660.9,592.2c-0.1,2.5-2.2,4.4-4.7,4.4c-2.5-0.1-4.4-2.2-4.4-4.7c0.1-2.5,2.2-4.4,4.7-4.4
						C659,587.7,660.9,589.7,660.9,592.2z"/>
					<path class="st11" d="M691.2,596.7c-0.1,2.5-2.2,4.4-4.7,4.4c-2.5-0.1-4.4-2.2-4.4-4.7c0.1-2.5,2.2-4.4,4.7-4.4
						C689.4,592.2,691.3,594.2,691.2,596.7z"/>
					<path class="st11" d="M644.9,606.6c0,1.5-0.8,2.8-1.9,3.6c-2.6-1.9-4.2-3.5-4.2-3.5c0.4-1.5,0.9-3.1,1.3-4.7c0.1,0,0.3,0,0.4,0
						C643,602,645,604.1,644.9,606.6z"/>
				</g>
				<path class="st5" d="M761.1,486.6c-25.8,15.7-72.1,12.9-100.7-3.3c3.3-17.2,7.6-34.5,7.5-57.6c0-2.5,0-5-0.1-7.5
					c0-2.2-0.1-4.3-0.2-6.5c-1.3-38.5-6.8-70-3.4-74c1.5-1.7,3.9-3.6,6.8-5.4c1.2-0.7,2.4-1.5,3.7-2.2c3.1-1.7,6.5-3.5,9.9-5.2
					c8.1-4,16.4-7.7,20.6-10.3c4,1.9,7.2,3,10.6,3.1c0.1,0,0.2,0,0.3,0c0.1,0,0.2,0,0.3,0c3.5,0.1,6.7-0.7,10.8-2.4
					c3.7,2.6,10.7,6.4,17.8,10.4c5.2,3,10.6,6.1,14.7,9.2c2.7,2,4.9,3.9,6.2,5.7c1.5,2.1,0.6,10.9-1.2,23.9
					c-1.8,12.8-4.3,29.7-6.2,48.3c-0.5,5.2-1,10.5-1.3,15.8C755.8,451.7,758.9,469.2,761.1,486.6z"/>
				<g>
					<path class="st4" d="M744,468C744,468,744,468,744,468c-20.3-0.7-37.4-10.6-48.1-18.7c-11.6-8.8-18.5-17.5-18.6-17.6
						c-0.3-0.4-0.3-1,0.2-1.4c0.4-0.3,1-0.3,1.4,0.2c0.1,0.1,6.9,8.6,18.3,17.2c10.5,7.9,27.1,17.5,46.9,18.2c0.5,0,1,0.5,0.9,1
						C745,467.6,744.5,468,744,468z"/>
				</g>
				<g>
					<path class="st4" d="M722.6,474.2c-17.6-0.6-34.9-11.2-35.7-11.7c-0.5-0.3-0.6-0.9-0.3-1.3c0.3-0.5,0.9-0.6,1.3-0.3
						c0.2,0.1,20.5,12.6,38.9,11.3c0.5,0,1,0.4,1,0.9c0,0.5-0.4,1-0.9,1C725.5,474.2,724.1,474.2,722.6,474.2z"/>
				</g>
				<g>
					<g>
						<g>
							<path class="st4" d="M710.5,364.3c-0.5,0-0.9-0.4-0.9-0.8c-0.1-0.5,0.3-1,0.8-1.1c24.9-3.9,32.9-19.6,33-19.8
								c0.2-0.5,0.8-0.7,1.3-0.4c0.5,0.2,0.7,0.8,0.4,1.3c-0.3,0.7-8.5,16.8-34.5,20.8C710.7,364.3,710.6,364.3,710.5,364.3z"/>
						</g>
					</g>
				</g>
				<path class="st8" d="M745.2,325.8c-5.3,11.1-17.3,25.9-33,22.7c-15.1-3.1-22.5-15-27.5-23.5c8.1-4,16.4-7.7,20.6-10.3
					c4,1.9,7.2,3,10.6,3.1c0.1,0,0.2,0,0.3,0c0.1,0,0.2,0,0.3,0c3.5,0.1,6.7-0.7,10.8-2.4C731,318,738,321.7,745.2,325.8z"/>
				<g>
					<path class="st12" d="M715.4,333.7c16,0.5,19.4-14.7,19.4-14.9c0.1-0.5-0.2-1-0.7-1.1c-0.5-0.1-1,0.2-1.1,0.7
						c-0.1,0.6-3.1,13.9-17.6,13.4c-14.5-0.5-17.1-13.1-17.2-13.6c-0.1-0.5-0.6-0.8-1.1-0.7c-0.5,0.1-0.8,0.6-0.7,1.1
						C696.4,318.8,699.4,333.2,715.4,333.7z"/>
				</g>
			</g>
			<path class="st10" d="M716.5,318.1L716.5,318.1c-0.1,0-0.2,0-0.3,0C716.3,318.1,716.4,318.1,716.5,318.1z"/>
			<g>
				<g>
					<g>
						<path class="st9" d="M692.8,270c0,0-4.5-6.5-8.2-1.4c-3.7,5.1,0.8,20.7,9.5,17.2L692.8,270z"/>
						<g>
							<path class="st13" d="M692.3,281c-0.3,0-0.6-0.2-0.7-0.6c-1.2-4.8-6.1-6.9-6.1-6.9c-0.4-0.2-0.5-0.6-0.4-1
								c0.2-0.4,0.6-0.5,1-0.4c0.2,0.1,5.6,2.4,7,7.9c0.1,0.4-0.1,0.8-0.5,0.9C692.5,281,692.4,281,692.3,281z"/>
						</g>
						<g>
							<path class="st13" d="M687.4,278.4c-0.1,0-0.3,0-0.4-0.1c-0.3-0.2-0.4-0.7-0.2-1c0-0.1,1-1.4,2.8-2.1c0.4-0.2,0.8,0,1,0.4
								c0.2,0.4,0,0.8-0.4,1c-1.4,0.6-2.2,1.6-2.2,1.6C687.9,278.3,687.7,278.4,687.4,278.4z"/>
						</g>
					</g>
					<g>
						<path class="st9" d="M741.6,271.5c0,0,4.9-6.2,8.3-0.8c3.4,5.3-2.1,20.6-10.6,16.6L741.6,271.5z"/>
						<g>
							<path class="st13" d="M741.3,282.6c0.3,0,0.6-0.2,0.7-0.5c1.5-4.7,6.5-6.5,6.5-6.5c0.4-0.1,0.6-0.5,0.5-0.9
								c-0.1-0.4-0.5-0.6-0.9-0.5c-0.2,0.1-5.7,2-7.5,7.5c-0.1,0.4,0.1,0.8,0.5,0.9C741.2,282.6,741.2,282.6,741.3,282.6z"/>
						</g>
						<g>
							<g>
								<path class="st13" d="M746.4,280.3c0.1,0,0.3,0,0.4-0.1c0.3-0.2,0.5-0.7,0.3-1c0-0.1-0.9-1.4-2.7-2.3c-0.4-0.2-0.8,0-1,0.3
									c-0.2,0.4,0,0.8,0.3,1c1.4,0.7,2,1.7,2.1,1.7C745.9,280.2,746.1,280.3,746.4,280.3z"/>
							</g>
						</g>
					</g>
					<path class="st8" d="M727.9,300l-0.5,15.4c0,0-4.8,7.7-11,8c-6.2,0.3-11.5-7.1-11.5-7.1l0.5-15.9L727.9,300z"/>
					<path class="st9" d="M727.9,300l-0.2,6.8c-4.3,4.5-11.7,5.9-22.6,3.9l0.3-10.4L727.9,300z"/>
					<path class="st8" d="M745.4,261.1c-0.5,6-1.3,13.4-2.6,19.3c-0.3,1.5-0.7,2.9-1.1,4.1c-3.6,11.2-12.3,30.3-34.7,21.5
						c-9.9-3.9-14.1-15.2-15.8-26.6c-1.2-7.7-1.1-15.5-0.8-21.1c0.3-5.7,3.6-10.7,8.6-13.4c13.6-7.1,27.6-3.9,36.8,0
						C742,247.8,745.9,254.3,745.4,261.1z"/>
					<path class="st10" d="M706.8,271.3c-0.1,1.6-0.9,2.9-2,2.9c-1,0-1.8-1.4-1.8-3c0.1-1.6,0.9-2.9,2-2.9
						C706,268.3,706.9,269.7,706.8,271.3z"/>
					<path class="st10" d="M730.1,272.1c-0.1,1.6-0.9,2.9-2,2.9c-1,0-1.8-1.4-1.8-3c0.1-1.6,0.9-2.9,2-2.9
						C729.3,269.1,730.1,270.5,730.1,272.1z"/>
					<path class="st10" d="M701.9,262.3c1.6-0.4,4.8-1,8.1-0.9c0.9,0,1.5,0.8,1.3,1.7l0,0c-0.1,0.7-0.8,1.2-1.5,1.1
						c-2.3-0.2-8.2-0.1-11.1,1c0-0.5,0.3-1,0.7-1.5C700.1,263,700.9,262.5,701.9,262.3z"/>
					<path class="st10" d="M732.3,263.4c-1.6-0.5-4.7-1.4-8-1.5c-0.9,0-1.6,0.7-1.4,1.6l0,0c0.1,0.7,0.7,1.2,1.4,1.2
						c2.3,0,8.2,0.5,11,1.7c0.1-0.5-0.2-1-0.6-1.5C734.1,264.2,733.2,263.7,732.3,263.4z"/>
					<g>
						<g>
							<path class="st9" d="M717,285.2c-0.6,0-1.1-0.1-1.6-0.4c-0.4-0.3-0.9-0.8-1-1.8c-0.2-2.7,0.8-11.1,0.8-11.4
								c0-0.4,0.4-0.7,0.8-0.6c0.4,0,0.7,0.4,0.6,0.8c0,0.1-1,8.6-0.8,11.2c0,0.4,0.2,0.6,0.3,0.7c0.7,0.4,2.3,0.1,2.9-0.2
								c0.4-0.1,0.8,0.1,0.9,0.4c0.1,0.4-0.1,0.8-0.4,0.9C719.4,284.8,718.2,285.2,717,285.2z"/>
						</g>
					</g>
					<path class="st12" d="M707.6,289.5c0.5,2.8,2.1,8,8.3,8.2c6.2,0.2,8.1-4.4,8.8-7.6L707.6,289.5z"/>
					<g>
						<path class="st9" d="M715.6,301.9c-1.8-0.1-3.3-1.1-3.4-1.1c-0.3-0.2-0.4-0.7-0.2-1c0.2-0.3,0.7-0.4,1-0.2l0,0
							c0,0,1.3,0.8,2.6,0.9c1.5,0,2.8-0.7,2.8-0.7c0.4-0.2,0.8-0.1,1,0.3c0.2,0.4,0.1,0.8-0.3,1C719.1,301.1,717.5,302,715.6,301.9z
							"/>
					</g>
				</g>
				<path class="st10" d="M748.4,260c-0.3,0.7-0.9,1.1-1.8,1.3c0,1.6-0.2,3.5-0.4,5.4c-1.2,10.5-4,12.3-4.5,9.7
					c-0.3-1.7,0-11.7,0.3-14.9c-2.1-0.2-3.8-0.6-3.8-0.6l-2.1-10.3l-1.2,10.1c-3.7,1.2-12.2-1.2-12.2-1.2l-2.5-10.2l-2.1,9.6
					c-5.6,2.5-12.4,0.5-12.4,0.5l-1.2-10.5l-4,10.4c0,0-4.3,1.4-7.7,1.6c0.2,3.8,0.6,11.5-0.1,12.4c-2.6,3.1-3.6-2-3.4-6.9
					c0.1-2.4,0.3-4.4,0.4-5.9c-0.6-0.3-1-0.8-1-1.6c0-2.5,2-9.3,3.7-14.6c1.8-5.8,5.8-10.6,11.1-13.2c14.8-7.3,30.1-2.7,35.2,0.6
					C749.5,238.8,748.4,260,748.4,260z"/>
				<circle class="st10" cx="722.8" cy="224.6" r="20.9"/>
				<path class="st12" d="M744.7,287.8c0,0.9-0.8,1.7-1.8,1.7c-0.9,0-1.7-0.8-1.7-1.8c0-0.9,0.8-1.7,1.8-1.7
					C744,286.1,744.7,286.9,744.7,287.8z"/>
				<g>
					<g>
						<path class="st12" d="M737.6,270.8c-0.2-0.5-0.4-0.9-0.6-1.3c-1-1.7-2.4-3-4.2-3.8c0,0,0,0,0,0c-1-0.5-2.2-0.7-3.4-0.8
							c-0.4,0-0.9,0-1.3,0c-3.1,0.3-5.8,2.3-7.2,5c-0.2,0.5-0.4,1-0.6,1.5c-0.2,0.7-0.3,1.5-0.4,2.3c-0.2,5,3.8,9.3,8.8,9.4
							c5,0.2,9.3-3.8,9.4-8.8C738.3,273.1,738,271.9,737.6,270.8z M728.8,281.7c-4.2-0.1-7.6-3.7-7.4-7.9c0.1-4.2,3.7-7.6,7.9-7.4
							c4.2,0.1,7.6,3.7,7.4,7.9C736.7,278.5,733.1,281.8,728.8,281.7z"/>
					</g>
					<g>
						<path class="st12" d="M713.1,271.2c-0.1-0.5-0.3-1-0.5-1.5c-1.2-2.9-3.9-5-7.1-5.5c-0.3-0.1-0.7-0.1-1-0.1
							c-1.2,0-2.3,0.1-3.4,0.5c0,0,0,0,0,0c-1.9,0.7-3.5,2-4.6,3.7c-0.3,0.4-0.5,0.9-0.7,1.3c-0.4,1-0.7,2.1-0.7,3.3
							c-0.2,5,3.8,9.3,8.8,9.4c5,0.2,9.3-3.8,9.4-8.8C713.3,272.7,713.2,271.9,713.1,271.2z M703.9,280.9c-4.2-0.1-7.6-3.7-7.5-7.9
							c0.1-4.2,3.7-7.6,8-7.5c4.2,0.1,7.6,3.7,7.4,8C711.7,277.7,708.2,281,703.9,280.9z"/>
					</g>
					<g>
						<path class="st12" d="M741.6,267.2c-3.2,0.8-5.2,2.7-5.3,2.8c-0.3,0.3-0.3,0.7,0,1c0.1,0.1,0.3,0.2,0.5,0.2
							c0.2,0,0.4-0.1,0.5-0.2c0,0,1.7-1.6,4.3-2.3L741.6,267.2z"/>
					</g>
					<g>
						<path class="st12" d="M697,268.7c-0.2-0.1-1.4-1.5-4.3-2.6l-0.2,1.8c2.5,1,3.6,2,3.7,2c0.1,0.1,0.3,0.1,0.4,0.1
							c0.2,0,0.5-0.1,0.6-0.3C697.3,269.4,697.3,268.9,697,268.7z"/>
					</g>
					<g>
						<path class="st12" d="M712.9,271.4c0,0,1.8-2.3,4-2.2c2.2,0.1,3.7,2.4,3.7,2.4l1.2-0.7c-0.1-0.1-1.9-3-4.8-3.1
							c-3-0.1-5.1,2.6-5.2,2.7L712.9,271.4z"/>
					</g>
				</g>
			</g>
			<path class="st8" d="M667.7,411.8c-1.3-38.5-6.8-70-3.4-74c1.5-1.7,3.9-3.6,6.8-5.4C673.6,346.3,679.7,388,667.7,411.8z"/>
			<path class="st8" d="M764.8,364.5c-1.8,12.8-4.3,29.7-6.2,48.3c-9.1-24.4-2.2-64,1.2-77.9c2.7,2,4.9,3.9,6.2,5.7
				C767.6,342.7,766.6,351.5,764.8,364.5z"/>
			<g>
				<g>
					<path class="st8" d="M793.4,446.5c-3.2,14.1-12.5,27.5-19.3,35.9c0,0,0,0,0,0c-4.5,5.5-8,8.9-8,8.9l-9-8c0,0,5-8.2,9.5-19.8
						c4.3-11,8.1-25.1,7-38.5v0c0-0.3,0-0.6-0.1-0.9l-0.5-1.2l0,0l-16-42.4l9.2-39.2c0,0,19.7,50,26.1,75
						C792.4,416.4,797.4,428.9,793.4,446.5z"/>
					<g>
						<path class="st9" d="M785.6,421.2c0,0.6-0.3,1-0.8,1.2c-4,0.9-7.7,1.8-11.1,2.7v0c0-0.3,0-0.6-0.1-0.9l-0.5-1.2
							c3.4-0.9,7.1-1.8,11.1-2.7c0.6-0.1,1.2,0.2,1.3,0.8C785.6,421.1,785.6,421.2,785.6,421.2z"/>
					</g>
				</g>
				<path class="st9" d="M757.1,483.5l9,8c0,0,3.5-3.4,8-8.9c0,0,0,0,0,0c-0.3-7.4-3.2-17.4-7.5-18.8
					C762.1,475.3,757.1,483.5,757.1,483.5z"/>
				<path class="st8" d="M759.6,476.2c-1.4,0.3-8.9,1.5-8.4-1.2c0.6-3,7.5-7.1,7.5-7.1s0-0.1,0-0.4l-0.1-0.7l-0.6-5.6
					c1.4-0.2,1.8,0,2.5,0.1c3.4,0.6,5.2,7.6,5.2,7.6s4.3,1,4.5,4c0.2,3-3.1,3.9-3.1,3.9s4.8,1.7,4,4.4c-0.8,2.7-4.1,3.8-4.1,3.8
					s4.2,2.1,3,4.1c-1.1,2-4.2,3.2-4.2,3.2s3.1,3.3,0.6,5.7c-2.5,2.3-6.6,2.3-9.3,1.7c-2.7-0.6-2.6-4,2.2-6.9c0,0-4.5,1-7.1-2.5
					c-2.2-2.9,2.4-4.8,6.4-5.8c-3.2,0.6-8.7,1.1-10-1.8C746.9,478.8,757.9,476.5,759.6,476.2z"/>
			</g>
			<g>
				<g>
					<path class="st4" d="M741.7,777.3c0,0,7.9-2.1,10.1-2.1c2.2,0,16.9,16.5,21.9,17.5c9,1.8,9,15.8,3.5,16.5
						c-15.8,2-42.9-4.7-42.9-4.7s-2.5-18-1.4-23.7C734,775.2,737.2,779,741.7,777.3z"/>
					<g>
						<g>
							<path class="st12" d="M754.7,792.7c-0.3,0.1-0.6,0-0.8-0.2c-0.5-0.3-0.6-1-0.3-1.5c0.1-0.2,2.8-4.1,6.1-5.5
								c4.4-1.8,7.6,0.8,7.7,0.9c0.5,0.4,0.5,1.1,0.1,1.5c-0.4,0.5-1.1,0.5-1.5,0.1c-0.1-0.1-2.3-1.9-5.4-0.6
								c-2.7,1.1-5.1,4.7-5.2,4.7C755.3,792.5,755,792.6,754.7,792.7z"/>
						</g>
						<g>
							<path class="st12" d="M751.7,789.4c-0.3,0.1-0.6,0-0.8-0.2c-0.5-0.3-0.6-1-0.3-1.5c0.1-0.2,2.8-4.1,6.1-5.5
								c4.4-1.8,7.6,0.8,7.7,0.9c0.5,0.4,0.5,1.1,0.1,1.5c-0.4,0.5-1.1,0.5-1.5,0.1c-0.1-0.1-2.3-1.9-5.4-0.6
								c-2.7,1.1-5.1,4.7-5.2,4.7C752.2,789.2,752,789.3,751.7,789.4z"/>
						</g>
						<g>
							<g>
								<g>
									<path class="st12" d="M759,795.5c-0.3,0.1-0.6,0-0.8-0.2c-0.5-0.3-0.6-1-0.3-1.5c0.1-0.2,2.8-4.1,6.1-5.5
										c4.4-1.8,7.6,0.8,7.7,0.9c0.5,0.4,0.5,1.1,0.1,1.5c-0.4,0.5-1.1,0.5-1.5,0.1c-0.1-0.1-2.3-1.9-5.4-0.6
										c-2.7,1.1-5.1,4.7-5.2,4.7C759.5,795.3,759.2,795.5,759,795.5z"/>
								</g>
							</g>
						</g>
					</g>
				</g>
			</g>
			<g>
				<g>
					<path class="st4" d="M664,781.6c0,0-3.5-4.8-6.3-4.6c-2.8,0.2-24.5,17.3-32,18.7c-7.4,1.4-7,10.6-4,11.7
						c3.3,1.2,58.4-0.4,58.4-0.4s1.9-19.6,0-24.9C678.2,776.8,669.8,782.9,664,781.6z"/>
					<g>
						<g>
							<path class="st12" d="M651.9,793.6c0.3,0.1,0.6,0.1,0.8-0.1c0.5-0.3,0.7-0.9,0.4-1.4c-0.1-0.2-2.3-4.1-5.4-5.7
								c-4-2.1-7.2,0.2-7.4,0.3c-0.5,0.3-0.6,1-0.2,1.5c0.3,0.5,1,0.6,1.5,0.2c0.1-0.1,2.3-1.6,5.2-0.1c2.5,1.3,4.5,4.8,4.5,4.8
								C651.5,793.3,651.7,793.5,651.9,793.6z"/>
						</g>
						<g>
							<path class="st12" d="M655.1,790.7c0.3,0.1,0.6,0.1,0.8-0.1c0.5-0.3,0.7-0.9,0.4-1.4c-0.1-0.2-2.3-4.1-5.4-5.7
								c-4.1-2.1-7.2,0.2-7.4,0.3c-0.5,0.3-0.6,1-0.2,1.5c0.3,0.5,1,0.6,1.5,0.2c0.1-0.1,2.3-1.6,5.2-0.1c2.5,1.3,4.5,4.8,4.5,4.8
								C654.6,790.4,654.8,790.6,655.1,790.7z"/>
						</g>
						<g>
							<path class="st12" d="M647.7,795.9c0.3,0.1,0.6,0.1,0.8-0.1c0.5-0.3,0.7-0.9,0.4-1.4c-0.1-0.2-2.3-4.1-5.4-5.7
								c-4.1-2.1-7.2,0.2-7.4,0.3c-0.5,0.3-0.6,1-0.2,1.5c0.3,0.5,1,0.6,1.5,0.2c0.1-0.1,2.3-1.6,5.2-0.1c2.5,1.3,4.5,4.8,4.5,4.8
								C647.3,795.7,647.5,795.9,647.7,795.9z"/>
						</g>
					</g>
				</g>
			</g>
			<g>
				<path class="st8" d="M666.4,371.5c0,0-7.6-5.1-10.5-8.4c-10.1-11.2-35.4-37.8-42.9-60.8c-4.8-14.6-12.7-82.2-12.7-83.2
					c0,0,0,0,0,0l12.7-3c0,0,0,0,0,0.1c0,0,0,0,0,0c0.6,2.7,9,42.7,18.3,67.9c0.3,0.7,0.5,1.4,0.8,2.1c0.5,1.3,1,2.5,1.5,3.7
					c0.2,0.5,0.4,1,0.7,1.5c0.3,0.7,0.6,1.4,0.9,2c9.1,19.5,22.3,30.5,25.8,33.1c0.5,0.4,9,6.6,9,6.6
					C673.6,354.5,666.4,371.5,666.4,371.5z"/>
				<g>
					<path class="st9" d="M632.1,286.2c-2.7,1.2-5.5,2.5-8.5,4c-0.5,0.2-1.1,0.1-1.4-0.4c0,0-0.1-0.1-0.1-0.1
						c-0.3-0.6,0-1.2,0.5-1.5c3.1-1.5,6-2.8,8.7-4C631.6,284.8,631.8,285.5,632.1,286.2z"/>
				</g>
				<path class="st8" d="M610.9,218.5c0,0,5.3-4.5,5.8-10c0.4-5.5,2.1-15.2-1.1-19.9c-2.7-4-2.1,6.2-5,10.2c0,0-4.8-4.8-7.7-9.1
					c-2.5-3.8-8.2-10.4-10.8-13.4c-0.7-0.8-2.1-0.2-1.9,0.9c0.3,1.7,1.7,4.6,5.4,9.3c0,0-9.5-10.9-12-10.1
					c-2.5,0.8,9.6,14.2,9.6,14.2s-10.4-9.2-12-7.7c-1,0.9,8.4,12.1,8.4,12.1s-10.5-7.8-9.3-4.2c0.4,1,20,18.8,20.5,32.4
					C600.9,223.2,607.9,222,610.9,218.5z"/>
			</g>
		</g>
		<g>
			<g>
				<g>
					<path class="st3" d="M449,807.4h95c0-4.9-2-9.3-5.2-12.5c-3.2-3.2-7.6-5.2-12.5-5.2h-0.2c0,0-20.2-2.6-20.2-19.1v-98.3H487
						v98.3c0,16.5-20.2,19.1-20.2,19.1h-0.2C457,789.7,449,797.6,449,807.4z"/>
					<path class="st4" d="M405.2,672.3H588c-3-16.7-17.6-28.8-34.5-28.7l-56.9,0.2l-56.9-0.2C422.7,643.5,408.2,655.6,405.2,672.3z"
						/>
				</g>
				<g>
					<g>
						<g>
							<g>
								<path class="st4" d="M535.4,458.7c4.8,17.6,28.8,63.5,38.1,70.1c12.1,8.6,50.2,24.6,70,32.8c3.6,1.5-9.7,17.1-9.7,17.1
									s-51.2-13-72.1-26.4c-5.9-3.8-18.7-16.6-34.9-42.2c-4.9-7.8-16.3-23.2-17.5-34.3C507.9,463.2,522.2,454.5,535.4,458.7z"/>
							</g>
						</g>
					</g>
					<g>
						<g>
							<g>
								<path class="st8" d="M670.5,765.2l9.2,16.8c0,0,5.9,0.6,13.4-5.9l-7-19.8L670.5,765.2z"/>
								<g>
									<path class="st5" d="M690,775.1c0,0,0.5-5.7,2.9-6.9c2.4-1.2,28.9,2,35.7-0.5c6.8-2.6,11,5.3,9.1,7.6
										c-2.2,2.6-48.3,28.7-48.3,28.7s-11.3-15.2-12.4-20.5C675.9,778.2,685.8,779,690,775.1z"/>
									<g>
										<g>
											<path class="st12" d="M705.9,778.9c-0.2,0.2-0.4,0.3-0.7,0.3c-0.6,0-1-0.4-1-1c0-0.2-0.1-4.6,1.6-7.4
												c2.3-3.7,6.1-3.4,6.2-3.4c0.6,0,1,0.5,0.9,1.1c0,0.6-0.5,1-1.1,0.9c-0.1,0-2.7-0.2-4.3,2.5c-1.4,2.3-1.3,6.2-1.3,6.2
												C706.1,778.5,706,778.7,705.9,778.9z"/>
										</g>
										<g>
											<path class="st12" d="M701.8,778.1c-0.2,0.2-0.4,0.3-0.7,0.3c-0.6,0-1-0.4-1-1c0-0.2-0.1-4.6,1.6-7.4
												c2.3-3.7,6.1-3.4,6.2-3.4c0.6,0,1,0.5,0.9,1.1c0,0.6-0.5,1-1.1,0.9c-0.1,0-2.7-0.2-4.3,2.5c-1.4,2.3-1.3,6.2-1.3,6.2
												C702.1,777.6,702,777.9,701.8,778.1z"/>
										</g>
										<g>
											<path class="st12" d="M710.5,778.8c-0.2,0.2-0.4,0.3-0.7,0.3c-0.6,0-1-0.4-1-1c0-0.2-0.1-4.6,1.6-7.4
												c2.3-3.7,6.1-3.4,6.2-3.4c0.6,0,1,0.5,0.9,1.1c0,0.6-0.5,1-1.1,0.9c-0.1,0-2.7-0.2-4.3,2.5c-1.4,2.3-1.3,6.2-1.3,6.2
												C710.8,778.3,710.7,778.6,710.5,778.8z"/>
										</g>
									</g>
								</g>
							</g>
							<path class="st14" d="M588.1,599.2c0,0,29.9,1.7,36.9,8.4c7,6.7,67.2,150.9,67.2,150.9c-6.9,5.1-14.3,8.6-22.2,10.7
								c0,0-43.2-74.1-56.1-93.5c-13.4-20-15-31.2-15-31.2L568,640L588.1,599.2z"/>
						</g>
						<g>
							<path class="st5" d="M476.5,436.3c0,0-20.6,6.7-31.6,16.4c-11,9.7-2.8,38.5-2.1,54.8c2.2,47,2.4,111.3,25.9,123.2
								c17.7,9,86.5-4.3,81-28.6c-3.6-16.1-9.8-41.6-14.6-81.7c-3.1-26.5,3.2-50.6,0.2-61.6c-2.9-11-37.4-23.6-37.4-23.6
								L476.5,436.3z"/>
							<g>
								<path class="st4" d="M491.8,455.8c-10.7,0-20.6-11.4-21-11.9c-0.3-0.3-0.2-0.8,0.1-1.1c0.3-0.3,0.8-0.2,1.1,0.1
									c0.1,0.1,10.5,12.1,20.8,11.3c0.4,0,0.8,0.3,0.8,0.7c0,0.4-0.3,0.8-0.7,0.8C492.5,455.8,492.2,455.8,491.8,455.8z"/>
							</g>
							<g>
								<path class="st4" d="M482.5,584c-0.4,0-0.7-0.3-0.8-0.7c0-0.4,0.3-0.8,0.7-0.8c27.7-3.2,39.2-51.1,39.3-51.6
									c0.1-0.4,0.5-0.7,0.9-0.6c0.4,0.1,0.7,0.5,0.6,0.9C522.7,533.2,511.4,580.7,482.5,584C482.6,584,482.6,584,482.5,584z"/>
							</g>
							<g>
								<path class="st4" d="M493.6,569.5c-0.3,0-0.5-0.1-0.6-0.4c-0.2-0.4-0.1-0.8,0.2-1c14.7-9.1,16.9-22.5,16.9-22.6
									c0.1-0.4,0.4-0.7,0.9-0.6c0.4,0.1,0.7,0.4,0.6,0.9c-0.1,0.6-2.3,14.2-17.6,23.7C493.8,569.4,493.7,569.5,493.6,569.5z"/>
							</g>
						</g>
						<g>
							<g>
								<path class="st8" d="M551.1,764.5l-0.7,19.2c0,0,4.7,3.5,14.5,1.8l4-20.6L551.1,764.5z"/>
								<g>
									<path class="st5" d="M562.9,782.9c0,0,3.3-4.6,6-4.5c2.7,0.2,23.8,16.4,31,17.7c7.2,1.3,6.8,10.2,4,11.2
										c-3.2,1.2-56.2,0.2-56.2,0.2s-2-18.9-0.3-23.9C549.2,778.5,557.3,784.2,562.9,782.9z"/>
									<g>
										<g>
											<path class="st12" d="M574.6,794.3c-0.3,0.1-0.5,0.1-0.8-0.1c-0.5-0.3-0.7-0.9-0.4-1.4c0.1-0.2,2.2-4,5.1-5.5
												c3.9-2,7,0.1,7.1,0.2c0.4,0.3,0.5,0.9,0.2,1.4c-0.3,0.4-0.9,0.6-1.4,0.2c-0.1-0.1-2.2-1.5-5-0.1
												c-2.4,1.2-4.3,4.7-4.3,4.7C575,794.1,574.8,794.2,574.6,794.3z"/>
										</g>
										<g>
											<path class="st12" d="M571.6,791.5c-0.3,0.1-0.5,0.1-0.8-0.1c-0.5-0.3-0.7-0.9-0.4-1.4c0.1-0.2,2.2-4,5.1-5.5
												c3.9-2,7,0.1,7.1,0.2c0.4,0.3,0.6,0.9,0.2,1.4c-0.3,0.4-0.9,0.6-1.4,0.2c-0.1-0.1-2.2-1.5-5-0.1
												c-2.4,1.2-4.3,4.7-4.3,4.7C572,791.3,571.8,791.5,571.6,791.5z"/>
										</g>
										<g>
											<path class="st12" d="M578.7,796.5c-0.3,0.1-0.5,0.1-0.8-0.1c-0.5-0.3-0.7-0.9-0.4-1.4c0.1-0.2,2.2-4,5.1-5.5
												c3.9-2,7,0.1,7.1,0.2c0.4,0.3,0.5,0.9,0.2,1.4c-0.3,0.4-0.9,0.6-1.4,0.2c-0.1-0.1-2.2-1.5-5-0.1
												c-2.4,1.2-4.3,4.7-4.3,4.7C579.1,796.3,578.9,796.5,578.7,796.5z"/>
										</g>
									</g>
								</g>
							</g>
							<g>
								<path class="st10" d="M456.7,635.6c0.5,0.7,1,1.4,1.6,2c3.6,4,8.9,6.4,16.1,6.4l85.4-0.4c-7.5,28.6-8.4,50.7-9.3,57.8
									c-6.3,53.3-2.3,63-2.3,63c0.7,0.7,1.6,1.4,2.5,2c0.6,0.4,1.3,0.8,2,1.1c5.1,2.5,12.5,3.9,18.1,2.1c0,0,52-160.8,32.9-166.8
									c-22.1-7-152.4-1.7-152.4-1.7l-1,9.4C449.3,620.4,452.4,629.4,456.7,635.6z"/>
								<g>
									<path class="st14" d="M567.6,638.7c0.5,0.7,0.7,1.6,0.5,2.4c-4.3,17.9-17.5,77.3-17.5,125.2c0.6,0.4,1.3,0.8,2,1.1
										c-0.3-47.9,13.1-107.9,17.4-125.9c0.3-1.5,0-3-0.9-4.2c-0.9-1.2-2.3-1.9-3.9-1.9H456.7c0.5,0.7,1,1.4,1.6,2h107.1
										C566.2,637.7,567,638.1,567.6,638.7z"/>
								</g>
							</g>
						</g>
						<g>
							<g>
								<path class="st10" d="M468.5,380.9c-3.3,17,4.9,30.7,21.9,33.9c17,3.3,31.2-7,34.5-24c3.3-17-4.3-31.8-21.3-35
									C483.3,351.9,471.8,363.9,468.5,380.9z"/>
								<g>
									<path class="st9" d="M519.5,398.3c0,0,5.9-5.4,8.4,0.5c2.5,5.9-5.4,20.3-13.3,14.9L519.5,398.3z"/>
									<g>
										<g>
											<path class="st13" d="M517.5,409.3c0.3,0.1,0.6-0.1,0.8-0.4c2.2-4.5,7.5-5.5,7.6-5.5c0.4-0.1,0.7-0.5,0.6-0.9
												c-0.1-0.4-0.5-0.7-0.9-0.6c-0.2,0-6.1,1.1-8.6,6.3c-0.2,0.4,0,0.8,0.3,1C517.3,409.3,517.4,409.3,517.5,409.3z"/>
										</g>
									</g>
									<g>
										<path class="st13" d="M522.9,407.9c0.1,0,0.3,0,0.4,0c0.4-0.2,0.6-0.6,0.4-1c0-0.1-0.6-1.6-2.3-2.7
											c-0.3-0.2-0.8-0.2-1,0.2c-0.2,0.3-0.2,0.8,0.2,1c1.3,0.9,1.8,2,1.8,2.1C522.4,407.6,522.6,407.8,522.9,407.9z"/>
									</g>
								</g>
								<path class="st8" d="M501.3,424.6l-3.1,16.1c0,0-4.5,4.9-9.6,4.5c-7.2-0.5-12.7-8.5-12.7-8.5l3-15.4L501.3,424.6z"/>
								<path class="st9" d="M501.3,424.6l-1.3,6.8c-5,3.8-12.6,3.5-23.1-0.2l1.9-9.8L501.3,424.6z"/>
								<path class="st8" d="M468.5,388.2c-0.1,0.9-0.2,1.8-0.3,2.7c-0.2,2.3-0.4,4.7-0.4,7.1c0,0.1,0,0.2,0,0.2
									c-0.1,11.7,2.4,23.6,11.6,29.1c20.9,12.4,32.7-5.4,38.1-16c0.6-1.2,1.2-2.5,1.8-3.9c0-0.1,0-0.1,0.1-0.2
									c0.6-1.6,1.2-3.3,1.8-5.1c0.4-1.3,0.8-2.7,1.2-4c1-3.3,1.8-6.6,2.6-9.6c1.6-6.8-1.2-13.8-7.2-17.5
									c-8.5-5.3-22-10.8-36.7-5.9c-5.4,1.8-9.5,6.4-10.7,12C469.7,380.2,469,384,468.5,388.2z"/>
								<path class="st10" d="M488.9,393.5c-0.3,1.6-1.4,2.8-2.4,2.6c-1-0.2-1.6-1.7-1.3-3.3c0.3-1.6,1.4-2.8,2.4-2.6
									C488.6,390.4,489.2,391.9,488.9,393.5z"/>
								<path class="st10" d="M510.2,397.7c-0.3,1.6-1.4,2.8-2.4,2.6c-1-0.2-1.6-1.7-1.3-3.3c0.3-1.6,1.4-2.8,2.4-2.6
									C509.9,394.6,510.5,396.1,510.2,397.7z"/>
								<path class="st10" d="M516.3,387.8c0,0-5.5-3.5-10.4-2.4l0,2.6c0,0,6.8,0.7,9.9,2.7C516.3,389.8,516.5,388.9,516.3,387.8z"
									/>
								<path class="st10" d="M482.7,381c0,0,6.4-1.2,10.5,1.6l-0.9,2.4c0,0-6.6-1.9-10.2-1.1C482,382.9,482.1,381.9,482.7,381z"/>
								<g>
									<g>
										<path class="st9" d="M493.3,407.5c-1.2-0.1-2.4-0.7-2.6-0.7c-0.4-0.2-0.5-0.6-0.3-1c0.2-0.4,0.6-0.5,1-0.3
											c0.6,0.3,2.2,0.8,2.9,0.5c0.1-0.1,0.3-0.2,0.4-0.7c0.4-2.6,0.3-11.2,0.3-11.3c0-0.4,0.3-0.7,0.7-0.7
											c0.4,0,0.7,0.3,0.7,0.7c0,0.4,0.1,8.9-0.4,11.6c-0.2,1-0.7,1.5-1.2,1.7C494.5,407.4,493.9,407.5,493.3,407.5z"/>
									</g>
								</g>
								<path class="st12" d="M482.6,409.9c0,3.1,0.9,9,7.6,10.2c6.7,1.3,9.5-3.4,10.8-6.7L482.6,409.9z"/>
								<path class="st10" d="M522.1,398.9l-3.3-0.6c1-3.2,0.6-7.4,0.1-10.3c-1.1-6.5,4.2-8.2,0.9-12c-3.3-3.8-10.8-4.5-17.5-6
									c-6.7-1.5-14.3-2.2-17.1-2.1c-2.7,0.1-3.6,3.1-3.3,6.7c0.3,3.6-5.5,3.2-7.2,10.6c-0.2,1-1.3,3.2-1.4,4.8l-5-1.4
									c0.5-4.3,1.2-8.3,1.9-11.5c1.2-5.6,5.3-10.2,10.7-12c14.7-5,28.2,0.5,36.7,5.9c5.9,3.7,8.8,10.8,7.2,17.5
									C524.2,391.7,523.2,395.4,522.1,398.9z"/>
								<g>
									<g>
										<path class="st12" d="M500.3,396.7c0.9-4.8,5.5-7.9,10.3-7c4.8,0.9,7.9,5.5,7,10.3c-0.9,4.8-5.5,7.9-10.3,7
											C502.5,406.1,499.4,401.4,500.3,396.7z M501.7,396.9c-0.8,4,1.9,7.9,5.9,8.7c4,0.8,7.9-1.9,8.7-5.9c0.8-4-1.9-7.9-5.9-8.7
											C506.3,390.3,502.4,392.9,501.7,396.9z"/>
									</g>
									<g>
										<path class="st12" d="M476.7,392.1c0.9-4.8,5.5-7.9,10.3-7c4.8,0.9,7.9,5.5,7,10.3c-0.9,4.8-5.5,7.9-10.3,7
											C478.9,401.5,475.8,396.9,476.7,392.1z M478,392.4c-0.8,4,1.9,7.9,5.9,8.7c4,0.8,7.9-1.9,8.7-5.9c0.8-4-1.9-7.9-5.9-8.7
											C482.7,385.7,478.8,388.4,478,392.4z"/>
									</g>
									<g>
										<path class="st12" d="M516.7,396.9c0.2,0,0.4,0,0.5-0.1l0,0c0,0,4.7-3.1,9.6-0.9c0.3,0.2,0.8,0,0.9-0.3
											c0.2-0.3,0-0.8-0.3-0.9c-5.6-2.5-10.7,0.9-10.9,1c-0.3,0.2-0.4,0.6-0.2,1C516.3,396.8,516.5,396.9,516.7,396.9z"/>
									</g>
									<g>
										<path class="st12" d="M478.5,389.6c0.2,0,0.5,0,0.6-0.2c0.3-0.3,0.3-0.7,0-1c-0.2-0.2-5.6-5.3-10.9-5.5
											c-0.4,0-0.7,0.3-0.7,0.7c0,0.4,0.3,0.7,0.7,0.7c4.8,0.1,10,5,10,5.1C478.3,389.5,478.4,389.6,478.5,389.6z"/>
									</g>
									<g>
										<path class="st12" d="M493.9,393.4c0,0,2-1.9,4.1-1.5c2.1,0.4,3.1,2.8,3.1,2.9l1.3-0.5c-0.1-0.1-1.3-3.1-4.1-3.7
											c-2.8-0.5-5.2,1.7-5.3,1.8L493.9,393.4z"/>
									</g>
								</g>
								<g>
									<path class="st8" d="M471,389c0,0-3.5-7.2-8-2.7c-4.5,4.5-2.5,20.8,6.8,18.7L471,389z"/>
									<g>
										<path class="st9" d="M468.8,399.9c-0.3-0.1-0.6-0.3-0.6-0.7c-0.4-5-5-7.9-5-7.9c-0.3-0.2-0.5-0.7-0.2-1
											c0.2-0.3,0.7-0.5,1-0.2c0.2,0.1,5.2,3.3,5.7,9c0,0.4-0.3,0.8-0.7,0.8C468.9,399.9,468.8,399.9,468.8,399.9z"/>
									</g>
									<g>
										<path class="st9" d="M464.3,396.6c-0.1,0-0.3-0.1-0.4-0.2c-0.3-0.3-0.3-0.7,0-1c0,0,1.2-1.2,3.1-1.7
											c0.4-0.1,0.8,0.2,0.9,0.6c0.1,0.4-0.2,0.8-0.6,0.9c-1.5,0.4-2.4,1.2-2.4,1.3C464.8,396.5,464.5,396.6,464.3,396.6z"/>
									</g>
								</g>
							</g>
						</g>
					</g>
					<g>
						<path class="st8" d="M577,563.4c0,0,19.4,3.3,27.5,10c8.1,6.7,18.9,12.6,17.3,16c-1.6,3.5-13-3.9-13-3.9s-2.7,6.3-12.1,9
							c-9.3,2.7-29.3-13.3-29.3-13.3L577,563.4z"/>
						<g>
							<g>
								<g>
									<path class="st4" d="M449.3,449.2c10.8,16.4,52.2,73,61.5,79.6c12.1,8.6,46.1,26.4,65.9,34.6c3.6,1.5-7.9,18.3-7.9,18.3
										s-48.9-16-69.7-29.3c-5.9-3.8-30.5-28.4-46.1-50.2c-5.4-7.5-14.1-17.9-15.4-28.9C436.1,460.6,440.1,453.8,449.3,449.2z"/>
								</g>
							</g>
						</g>
					</g>
					<g>
						<path class="st3" d="M549.1,602.8h99.3c2.3,0,4.1-1.8,4.1-4.1v-5.8c0-2.3-1.8-4.1-4.1-4.1h-99.3c-2.3,0-4.1,1.8-4.1,4.1v5.8
							C545,600.9,546.9,602.8,549.1,602.8z"/>
						<path class="st4" d="M670.6,602.8l21.9-81.9c1.2-4.6-2.2-9.1-7-9.1h-48.1c-3.2,0-6.1,2.2-7,5.3l-24.1,85.8H670.6z"/>
						<path class="st3" d="M630.4,517l-23.9,85.1H601l23.9-85.1c0.9-3.1,3.7-5.3,7-5.3h5.5C634.1,511.7,631.3,513.9,630.4,517z"/>
						<path class="st5" d="M642.8,560.9c-1.3,5.4,2.1,9.8,7.5,9.8c5.4,0,10.8-4.4,12.1-9.8c1.3-5.4-2.1-9.8-7.5-9.8
							C649.4,551.1,644,555.5,642.8,560.9z"/>
					</g>
				</g>
			</g>
		</g>
		<g>
			<g>
				<g>
					<g>
						<polygon class="st8" points="234.9,758.7 231.8,777.7 247.3,779.7 251.3,759.8 						"/>
						<g>
							<path class="st4" d="M238.3,775.7c0,0,8.2-1,10.4-0.6c2.2,0.3,14.5,18.7,19.3,20.4c8.7,3,6.7,16.9,1.2,16.8
								c-16-0.2-41.9-10.6-41.9-10.6s0-18.2,1.9-23.7C231,772.5,233.7,776.7,238.3,775.7z"/>
							<g>
								<g>
									<path class="st12" d="M249.1,792.8c-0.3,0-0.6-0.1-0.8-0.3c-0.5-0.4-0.5-1.1-0.1-1.5c0.1-0.2,3.4-3.7,6.8-4.6
										c4.6-1.2,7.4,1.9,7.5,2c0.4,0.5,0.4,1.1-0.1,1.5c-0.5,0.4-1.1,0.4-1.5-0.1c-0.1-0.1-2-2.2-5.3-1.3c-2.8,0.7-5.7,3.9-5.8,4
										C249.7,792.6,249.4,792.7,249.1,792.8z"/>
								</g>
								<g>
									<path class="st12" d="M246.6,789c-0.3,0-0.6-0.1-0.8-0.3c-0.5-0.4-0.5-1.1-0.1-1.5c0.1-0.2,3.4-3.7,6.8-4.6
										c4.6-1.2,7.4,1.9,7.5,2c0.4,0.5,0.4,1.1-0.1,1.5c-0.5,0.4-1.1,0.4-1.5-0.1c-0.1-0.1-2-2.2-5.3-1.3c-2.9,0.7-5.7,3.9-5.8,4
										C247.1,788.9,246.9,789,246.6,789z"/>
								</g>
								<g>
									<path class="st12" d="M252.9,796.1c-0.3,0-0.6-0.1-0.8-0.3c-0.5-0.4-0.5-1.1-0.1-1.6c0.1-0.2,3.4-3.7,6.8-4.6
										c4.6-1.2,7.4,1.9,7.5,2c0.4,0.5,0.4,1.1-0.1,1.5c-0.5,0.4-1.1,0.4-1.5-0.1c-0.1-0.1-2-2.2-5.3-1.3c-2.9,0.7-5.7,3.9-5.8,4
										C253.5,796,253.2,796.1,252.9,796.1z"/>
								</g>
							</g>
						</g>
					</g>
					<g>
						<path class="st10" d="M315.7,531.3c0,0-0.8,4.5-2.1,11.9c-0.4,2-0.7,4.1-1.2,6.5c-4.6,24.8-13.1,69.6-20.6,101.3
							C281.3,695.3,255,767.3,255,767.3l-19.3-2.6l-1.9-0.3l-4.6-0.6c0,0,8-46.4,16.2-86.6c5.4-26.5,13.5-89.7,18.4-129.6
							c2.5-20.6,4.2-35,4.2-35L315.7,531.3z"/>
					</g>
					<path class="st14" d="M315.7,531.3c0,0-0.8,4.5-2.1,11.9c-0.4,2-0.7,4.1-1.2,6.5c-9.1,0.8-33.8-0.6-48.6-2.1
						c2.5-20.6,4.2-35,4.2-35L315.7,531.3z"/>
					<g>
						<path class="st14" d="M275.8,539c-0.2,1.5-16.8,147.1-40.1,225.7l-1.9-0.3c23.3-78.3,40-224.1,40.1-225.6L275.8,539z"/>
					</g>
				</g>
				<g>
					<g>
						<polygon class="st8" points="378,765.7 377.5,783 361.7,782.3 361.2,763.9 						"/>
						<g>
							<g>
								<g>
									<path class="st4" d="M373.5,782.3c0,0,3.4-4.5,6.1-4.3c2.7,0.2,23.3,16.9,30.4,18.3c7.1,1.4,5.7,6.6,4.4,9.3
										c-1.3,2.7-56.7-1.4-56.7-1.4s-1.4-16.5,0.4-21.6C359.9,777.6,367.9,783.4,373.5,782.3z"/>
									<g>
										<g>
											<path class="st12" d="M384.9,793.9c-0.3,0.1-0.5,0-0.8-0.1c-0.5-0.3-0.6-0.9-0.4-1.4c0.1-0.2,2.3-3.9,5.2-5.4
												c3.9-1.9,6.9,0.3,7,0.4c0.4,0.3,0.5,1,0.2,1.4c-0.3,0.4-1,0.5-1.4,0.2c-0.1-0.1-2.2-1.6-5-0.2c-2.4,1.2-4.4,4.6-4.4,4.6
												C385.3,793.7,385.1,793.8,384.9,793.9z"/>
										</g>
										<g>
											<path class="st12" d="M381.9,791c-0.3,0.1-0.5,0-0.8-0.1c-0.5-0.3-0.6-0.9-0.4-1.4c0.1-0.2,2.3-3.9,5.2-5.4
												c3.9-1.9,6.9,0.3,7.1,0.4c0.4,0.3,0.5,1,0.2,1.4c-0.3,0.4-1,0.5-1.4,0.2c-0.1-0.1-2.2-1.6-5-0.2
												c-2.4,1.2-4.4,4.5-4.4,4.6C382.4,790.8,382.2,791,381.9,791z"/>
										</g>
										<g>
											<path class="st12" d="M388.9,796.2c-0.3,0.1-0.5,0-0.8-0.1c-0.5-0.3-0.6-0.9-0.4-1.4c0.1-0.2,2.3-3.9,5.2-5.4
												c3.9-1.9,6.9,0.3,7.1,0.4c0.4,0.3,0.5,1,0.2,1.4c-0.3,0.4-1,0.5-1.4,0.2c-0.1-0.1-2.2-1.6-5-0.2
												c-2.4,1.2-4.4,4.6-4.4,4.6C389.3,796,389.1,796.1,388.9,796.2z"/>
										</g>
									</g>
								</g>
							</g>
						</g>
					</g>
					<path class="st10" d="M381,770.2l-16.1-1.1l-1.9-0.1l-3.9-0.3c0,0-10.6-94.2-13.9-119.3c-2.8-21.8-15.7-70.7-24.1-101.1
						c-2.4-8.6-4.4-15.8-5.7-20.4c-1-3.6-1.6-5.7-1.6-5.7l53.9-5.6c0,0,0.2,1.2,0.4,3.3c0.6,4.4,1.6,12.7,2.9,23.2
						c3.6,28.6,9.1,73,11.2,95.6C387.7,697,381,770.2,381,770.2z"/>
					<path class="st14" d="M370.9,543.1l-49.9,5.2c-2.4-8.6-4.4-15.8-5.7-20.4l52.7-8C368.5,524.2,369.6,532.6,370.9,543.1z"/>
					<g>
						<path class="st14" d="M364.8,769.1l-1.9-0.1c-1.2-29.1-4.6-101.9-10.7-132.7c-7.6-38.8-25-95.4-25.1-95.9l1.8-0.6
							c0.2,0.6,17.5,57.2,25.2,96.1C360.2,666.9,363.7,740,364.8,769.1z"/>
					</g>
				</g>
				<path class="st4" d="M363.4,400.8c7.1,23.8,25.7,41,25.7,41c10.6,5,44.9,13.9,54.7,12c7.5-1.1,18.5-2.9,19.7-11.2
					c-13.4-0.5-62-22.3-62-22.3c-17.7-42.8-30.4-84.7-30.4-84.7C357.1,350.1,363.4,400.8,363.4,400.8z"/>
				<g>
					<path class="st5" d="M316.1,310.5c0,0-27.9,7.4-39.5,17c0,0-15.5,6.3-15.4,102.7c0.1,53.7,5.1,93.5,5.1,93.5s18.8,6.3,47.4,7.5
						c28.6,1.2,57.6-7.5,57.6-7.5s-10.6-60.1-10.8-90.6c-0.1-30.6,10.7-97.5,10.7-97.5l-32.7-20.6L316.1,310.5z"/>
					<g>
						<g>
							<g>
								<path class="st4" d="M329.5,335.5c-10.7-0.6-19.9-12.6-20.2-13.1c-0.3-0.3-0.2-0.8,0.1-1.1c0.3-0.3,0.8-0.2,1.1,0.1
									c0.1,0.1,9.7,12.6,20.1,12.5c0.4,0,0.8,0.3,0.8,0.7c0,0.4-0.3,0.8-0.7,0.8C330.2,335.5,329.9,335.5,329.5,335.5z"/>
							</g>
						</g>
					</g>
					<g>
						<g>
							<g>
								<path class="st4" d="M302.5,475.8c-0.4,0-0.7-0.3-0.7-0.7c0-0.4,0.3-0.8,0.7-0.8c27.8-1.5,42.1-48.6,42.2-49.1
									c0.1-0.4,0.5-0.6,0.9-0.5c0.4,0.1,0.6,0.5,0.5,0.9C345.6,427.7,331.4,474.3,302.5,475.8
									C302.5,475.8,302.5,475.8,302.5,475.8z"/>
							</g>
						</g>
					</g>
					<g>
						<g>
							<g>
								<path class="st4" d="M314.3,462.1c-0.3,0-0.5-0.2-0.6-0.4c-0.2-0.4-0.1-0.8,0.3-1c15.2-8.2,18.2-21.4,18.2-21.5
									c0.1-0.4,0.5-0.7,0.9-0.6c0.4,0.1,0.7,0.5,0.6,0.9c-0.1,0.6-3.1,14-19,22.5C314.6,462,314.5,462.1,314.3,462.1z"/>
							</g>
						</g>
					</g>
				</g>
				<g>
					<g>
						<path class="st8" d="M389.8,443.7l3.5,0c3.1,0,5.5-1.9,6.8-4.7c0.6-1.2,1.4-3.5,2-4.3c1.6-2.2,4-7.5,5.7-7.6
							c1.7-0.1,1.3,3.8,0.9,5.5c-0.4,2-1.2,4.5-2.2,6.4c-1,1.9,7.6,1.7,11.3,2.6c3.7,0.9,7.2,1.3,7.9,4.4c0.7,3.1-1.1,4-1.1,4
							s1.5,2.8-2.6,5.1c0,0,0.8,2.7-1.9,4.2c0,0,0.3,3.4-2.7,4.4c-3,0.9-12.5,3.8-31.3-7.3L389.8,443.7z"/>
					</g>
					<path class="st4" d="M390,441.7c0,0-56.5-14.1-77.8-25.6c0,0-7.6-22-12.9-40c-3.5-11.6-8.1-22.9-14-33.5
						c-3.3-6-5.6-12.3-8.7-15.2c0,0-16.9,12.2-6,55.2c5.9,23.4,15.2,39.5,18.8,48.6c1.8,4.6,10,9.6,14.4,11.8
						c13.8,6.9,44.6,18.8,81.6,15.1C385.3,458.2,390.7,447.6,390,441.7z"/>
				</g>
				<g>
					<path class="st8" d="M463.3,438.9c0,0,5.3,3.7,4.4,7.7c-0.9,4.1-8.4-5.5-8.4-5.5s7.6,9.7,5.2,12.4c-2.4,2.7-10-6.5-10-6.5
						s7.3,10.6,5.7,12.9c-1.6,2.2-11-7.4-11-7.4s4.2,6.9,2.4,9c-1.4,1.6-7.9-3.9-10.1-8c-2.2-4.1,3.8-5.8,3.8-5.8s2.9-4.7,5.5-4.5
						c0,0,2.1-4.7,5-5.5C455.7,437.7,458.9,435,463.3,438.9z"/>
					<path class="st8" d="M442.1,452.5c0,0-5.6,1.2-3.8,8.5c0,0,1.3-3.7,3.8-6.5V452.5z"/>
				</g>
				<g>
					<path class="st10" d="M364.7,264.9c-2.9,16.5-18.7,27.5-35.2,24.6c-16.5-2.9-25.9-18.5-23-35c2.9-16.5,17.1-27.7,33.6-24.8
						C356.6,232.6,367.6,248.4,364.7,264.9z"/>
					<path class="st10" d="M363.2,254c0,0,10.8-3.2,7-11.3c-3.7-8.2,3.3-9.1-1.1-15.3c-3.9-5.6-11.7-0.2-15.1-4.8
						c-3.4-4.6-12.1-7.7-16.6-2.7c-4.1,4.6-9.3,2-14.7,2c-9,0-5.9,8.8-8.2,13.8c-2.2,4.9-9.1,10.4-1.7,14.6
						C320.4,254.5,363.2,254,363.2,254z"/>
					<g>
						<path class="st9" d="M358.2,272.4c0,0,5.8-5.5,8.4,0.4c2.6,5.8-5.1,20.4-13.1,15.1L358.2,272.4z"/>
						<g>
							<path class="st13" d="M356.3,283.4c0.3,0.1,0.6-0.1,0.8-0.4c2.2-4.5,7.4-5.6,7.5-5.6c0.4-0.1,0.7-0.5,0.6-0.9
								c-0.1-0.4-0.5-0.7-0.9-0.6c-0.2,0-6.1,1.2-8.6,6.4c-0.2,0.4,0,0.8,0.3,1C356.2,283.3,356.3,283.4,356.3,283.4z"/>
						</g>
						<g>
							<g>
								<path class="st13" d="M361.7,281.9c0.1,0,0.3,0,0.4,0c0.4-0.2,0.6-0.6,0.4-1c0-0.1-0.7-1.5-2.3-2.7c-0.3-0.2-0.8-0.1-1,0.2
									c-0.2,0.3-0.1,0.8,0.2,1c1.3,0.9,1.8,2,1.8,2C361.3,281.7,361.5,281.8,361.7,281.9z"/>
							</g>
						</g>
					</g>
					<path class="st8" d="M318.8,295.1l-2.7,15.3c0,0,5.1,7.9,11.2,9.5c6.1,1.6,11.1-5,11.1-5l2.6-14.7L318.8,295.1z"/>
					<path class="st9" d="M318.8,295.1l-1.2,6.8c3.3,5.3,10.5,7.8,21.7,8.1l1.7-9.9L318.8,295.1z"/>
					<path class="st8" d="M308.2,272.6c0,1.5,0.1,3,0.2,4.3c0.1,1.3,0.3,2.7,0.6,4.2c1.9,11.9,8,28,29.3,24.4
						c10.6-1.8,17.2-12.1,21.3-23c1-2.6,1.8-5.3,2.5-7.9c1.3-4.7,2.1-9.2,2.7-12.8c0.9-5.7-1.3-11.4-5.7-15.1
						c-12-9.9-26.6-9.6-36.5-7.7c-6.9,1.3-12.1,6.9-13,13.8C308.8,258.9,308.1,266.5,308.2,272.6z"/>
					<g>
						<path class="st10" d="M309,281.1c1.9,11.9,8,28,29.3,24.4c10.6-1.8,17.2-12.1,21.3-23c1-2.6,1.8-5.3,2.5-7.9l-3.1,0.3
							c-1.7,4.8-4.2,11.7-6.5,14.8c-2.1-5.6-17.6-4.2-17.6-4.2s-14.6-7.6-19.8-2.8c-1.4-6.1-0.2-14.2-0.2-14.2l-3.9-1.2
							C311.1,267.3,309.8,274.2,309,281.1z M333.1,288.1c4.9,0.1,8.1,0.9,10.1,2.1c3.1,1.9,2.6,6.5-0.7,7.9c-2,0.8-3.9,1.2-5.9,1.3
							c-3.5,0.2-9.7-0.7-14.6-4.3c-2.1-1.6-2.8-4.6-1.4-6.8C322,286.1,325.4,284.8,333.1,288.1z"/>
					</g>
					<path class="st10" d="M346.5,272.3c-0.3,1.6,0.3,3.1,1.4,3.3c1,0.2,2.1-1,2.4-2.6c0.3-1.6-0.3-3.1-1.4-3.3
						C347.9,269.5,346.8,270.7,346.5,272.3z"/>
					<path class="st10" d="M324.5,268.5c-0.3,1.6,0.3,3.1,1.4,3.3c1,0.2,2.1-1,2.4-2.6c0.3-1.6-0.3-3.1-1.4-3.3
						S324.8,266.8,324.5,268.5z"/>
					<path class="st10" d="M356.1,264.7c0,0-7.3-4.5-13.8-2.9l0,2.9c0,0,6.8-0.3,12.8,3.2C355.8,266.6,356.4,266.1,356.1,264.7z"/>
					<path class="st10" d="M320.3,258.3c0,0,8.4-1.7,14,2l-1,2.7c0,0-6.3-2.6-13.1-1.4C320,260.3,319.5,259.6,320.3,258.3z"/>
					<g>
						<path class="st9" d="M334,282.2c-1.2-0.2-2.4-0.9-2.5-1c-0.3-0.2-0.4-0.7-0.2-1c0.2-0.3,0.7-0.4,1-0.2
							c0.6,0.4,2.1,1.1,2.9,0.8c0.1-0.1,0.4-0.2,0.5-0.6c0.7-2.5,1.5-11.1,1.5-11.2c0-0.4,0.4-0.7,0.8-0.7c0.4,0,0.7,0.4,0.7,0.8
							c0,0.4-0.8,8.9-1.6,11.5c-0.3,1-0.9,1.4-1.4,1.6C335.2,282.3,334.6,282.3,334,282.2z"/>
					</g>
					<path class="st12" d="M342.4,290.9c-1.1,2.9-4.1,8-10.7,6.9c-6.7-1.2-7.7-6.5-7.7-10.1L342.4,290.9z"/>
					<path class="st10" d="M358.1,277.3c1.1-2.9,2.3-6.7,2.3-8.7c-0.1-3.6-2.6-6.2-1.1-9.4c1.6-3.2-1.4-7.5-3.9-8.6
						c-2.5-1.1-8.9-0.9-14.5-4.8c-5.3-3.8-15.7-3.6-18-0.2c-2.8,4.1-0.2,5.1-6.4,9c-2.5,1.6-0.8,7-1,10.4c-0.1,1.5-0.2,2.3-0.6,3.9
						l-0.2,0.8l-6.5-1.1c0.2-5.2,0.8-10.9,1.4-15.6c0.9-6.9,6.1-12.5,13-13.8c9.9-1.9,24.5-2.3,36.5,7.7c4.4,3.7,6.6,9.4,5.7,15
						c-0.7,4.4-1.8,10.2-3.7,16.1L358.1,277.3z"/>
					<g>
						<path class="st8" d="M310.6,271.8c0.3-1.7,0.5-3.4,0.5-5.1c0-2.4-0.3-4.5-2.5-5.9c-1.7-1.1-3.8-1.5-5.6,0.4
							c-4.4,4.6-3.4,21.5,5.9,19.3L310.6,271.8z"/>
						<g>
							<g>
								<path class="st9" d="M308.1,275.5c-0.3-0.1-0.5-0.4-0.5-0.8c0.5-5-3.5-8.6-3.5-8.7c-0.3-0.3-0.3-0.7-0.1-1
									c0.3-0.3,0.7-0.3,1-0.1c0.2,0.2,4.5,4.2,4,9.9c0,0.4-0.4,0.7-0.8,0.7C308.3,275.5,308.2,275.5,308.1,275.5z"/>
							</g>
						</g>
						<g>
							<g>
								<path class="st9" d="M304.3,271.4c-0.1,0-0.2-0.1-0.3-0.3c-0.2-0.3-0.2-0.8,0.2-1c0.1,0,1.4-1,3.4-1.1
									c0.4,0,0.8,0.3,0.8,0.7c0,0.4-0.3,0.8-0.7,0.8c-1.6,0.1-2.6,0.8-2.6,0.8C304.8,271.4,304.6,271.4,304.3,271.4z"/>
							</g>
						</g>
					</g>
				</g>
			</g>
		</g>
		<g>
			<path class="st10" d="M191,810.9h-37.8c-5.1,0-9.7-3.3-11.3-8.2l-16-49.3c-0.7-2,0.8-4.1,2.9-4.3c29.2-2.3,58.1-2.3,86.7,0
				c2.1,0.2,3.5,2.3,2.9,4.3l-16,49.4C200.7,807.6,196.2,810.9,191,810.9z"/>
			<path class="st14" d="M215,752.7c0,1.3-19.1,2.4-42.6,2.4c-23.5,0-42.6-1.1-42.6-2.4c0-1.3,19.1-2.4,42.6-2.4
				C195.9,750.3,215,751.4,215,752.7z"/>
			<g>
				<g>
					<g>
						<g>
							<path class="st3" d="M170.1,662.8v89.7c1.4,0.4,2.8,0.4,4,0v-89.7c0-1.1-0.9-2-2-2l0,0C171,660.8,170.1,661.6,170.1,662.8z"
								/>
						</g>
					</g>
					<g>
						<g>
							<path class="st4" d="M171.6,688c0,0,20.4,19.3,43.7-18.3C215.3,669.7,174.9,661.6,171.6,688z"/>
						</g>
					</g>
					<g>
						<g>
							<path class="st4" d="M173.5,671.9c0,0,22.8-16.4-9.7-46.4C163.7,625.5,148.2,663.6,173.5,671.9z"/>
						</g>
					</g>
					<g>
						<g>
							<path class="st4" d="M173,721.7c0,0,22.8,16.4,40.9-24C213.9,697.8,172.8,695.1,173,721.7z"/>
						</g>
					</g>
					<g>
						<g>
							<path class="st4" d="M172.1,736.2c0,0-0.8-28.1-43.9-17.9C128.2,718.3,151.1,752.6,172.1,736.2z"/>
						</g>
					</g>
					<g>
						<g>
							<path class="st4" d="M174.2,696.2c0,0-0.1-28.1-43.4-19C130.7,677.2,152.8,712,174.2,696.2z"/>
						</g>
					</g>
				</g>
			</g>
		</g>
		<g>
			<g>
				
					<ellipse transform="matrix(0.2337 -0.9723 0.9723 0.2337 340.3043 1024.7539)" class="st0" cx="820.3" cy="296.5" rx="42" ry="42"/>
			</g>
			<g>
				
					<ellipse transform="matrix(0.2337 -0.9723 0.9723 0.2337 344.4671 1021.4732)" class="st10" cx="820.3" cy="292.2" rx="42" ry="42"/>
			</g>
			<g>
				
					<ellipse transform="matrix(0.162 -0.9868 0.9868 0.162 399.0375 1054.297)" class="st12" cx="820.3" cy="292.2" rx="38.7" ry="38.7"/>
			</g>
			<g>
				<g>
					<rect x="818.9" y="257" class="st10" width="1.4" height="8.1"/>
				</g>
				<g>
					<rect x="818.9" y="319.1" class="st10" width="1.4" height="8.1"/>
				</g>
			</g>
			<g>
				<g>
					<rect x="784.6" y="291.4" class="st10" width="8.1" height="1.4"/>
				</g>
				<g>
					<rect x="846.6" y="291.4" class="st10" width="8.1" height="1.4"/>
				</g>
			</g>
			<g>
				<g>
					
						<rect x="837.6" y="269.4" transform="matrix(0.7072 -0.7071 0.7071 0.7072 55.4338 674.1651)" class="st10" width="8.1" height="1.4"/>
				</g>
				<g>
					
						<rect x="793.7" y="313.3" transform="matrix(0.707 -0.7072 0.7072 0.707 11.6226 656.12)" class="st10" width="8.1" height="1.4"/>
				</g>
			</g>
			<g>
				<g>
					
						<rect x="797" y="266.1" transform="matrix(0.7072 -0.707 0.707 0.7072 42.5818 643.1362)" class="st10" width="1.4" height="8.1"/>
				</g>
				<g>
					
						<rect x="840.9" y="310" transform="matrix(0.7071 -0.7071 0.7071 0.7071 24.4424 687.0731)" class="st10" width="1.4" height="8.1"/>
				</g>
			</g>
			<g class="st15">
				<path class="st10" d="M859,292.2c0,0.7,0,1.5-0.1,2.2c-1.1-20.3-18-36.5-38.6-36.5c-20.6,0-37.5,16.2-38.6,36.5
					c0-0.7-0.1-1.5-0.1-2.2c0-21.3,17.3-38.7,38.7-38.7C841.6,253.5,859,270.9,859,292.2z"/>
			</g>
			<g>
				<path class="st4" d="M832,297.5l-12.5-4.9c-0.3-0.1-0.5-0.5-0.3-0.8l0,0c0.1-0.3,0.5-0.5,0.8-0.4l12.5,4.9
					c0.3,0.1,0.5,0.5,0.4,0.8l0,0C832.7,297.4,832.3,297.6,832,297.5z"/>
			</g>
			<g>
				<polygon class="st10" points="820.3,292.7 797.7,292.7 797.7,291.5 819,291.5 819,274 820.3,274 				"/>
			</g>
		</g>
	</g>
</g>
</svg>
