<?xml version="1.0" encoding="utf-8"?>
<!-- Generator: Adobe Illustrator 25.2.1, SVG Export Plug-In . SVG Version: 6.00 Build 0)  -->
<svg version="1.1" id="Layer_1" xmlns="http://www.w3.org/2000/svg" xmlns:xlink="http://www.w3.org/1999/xlink" x="0px" y="0px"
	 viewBox="0 0 1000 1000" style="enable-background:new 0 0 1000 1000;" xml:space="preserve">
<style type="text/css">
	.st0{fill:#3C3B58;}
	.st1{fill:#437EB6;}
	.st2{fill:none;stroke:#3C3B58;stroke-width:12;stroke-miterlimit:10;}
</style>
<g>
	<g>
		<path class="st0" d="M420.4,567.9c-46.5,0-93.1,0-139.6,0c-12.5,0-16-3.3-15.8-15.8c0.3-19.4-1.4-38.9,2.7-58.2
			c4.5-21.3,14.8-38.3,32.4-51.6c12.8-9.7,27.7-14.1,42.4-18.7c10.8-3.4,19-10.3,28.2-15.9c6.3-3.8,6.4-14.1,1.5-19.6
			c-10.5-11.7-17.9-25.3-21.8-40.3c-2.9-11.1-7.5-20.9-13.5-30.6c-8.5-13.5-13-28.5-13.5-44.5c-0.6-21.8,9.1-37.8,28-48.5
			c2.6-1.5,5.9-1.8,6.2-6.4c1.6-20.5,10-28.6,30.5-30c27.9-2,53.4,6.1,77.8,18.7c14.8,7.6,28,17.5,38.2,30.9
			c18.1,23.7,19.3,50.9,2.4,75.3c-6.4,9.3-10.8,18.7-13.3,29.8c-3.9,17.6-11.9,33.6-24.7,46.7c-3.2,3.2-3.4,6.2-2.2,10.2
			c2.4,7.8,7.7,12.8,14.7,16.4c10.1,5.2,21,8.5,31.7,12.4c19.1,7,36.5,16.4,48.3,33.8c10.6,15.5,14.7,33,15.5,51.3
			c0.6,13.5,0.3,27,0.3,40.6c0,10.1-4,14-14.4,14c-37.6,0.1-75.2,0-112.8,0C439.9,567.9,430.2,567.9,420.4,567.9z M420.5,546.6
			c20.5,0,41.1-0.4,61.6,0.2c7.5,0.2,9.4-2.3,8.8-9.2c-0.6-5.9-0.3-11.9-0.1-17.8c0.3-7,4.8-11.8,10.8-11.8s10.1,4.8,10.3,12.1
			c0.2,7,0.2,14.1,0,21.1c-0.1,3.6,0.9,5.5,5,5.5c11.4-0.2,22.7-0.1,34.1,0c3,0,4.6-1,4.6-4.2c-0.1-17.8,1.3-35.8-4.6-53.1
			c-4.6-13.4-12.3-23.7-25-31.4c-12.5-7.5-26.1-11.2-39.2-16.8c-3-1.3-5-0.2-7.4,1.4c-39.7,27.5-78.1,27.4-117.1-0.3
			c-2-1.5-3.7-2.7-6.5-1.6c-12.3,4.8-25.2,8.3-36.9,14.7c-13.4,7.3-22.7,17.9-27.8,32.5c-6.3,18.1-4.8,36.8-4.9,55.4
			c0,3.8,2.7,3.3,5.1,3.3c11.1,0,22.2-0.2,33.3,0.1c4.4,0.1,5.6-1.6,5.5-5.7c-0.2-6.8-0.1-13.5,0-20.3c0.1-8.7,3.2-12.4,10.3-12.7
			c6.6-0.2,10.8,4.7,10.9,13.2c0.1,6.2,0.3,12.5-0.1,18.7c-0.4,5.3,1.5,7,6.9,6.9C378.9,546.5,399.7,546.6,420.5,546.6z
			 M475.8,309.6c0-3.2,0.2-6.5-0.1-9.7c-0.2-2.4-0.8-4.8-1.3-7.2c-2.9-13.4-3.7-13.8-16.6-9.5c-14.8,4.9-28.8,12.3-44.5,14.8
			c-13.7,2.2-21-6-16.4-19c1.5-4.3,0.2-5.6-3.3-5.8c-13.2-0.5-23.3,3.9-26.1,18.3c-5.4,27.3-0.2,52.9,15.4,75.7
			c20.5,29.9,56.2,29.2,76.5-1C470.8,349.3,475.8,330.1,475.8,309.6z M495.3,285.5c3.6-11.1,0.7-19.9-3.8-28.4
			c-3.7-7-9-12.8-15.1-17.8c-25.1-20.3-53.7-30.9-86-30.2c-11.4,0.2-13,3-9.3,13.2c2.9,8.1,0.9,12.7-7.2,16
			c-4.2,1.8-8.7,3.2-12.7,5.4c-15,8.2-20.3,23.6-14.1,39.7c12.1-30.5,37-35.9,59.2-29c7,2.2,13.3,6,14.5,13.7c1,6.6,3.6,5.5,8,3.7
			c10.7-4.5,21.3-9.3,32.8-11.7c14.9-3.1,23.7,1.4,29.9,15.4C492.7,278.4,493.7,281.3,495.3,285.5z M420.7,441.6
			c13.7,0.5,25.6-3.1,36.9-9.5c3.6-2,4.1-3.4,0.8-6.2c-4.8-4.1-8.6-9.1-10.5-15.1c-1.6-5-3.9-4.9-8.3-3.6c-11.8,3.7-24,4.2-35.8,0.4
			c-6.2-2-9-0.7-11,5.3c-1.6,4.9-5.1,9-9,12.2c-4.4,3.7-2.6,5.2,1.2,7.3C396.4,438.6,408.3,442.4,420.7,441.6z"/>
		<path class="st1" d="M702.1,510.9c-27.3,0-54.6,0-81.9,0c-11.7,0-15.3-3.5-14.2-15.2c3-32,6.4-63.9,9.7-95.9
			c0.7-7,4.7-10.6,11.8-10.7c8.1,0,16.3-0.4,24.3,0.1c6.3,0.4,8-2,7.5-7.9c-0.5-5.6-0.2-11.4-0.1-17c0.3-8.2,3.8-12,11.9-12.1
			c20.8-0.2,41.6-0.2,62.5,0c8.5,0.1,12.1,3.9,12.2,12.6c0.1,6.2,0.2,12.4,0,18.7c-0.2,4.2,1.3,5.8,5.6,5.6c8.9-0.2,17.8-0.1,26.8,0
			c6.8,0,10.7,3.6,11.3,10.2c3.4,32.5,6.8,65,9.8,97.5c1,10.4-2.9,14-13.7,14C757.8,511,729.9,510.9,702.1,510.9z M701.4,489.7
			c23,0,46-0.1,69,0.1c4.9,0,6.8-1.3,6.2-6.5c-1.5-14-2.8-28-3.9-42c-0.4-5.1-2.5-4.9-6.2-2.8c-8.7,5-17.5,9.7-26.3,14.4
			c-7.3,3.9-64,5.9-66.1,4.7c-11.7-6.2-23.4-12.4-35-18.9c-4.6-2.6-6.4-2.4-6.8,3.5c-0.9,13.5-2,27-3.9,40.3
			c-0.9,6.2,0.9,7.3,6.6,7.2C657,489.6,679.2,489.7,701.4,489.7z M636.3,410.8c-0.3,0.7-0.6,1.4-0.9,2.1c13,6.9,26.2,13.5,38.9,20.9
			c7.1,4.1,14.2,5.1,22.2,5.7c16.6,1.3,31.3-2.4,45.1-11.6c7.2-4.8,15.2-8.2,22.8-12.4c1.7-0.9,4.3-1.4,3.5-4.8
			C724,410.8,680.2,410.8,636.3,410.8z M702.6,389.1c5.9,0,11.9,0.2,17.8-0.1c7.6-0.4,3.3-6.4,4.3-9.9c0.9-3.2,0.2-5.7-4.3-5.7
			c-11.6,0.2-23.2,0.1-34.8,0c-8.4,0-4.2,6.4-5.2,10c-1.2,4.3,1,5.8,5.2,5.6C691.2,388.9,696.9,389.1,702.6,389.1z M740.1,453
			c-38.1,22.3-64,5.9-66.1,4.7c-11.7-6.2-23.4-12.4-35-18.9"/>
		<path class="st1" d="M668.2,331.1c-18.4,0-36.8,0.2-55.2-0.1c-5.5-0.1-10.7,2.4-16.7,0.5c-5.7-1.9-8-4.6-8-10.2
			c0-18.1-0.3-36.2,0.1-54.3c0.1-6-1.9-8.7-7.5-10.3c-7.5-2.1-14.9-4.9-22.3-7.4c-4.8-1.6-7.6-4.7-8.1-10c-0.5-5.5,2.4-8.5,6.9-10.6
			c7.8-3.6,16-6.4,24-9c23.4-7.7,46.8-15.5,70-23.8c8-2.8,15.2-3.1,23.4-0.1c30,10.9,60.1,21.1,90.3,31.3c8.1,2.7,11.9,7.2,11.4,16
			c-0.6,10.5-0.4,21.1-0.2,31.6c0.1,7.1-4.4,9.8-10,10.2c-6.2,0.5-10.2-3.4-11-9.6c-0.6-4.3-0.3-8.6-0.1-13c0.2-4.3-2.5-5.8-5.8-6.2
			c-4.7-0.6-11.6,5.9-11.6,10.6c0,16.8,0,33.5,0,50.3c0,11.1-2.9,14-13.8,14C705.5,331.2,686.8,331.1,668.2,331.1z M663,309.8
			c15.7,0,31.3-0.2,47,0.1c5.4,0.1,7-1.7,6.8-7c-0.4-10-0.2-20,0-30c0.1-4.5-1-5.7-5.6-4c-13.4,4.9-27.1,9.2-40.5,14.2
			c-4.9,1.8-9.2,1.8-14.1,0.1c-13.4-4.9-27.1-9.3-40.5-14.2c-5-1.8-6.8-1.1-6.6,4.5c0.3,10,0.3,20,0,30c-0.2,5,1.5,6.5,6.5,6.4
			C631.6,309.6,647.3,309.8,663,309.8z M730.6,239.4c-0.1-0.6-0.1-1.2-0.2-1.8c-8.9-3.1-17.8-6.3-26.6-9.4
			c-13.3-4.6-26.5-12.7-39.8-12.8s-26.5,8-39.8,12.5c-1,0.3-2.1,0.6-3.1,1c-8.2,3-16.4,5.9-27,9.8c24.2,8.4,46,16,67.9,23.5
			c1.1,0.4,2.7,0.2,3.9-0.3C687.5,254.4,709.1,246.9,730.6,239.4z"/>
	</g>
	<path class="st2" d="M260.2,638.4c0,0,79.9-32.6,127.2-36.8s197.4,18.2,222.3,22.4c23.5,3.9,30,43.3-2.2,51.9
		c-1.9,0.5-3.9,0.9-6.1,1.2c-10.6,1.4-24.8,1.8-39.8,1.7c-40.4-0.2-87.1-4.2-87.1-4.2s171.3,28.2,158.4-29.4l7.1-9.1l143.9-86.7
		c0,0,33.2-15.8,44.8,6.6c11.6,22.4,1.7,37.3-11.6,51.4S638.7,757.5,638.7,757.5s-19.1,24.1-92.1,13.3s-160.1-19.9-176.7-19.9
		s-67.2,27.4-67.2,27.4s10,20.7-11.6,27.4s-22.4,9.1-32.3,10.8s-12.4,5-19.9-26.5s-41.5-139.3-41.5-139.3s-7.5-12.4,11.6-18.2
		s39.8-19.1,41.5-11.6s53.4,160.9,53.4,160.9"/>
</g>
</svg>
