<?xml version="1.0" encoding="utf-8"?>
<!-- Generator: Adobe Illustrator 25.2.1, SVG Export Plug-In . SVG Version: 6.00 Build 0)  -->
<svg version="1.1" id="Layer_1" xmlns="http://www.w3.org/2000/svg" xmlns:xlink="http://www.w3.org/1999/xlink" x="0px" y="0px"
	 viewBox="0 0 1000 1000" style="enable-background:new 0 0 1000 1000;" xml:space="preserve">
<style type="text/css">
	.st0{clip-path:url(#SVGID_2_);fill:#ECECEC;}
	.st1{clip-path:url(#SVGID_4_);fill:#3C3B58;}
	.st2{fill:#E1E1E1;}
	.st3{fill:#F5F5F5;}
	.st4{fill:none;stroke:#E1E1E1;stroke-width:5.000000e-02;stroke-miterlimit:10;}
	.st5{fill:#ECECEC;}
	.st6{fill:none;stroke:#3C3B58;stroke-width:9;stroke-miterlimit:10;}
	.st7{fill:none;stroke:#437EB6;stroke-width:5;stroke-miterlimit:10;}
	.st8{fill:none;stroke:#3C3B58;stroke-width:15;stroke-miterlimit:10;}
	.st9{fill:none;stroke:#437EB6;stroke-width:7;stroke-miterlimit:10;}
	.st10{fill:none;stroke:#437EB6;stroke-width:3;stroke-miterlimit:10;}
	.st11{fill:#1A2E35;stroke:#437EB6;stroke-width:7;stroke-miterlimit:10;}
	.st12{fill:none;stroke:#44555B;stroke-width:5.000000e-02;stroke-miterlimit:10;}
	.st13{fill:none;stroke:#3C3B58;stroke-width:12;stroke-miterlimit:10;}
</style>
<g>
	<g>
		<g>
			<defs>
				<path id="SVGID_1_" d="M458.3,605.5c3.8,0.2,21.6,3.2,27,4.5c-7.8-31.5-7.9-41.4-0.9-57.1c8.5-18.7,23.6-30,42.7-36.2
					c21-6.7,51.7-3.3,72.6,21.6c11.4,13.6,16.6,29.7,16.2,47.4c-0.4,22.3-9.6,40.4-28.4,54.3c13.5,2.7,24.4,7.7,30.6,19.6
					c1,2,2.4,1,3.6,0.4c6.5-3.4,12.9-7,19.5-10.3c2.4-1.3,2.7-2.4,0.8-4.3c-3.5-3.6-2.9-7-0.2-11.1c6.3-9.2,11.1-19.3,13.5-30.3
					c1.4-6.6,6.6-10.9,13.3-9.7c5,1,8.3-2.9,12.7-3.2c1.5-0.2,1.1-2,1.1-3.2c-0.3-6.3-0.6-12.6-0.8-18.9c0-2.8-1-3.8-3.7-4
					c-6.3-0.6-12.5-1.6-18.7-2.2c-3-0.3-5-1.6-5.9-4.6c-3.7-12-9.7-22.8-17-32.9c-2.5-3.5-2.3-6.4,0.1-9.8
					c3.9-5.4,7.4-11.1,11.2-16.4c1.5-2.1,1.7-3.6-0.4-5.5c-4.7-4.1-9.3-8.4-13.8-12.9c-1.9-1.9-3.2-1.9-5.3-0.1
					c-5.2,4.4-10.8,8.4-16,12.7c-3.3,2.7-6.5,3.3-10.3,1c-9.7-5.6-20.2-9.5-31.2-11.6c-4.2-0.8-6.1-2.9-6.8-7.1
					c-1.2-7-2.7-13.7-3.9-20.6c-0.4-2.6-1.5-3.6-4.3-3.4c-5.9,0.5-11.9,0.8-17.7,0.9c-3.5,0-4.6,1.4-4.9,4.7
					c-0.6,6.8-1.6,13.5-2.5,20.3c-0.4,3.3-2.1,5.1-5.3,5.9c-11.8,2.8-22.7,7.8-32.7,14.6c-3,2-5.5,2-8.4,0
					c-5.6-3.9-11.4-7.5-17-11.5c-2.2-1.5-3.5-1.7-5.4,0.4c-4.1,4.7-8.4,9.3-12.9,13.8c-1.9,2-1.8,3.4-0.1,5.4
					c4,4.8,7.8,9.8,11.7,14.8c2.3,2.8,2.6,5.7,0.5,8.9c-6.9,10.7-11.5,22.3-13.9,34.8c-0.7,4-3,5.8-6.8,6.5
					c-5.5,0.9-10.9,2.3-16.4,3.2c-2.8,0.4-4,1.6-3.8,4.5c0.3,5.7,0.6,11.5,0.6,17.2c0,3.5,1.4,5,4.9,5.3c6,0.5,12.7,0,18,2.5
					C449.1,606.8,447,606.7,458.3,605.5z M553,640.1c31.2-1.6,53.6-26.9,52.2-58.7c-1.5-33.5-28.9-58.3-62.5-56.6
					c-29.4,1.5-54.5,28-52.9,56.7c0.9,16.1,6.1,31.1,18.2,41.8C520.5,634,535.1,642.1,553,640.1z"/>
			</defs>
			<clipPath id="SVGID_2_">
				<use xlink:href="#SVGID_1_"  style="overflow:visible;"/>
			</clipPath>
			<polygon class="st0" points="410.7,603 476.6,609.3 533.1,617.9 602,628.1 626.4,646.4 658.2,626.9 710.3,566.6 645.5,467.8 
				557.9,440 486.3,455.4 411,496.2 			"/>
		</g>
	</g>
	<g>
		<g>
			<defs>
				<path id="SVGID_3_" d="M458.3,605.5c3.8,0.2,21.6,3.2,27,4.5c-7.8-31.5-7.9-41.4-0.9-57.1c8.5-18.7,23.6-30,42.7-36.2
					c21-6.7,51.7-3.3,72.6,21.6c11.4,13.6,16.6,29.7,16.2,47.4c-0.4,22.3-9.6,40.4-28.4,54.3c13.5,2.7,24.4,7.7,30.6,19.6
					c1,2,2.4,1,3.6,0.4c6.5-3.4,12.9-7,19.5-10.3c2.4-1.3,2.7-2.4,0.8-4.3c-3.5-3.6-2.9-7-0.2-11.1c6.3-9.2,11.1-19.3,13.5-30.3
					c1.4-6.6,6.6-10.9,13.3-9.7c5,1,8.3-2.9,12.7-3.2c1.5-0.2,1.1-2,1.1-3.2c-0.3-6.3-0.6-12.6-0.8-18.9c0-2.8-1-3.8-3.7-4
					c-6.3-0.6-12.5-1.6-18.7-2.2c-3-0.3-5-1.6-5.9-4.6c-3.7-12-9.7-22.8-17-32.9c-2.5-3.5-2.3-6.4,0.1-9.8
					c3.9-5.4,7.4-11.1,11.2-16.4c1.5-2.1,1.7-3.6-0.4-5.5c-4.7-4.1-9.3-8.4-13.8-12.9c-1.9-1.9-3.2-1.9-5.3-0.1
					c-5.2,4.4-10.8,8.4-16,12.7c-3.3,2.7-6.5,3.3-10.3,1c-9.7-5.6-20.2-9.5-31.2-11.6c-4.2-0.8-6.1-2.9-6.8-7.1
					c-1.2-7-2.7-13.7-3.9-20.6c-0.4-2.6-1.5-3.6-4.3-3.4c-5.9,0.5-11.9,0.8-17.7,0.9c-3.5,0-4.6,1.4-4.9,4.7
					c-0.6,6.8-1.6,13.5-2.5,20.3c-0.4,3.3-2.1,5.1-5.3,5.9c-11.8,2.8-22.7,7.8-32.7,14.6c-3,2-5.5,2-8.4,0
					c-5.6-3.9-11.4-7.5-17-11.5c-2.2-1.5-3.5-1.7-5.4,0.4c-4.1,4.7-8.4,9.3-12.9,13.8c-1.9,2-1.8,3.4-0.1,5.4
					c4,4.8,7.8,9.8,11.7,14.8c2.3,2.8,2.6,5.7,0.5,8.9c-6.9,10.7-11.5,22.3-13.9,34.8c-0.7,4-3,5.8-6.8,6.5
					c-5.5,0.9-10.9,2.3-16.4,3.2c-2.8,0.4-4,1.6-3.8,4.5c0.3,5.7,0.6,11.5,0.6,17.2c0,3.5,1.4,5,4.9,5.3c6,0.5,12.7,0,18,2.5
					C449.1,606.8,447,606.7,458.3,605.5z M553,640.1c31.2-1.6,53.6-26.9,52.2-58.7c-1.5-33.5-28.9-58.3-62.5-56.6
					c-29.4,1.5-54.5,28-52.9,56.7c0.9,16.1,6.1,31.1,18.2,41.8C520.5,634,535.1,642.1,553,640.1z"/>
			</defs>
			<clipPath id="SVGID_4_">
				<use xlink:href="#SVGID_3_"  style="overflow:visible;"/>
			</clipPath>
			<polygon class="st1" points="405.6,602.6 528.1,615.5 607.3,627.9 630.7,635 650,634.6 712.9,591.9 703.9,517.2 636.5,461.6 
				569.7,438.6 453.9,448.7 390.4,560.5 			"/>
		</g>
	</g>
</g>
<g>
	<g>
		<g>
			<g>
				<g>
					<path class="st2" d="M312.1,230.7c2-1.2,4.1-2.2,6.3-2.8l1.3-6.3l10.5-0.2l1.4,6.3c2.2,0.6,4.3,1.4,6.4,2.5l5.3-3.5l7.6,7.4
						l-3.3,5.5c1.2,2,2.2,4.2,2.8,6.4l6.2,1.3l0.2,10.7l-6.2,1.5c-0.6,2.2-1.3,4.4-2.5,6.5l3.4,5.4l-7.3,7.7l-5.4-3.4
						c-2,1.2-4.1,2.2-6.3,2.8l-1.3,6.3l-10.5,0.2l-1.4-6.3c-2.2-0.6-4.3-1.4-6.4-2.5l-5.3,3.5l-7.6-7.4l3.3-5.5
						c-1.2-2-2.2-4.2-2.8-6.4l-6.2-1.3l-0.2-10.7l6.2-1.5c0.6-2.2,1.3-4.4,2.5-6.5l-3.4-5.4l7.3-7.7L312.1,230.7L312.1,230.7z
						 M317.7,244.9c-4.3,4.6-4.2,11.8,0.3,16.2c4.5,4.4,11.6,4.3,16-0.3c4.3-4.6,4.2-11.8-0.3-16.2
						C329.2,240.2,322,240.4,317.7,244.9z"/>
				</g>
			</g>
			<g>
				<g>
					<g>
						<path class="st2" d="M317.7,244.9c0,0,0.6-0.8,2.1-1.9c1.4-1,4.1-2.1,7.4-1.8c1.5,0.2,3.4,0.7,5,1.8s3.2,2.5,4.1,4.6
							c0.4,1,0.9,2.1,1,3.2c0.2,1.1,0.2,2.3,0.1,3.5c-0.3,2.4-1.3,4.7-3.2,6.6c-1.8,1.8-4.1,3-6.4,3.4c-1.2,0.2-2.3,0.2-3.4,0.1
							c-1.2-0.1-2.3-0.6-3.2-0.9c-2-0.9-3.5-2.4-4.7-4c-1.1-1.5-1.7-3.4-2-5c-0.4-3.3,0.6-5.9,1.4-7.6
							C316.9,245.5,317.7,244.9,317.7,244.9c0.1,0.1-0.7,0.8-1.5,2.3s-1.8,4.2-1.3,7.4c0.3,1.5,0.9,3.3,2,4.7s2.5,2.9,4.5,3.6
							c1,0.4,2,0.7,3.1,0.9c1.1,0.2,2.2,0.1,3.2-0.1c2.3-0.4,4.3-1.5,5.9-3.2c1.7-1.8,2.6-4,3-6.3c0.2-1.1,0.1-2.3,0-3.3
							c-0.2-1.1-0.4-2.1-1-3.1c-0.9-1.9-2.3-3.4-3.9-4.5c-1.5-1.1-3.2-1.5-4.8-1.8c-3.2-0.4-5.7,0.6-7.2,1.5
							C318.4,244.1,317.7,244.9,317.7,244.9z"/>
					</g>
				</g>
			</g>
			<g>
				<g>
					<g>
						<path class="st2" d="M312.1,230.7c0,0-0.1-0.1-0.4-0.2c-0.3-0.2-0.6-0.4-1.1-0.6c-1-0.6-2.3-1.4-4.1-2.5h0.1
							c-1.9,2-4.3,4.6-7.3,7.7v-0.2c1.1,1.5,2.3,3.5,3.5,5.4l0.1,0.1l-0.1,0.1c-1.1,1.9-1.9,4.1-2.4,6.5v0.1h-0.1
							c-2,0.6-4.1,1-6.2,1.5l0.2-0.2c0.1,3.4,0.1,6.9,0.2,10.7l-0.2-0.2c2,0.4,4.1,0.9,6.2,1.3h0.2v0.2c0.6,2.1,1.4,4.3,2.8,6.3
							l0.1,0.1l-0.1,0.1c-1,1.7-2.2,3.6-3.2,5.5V272c2.3,2.3,5,4.8,7.6,7.4h-0.4c1.7-1.1,3.4-2.3,5.3-3.6l0.2-0.1l0.2,0.1
							c1.9,1.1,4.1,2,6.3,2.5h0.2v0.2c0.4,2,1,4.1,1.4,6.3l-0.3-0.2c3.3-0.1,6.8-0.1,10.5-0.2l-0.3,0.3c0.4-2,0.9-4.2,1.3-6.3v-0.2
							l0.2-0.1c2.1-0.6,4.2-1.5,6.2-2.6l0,0l0.2-0.1l0.2,0.1c1.9,1.1,3.6,2.2,5.4,3.4l-0.4,0.1c2.4-2.5,5-5.2,7.3-7.7v0.4
							c-1.2-1.8-2.3-3.6-3.4-5.4l-0.1-0.2l0.1-0.2c1.1-2,2-4.2,2.4-6.4v-0.2h0.2c2.1-0.6,4.1-1,6.2-1.5l-0.2,0.3
							c-0.1-3.6-0.1-7.2-0.2-10.7l0.2,0.3c-2.2-0.6-4.2-0.9-6.2-1.3h-0.2v-0.2c-0.6-2.3-1.5-4.4-2.6-6.3l-0.1-0.1l0.1-0.1
							c1.2-1.9,2.3-3.6,3.3-5.5v0.3c-2.6-2.5-5.2-5.1-7.6-7.5h0.3c-1.9,1.2-3.6,2.4-5.3,3.5l-0.1,0.1l-0.1-0.1
							c-2.2-1.2-4.2-2-6.3-2.5h-0.1v-0.1c-0.6-2.3-1.1-4.3-1.4-6.3l0.2,0.1c-4.1,0.1-7.6,0.1-10.5,0.1l0.1-0.1
							c-0.4,2.5-1,4.6-1.3,6.3v0.1h-0.1c-2.3,0.6-3.9,1.4-4.8,1.9c-0.4,0.3-0.9,0.6-1.2,0.6C312.2,230.6,312.1,230.7,312.1,230.7
							s0.1-0.1,0.4-0.2c0.2-0.2,0.6-0.4,1.1-0.7c1-0.6,2.5-1.3,4.8-2l-0.1,0.1c0.3-1.7,0.8-3.7,1.3-6.3v-0.1h0.1
							c3-0.1,6.5-0.1,10.5-0.2h0.2v0.2c0.4,1.9,1,4,1.5,6.3l-0.2-0.2c2.2,0.6,4.3,1.3,6.5,2.5H338c1.7-1.1,3.4-2.3,5.3-3.6l0.2-0.1
							l0.1,0.1c2.3,2.3,5,4.7,7.6,7.4l0.2,0.2l-0.1,0.2c-1.1,1.8-2.2,3.6-3.2,5.5v-0.3c1.2,2,2.2,4.2,2.8,6.5l-0.2-0.2
							c2.1,0.4,4.1,0.9,6.2,1.3h0.2v0.2c0.1,3.5,0.1,7,0.2,10.7v0.3l-0.2,0.1c-2.1,0.6-4.1,1-6.2,1.5l0.2-0.2
							c-0.6,2.3-1.3,4.5-2.5,6.6V266c1.2,1.8,2.3,3.6,3.5,5.4l0.1,0.2l-0.2,0.2c-2.3,2.5-4.8,5.1-7.3,7.7l-0.2,0.2l-0.2-0.1
							c-1.8-1.1-3.6-2.2-5.4-3.4h0.3l0,0c-2.1,1.3-4.2,2.2-6.4,2.8l0.2-0.2c-0.4,2.2-0.9,4.3-1.3,6.3l-0.1,0.3h-0.3
							c-3.6,0.1-7.2,0.1-10.5,0.2h-0.3l-0.1-0.3c-0.4-2.2-1.1-4.3-1.4-6.3l0.2,0.2c-2.3-0.6-4.5-1.5-6.5-2.5h0.3
							c-1.9,1.2-3.6,2.4-5.3,3.5l-0.2,0.1l-0.2-0.2c-2.6-2.5-5.2-5.1-7.6-7.5l-0.2-0.2l0.1-0.2c1.2-1.9,2.3-3.7,3.3-5.5v0.3
							c-1.3-2.1-2.2-4.4-2.8-6.5l0.2,0.2c-2.2-0.6-4.3-0.9-6.2-1.3h-0.2v-0.2c-0.1-3.7-0.1-7.3-0.2-10.7v-0.2h0.2
							c2.2-0.6,4.2-1,6.2-1.5L300,247c0.6-2.4,1.4-4.6,2.5-6.5v0.2c-1.3-2-2.4-3.7-3.4-5.4l-0.1-0.1l0.1-0.1c3-3.1,5.5-5.7,7.4-7.7
							l0.1-0.1h0.1c1.8,1.1,3.1,1.9,4.1,2.5c0.4,0.3,0.8,0.6,1,0.7C312,230.6,312.1,230.7,312.1,230.7z"/>
					</g>
				</g>
			</g>
		</g>
		<g>
			<g>
				<g>
					<path class="st3" d="M620.6,306.2c1.2-0.7,2.4-1.3,3.7-1.7l0.8-3.7l6.3-0.1l0.9,3.7c1.3,0.3,2.6,0.8,3.9,1.5l3.2-2.1l4.5,4.5
						l-2,3.3c0.7,1.2,1.3,2.5,1.7,3.7l3.7,0.8l0.1,6.4l-3.7,0.9c-0.3,1.3-0.8,2.6-1.4,3.9l2.1,3.2l-4.4,4.6l-3.2-2
						c-1.2,0.7-2.4,1.3-3.7,1.7l-0.8,3.7l-6.3,0.1l-1-3.6c-1.3-0.3-2.6-0.8-3.9-1.5l-3.2,2.1l-4.5-4.5l2-3.3
						c-0.7-1.2-1.3-2.5-1.7-3.7l-3.7-0.8l-0.1-6.4l3.7-0.9c0.3-1.3,0.8-2.6,1.4-3.9l-2.1-3.2l4.4-4.6L620.6,306.2L620.6,306.2z
						 M623.9,314.8c-2.5,2.6-2.5,7,0.2,9.7c2.6,2.5,6.9,2.5,9.5-0.2c2.5-2.6,2.5-7-0.2-9.7C630.8,312,626.6,312,623.9,314.8z"/>
				</g>
			</g>
			<g>
				<g>
					<g>
						<path class="st3" d="M623.9,314.8c0,0,0.4-0.6,1.3-1.1c0.9-0.6,2.4-1.3,4.4-1.1c1,0.1,2.1,0.4,3.1,1.1s1.9,1.5,2.4,2.8
							c0.3,0.6,0.4,1.2,0.6,1.9c0.1,0.7,0.1,1.4,0,2.1c-0.2,1.4-0.9,2.9-1.9,4c-1.1,1.1-2.4,1.8-3.9,2c-0.7,0.1-1.3,0.1-2.1,0
							c-0.7-0.1-1.3-0.3-2-0.6c-1.2-0.6-2.2-1.4-2.9-2.4s-1-2-1.2-3c-0.3-2,0.3-3.6,0.9-4.5C623.5,315.2,623.9,314.8,623.9,314.8
							s-0.4,0.6-0.9,1.4s-1.1,2.5-0.8,4.4c0.2,0.9,0.4,2,1.2,2.9c0.7,0.9,1.5,1.7,2.6,2.2c0.6,0.3,1.2,0.4,1.9,0.6
							c0.7,0.1,1.3,0.1,2,0c1.3-0.2,2.6-0.9,3.6-1.9c1-1.1,1.5-2.4,1.8-3.6c0.1-0.7,0.1-1.4,0-2s-0.3-1.3-0.6-1.8
							c-0.4-1.1-1.3-2-2.3-2.6c-0.9-0.6-2-1-2.9-1.1c-1.9-0.2-3.4,0.4-4.3,0.9C624.4,314.3,623.9,314.8,623.9,314.8z"/>
					</g>
				</g>
			</g>
			<g>
				<g>
					<g>
						<path class="st3" d="M620.6,306.2c0,0-0.1,0-0.2-0.1c-0.2-0.1-0.4-0.2-0.6-0.4c-0.6-0.3-1.3-0.8-2.4-1.5h0.1
							c-1.1,1.2-2.5,2.8-4.3,4.6v-0.1c0.6,1,1.3,2.1,2.1,3.2v0.1v0.1c-0.6,1.1-1.2,2.4-1.4,3.9v0.1h-0.1c-1.2,0.3-2.3,0.6-3.7,0.9
							l0.1-0.1c0,2,0.1,4.2,0.1,6.4l-0.1-0.1c1.2,0.2,2.4,0.6,3.7,0.8h0.1v0.1c0.4,1.2,0.9,2.5,1.7,3.7l0.1,0.1l-0.1,0.1
							c-0.6,1-1.3,2.2-2,3.3v-0.1c1.4,1.4,3,2.9,4.5,4.4H618c1-0.7,2.1-1.4,3.2-2.1l0.1-0.1l0.1,0.1c1.1,0.6,2.4,1.2,3.7,1.5h0.1
							v0.1c0.3,1.2,0.6,2.5,0.9,3.7l-0.2-0.1c2,0,4.1-0.1,6.3-0.1l-0.2,0.2c0.2-1.2,0.4-2.5,0.8-3.7V335h0.1
							c1.3-0.4,2.5-0.9,3.7-1.5l0,0l0.1-0.1l0.1,0.1c1.1,0.7,2.2,1.3,3.2,2h-0.2c1.4-1.5,3-3.1,4.4-4.6v0.2
							c-0.7-1.1-1.3-2.2-2.1-3.2l-0.1-0.1l0.1-0.1c0.7-1.2,1.2-2.5,1.4-3.7v-0.1h0.1c1.3-0.3,2.4-0.6,3.7-0.9l-0.1,0.2
							c0-2.2-0.1-4.3-0.1-6.4l0.1,0.2c-1.3-0.3-2.5-0.6-3.7-0.8h-0.1V316c-0.4-1.4-0.9-2.5-1.5-3.7l-0.1-0.1l0.1-0.1
							c0.7-1.1,1.3-2.2,2-3.3v0.2c-1.5-1.5-3.1-3.1-4.5-4.5h0.2c-1.1,0.7-2.2,1.4-3.2,2.1h-0.1h-0.1c-1.3-0.7-2.5-1.2-3.9-1.5h-0.1
							V305c-0.3-1.4-0.6-2.5-0.9-3.7l0.1,0.1c-2.4,0-4.5,0.1-6.3,0.1l0.1-0.1c-0.3,1.5-0.6,2.8-0.8,3.7l0,0l0,0
							c-1.3,0.4-2.3,0.8-2.9,1.1c-0.3,0.2-0.4,0.3-0.7,0.4C620.6,306.2,620.6,306.2,620.6,306.2s0.1-0.1,0.2-0.1
							c0.1-0.1,0.4-0.2,0.7-0.4c0.6-0.3,1.5-0.8,2.9-1.2l0,0c0.2-1,0.4-2.3,0.8-3.7v-0.1h0.1c1.8,0,3.9-0.1,6.3-0.1h0.1v0.1
							c0.3,1.2,0.6,2.4,0.9,3.7l-0.1-0.1c1.3,0.3,2.5,0.8,3.9,1.5h-0.1c1-0.7,2.1-1.4,3.2-2.1l0.1-0.1l0.1,0.1
							c1.4,1.4,3,2.9,4.5,4.4l0.1,0.1l-0.1,0.1c-0.7,1.1-1.3,2.2-2,3.3v-0.2c0.7,1.2,1.3,2.5,1.7,3.9l-0.1-0.1
							c1.2,0.3,2.4,0.6,3.7,0.8h0.1v0.1c0,2.1,0.1,4.2,0.1,6.4v0.2h-0.1c-1.2,0.3-2.4,0.6-3.7,0.9l0.1-0.1c-0.3,1.4-0.9,2.6-1.4,3.9
							V327c0.7,1.1,1.3,2.1,2.1,3.2l0.1,0.1l-0.1,0.1c-1.4,1.5-2.9,3.1-4.4,4.6l-0.1,0.1l-0.1-0.1c-1.1-0.7-2.2-1.3-3.2-2h0.2l0,0
							c-1.2,0.8-2.5,1.3-3.9,1.7l0.1-0.1c-0.3,1.3-0.4,2.5-0.8,3.7v0.2h-0.2c-2.2,0-4.3,0.1-6.3,0.1h-0.2v-0.2
							c-0.3-1.3-0.6-2.5-0.9-3.7l0.1,0.1c-1.3-0.4-2.8-0.9-3.9-1.5h0.2c-1.1,0.7-2.2,1.5-3.2,2.1l-0.1,0.1l-0.1-0.1
							c-1.5-1.5-3.2-3.1-4.5-4.5l-0.1-0.1l0.1-0.1c0.7-1.2,1.3-2.3,2-3.3v0.2c-0.8-1.3-1.3-2.5-1.7-3.9l0.1,0.1
							c-1.3-0.3-2.5-0.6-3.7-0.8H610l0,0c0-2.3-0.1-4.4-0.1-6.4v-0.1h0.1c1.3-0.3,2.5-0.6,3.7-0.9l-0.1,0.1c0.4-1.4,0.9-2.8,1.5-3.9
							v0.1c-0.8-1.2-1.4-2.3-2.1-3.2v-0.1l0.1-0.1c1.8-1.9,3.2-3.4,4.4-4.6l0,0l0,0c1.1,0.7,1.9,1.2,2.3,1.5
							c0.3,0.2,0.4,0.3,0.6,0.4C620.5,306.2,620.6,306.2,620.6,306.2z"/>
					</g>
				</g>
			</g>
		</g>
		<g>
			<g>
				<g>
					<path class="st3" d="M670,72.2c1.5-0.9,3.2-1.7,4.8-2.1l1-4.8l8.1-0.1l1.2,4.7c1.7,0.4,3.3,1.1,5,2l4.1-2.6L700,75l-2.5,4.3
						c0.9,1.5,1.7,3.2,2.1,4.8l4.8,1l0.1,8.3l-4.6,1.1c-0.4,1.7-1.1,3.4-2,5l2.6,4.2l-5.6,5.8l-4.2-2.5c-1.5,0.9-3.2,1.7-4.8,2.1
						l-1,4.8l-8.1,0.1l-1.2-4.7c-1.7-0.4-3.3-1.1-5-2l-4.1,2.6l-5.8-5.7l2.5-4.3c-0.9-1.5-1.7-3.2-2.1-4.8l-4.8-1l-0.1-8.3l4.7-1.2
						c0.4-1.7,1.1-3.4,2-5l-2.6-4.2l5.6-5.8L670,72.2L670,72.2z M674.3,83.1c-3.3,3.5-3.2,9,0.2,12.4s8.9,3.3,12.2-0.2
						s3.2-9-0.2-12.4S677.6,79.5,674.3,83.1z"/>
				</g>
			</g>
			<g>
				<g>
					<g>
						<path class="st3" d="M674.3,83.1c0,0,0.4-0.7,1.5-1.4c1.2-0.8,3.2-1.5,5.7-1.4c1.3,0.1,2.6,0.6,3.9,1.4c1.3,0.8,2.3,2,3.2,3.6
							c0.4,0.8,0.7,1.5,0.8,2.5c0.2,0.9,0.2,1.8,0,2.6c-0.2,1.9-1.1,3.6-2.4,5.1c-1.3,1.4-3.2,2.3-5,2.5c-0.9,0.2-1.8,0.2-2.6,0
							c-0.9-0.1-1.7-0.4-2.4-0.7c-1.5-0.7-2.8-1.8-3.6-3c-0.9-1.2-1.3-2.5-1.4-3.9c-0.4-2.5,0.4-4.6,1.2-5.7
							C673.6,83.7,674.3,83.1,674.3,83.1s-0.4,0.6-1.2,1.8c-0.7,1.2-1.3,3.2-1,5.7c0.2,1.2,0.7,2.5,1.4,3.6c0.9,1.2,2,2.2,3.4,2.9
							c0.7,0.3,1.4,0.6,2.3,0.7c0.8,0.1,1.7,0.1,2.5-0.1c1.7-0.3,3.3-1.2,4.6-2.5c1.3-1.4,2.1-3.1,2.3-4.7c0.1-0.9,0.1-1.7,0-2.5
							s-0.4-1.5-0.7-2.4c-0.7-1.5-1.8-2.5-3-3.4c-1.2-0.8-2.4-1.2-3.6-1.4c-2.4-0.3-4.4,0.6-5.5,1.2
							C674.9,82.6,674.4,83.1,674.3,83.1z"/>
					</g>
				</g>
			</g>
			<g>
				<g>
					<g>
						<path class="st3" d="M670,72.2c0,0-0.1,0-0.3-0.1s-0.4-0.3-0.8-0.6c-0.7-0.4-1.8-1.1-3.2-1.9h0.1c-1.4,1.5-3.3,3.5-5.6,5.9
							v-0.2c0.8,1.3,1.8,2.6,2.8,4.2v0.1v0.1c-0.8,1.5-1.4,3.1-1.9,5v0.1H661c-1.4,0.4-3.1,0.8-4.7,1.2l0.1-0.2
							c0.1,2.5,0.1,5.4,0.2,8.3l-0.2-0.2c1.4,0.3,3.2,0.7,4.8,1h0.1V95c0.4,1.5,1.2,3.3,2.1,4.8l0.1,0.1l-0.1,0.1
							c-0.8,1.3-1.7,2.8-2.5,4.3V104c1.9,1.8,3.9,3.6,5.8,5.7h-0.3c1.3-0.9,2.6-1.8,4.1-2.6l0.1-0.1l0.1,0.1c1.4,0.8,3.2,1.5,5,1.9
							h0.1v0.1c0.4,1.5,0.8,3.2,1.2,4.7l-0.2-0.2c2.5,0,5.3-0.1,8.1-0.1l-0.2,0.2c0.3-1.5,0.7-3.2,1-4.8v-0.2h0.1
							c1.5-0.6,3.2-1.2,4.8-2.1l0,0l0.1-0.1l0.1,0.1c1.3,0.9,2.9,1.7,4.2,2.5h-0.3c1.9-2,3.9-4,5.6-5.8v0.3
							c-0.9-1.4-1.8-2.8-2.6-4.2l-0.1-0.1l0.1-0.1c0.9-1.5,1.4-3.2,1.9-4.8v-0.1h0.1c1.5-0.4,3.2-0.8,4.7-1.2l-0.2,0.2
							c0-2.8-0.1-5.6-0.1-8.3l0.2,0.2c-1.7-0.3-3.2-0.7-4.8-1h-0.1v-0.1c-0.4-1.8-1.2-3.4-2.1-4.8l-0.1-0.1l0.1-0.1
							c0.9-1.5,1.8-2.9,2.5-4.3v0.3c-2.1-2-4.1-3.9-5.8-5.7h0.2c-1.4,1-2.8,1.9-4.1,2.6l-0.1,0.1l-0.1-0.1c-1.7-0.9-3.2-1.5-5-2
							h-0.1v-0.1c-0.4-1.8-0.8-3.4-1.2-4.8l0.1,0.1c-3.2,0-5.8,0.1-8.1,0.1l0.1-0.1c-0.4,1.9-0.8,3.5-1,4.8l0,0l0,0
							c-1.7,0.6-3,1.1-3.7,1.5C670.6,71.8,670.2,72,670,72.2C670,72.1,670,72.2,670,72.2s0.1-0.1,0.3-0.2s0.4-0.3,0.9-0.6
							c0.8-0.4,2-1,3.7-1.5l-0.1,0.1c0.3-1.3,0.6-2.9,1-4.8v-0.1h0.1c2.3-0.1,5-0.1,8.1-0.2h0.1V65c0.4,1.5,0.8,3.1,1.2,4.7
							l-0.1-0.1c1.7,0.4,3.3,1,5,2H690c1.3-0.9,2.6-1.8,4.1-2.6l0.1-0.1l0.1,0.1c1.9,1.8,3.9,3.6,5.8,5.7l0.1,0.1l-0.1,0.1
							c-0.8,1.4-1.7,2.8-2.5,4.3V79c0.9,1.5,1.7,3.2,2.2,5l-0.2-0.2c1.5,0.3,3.2,0.7,4.8,1h0.2V85c0,2.6,0.1,5.4,0.2,8.3v0.2h-0.2
							c-1.5,0.4-3.2,0.8-4.7,1.2l0.2-0.2c-0.4,1.7-1.1,3.5-2,5.1v-0.3c0.9,1.4,1.8,2.8,2.6,4.2l0.1,0.2l-0.1,0.1
							c-1.9,2-3.7,3.9-5.6,5.8l-0.1,0.1l-0.2-0.1c-1.3-0.9-2.8-1.7-4.2-2.5h0.3l0,0c-1.5,1-3.2,1.7-5,2.2l0.2-0.2
							c-0.3,1.7-0.7,3.3-1,4.8v0.2h-0.2c-2.8,0-5.5,0.1-8.1,0.1h-0.2V114c-0.4-1.7-0.8-3.3-1.2-4.7l0.2,0.2c-1.8-0.6-3.5-1.2-5-2
							h0.2c-1.3,0.9-2.9,1.9-4.1,2.6l-0.2,0.1l-0.1-0.1c-2.1-2-4.1-3.9-5.8-5.7l-0.1-0.1l0.1-0.2c0.9-1.5,1.8-2.9,2.5-4.3v0.2
							c-1-1.5-1.7-3.4-2.2-5l0.2,0.1c-1.7-0.4-3.3-0.7-4.8-1h-0.2v-0.2c0-2.9-0.1-5.7-0.1-8.3v-0.1h0.1c1.7-0.4,3.2-0.8,4.8-1.2
							l-0.1,0.1c0.4-1.9,1.2-3.6,2-5v0.2c-1-1.5-1.9-2.9-2.6-4.2l-0.1-0.1l0.1-0.1c2.3-2.4,4.2-4.4,5.7-5.8l0,0h0.1
							c1.3,0.8,2.3,1.5,3.1,2c0.3,0.2,0.6,0.4,0.8,0.6C669.9,72.1,670,72.2,670,72.2z"/>
					</g>
				</g>
			</g>
		</g>
		<g>
			<g>
				<g>
					<path class="st3" d="M537.8,108.6c1.2-0.7,2.4-1.3,3.7-1.7l0.8-3.7l6.3-0.1l0.9,3.7c1.3,0.3,2.6,0.8,3.9,1.5l3.2-2.1l4.5,4.5
						l-2,3.3c0.7,1.2,1.3,2.5,1.7,3.7l3.7,0.8l0.1,6.4l-3.7,0.9c-0.3,1.3-0.8,2.6-1.4,3.9l2.1,3.2l-4.4,4.6l-3.2-2
						c-1.2,0.7-2.4,1.3-3.7,1.7l-0.8,3.7l-6.3,0.1l-0.9-3.7c-1.3-0.3-2.6-0.8-3.9-1.5l-3.2,2.1l-4.5-4.5l2-3.3
						c-0.7-1.2-1.3-2.5-1.7-3.7l-3.7-0.8l-0.1-6.4l3.7-0.9c0.3-1.3,0.8-2.6,1.4-3.9l-2.1-3.2l4.4-4.6L537.8,108.6L537.8,108.6z
						 M541.1,117c-2.5,2.6-2.5,7,0.2,9.7c2.6,2.5,6.9,2.5,9.5-0.2c2.5-2.6,2.5-7-0.2-9.7C548,114.3,543.7,114.4,541.1,117z"/>
				</g>
			</g>
			<g>
				<g>
					<g>
						<path class="st3" d="M541.1,117c0,0,0.4-0.6,1.3-1.1c0.9-0.6,2.4-1.3,4.4-1.1c1,0.1,2.1,0.4,3.1,1.1s1.9,1.5,2.4,2.8
							c0.3,0.6,0.4,1.2,0.6,1.9s0.1,1.4,0,2.1c-0.2,1.4-0.9,2.9-1.9,4c-1.1,1.1-2.4,1.8-3.9,2c-0.7,0.1-1.3,0.1-2.1,0
							c-0.7-0.1-1.3-0.3-2-0.6c-1.2-0.6-2.2-1.4-2.9-2.4s-1-2-1.2-3c-0.3-2,0.3-3.6,0.9-4.5C540.6,117.5,541.1,117,541.1,117
							s-0.4,0.6-0.9,1.4c-0.4,0.9-1.1,2.5-0.8,4.4c0.2,0.9,0.4,2,1.2,2.9c0.7,0.9,1.5,1.7,2.6,2.2c0.6,0.3,1.2,0.4,1.9,0.6
							c0.7,0.1,1.3,0.1,2,0c1.3-0.2,2.6-0.9,3.6-1.9c1-1.1,1.5-2.4,1.8-3.6c0.1-0.7,0.1-1.4,0-2s-0.3-1.3-0.6-1.8
							c-0.4-1.1-1.3-2-2.3-2.6c-0.9-0.6-2-1-2.9-1.1c-1.9-0.2-3.4,0.4-4.3,0.9C541.6,116.7,541.2,117,541.1,117z"/>
					</g>
				</g>
			</g>
			<g>
				<g>
					<g>
						<path class="st3" d="M537.8,108.6c0,0-0.1,0-0.2-0.1c-0.2-0.1-0.4-0.2-0.6-0.4c-0.6-0.3-1.3-0.8-2.4-1.5h0.1
							c-1.1,1.2-2.5,2.8-4.3,4.6l0,0c0.6,1,1.3,2.1,2.1,3.2v0.1v0.1c-0.6,1.1-1.2,2.4-1.4,3.9v0.1H531c-1.2,0.3-2.3,0.6-3.7,0.9
							l0.1-0.1c0,2,0.1,4.2,0.1,6.4l-0.1-0.1c1.2,0.2,2.4,0.6,3.7,0.8h0.1v0.1c0.4,1.2,0.9,2.5,1.7,3.7l0.1,0.1l-0.1,0.1
							c-0.6,1-1.3,2.2-2,3.3v-0.2c1.4,1.4,3,2.9,4.5,4.4h-0.2c1-0.7,2.1-1.4,3.2-2.1l0.1-0.1l0.1,0.1c1.1,0.6,2.4,1.2,3.7,1.5h0.1
							v0.1c0.3,1.2,0.6,2.5,0.9,3.7l-0.2-0.1c2,0,4.1-0.1,6.3-0.1l-0.2,0.2c0.2-1.2,0.4-2.5,0.8-3.7v-0.1h0.1
							c1.3-0.4,2.5-0.9,3.7-1.5l0,0l0.1-0.1l0.1,0.1c1.1,0.7,2.2,1.3,3.2,2H557c1.4-1.5,3-3.1,4.4-4.6v0.2c-0.7-1.1-1.3-2.2-2.1-3.2
							l-0.1-0.1l0.1-0.1c0.7-1.2,1.2-2.5,1.4-3.7V126h0.1c1.3-0.3,2.4-0.6,3.7-0.9l-0.1,0.2c0-2.2-0.1-4.3-0.1-6.4l0.1,0.2
							c-1.3-0.3-2.5-0.6-3.7-0.8h-0.1v-0.1c-0.4-1.4-0.9-2.5-1.5-3.7l-0.1-0.1l0.1-0.1c0.7-1.1,1.3-2.2,2-3.3v0.2
							c-1.5-1.5-3.1-3.1-4.5-4.5h0.2c-1.1,0.7-2.2,1.4-3.2,2.1h-0.1h-0.1c-1.3-0.7-2.5-1.2-3.9-1.5h-0.1v-0.1
							c-0.3-1.4-0.6-2.5-0.9-3.7l0.1,0.1c-2.4,0-4.5,0.1-6.3,0.1l0.1-0.1c-0.3,1.5-0.6,2.8-0.8,3.7l0,0l0,0
							c-1.3,0.4-2.3,0.8-2.9,1.1c-0.3,0.2-0.4,0.3-0.7,0.4C537.9,108.4,537.8,108.6,537.8,108.6s0.1-0.1,0.2-0.1
							c0.1-0.1,0.4-0.2,0.7-0.4c0.6-0.3,1.5-0.8,2.9-1.2l0,0c0.2-1,0.4-2.3,0.8-3.7v-0.1h0.1c1.8,0,3.9-0.1,6.3-0.1h0.1v0.1
							c0.3,1.2,0.6,2.4,0.9,3.7l-0.1-0.1c1.3,0.3,2.5,0.8,3.9,1.5h-0.1c1-0.7,2.1-1.4,3.2-2.1l0.1-0.1l0.1,0.1
							c1.4,1.4,3,2.9,4.5,4.4l0.1,0.1l-0.1,0.1c-0.7,1.1-1.3,2.2-2,3.3v-0.2c0.7,1.2,1.3,2.5,1.7,3.9l-0.1-0.1
							c1.2,0.3,2.4,0.6,3.7,0.8h0.1v0.1c0,2.1,0.1,4.2,0.1,6.4v0.2h-0.1c-1.2,0.3-2.4,0.6-3.7,0.9l0.1-0.1c-0.3,1.4-0.9,2.6-1.4,3.9
							v-0.2c0.7,1.1,1.3,2.1,2.1,3.2l0.1,0.1l-0.1,0.1c-1.4,1.5-2.9,3.1-4.4,4.6l-0.1,0.1l-0.1-0.1c-1.1-0.7-2.2-1.3-3.2-2h0.2l0,0
							c-1.2,0.8-2.5,1.3-3.9,1.7l0.1-0.1c-0.3,1.3-0.4,2.5-0.8,3.7v0.2h-0.2c-2.2,0-4.3,0.1-6.3,0.1H543V141
							c-0.3-1.3-0.6-2.5-0.9-3.7l0.1,0.1c-1.3-0.4-2.8-0.9-3.9-1.5h0.2c-1.1,0.7-2.2,1.5-3.2,2.1l-0.1,0.1l-0.1-0.1
							c-1.5-1.5-3.2-3.1-4.5-4.5l-0.1-0.1l0.1-0.1c0.7-1.2,1.3-2.3,2-3.3v0.2c-0.8-1.3-1.3-2.5-1.7-3.9l0.1,0.1
							c-1.3-0.3-2.5-0.6-3.7-0.8h-0.1v-0.1c0-2.3-0.1-4.4-0.1-6.4V119h0.1c1.3-0.3,2.5-0.6,3.7-0.9l-0.1,0.1
							c0.4-1.4,0.9-2.8,1.5-3.9v0.1c-0.8-1.2-1.4-2.3-2.1-3.2V111l0.1-0.1c1.8-1.9,3.2-3.4,4.4-4.6l0,0l0,0c1.1,0.7,1.9,1.2,2.3,1.5
							c0.3,0.2,0.4,0.3,0.6,0.4C537.8,108.4,537.8,108.6,537.8,108.6z"/>
					</g>
				</g>
			</g>
		</g>
		<g>
			<g>
				<g>
					<path class="st3" d="M249.5,221c1.2-0.7,2.4-1.3,3.7-1.7l0.8-3.7l6.3-0.1l0.9,3.7c1.3,0.3,2.6,0.8,3.9,1.5l3.2-2.1l4.5,4.5
						l-2,3.3c0.7,1.2,1.3,2.5,1.7,3.7l3.7,0.8l0.1,6.4l-3.7,0.9c-0.3,1.3-0.8,2.6-1.4,3.9l2.1,3.2l-4.4,4.6l-3.2-2
						c-1.2,0.7-2.4,1.3-3.7,1.7l-0.8,3.7l-6.3,0.1l-0.9-3.7c-1.3-0.3-2.6-0.8-3.9-1.5l-3.2,2.1l-4.5-4.5l2-3.3
						c-0.7-1.2-1.3-2.5-1.7-3.7L239,238l-0.1-6.4l3.7-0.9c0.3-1.3,0.8-2.6,1.4-3.9l-2.1-3.2l4.4-4.6L249.5,221L249.5,221z
						 M252.8,229.5c-2.5,2.6-2.5,7,0.2,9.7c2.6,2.5,6.9,2.5,9.5-0.2c2.5-2.6,2.5-7-0.2-9.7C259.8,226.7,255.5,226.8,252.8,229.5z"/>
				</g>
			</g>
			<g>
				<g>
					<g>
						<path class="st3" d="M252.8,229.5c0,0,0.4-0.6,1.3-1.1s2.4-1.3,4.4-1.1c1,0.1,2.1,0.4,3.1,1.1c1,0.7,1.9,1.5,2.4,2.8
							c0.3,0.6,0.4,1.2,0.6,1.9c0.1,0.7,0.1,1.4,0,2.1c-0.2,1.4-0.9,2.9-1.9,4c-1.1,1.1-2.4,1.8-3.9,2c-0.7,0.1-1.3,0.1-2.1,0
							c-0.7-0.1-1.3-0.3-2-0.6c-1.2-0.6-2.2-1.4-2.9-2.4s-1-2-1.2-3c-0.3-2,0.3-3.6,0.9-4.5C252.4,229.9,252.8,229.5,252.8,229.5
							s-0.4,0.6-0.9,1.4s-1.1,2.5-0.8,4.4c0.2,0.9,0.4,2,1.2,2.9s1.5,1.7,2.6,2.2c0.6,0.3,1.2,0.4,1.9,0.6s1.3,0.1,2,0
							c1.3-0.2,2.6-0.9,3.6-1.9c1-1.1,1.5-2.4,1.8-3.6c0.1-0.7,0.1-1.4,0-2s-0.3-1.3-0.6-1.8c-0.4-1.1-1.3-2-2.3-2.6
							c-0.9-0.6-2-1-2.9-1.1c-1.9-0.2-3.4,0.4-4.3,0.9C253.4,229.1,253,229.6,252.8,229.5z"/>
					</g>
				</g>
			</g>
			<g>
				<g>
					<g>
						<path class="st3" d="M249.5,221c0,0-0.1,0-0.2-0.1c-0.2-0.1-0.4-0.2-0.6-0.4c-0.6-0.3-1.3-0.8-2.4-1.5h0.1
							c-1.1,1.2-2.5,2.8-4.3,4.6v-0.1c0.6,1,1.3,2.1,2.1,3.2v0.1v0.1c-0.6,1.1-1.2,2.4-1.4,3.9v0.1h-0.1c-1.2,0.3-2.3,0.6-3.7,0.9
							l0.1-0.1c0,2,0.1,4.2,0.1,6.4l-0.1-0.1c1.2,0.2,2.4,0.6,3.7,0.8h0.1v0.1c0.4,1.2,0.9,2.5,1.7,3.7l0.1,0.1l-0.1,0.1
							c-0.6,1-1.3,2.2-2,3.3v-0.2c1.4,1.4,3,2.9,4.5,4.4h-0.2c1-0.7,2.1-1.4,3.2-2.1l0.1-0.1l0.1,0.1c1.1,0.6,2.4,1.2,3.7,1.5h0.1
							v0.1c0.3,1.2,0.6,2.5,0.9,3.7l-0.2-0.1c2,0,4.1-0.1,6.3-0.1l-0.2,0.2c0.2-1.2,0.4-2.5,0.8-3.7l0,0h0.1
							c1.3-0.4,2.5-0.9,3.7-1.5l0,0l0.1-0.1l0.1,0.1c1.1,0.7,2.2,1.3,3.2,2h-0.2c1.4-1.5,3-3.1,4.4-4.6v0.2
							c-0.7-1.1-1.3-2.2-2.1-3.2l-0.1-0.1l0.1-0.1c0.7-1.2,1.2-2.5,1.4-3.7v-0.1h0.1c1.3-0.3,2.4-0.6,3.7-0.9l-0.1,0.2
							c0-2.2-0.1-4.3-0.1-6.4l0.1,0.2c-1.3-0.3-2.5-0.6-3.7-0.8h-0.1v-0.1c-0.4-1.4-0.9-2.5-1.5-3.7l-0.1-0.1l0.1-0.1
							c0.7-1.1,1.3-2.2,2-3.3v0.2c-1.5-1.5-3.1-3.1-4.5-4.5h0.2c-1.1,0.7-2.2,1.4-3.2,2.1h-0.1h-0.1c-1.3-0.7-2.5-1.2-3.9-1.5h-0.1
							v-0.1c-0.3-1.4-0.6-2.5-0.9-3.7l0.1,0.1c-2.4,0-4.5,0.1-6.3,0.1l0.1-0.1c-0.3,1.5-0.6,2.8-0.8,3.7l0,0l0,0
							c-1.3,0.4-2.3,0.8-2.9,1.1c-0.3,0.2-0.4,0.3-0.7,0.4C249.7,221,249.5,221,249.5,221s0.1-0.1,0.2-0.1c0.1-0.1,0.4-0.2,0.7-0.4
							c0.6-0.3,1.5-0.8,2.9-1.2l0,0c0.2-1,0.4-2.3,0.8-3.7v-0.1h0.1c1.8,0,3.9-0.1,6.3-0.1h0.1v0.1c0.3,1.2,0.6,2.4,0.9,3.7
							l-0.1-0.1c1.3,0.3,2.5,0.8,3.9,1.5h-0.1c1-0.7,2.1-1.4,3.2-2.1l0.1-0.1l0.1,0.1c1.4,1.4,3,2.9,4.5,4.4l0.1,0.1l-0.1,0.1
							c-0.7,1.1-1.3,2.2-2,3.3v-0.2c0.7,1.2,1.3,2.5,1.7,3.9l-0.1-0.1c1.2,0.3,2.4,0.6,3.7,0.8h0.1v0.1c0,2.1,0.1,4.2,0.1,6.4v0.2
							h-0.1c-1.2,0.3-2.4,0.6-3.7,0.9l0.1-0.1c-0.3,1.4-0.9,2.6-1.4,3.9V242c0.7,1.1,1.3,2.1,2.1,3.2l0.1,0.1l-0.1,0.1
							c-1.4,1.5-2.9,3.1-4.4,4.6l-0.1,0.1L269,250c-1.1-0.7-2.2-1.3-3.2-2h0.2l0,0c-1.2,0.8-2.5,1.3-3.9,1.7l0.1-0.1
							c-0.3,1.3-0.4,2.5-0.8,3.7v0.2h-0.2c-2.2,0-4.3,0.1-6.3,0.1h-0.2v-0.2c-0.3-1.3-0.6-2.5-0.9-3.7l0.1,0.1
							c-1.3-0.4-2.8-0.9-3.9-1.5h0.2c-1.1,0.7-2.2,1.5-3.2,2.1l-0.1,0.1l-0.1-0.1c-1.5-1.5-3.2-3.1-4.5-4.5l-0.1-0.1l0.1-0.1
							c0.7-1.2,1.3-2.3,2-3.3v0.2c-0.8-1.3-1.3-2.5-1.7-3.9l0.1,0.1c-1.3-0.3-2.5-0.6-3.7-0.8h-0.1v-0.1c0-2.3-0.1-4.4-0.1-6.4v-0.1
							h0.1c1.3-0.3,2.5-0.6,3.7-0.9l-0.1,0.1c0.4-1.4,0.9-2.8,1.5-3.9v0.1c-0.8-1.2-1.4-2.3-2.1-3.2v-0.1l0.1-0.1
							c1.8-1.9,3.2-3.4,4.4-4.6l0,0l0,0c1.1,0.7,1.9,1.2,2.3,1.5c0.3,0.2,0.4,0.3,0.6,0.4C249.4,221,249.5,221,249.5,221z"/>
					</g>
				</g>
			</g>
		</g>
		<g>
			<g>
				<g>
					<path class="st4" d="M173.5,266.5c3.7-2.3,7.7-4.1,12-5.3l2.4-11.9l19.9-0.4l2.9,11.9c4.2,1,8.3,2.6,12.1,4.8l10.1-6.7l14.3,14
						l-6.3,10.5c2.3,3.7,4.1,7.8,5.2,12.1l11.8,2.5l0.4,20.1l-11.7,2.9c-1,4.3-2.6,8.4-4.8,12.2l6.6,10.2L234.6,358l-10.3-6.4
						c-3.7,2.3-7.7,4.1-12,5.3l-2.4,11.9l-19.9,0.4l-2.9-11.9c-4.2-1-8.3-2.6-12.1-4.8l-10.1,6.7l-14.3-14l6.3-10.5
						c-2.3-3.7-4.1-7.8-5.2-12.1l-11.8-2.5l-0.4-20.1l11.7-2.9c1-4.3,2.6-8.4,4.8-12.2l-6.6-10.2l13.9-14.5L173.5,266.5L173.5,266.5
						z M184.1,293.4c-8.3,8.7-7.9,22.3,0.4,30.6c8.6,8.4,22.1,8,30.3-0.6c8.3-8.7,7.9-22.3-0.4-30.6
						C205.9,284.6,192.3,284.8,184.1,293.4z"/>
				</g>
			</g>
			<g>
				<g>
					<g>
						<path class="st5" d="M184.1,293.4c0,0,1.1-1.5,4.1-3.6c2.9-1.9,7.7-4,14-3.4c3.1,0.4,6.4,1.4,9.5,3.4c3.1,2.1,5.8,5,7.7,8.8
							c1,1.9,1.5,3.9,2,6.1c0.4,2.2,0.4,4.4,0.1,6.7c-0.6,4.6-2.6,8.9-5.9,12.5c-3.3,3.5-7.7,5.7-12.2,6.5c-2.3,0.4-4.4,0.4-6.6,0.1
							c-2.2-0.3-4.2-0.9-6.1-1.8c-3.9-1.7-6.8-4.5-8.9-7.5c-2.2-3-3.2-6.4-3.7-9.5c-0.9-6.3,1.1-11.3,2.9-14.2
							C182.7,294.6,184.1,293.4,184.1,293.4c0.1,0.1-1.3,1.4-3,4.4c-1.5,2.9-3.3,7.8-2.3,14c0.4,3,1.5,6.2,3.6,9s5,5.5,8.6,7
							c1.8,0.8,3.7,1.4,5.8,1.5c2.1,0.3,4.1,0.3,6.3-0.1c4.2-0.7,8.3-2.9,11.4-6.2c3.2-3.3,5.1-7.6,5.6-11.9
							c0.3-2.1,0.3-4.3-0.1-6.4c-0.3-2.1-0.9-4-1.8-5.7c-1.7-3.6-4.3-6.4-7.3-8.5c-2.9-2-6.1-3-9-3.4c-5.9-0.8-10.8,1.2-13.6,2.9
							C185.4,292.1,184.2,293.6,184.1,293.4z"/>
					</g>
				</g>
			</g>
			<g>
				<g>
					<g>
						<path class="st5" d="M173.5,266.5c0,0-0.2-0.1-0.7-0.4c-0.4-0.3-1.2-0.7-2-1.2c-1.8-1.1-4.4-2.5-7.7-4.6h0.2
							c-3.5,3.7-8.1,8.7-13.8,14.6v-0.4c2.1,3.1,4.2,6.6,6.7,10.1l0.1,0.2l-0.1,0.2c-2,3.6-3.6,7.7-4.7,12.1l-0.1,0.2l-0.2,0.1
							c-3.6,0.9-7.6,1.9-11.7,3l0.3-0.4c0.1,6.4,0.3,13.1,0.4,20.1l-0.4-0.6c3.6,0.8,7.7,1.5,11.8,2.5l0.3,0.1l0.1,0.3
							c1.1,3.9,2.9,8,5.1,11.9l0.2,0.3l-0.2,0.3c-2,3.3-4.1,6.7-6.3,10.5l0.1-0.7c4.5,4.4,9.5,9.1,14.3,14l-0.7-0.1
							c3.2-2.1,6.6-4.4,10.1-6.7l0.3-0.2l0.3,0.2c3.5,2,7.7,3.6,12,4.7l0.4,0.1l0.1,0.4c0.9,3.6,1.9,7.7,2.9,11.9l-0.6-0.6
							c6.3-0.1,13.1-0.2,19.9-0.4l-0.6,0.6c0.8-3.7,1.5-7.8,2.4-11.9l0.1-0.4l0.4-0.1c4-1.1,7.9-2.9,11.8-5.2l0,0l0.3-0.2l0.3,0.2
							c3.4,2.1,6.8,4.3,10.3,6.4l-0.8,0.1c4.7-4.8,9.4-9.8,13.9-14.5l-0.1,0.8c-2.3-3.5-4.4-6.8-6.6-10.2l-0.2-0.3l0.2-0.3
							c2.2-3.9,3.7-7.9,4.7-12.1l0.1-0.4l0.4-0.1c4-1,7.8-2,11.7-2.9l-0.4,0.6c-0.1-6.8-0.2-13.6-0.3-20.1l0.4,0.6
							c-4.1-0.9-7.9-1.7-11.8-2.5l-0.3-0.1l-0.1-0.3c-1.2-4.3-3-8.4-5.1-11.9l-0.2-0.3l0.2-0.3c2.2-3.6,4.2-7,6.3-10.5l0.1,0.6
							c-5-5-9.8-9.7-14.3-14l0.6,0.1c-3.5,2.4-6.8,4.6-10.1,6.7l-0.2,0.1l-0.2-0.1c-4.1-2.3-8-3.7-12-4.7l0.2-0.4l-0.1-0.2
							c-1-4.3-2-8.1-2.9-11.9l0.4,0.3c-7.7,0.1-14.3,0.2-19.9,0.3l0.3-0.2c-1,4.7-1.9,8.7-2.5,11.9v0.1h-0.1
							c-4.2,1.2-7.2,2.5-9.1,3.6c-0.9,0.6-1.7,0.9-2.2,1.1C173.6,266.4,173.5,266.5,173.5,266.5s0.2-0.2,0.7-0.6
							c0.4-0.3,1.2-0.7,2.1-1.2c1.9-1,5-2.5,9.1-3.7l-0.1,0.2c0.7-3.3,1.4-7.2,2.3-11.9v-0.2h0.2c5.6-0.1,12.2-0.3,19.9-0.4h0.3
							l0.1,0.3c0.9,3.6,1.9,7.6,3,11.9l-0.3-0.6c4.1,1,8.1,2.5,12.2,4.8h-0.4c3.2-2.2,6.5-4.4,10.1-6.7l0.3-0.2l0.3,0.3
							c4.5,4.5,9.4,9,14.4,14l0.3,0.3l-0.2,0.4c-2.1,3.4-4.1,6.8-6.2,10.5v-0.6c2.3,3.6,4.1,7.8,5.3,12.2l-0.4-0.4
							c3.9,0.8,7.7,1.5,11.8,2.5l0.4,0.1v0.6c0.1,6.6,0.2,13.3,0.4,20.1v0.6l-0.4,0.1c-3.9,1-7.7,1.9-11.7,2.9l0.4-0.4
							c-1.1,4.3-2.6,8.5-4.8,12.4v-0.6c2.2,3.4,4.4,6.7,6.6,10.2l0.3,0.4l-0.3,0.4c-4.5,4.7-9.1,9.7-13.9,14.5l-0.3,0.4l-0.4-0.3
							c-3.4-2.1-6.8-4.2-10.3-6.4h0.6l0,0c-3.9,2.4-8,4.2-12.1,5.3l0.4-0.6c-0.9,4.1-1.7,8.1-2.4,11.9l-0.1,0.6h-0.4
							c-6.8,0.1-13.6,0.2-19.9,0.3H190l-0.1-0.6c-1-4.1-2-8.1-2.9-11.9l0.4,0.4c-4.4-1.1-8.6-2.9-12.2-4.8h0.6
							c-3.5,2.3-6.9,4.6-10.1,6.7l-0.4,0.3l-0.3-0.3c-5-4.8-9.8-9.7-14.3-14l-0.3-0.3l0.2-0.4c2.2-3.6,4.3-7.2,6.3-10.5v0.6
							c-2.3-4-4.1-8.3-5.2-12.2l0.4,0.4c-4.1-0.9-8.1-1.7-11.8-2.5l-0.4-0.1v-0.4c-0.1-7-0.2-13.9-0.3-20.1V300l0.3-0.1
							c4.1-1,8-2,11.7-2.9l-0.3,0.3c1.1-4.6,2.9-8.8,4.8-12.3v0.4c-2.3-3.6-4.6-7.2-6.6-10.2l-0.1-0.2l0.2-0.2
							c5.7-5.8,10.3-10.8,14-14.4l0.1-0.1l0.1,0.1c3.3,2.1,5.8,3.6,7.6,4.7c0.8,0.6,1.4,1,2,1.3
							C173.3,266.3,173.5,266.5,173.5,266.5z"/>
					</g>
				</g>
			</g>
		</g>
		<g>
			<g>
				<g>
					<path class="st2" d="M622.6,116.4c3,0.1,5.8,0.6,8.6,1.4l5.6-5.8l11.4,7l-2.5,7.7c2,2.1,3.7,4.5,5.2,7.2l8.1-0.1l3.2,13.2
						l-7.3,3.6c-0.1,3-0.4,5.9-1.3,8.8l5.8,5.7l-6.9,11.7l-7.7-2.5c-2.1,2-4.4,3.7-7,5.3l0.1,8.3l-13.1,3.3l-3.6-7.4
						c-3-0.1-5.8-0.6-8.6-1.4l-5.6,5.8l-11.4-7l2.5-7.7c-2-2.1-3.7-4.5-5.2-7.2l-8.1,0.1l-3.2-13.2l7.3-3.6c0.1-3,0.4-5.9,1.3-8.8
						l-5.8-5.7l6.9-11.7l7.7,2.5c2.1-2,4.4-3.7,7-5.3l-0.1-8.3L619,109L622.6,116.4L622.6,116.4z M619.2,135.5
						c-7.7,1.9-12.4,9.8-10.6,17.6c1.9,7.8,9.7,12.7,17.4,10.8s12.4-9.8,10.6-17.6C634.7,138.4,626.8,133.6,619.2,135.5z"/>
				</g>
			</g>
			<g>
				<g>
					<g>
						<path class="st2" d="M619.2,135.5c0,0,1.2-0.6,3.5-0.6c2.3-0.1,5.8,0.6,9.1,3.2c1.7,1.3,3.2,3.1,4.2,5.4s1.5,5,1.3,7.7
							c-0.1,1.4-0.4,2.8-1.1,4.2c-0.6,1.4-1.3,2.6-2.3,3.9c-1.9,2.4-4.7,4.2-7.8,5c-3.2,0.8-6.4,0.6-9.2-0.7
							c-1.3-0.6-2.6-1.4-3.9-2.3c-1.1-0.9-2.1-2-2.9-3.2c-1.5-2.3-2.3-5-2.4-7.5c-0.1-2.5,0.4-4.7,1.3-6.7c1.8-3.9,4.6-6.1,6.7-7
							C617.8,135.6,619.2,135.5,619.2,135.5c0,0.1-1.3,0.3-3.2,1.4c-2,1.1-4.7,3.3-6.3,7c-0.8,1.9-1.3,4.1-1.1,6.5s0.9,4.8,2.3,7
							c0.7,1.1,1.7,2.2,2.8,3c1.1,0.9,2.3,1.7,3.6,2.2c2.6,1.1,5.7,1.4,8.6,0.7c3-0.8,5.6-2.4,7.4-4.6c0.9-1.1,1.7-2.3,2.2-3.6
							c0.6-1.3,0.9-2.5,1-4c0.3-2.6-0.2-5.3-1.2-7.4c-1-2.2-2.3-3.9-4-5.2c-3.2-2.5-6.6-3.3-8.7-3.3
							C620.3,135.3,619.2,135.6,619.2,135.5z"/>
					</g>
				</g>
			</g>
			<g>
				<g>
					<g>
						<path class="st2" d="M622.6,116.4c0,0-0.1-0.1-0.3-0.4s-0.4-0.8-0.7-1.4c-0.7-1.3-1.5-3.1-2.8-5.5l0.2,0.1
							c-3.3,0.9-7.7,2-13.1,3.3l0.2-0.2c0.1,2.5,0.1,5.3,0.2,8.3v0.1l-0.1,0.1c-2.3,1.3-4.8,3.1-6.9,5.3l-0.1,0.1l-0.2-0.1
							c-2.3-0.8-5-1.7-7.7-2.5l0.4-0.1c-2.2,3.6-4.5,7.6-6.9,11.7l-0.1-0.4c1.8,1.8,3.9,3.6,5.8,5.7l0.2,0.1l-0.1,0.2
							c-0.8,2.5-1.3,5.6-1.3,8.7v0.2l-0.2,0.1c-2.3,1.1-4.7,2.4-7.3,3.6l0.2-0.4c1,4.2,2.1,8.7,3.2,13.2l-0.4-0.3
							c2.5,0,5.3-0.1,8.1-0.2h0.2l0.1,0.2c1.3,2.4,3.1,4.8,5.1,7l0.2,0.2l-0.1,0.2c-0.8,2.5-1.7,5.1-2.5,7.7l-0.2-0.6
							c3.6,2.2,7.6,4.6,11.4,7l-0.4,0.1c1.8-1.9,3.7-3.9,5.6-5.8l0.2-0.2l0.2,0.1c2.6,0.8,5.6,1.3,8.6,1.3l0,0h0.3l0.1,0.2
							c1.2,2.5,2.4,4.8,3.6,7.4l-0.4-0.2c4.4-1.1,8.7-2.2,13.1-3.3l-0.3,0.4c0-2.8-0.1-5.5-0.1-8.3v-0.2l0.2-0.1
							c2.5-1.4,5-3.2,6.9-5.2l0.2-0.2l0.2,0.1c2.5,0.9,5.2,1.8,7.7,2.5l-0.4,0.2c2.3-4,4.7-7.8,6.9-11.7l0.1,0.6
							c-2-1.9-4-3.9-5.8-5.7l-0.2-0.2l0.1-0.2c0.9-2.9,1.3-5.7,1.3-8.7V150l0.2-0.1c2.4-1.3,5-2.5,7.3-3.6l-0.2,0.4
							c-1.1-4.6-2.2-9-3.2-13.2l0.3,0.2c-2.9,0-5.5,0.1-8.1,0.1H651l-0.1-0.2c-1.4-2.8-3.2-5.1-5.1-7l-0.1-0.1l0.1-0.2
							c1-2.8,1.8-5.4,2.5-7.7l0.1,0.3c-4.4-2.8-8.3-5.1-11.4-7h0.2c-2.3,2.4-4.1,4.3-5.7,5.8l-0.1,0.1h-0.1c-2.9-0.9-5-1.1-6.5-1.3
							c-0.7-0.1-1.3-0.1-1.7-0.1C622.8,116.4,622.6,116.4,622.6,116.4s0.2,0,0.6,0s0.9,0,1.7,0.1c1.4,0.1,3.6,0.4,6.5,1.2h-0.1
							c1.5-1.5,3.3-3.6,5.6-5.9l0.1-0.1l0.1,0.1c3.2,2,7,4.3,11.4,6.9l0.2,0.1l-0.1,0.2c-0.8,2.4-1.5,5-2.5,7.7l-0.1-0.3
							c2,2,3.7,4.4,5.2,7.2l-0.3-0.2c2.5-0.1,5.3-0.1,8.1-0.2h0.3l0.1,0.3c1,4.2,2.1,8.6,3.2,13.2l0.1,0.3l-0.3,0.1
							c-2.3,1.2-4.8,2.4-7.3,3.6l0.2-0.3c-0.1,2.9-0.4,5.9-1.3,8.8l-0.1-0.4c1.9,1.9,3.9,3.7,5.8,5.7l0.2,0.2l-0.2,0.3
							c-2.3,3.7-4.6,7.7-6.9,11.7l-0.2,0.3l-0.3-0.1c-2.5-0.9-5.1-1.7-7.7-2.5l0.4-0.1c-2.1,2.1-4.5,3.9-7.2,5.3l0.2-0.4
							c0,2.6,0.1,5.5,0.1,8.3v0.3l-0.3,0.1c-4.3,1.1-8.6,2.2-13.1,3.3l-0.3,0.1l-0.1-0.3c-1.2-2.4-2.4-4.8-3.6-7.4l0.4,0.2l0,0
							c-3.1-0.1-6.1-0.6-8.7-1.4l0.4-0.1c-2,2-3.9,4.1-5.6,5.8l-0.2,0.2l-0.3-0.2c-4-2.4-7.8-4.7-11.4-7l-0.3-0.2l0.1-0.3
							c0.9-2.6,1.8-5.4,2.5-7.7l0.1,0.4c-2.2-2.3-4-4.7-5.2-7.3l0.4,0.2c-2.9,0-5.6,0.1-8.1,0.1h-0.3l-0.1-0.3
							c-1.1-4.6-2.2-9-3.2-13.2l-0.1-0.3l0.3-0.1c2.5-1.3,5-2.5,7.3-3.6l-0.2,0.3c0.1-3.2,0.6-6.2,1.3-8.8l0.1,0.3
							c-2.1-2-4.1-4-5.8-5.7l-0.2-0.2l0.1-0.2c2.4-4.1,4.8-7.9,6.9-11.7l0.1-0.2l0.2,0.1c2.6,0.9,5.3,1.8,7.7,2.5l-0.3,0.1
							c2.3-2.2,4.7-3.9,7.2-5.3l-0.1,0.2c0-3-0.1-5.7-0.1-8.3v-0.2h0.2c5.3-1.3,9.7-2.4,13.1-3.2h0.1v0.1c1.2,2.4,2.1,4.2,2.6,5.5
							c0.3,0.6,0.4,1.1,0.7,1.4C622.5,116.1,622.6,116.4,622.6,116.4z"/>
					</g>
				</g>
			</g>
		</g>
		<g>
			<g>
				<g>
					<g>
						<path class="st5" d="M680.3,367.9c0,0,1.2-0.6,3.5-0.6c2.3-0.1,5.8,0.6,9.2,3.2c1.7,1.3,3.2,3.2,4.2,5.5s1.5,5,1.3,7.8
							c-0.1,1.4-0.4,2.9-1.1,4.2c-0.6,1.4-1.3,2.6-2.3,3.9c-2,2.4-4.7,4.2-7.8,5c-3.2,0.8-6.5,0.6-9.2-0.7c-1.3-0.6-2.8-1.4-3.9-2.4
							c-1.2-1-2.1-2.1-2.9-3.3c-1.5-2.4-2.3-5.1-2.4-7.6c-0.1-2.5,0.4-4.8,1.3-6.7c1.8-4,4.6-6.2,6.7-7.2
							C679.1,368.2,680.3,367.9,680.3,367.9c0,0.1-1.3,0.3-3.2,1.5c-2,1.1-4.7,3.3-6.3,7c-0.8,1.9-1.3,4.2-1.1,6.6s0.9,5,2.3,7.2
							c0.7,1.1,1.7,2.2,2.8,3.1s2.3,1.7,3.6,2.2c2.6,1.2,5.8,1.4,8.7,0.7c3-0.8,5.6-2.5,7.5-4.6c1-1.1,1.7-2.4,2.3-3.6
							c0.6-1.3,0.9-2.6,1-4c0.3-2.6-0.2-5.3-1.2-7.5s-2.4-4-4-5.3c-3.2-2.5-6.6-3.3-8.8-3.4C681.6,367.7,680.4,368.1,680.3,367.9z"
							/>
					</g>
				</g>
			</g>
			<g>
				<g>
					<g>
						<path class="st5" d="M683,350.4c0,0-0.1-0.1-0.3-0.6c-0.2-0.3-0.4-0.8-0.7-1.4c-0.7-1.3-1.5-3.1-2.9-5.6l0.2,0.1
							c-3.3,0.9-7.7,2-13.1,3.4l0.2-0.2c0.1,2.5,0.1,5.3,0.2,8.3v0.2l-0.1,0.1c-2.4,1.4-4.8,3.1-7,5.3l-0.1,0.1l-0.2-0.1
							c-2.4-0.8-5-1.7-7.7-2.5l0.4-0.1c-2.2,3.6-4.5,7.7-6.9,11.8l-0.1-0.4c1.9,1.8,3.9,3.7,5.8,5.7l0.2,0.1l-0.1,0.2
							c-0.8,2.6-1.3,5.7-1.3,8.8v0.2l-0.2,0.1c-2.3,1.2-4.8,2.4-7.4,3.6l0.2-0.4c1,4.2,2.2,8.7,3.2,13.3l-0.4-0.3
							c2.5,0,5.3-0.1,8.1-0.2h0.2l0.1,0.2c1.3,2.4,3.1,4.8,5.2,7.2l0.2,0.2l-0.1,0.2c-0.8,2.5-1.7,5.2-2.5,7.8l-0.2-0.6
							c3.6,2.3,7.6,4.6,11.6,7l-0.4,0.1c1.8-1.9,3.7-3.9,5.7-5.9l0.2-0.2l0.2,0.1c2.6,0.8,5.6,1.3,8.6,1.4l0,0h0.3l0.1,0.2
							c1.3,2.5,2.4,5,3.6,7.5l-0.4-0.2c4.4-1.1,8.8-2.2,13.1-3.3l-0.3,0.4c0-2.8-0.1-5.6-0.1-8.3v-0.2l0.2-0.1c2.5-1.4,5-3.2,7-5.3
							l0.2-0.2l0.2,0.1c2.6,0.9,5.2,1.8,7.7,2.5l-0.4,0.2c2.3-4,4.7-7.9,7-11.8l0.1,0.6c-2-2-4-3.9-5.8-5.7l-0.2-0.2l0.1-0.2
							c0.9-2.9,1.3-5.8,1.3-8.8v-0.2l0.2-0.1c2.5-1.3,5-2.5,7.4-3.6l-0.2,0.4c-1.1-4.6-2.2-9.1-3.2-13.3l0.3,0.2
							c-2.9,0-5.6,0.1-8.1,0.1h-0.2l-0.1-0.2c-1.4-2.8-3.2-5.2-5.2-7.2l-0.1-0.1l0.1-0.2c1-2.9,1.8-5.5,2.6-7.8l0.1,0.3
							c-4.5-2.8-8.3-5.2-11.6-7.2h0.2c-2.3,2.4-4.1,4.3-5.7,5.9l-0.1,0.1h-0.1c-2.9-0.9-5-1.2-6.5-1.3c-0.7-0.1-1.3-0.1-1.7-0.1
							C683.2,350.4,683,350.4,683,350.4s0.2,0,0.6,0c0.4,0,0.9,0,1.7,0.1c1.4,0.1,3.7,0.4,6.6,1.2h-0.1c1.5-1.5,3.4-3.6,5.7-5.9
							l0.1-0.1l0.1,0.1c3.2,2,7,4.4,11.6,7l0.2,0.1l-0.1,0.2c-0.8,2.4-1.7,5-2.5,7.8l-0.1-0.3c2,2.1,3.7,4.5,5.3,7.3l-0.3-0.2
							c2.6-0.1,5.3-0.1,8.1-0.2h0.3l0.1,0.3c1,4.2,2.1,8.7,3.2,13.3l0.1,0.3l-0.3,0.1c-2.3,1.2-4.8,2.5-7.4,3.6l0.2-0.3
							c-0.1,3-0.4,5.9-1.3,8.9l-0.1-0.4c2,1.9,4,3.7,5.8,5.7l0.2,0.2l-0.2,0.3c-2.3,3.7-4.6,7.7-6.9,11.8l-0.2,0.3l-0.3-0.1
							c-2.5-0.9-5.1-1.7-7.7-2.5l0.4-0.1c-2.2,2.1-4.5,3.9-7.2,5.4l0.2-0.4c0,2.8,0.1,5.5,0.1,8.3v0.3l-0.3,0.1
							c-4.3,1.1-8.7,2.2-13.1,3.3l-0.3,0.1l-0.2-0.3c-1.2-2.5-2.4-5-3.6-7.5l0.4,0.2l0,0c-3.1-0.1-6.1-0.6-8.8-1.4l0.4-0.1
							c-2,2.1-4,4.1-5.7,5.9l-0.2,0.2l-0.3-0.2c-4.1-2.5-7.9-4.8-11.6-7.2l-0.3-0.2l0.1-0.3c0.9-2.6,1.8-5.4,2.5-7.8l0.1,0.4
							c-2.2-2.3-4-4.7-5.3-7.3l0.4,0.2c-2.9,0-5.6,0.1-8.1,0.1h-0.3l-0.1-0.3c-1.1-4.6-2.2-9.1-3.2-13.3l-0.1-0.3l0.3-0.1
							c2.5-1.3,5-2.5,7.4-3.6l-0.2,0.3c0.1-3.2,0.6-6.3,1.3-8.9l0.1,0.4c-2.1-2-4.1-4-5.8-5.7l-0.2-0.2l0.1-0.2
							c2.4-4.1,4.8-8,7-11.8l0.1-0.2l0.2,0.1c2.8,0.9,5.3,1.8,7.7,2.6l-0.3,0.1c2.3-2.2,4.7-4,7.2-5.3l-0.1,0.2c0-3-0.1-5.7-0.1-8.3
							V346h0.2c5.4-1.3,9.8-2.4,13.1-3.2h0.1v0.1c1.2,2.4,2.1,4.3,2.6,5.6c0.3,0.6,0.4,1.1,0.7,1.4C683,350.2,683,350.4,683,350.4z"
							/>
					</g>
				</g>
			</g>
		</g>
		<g>
			<g>
				<g>
					<path class="st6" d="M253.5,401.5c5-3.1,10.3-5.4,15.8-6.9l3.3-16l26.5-0.4l3.7,15.8c5.5,1.4,11,3.6,16,6.5l13.4-8.8l18.9,18.7
						l-8.4,13.9c3.1,5.1,5.3,10.6,6.8,16.1l15.7,3.4l0.4,26.8l-15.6,3.7c-1.3,5.6-3.5,11.1-6.4,16.2l8.7,13.6l-18.4,19.3l-13.6-8.5
						c-5,3.1-10.3,5.4-15.8,6.9l-3.3,16l-26.5,0.4l-3.7-15.8c-5.5-1.4-10.9-3.6-16-6.5l-13.4,8.8L222.7,506l8.4-13.9
						c-3.1-5.1-5.3-10.6-6.8-16.1l-15.7-3.4l-0.4-26.8l15.6-3.7c1.3-5.6,3.5-11.1,6.4-16.2l-8.7-13.6l18.5-19.1L253.5,401.5
						L253.5,401.5z"/>
				</g>
			</g>
			<g>
				<g>
					<g>
						<path class="st7" d="M302.7,450.4c-0.1,0,0-2.1-0.9-5.7c-0.4-1.8-1.3-3.9-2.5-6.2c-1.3-2.2-3.2-4.6-5.8-6.5
							c-2.5-2-5.8-3.6-9.5-4.3c-3.7-0.6-7.8-0.6-11.9,1c-2,0.7-4,1.8-5.7,3.1c-0.9,0.6-1.8,1.4-2.5,2.2c-0.8,0.9-1.5,1.7-2.3,2.6
							c-2.8,3.7-4.3,8.6-4.4,13.5c0,5,1.5,9.8,4.4,13.5c0.7,1,1.4,1.8,2.3,2.6c0.9,0.8,1.7,1.5,2.5,2.2c1.8,1.4,3.7,2.4,5.7,3.1
							c4.1,1.5,8.1,1.7,11.9,1c3.7-0.7,6.9-2.3,9.5-4.3c2.5-2,4.5-4.3,5.8-6.5s2.2-4.4,2.5-6.2C302.7,452.4,302.6,450.4,302.7,450.4
							c0,0,0,0.1,0,0.4s0,0.7,0,1.1c0,0.6,0,1.1-0.1,1.8c-0.1,0.7-0.2,1.5-0.4,2.4c-0.4,1.8-1.2,4-2.4,6.3c-1.3,2.3-3.2,4.6-5.8,6.7
							c-2.6,2-5.8,3.7-9.7,4.5c-3.9,0.7-8.1,0.6-12.2-1c-2.1-0.7-4.1-1.8-5.8-3.2c-1-0.7-1.8-1.5-2.6-2.3c-0.8-0.9-1.5-1.7-2.3-2.6
							c-2.9-3.9-4.5-8.8-4.5-14c0-5.1,1.7-10,4.5-14c0.7-1,1.4-1.9,2.3-2.6c0.9-0.8,1.7-1.5,2.6-2.3c1.9-1.4,3.9-2.5,5.8-3.2
							c4.1-1.5,8.5-1.7,12.2-1c3.9,0.7,7.2,2.4,9.7,4.5c2.6,2,4.5,4.4,5.8,6.7c1.3,2.3,2.1,4.5,2.4,6.3c0.3,0.9,0.3,1.7,0.4,2.4
							c0.1,0.8,0.1,1.3,0.1,1.8c0,0.6,0,0.8,0,1.1C302.7,450.3,302.7,450.4,302.7,450.4z"/>
					</g>
				</g>
				<g>
					<g>
						<path class="st7" d="M295.4,467.3c0.1-0.1,5.1,4.6,11.2,10.9c5.9,6.1,10.8,11.1,10.7,11.3c-0.1,0.1-5.1-4.6-11.2-10.9
							C300.1,472.5,295.3,467.4,295.4,467.3z"/>
					</g>
				</g>
			</g>
		</g>
		<g>
			<g>
				<g>
					<path class="st8" d="M432.2,191.4c8-4.8,16.5-8.6,25.2-11l5.3-25.3l42.1-0.7l5.9,25.2c8.9,2.2,17.4,5.7,25.6,10.2l21.3-14.1
						l30.3,29.8l-13.2,22.1c4.7,8.1,8.4,16.7,10.9,25.6l25,5.3l0.7,42.8l-24.9,6.1c-2.2,9-5.6,17.7-10.1,26l13.9,21.7l-29.4,30.7
						l-21.6-13.2c-8,4.8-16.5,8.6-25.2,11l-5.3,25.3l-42.1,0.7l-5.9-25.2c-8.9-2.2-17.4-5.7-25.6-10.2L413.6,388l-30.5-29.8
						l13.3-22.1c-4.7-8.1-8.4-16.7-10.9-25.6l-25-5.3l-0.7-42.8l24.9-6.1c2.2-8.9,5.6-17.7,10.1-26L381,208.7l29.4-30.7L432.2,191.4
						L432.2,191.4z"/>
				</g>
			</g>
			<g>
				<g>
					<g>
						<g>
							<path class="st9" d="M471.3,326.5c0,0,0.1,0,0.4,0s0.9,0,1.4,0c1.3,0,3.2,0,5.5-0.1c4.8,0,11.8-0.1,20.7-0.1l-0.2,0.2
								c-0.1-3.6-0.1-7.7-0.2-12v-0.2l0.2-0.1c5.9-2.8,12.1-6.8,17.7-12.2c2.8-2.8,5.4-6.1,7.5-9.7c2.2-3.6,3.4-7.9,4.2-12.2
								c1-8.9-1-18.7-6.4-27c-5.3-8.3-13.5-15-23.2-18.7c-7.2-2.8-15-3.1-22.2-1.7c-7.2,1.3-13.9,4.6-19.3,9
								c-5.5,4.4-9.2,10.2-11.6,16.3c-0.4,1.4-1.2,3-1.5,4.6c-0.3,1.7-0.8,3.1-1.1,4.6c-0.4,3.1-0.9,6.1-0.8,9
								c0.1,3,0.4,5.8,1.1,8.6s1.5,5.3,2.6,7.7c2.2,4.7,5.3,8.7,8.4,11.8c6.3,6.3,12.7,9.9,17.3,12h0.1v0.1
								c-0.2,3.2-0.3,5.8-0.4,7.6c0,0.9-0.1,1.4-0.1,2C471.3,326.4,471.3,326.5,471.3,326.5s0-0.2,0-0.7c0-0.4,0-1.1,0-1.9
								c0.1-1.8,0.1-4.3,0.2-7.6l0.1,0.1c-4.7-2-11.2-5.6-17.6-11.9c-3.2-3.2-6.3-7-8.6-11.9c-1.1-2.3-2.1-5-2.8-7.8
								c-0.7-2.8-1-5.7-1.1-8.7c0-3,0.2-6.1,0.8-9.2c0.3-1.4,0.8-3.1,1.1-4.7c0.3-1.7,1.1-3.1,1.5-4.7c2.4-6.2,6.4-12.1,11.8-16.7
								c5.5-4.4,12.3-7.8,19.6-9.2c7.3-1.7,15.4-1.2,22.7,1.7c9.9,3.9,18.2,10.7,23.5,19c2.6,4.2,4.6,8.8,5.6,13.4
								c0.3,1.1,0.4,2.3,0.7,3.4c0.1,1.2,0.3,2.3,0.3,3.4s0.1,2.3,0.1,3.4c-0.1,1.1-0.2,2.3-0.3,3.4c-0.7,4.6-2.1,8.9-4.3,12.7
								c-2.2,3.7-4.7,7-7.6,9.8c-5.7,5.6-12,9.7-18,12.3l0.2-0.2c0.1,4.3,0.1,8.4,0.2,12v0.2h-0.2c-8.9-0.1-16-0.1-20.8-0.1
								c-2.3,0-4.2,0-5.5-0.1c-0.7,0-1.1,0-1.3,0C471.4,326.6,471.3,326.6,471.3,326.5z"/>
						</g>
					</g>
					<g>
						<g>
							<path class="st9" d="M499.9,334.5c0,0.2-6.5,0.4-14.5,0.4s-14.5-0.2-14.5-0.4c0-0.2,6.5-0.4,14.5-0.4
								C493.3,334,499.9,334.3,499.9,334.5z"/>
						</g>
					</g>
					<g>
						<g>
							<path class="st9" d="M490.6,345.6c0,0.2-2.3,0.8-5.2,0.7c-3-0.1-5.2-0.8-5.2-1s2.3,0,5.2,0
								C488.3,345.4,490.5,345.4,490.6,345.6z"/>
						</g>
					</g>
					<g>
						<g>
							<path class="st9" d="M477.2,326.5c0,0,0-0.1,0-0.4s0-0.9,0-1.4c0-1.3,0-3.1,0.1-5.4c0.1-4.8,0.2-11.7,0.4-20.1
								c0.1-4.2,0.2-8.9,0.3-13.9c0-1.2,0-2.4-0.4-3.6c-0.3-1.1-1.4-2-2.5-1.8s-2,1.3-2.2,2.6c-0.3,1.2-0.1,2.6,0.4,3.7
								c1.1,2.3,3.7,4,6.5,4.3s5.6-0.9,7.6-3.1s3.1-5.2,3.2-8.1c0-1.4-0.1-3.1-0.9-4.3c-0.8-1.2-2.3-2-3.5-1.4
								c-1.2,0.4-2,2.1-1.8,3.6c0.2,1.4,1.1,2.8,2.1,4c1.9,2.4,4.3,4.4,6.9,5.4c1.3,0.4,2.8,0.8,4.2,0.4c1.3-0.2,2.6-0.8,3.7-1.7
								c1.1-0.9,2-2,2.4-3.2c0.3-1.2,0.3-2.8-0.2-3.9c-0.7-1.1-1.8-2-2.8-2c-1.2,0-2.3,0.9-3.1,1.9c-1.3,2.1-1.3,4.8-1.8,7.3
								c-0.4,5-0.9,9.7-1.2,13.9c-0.7,8.4-1,15.2-1.3,20c-0.1,2.3-0.2,4.1-0.3,5.4c0,0.7-0.1,1-0.1,1.3s0,0.4-0.1,0.4
								c0,0,0-0.1,0-0.4s0-0.9,0-1.3c0-1.3,0.1-3.1,0.2-5.4c0.2-4.7,0.4-11.7,1.1-20c0.2-4.2,0.7-8.9,1.1-13.9
								c0.1-1.2,0.2-2.4,0.4-3.9c0.2-1.2,0.7-2.6,1.3-3.9c0.9-1.1,2.1-2.1,3.6-2.2c1.5,0,3,1.1,3.5,2.3c0.8,1.3,0.8,3,0.2,4.4
								c-0.4,1.4-1.4,2.8-2.6,3.6c-1.2,1-2.6,1.7-4.2,1.8c-1.5,0.2-3.2,0-4.6-0.4c-3-1.1-5.5-3.2-7.5-5.7c-1-1.2-2-2.8-2.2-4.4
								s0.4-3.7,2.2-4.4c1.9-0.7,3.6,0.3,4.6,1.9c0.9,1.4,1.1,3.2,1,4.8c-0.1,3.2-1.3,6.4-3.4,8.8c-2.1,2.3-5.3,3.9-8.3,3.3
								c-3-0.3-5.8-2.1-7-4.8c-0.7-1.3-1-2.9-0.4-4.3c0.3-1.3,1.3-2.9,2.8-3.1c0.8-0.1,1.5,0,2.2,0.4s1,1.1,1.2,1.8
								c0.4,1.2,0.4,2.6,0.4,4c-0.1,5-0.3,9.7-0.4,13.9c-0.3,8.4-0.7,15.3-0.8,20c-0.1,2.3-0.2,4.2-0.2,5.4c0,0.7-0.1,1-0.1,1.3
								C477.3,326.4,477.2,326.5,477.2,326.5z"/>
						</g>
					</g>
					<g>
						<g>
							<path class="st9" d="M497.4,340c0,0.2-5.3,0.4-11.7,0.4c-6.4,0-11.7-0.2-11.7-0.4c0-0.2,5.3-0.4,11.7-0.4
								C492,339.6,497.4,339.8,497.4,340z"/>
						</g>
					</g>
				</g>
			</g>
		</g>
		<g>
			<g>
				<g>
					<g>
						<path class="st6" d="M748.6,252.8c4.1-2.5,8.6-4.6,13.1-5.9l2.5-13.2l22.1-0.7l3.3,13.1c4.6,1.1,9.1,2.8,13.4,5.2l11.1-7.6
							l16.1,15.3l-6.8,11.7c2.5,4.2,4.5,8.7,5.8,13.3l13.1,2.5l0.7,22.3l-13,3.4c-1.1,4.6-2.8,9.2-5.1,13.6l7.5,11.2l-15.1,16.4
							l-11.4-6.8c-4.1,2.5-8.6,4.6-13.1,5.9l-2.5,13.2l-22.1,0.7l-3.3-13.1c-4.6-1.1-9.1-2.8-13.4-5.2l-11.1,7.6l-16.2-15.3
							l6.8-11.7c-2.5-4.2-4.5-8.7-5.8-13.3l-13.1-2.5l-0.7-22.3l13-3.4c1.1-4.6,2.8-9.2,5.1-13.6l-7.5-11.2l15.1-16.3L748.6,252.8
							L748.6,252.8z"/>
					</g>
				</g>
			</g>
			<g>
				<g>
					<g>
						<path class="st10" d="M806.7,323.8c0,0-0.4,0-1.1,0.1c-0.8,0-1.8,0-3.1,0.1c-2.8,0-6.6,0.1-11.3,0.1c-9.6,0-22.7,0.1-37.2,0.1
							c-0.9,0-1.8,0-2.6,0H751v-0.4c0-14.1,0.1-26.7,0.1-35.9c0-4.5,0.1-8.1,0.1-10.9c0-1.2,0-2.2,0.1-2.9c0-0.7,0-1,0.1-1
							c0,0,0,0.4,0.1,1c0,0.7,0,1.7,0.1,2.9c0,2.5,0.1,6.3,0.1,10.9c0,9.1,0.1,21.8,0.1,35.9l-0.4-0.4c0.9,0,1.8,0,2.6,0
							c14.5,0,27.5,0.1,37.2,0.1c4.7,0,8.6,0.1,11.3,0.1c1.3,0,2.3,0.1,3.1,0.1C806.4,323.7,806.7,323.7,806.7,323.8z"/>
					</g>
				</g>
				<g>
					<g>
						<path class="st10" d="M800.5,285.4c0,0-0.6,0.6-1.7,1.5c-1.2,1.1-2.8,2.5-4.7,4.2c-4,3.5-9.5,8.3-15.6,13.5l-0.9,0.8l-0.2,0.2
							l-0.2-0.2c-2.4-2.3-4.8-4.5-6.9-6.6h0.4c-4.1,3.4-7.6,6.4-10.2,8.5c-1.2,1-2.2,1.8-3,2.4c-0.7,0.6-1.1,0.8-1.1,0.8
							s0.3-0.4,1-1c0.8-0.7,1.7-1.5,2.9-2.5c2.5-2.2,5.9-5.2,10-8.7l0.2-0.2l0.2,0.2c2.2,2,4.5,4.2,6.9,6.5h-0.4l0.9-0.8
							c6.1-5.3,11.7-9.9,15.7-13.3c2-1.5,3.6-3,4.8-4C799.9,285.8,800.5,285.4,800.5,285.4z"/>
					</g>
				</g>
				<g>
					<g>
						<path class="st10" d="M800.5,297.2c-0.1,0-0.2-1.3-0.2-3.5c-0.1-2.2-0.1-5.2-0.1-8.6l0.4,0.4c-0.2,0-0.4,0-0.6,0
							c-3.4,0-6.6,0-8.8-0.1c-2.3-0.1-3.6-0.2-3.6-0.3c0-0.1,1.3-0.2,3.6-0.3c2.3-0.1,5.4-0.1,8.8-0.1c0.2,0,0.4,0,0.6,0h0.4v0.4
							c0,3.4,0,6.4-0.1,8.6C800.8,295.9,800.7,297.2,800.5,297.2z"/>
					</g>
				</g>
			</g>
		</g>
		<g>
			<g>
				<g>
					<path class="st11" d="M328.2,321.9c-0.2,0.1-1.1-2.2-1.8-5.3s-1.1-5.6-0.8-5.6c0.2-0.1,1.1,2.4,1.8,5.3
						C328,319.4,328.3,321.9,328.2,321.9z"/>
				</g>
			</g>
			<g>
				<g>
					<path class="st11" d="M344.2,363.4c-0.2,0.1-2.8-4.3-5.3-9.7c-2.6-5.7-4.1-10.4-4-10.4c0.2-0.1,2.1,4.6,4.7,10
						C342.3,358.8,344.4,363.3,344.2,363.4z"/>
				</g>
			</g>
			<g>
				<g>
					<path class="st11" d="M369.3,399.2c-0.1,0.1-3.7-3.3-7.4-7.9c-3.8-4.8-6.4-8.9-6.1-9s3.2,3.8,6.9,8.4
						C366.5,395.4,369.4,398.9,369.3,399.2z"/>
				</g>
			</g>
			<g>
				<g>
					<path class="st11" d="M402.7,426.7c-0.1,0.2-4.4-2.1-9.1-5.6c-4.8-3.4-8.4-6.7-8.3-7c0.1-0.2,4,2.7,8.7,6.1
						C398.6,423.8,402.7,426.5,402.7,426.7z"/>
				</g>
			</g>
			<g>
				<g>
					<path class="st11" d="M441.6,443.1c0,0.2-4.7-0.8-10.3-2.5c-5.6-2.1-9.9-3.9-9.7-4.1c0.1-0.2,4.6,1.2,10,3.3
						C437.2,441.4,441.6,442.9,441.6,443.1z"/>
				</g>
			</g>
			<g>
				<g>
					<path class="st11" d="M483.7,446.9c0,0.2-4.7,0.7-10.6,0.7c-6-0.1-10.5-0.8-10.5-1.1c0-0.2,4.8-0.1,10.5,0.1
						C478.9,446.7,483.6,446.7,483.7,446.9z"/>
				</g>
			</g>
			<g>
				<g>
					<path class="st11" d="M525.4,440.3c0.1,0.2-4.6,1.9-10.3,3.1c-5.8,1.3-10.4,1.8-10.5,1.7c0-0.2,4.6-1.3,10.3-2.4
						C520.7,441,525.4,439.8,525.4,440.3z"/>
				</g>
			</g>
			<g>
				<g>
					<path class="st11" d="M565,423.6c0.1,0.2-4,2.8-9.3,5.3c-5.4,2.6-9.8,4.1-9.9,4c-0.1-0.2,4.4-2.4,9.6-4.8
						C560.5,425.8,564.8,423.5,565,423.6z"/>
				</g>
			</g>
			<g>
				<g>
					<path class="st11" d="M599.6,397.8c0.1,0.1-3.2,3.9-7.7,7.8c-4.6,4-8.6,6.7-8.7,6.4c-0.1-0.4,3.8-3.3,8.2-7.1
						C595.8,401,599.4,397.5,599.6,397.8z"/>
				</g>
			</g>
			<g>
				<g>
					<path class="st11" d="M625.4,362.2c0.2,0.1-1.9,4.7-5.1,9.9s-6.4,9.2-6.6,9.1c-0.2-0.1,2.6-4.3,5.8-9.5
						C622.8,366.5,625.1,362,625.4,362.2z"/>
				</g>
			</g>
			<g>
				<g>
					<path class="st11" d="M642.9,321c0.2,0.1-1.4,4.8-3.5,10.5c-2.2,5.7-4.3,10.4-4.5,10.3s1.4-4.8,3.5-10.5
						C640.6,325.6,642.6,321,642.9,321z"/>
				</g>
			</g>
			<g>
				<g>
					<path class="st11" d="M659.3,279.4c0.2,0.1-1.8,4.7-4,10.4c-2.4,5.7-4.4,10.3-4.6,10.2s1.5-4.8,3.9-10.5c1.1-3,2.4-5.4,3.2-7.2
						C658.5,280.4,659.2,279.2,659.3,279.4z"/>
				</g>
			</g>
			<g>
				<g>
					<path class="st11" d="M680.8,240.5c0.2,0.1-2.5,4.4-5.8,9.5c-3.2,5.2-5.8,9.5-6,9.3c-0.2-0.1,2-4.7,5.2-9.9
						C677.6,244.2,680.6,240.4,680.8,240.5z"/>
				</g>
			</g>
			<g>
				<g>
					<path class="st11" d="M711.1,209.2c0.1,0.2-3.9,3-8.3,7c-4.6,4-7.9,7.4-8.2,7.1c-0.1-0.1,3.2-3.9,7.6-7.8
						C706.9,211.5,710.9,209.1,711.1,209.2z"/>
				</g>
			</g>
			<g>
				<g>
					<path class="st11" d="M750.4,193c0.1,0.2-4.6,1.5-10.2,3.1c-5.7,1.7-10.2,3.3-10.2,3.1c-0.1-0.2,4.4-2.4,9.9-4
						C745.8,193.3,750.4,192.8,750.4,193z"/>
				</g>
			</g>
			<g>
				<g>
					<path class="st11" d="M792.6,190.9c0,0.2-4.8-0.2-10.5-0.4c-5.8-0.2-10.5-0.1-10.5-0.4c0-0.2,4.7-0.7,10.6-0.7
						C787.9,189.7,792.6,190.5,792.6,190.9z"/>
				</g>
			</g>
			<g>
				<g>
					<path class="st11" d="M832.6,204.6c-0.1,0.2-4.4-2-9.7-4.4c-5.4-2.5-9.7-4.1-9.6-4.5c0-0.2,4.7,1.1,10,3.5
						C828.6,201.9,832.8,204.5,832.6,204.6z"/>
				</g>
			</g>
			<g>
				<g>
					<path class="st11" d="M866.9,230.4c-0.1,0.2-3.7-3.1-8.2-7c-4.6-3.8-8.3-6.9-8.2-7.2c0.1-0.2,4.3,2.5,8.7,6.4
						C863.8,226.7,867,230.3,866.9,230.4z"/>
				</g>
			</g>
			<g>
				<g>
					<path class="st11" d="M886.3,256.9c-0.2,0.1-1.5-1.9-3.1-4.6c-1.5-2.6-2.8-4.7-2.5-5c0.1-0.1,1.8,1.8,3.3,4.4
						C885.6,254.4,886.6,256.8,886.3,256.9z"/>
				</g>
			</g>
		</g>
		<g>
			<g>
				<path class="st12" d="M435.1,366.2"/>
			</g>
		</g>
	</g>
</g>
<path class="st13" d="M260.2,638.4c0,0,79.9-32.6,127.2-36.8s197.4,18.2,222.3,22.4c23.5,3.9,30,43.3-2.2,51.9
	c-1.9,0.5-3.9,0.9-6.1,1.2c-10.6,1.4-24.8,1.8-39.8,1.7c-40.4-0.2-87.1-4.2-87.1-4.2s171.3,28.2,158.4-29.4l7.1-9.1l143.9-86.7
	c0,0,33.2-15.8,44.8,6.6c11.6,22.4,1.7,37.3-11.6,51.4S638.7,757.5,638.7,757.5s-19.1,24.1-92.1,13.3s-160.1-19.9-176.7-19.9
	s-67.2,27.4-67.2,27.4s10,20.7-11.6,27.4s-22.4,9.1-32.3,10.8s-12.4,5-19.9-26.5s-41.5-139.3-41.5-139.3s-7.5-12.4,11.6-18.2
	s39.8-19.1,41.5-11.6s53.4,160.9,53.4,160.9"/>
</svg>
