<?xml version="1.0" encoding="utf-8"?>
<!-- Generator: Adobe Illustrator 25.2.1, SVG Export Plug-In . SVG Version: 6.00 Build 0)  -->
<svg version="1.1" id="Layer_1" xmlns="http://www.w3.org/2000/svg" xmlns:xlink="http://www.w3.org/1999/xlink" x="0px" y="0px"
	 viewBox="0 0 1000 1000" style="enable-background:new 0 0 1000 1000;" xml:space="preserve">
<style type="text/css">
	.st0{fill:#3C3B58;}
	.st1{fill:#437EB6;}
</style>
<g>
	<path class="st0" d="M591.5,699.3c-6.2,0-12.4,0.1-18.6,0c-9.7-0.1-16.6-6.5-17.2-16.2c-1.6-27-3.1-54.1-4.5-81.1
		c-2.4-47.2-4.7-94.3-7.1-141.5c-0.1-2.3,0.8-5.4-2.5-6.3c-3-0.8-4.4,1.6-5.9,3.6c-6,8.4-12.1,16.8-18,25.2
		c-6.3,9-14.8,14-25.8,13.9c-14.6-0.1-29.1,1.8-43.7-0.1c-10.3-1.4-13-4-12.3-12.6c0.5-5.8,7.3-10.2,14.3-10.6
		c12.8-0.7,25.6-2.4,37.9-6.5c3.2-1.1,4.6-4.5,6-7.1c6.4-11.6,12.7-23.2,18.5-35.1c5.3-11,12.4-21,18.9-31.3
		c3.2-4.9,9.5-7.5,15.2-9.8c7.3-3.1,14.8-5.7,22.1-8.7c5-2.1,9.9-1,14.6,0.3c5.4,1.5,10.7,1.8,16.1,0c6.4-2.1,12.6-1.5,18.9,1.1
		c7.7,3.2,15.6,6,23.4,8.8c10.5,3.9,16.4,11.8,18.6,22.3c3.3,16.4,6.2,32.8,8.8,49.4c1.3,8.1,0.9,16.4-1.3,24.4
		c-5.4,20-11.1,40-16.3,60c-1.7,6.7-5.7,10.6-12.1,11.3c-4.2,0.5-4.5,2.6-4.6,5.8c-2.3,41.4-4.8,82.8-7.1,124.3
		c-0.6,10.8-6,16.3-16.7,16.5C604.4,699.4,598,699.3,591.5,699.3z M603.8,388.5c-8,0-13.9,0.1-19.9-0.1c-2.4-0.1-4,1.1-2.3,2.8
		c5.3,5.2,2.8,11.1,2.9,17.1c0.4,22.2-2.4,44.1-4.2,66.1c-0.7,8.7,1.7,14.7,7.3,20.5c2.9,3,4.6,3,7.9,0.2c5.8-4.9,8.2-10.5,7.5-18
		c-1.5-17.1-3.5-34.1-3.7-51.2C599.2,413.7,592.6,400.8,603.8,388.5z"/>
	<path class="st1" d="M499.8,248.1c-82.8,0-165.5-0.1-248.3,0.1c-6.2,0-8.1-1.4-7.8-7.7c0.6-11.2,0.2-22.4,0.2-33.5
		c0-14.7,5.4-19.9,20.4-19.9c96.2,0,192.4,0,288.5,0c60.9,0,121.8,0,182.7,0c15.7,0,20.6,4.9,20.6,20.3c0,11.2-0.3,22.4,0.1,33.5
		c0.2,6-1.7,7.4-7.5,7.4C665.8,248,582.8,248.1,499.8,248.1z"/>
	<path class="st1" d="M243.8,401.6c0-43.7,0.1-87.5-0.1-131.2c0-6,1.3-8.6,7.8-8.2c7.7,0.5,15.4,0.5,23.1,0c6.4-0.4,8.4,1.5,8.4,8.2
		c-0.2,80-0.1,160.1-0.1,240.1c0,12-0.1,12,12.2,12c72.8,0,145.7,0,218.5,0c12.3,0,13.7,1.3,14.1,13.5c0.2,5.5,0.6,10.9,0.7,16.4
		c0.1,5.6-2.5,9-8.4,9.1c-6,0.1-11.9,0-17.9,0c-75.6,0-151.1,0-226.7,0c-21.3,0-31.4-10.2-31.4-31.7
		C243.9,487.1,243.9,444.4,243.8,401.6C243.9,401.6,243.9,401.6,243.8,401.6z"/>
	<path class="st0" d="M358.8,812.9c-21.1,0-42.2-0.2-63.4,0.1c-6.9,0.1-9.8-2.8-10.9-9.3c-2.3-14.4,2.2-28.1,4.3-42
		c1.3-8.7,3.3-17.4,5.5-26c2.4-9.4,8.6-15,16.8-18.5c10.1-4.4,20.7-7.6,30.9-12.2c5.2-2.3,12.2-0.8,18.4-1.1
		c19.9-1,36.1,9.9,53.4,17c4.4,1.8,7.8,6,8.9,10.6c5.5,22.6,11.4,45.3,10.9,68.8c-0.2,10.9-2.4,12.5-12.9,12.5
		C400.1,813,379.5,812.9,358.8,812.9z"/>
	<path class="st0" d="M661.1,812.9c-20.6,0-41.2,0-61.8,0c-9.6,0-11.4-1.8-12.4-11.6c-1.4-14,2.6-27.3,5-40.8
		c1.3-7.5,2.2-15.1,3.9-22.4c2.4-10.6,8-17.8,19.7-20.3c8.1-1.7,15.4-6.8,23.1-10.3c5.5-2.4,10.7-2.9,16.4-3.6
		c14.8-1.8,27.7,3.1,41,8.6c7.8,3.2,15.9,5.6,22.9,10.7c5.3,3.9,7.9,9.6,8.7,15.9c1.8,15.3,5.7,30.2,8.3,45.4
		c1.1,6.4,0.8,12.8,0.2,19.3c-0.7,6.7-3.9,9.3-10.8,9.2C703.8,812.7,682.4,812.9,661.1,812.9C661.1,812.9,661.1,812.9,661.1,812.9z"
		/>
	<path class="st1" d="M756.1,402.8c0,42.5,0,85,0,127.5c0,21.5-9.9,31.3-31.6,31.3c-14.7,0-29.3,0-44-0.1
		c-10.1,0-12.9-3.9-10.1-13.6c1.6-5.5,3.2-11,4.5-16.5c1.4-6.3,4.8-9.2,11.5-8.9c8.7,0.4,17.4,0,26.1,0.2c3.6,0.1,4.8-1.2,4.7-4.7
		c-0.2-5.2,0-10.4,0-15.7c0-76.8,0.1-153.6-0.2-230.4c0-7.6,2-10,9.6-9.4c7.6,0.7,15.4,0.5,23.1,0c5.4-0.3,6.6,1.6,6.6,6.7
		C756,313.8,756.1,358.3,756.1,402.8z"/>
	<path class="st0" d="M445.5,300.6c0.2,15,11.9,26.2,27.5,24.9c11.4-1,8.6,8.8,11.8,13.7c3.3,5-2.8,5.8-5.6,8.1
		c-4.5,3.8-5.7,9.5-6.5,15c-1.2,8.9,1.4,17.1,8.8,22.3c5.9,4.2,3.7,8.2,1.6,12.7c-2,4.2-2.3,9.1-9.7,8.5
		c-17.2-1.5-28.3,10.4-27.7,26.9c0.1,3.4,1.3,7.6-3.6,8.2c-5.8,0.7-10.7,9.2-17.9,0.2c-11.5-14.5-28.7-10-37.8,0.6
		c-3,3.5-5.2,4.3-9.4,2.6c-6.9-2.8-12.4-4.8-11.5-15c1.1-13.4-12.8-24.6-26.8-23.9c-3.4,0.2-6.9,1.5-8.5-3.4
		c-1.7-5.4-6.5-10.4-1.1-16.2c2.3-2.5,5.3-4.6,6.8-7.5c5.7-11.2,3.6-23.4-6.1-31.7c-4.5-3.8-4.6-6.8-2.1-11.3
		c1.2-2.1,1.9-4.5,2.8-6.8c0.9-2.3,2.3-3.5,5.1-2.9c12.4,2.8,20.7-4.5,27.6-12.9c3-3.7,3.2-9.7,2.4-14.9c-0.7-4.5,0.6-6.8,4.9-8.5
		c6.7-2.7,12.7-4.9,18.3,2.5c3.5,4.6,9.5,6.2,14.7,8.1c5.8,2.1,10.4-3.2,15.6-5.2c1.1-0.4,2-1.5,3-2.2c10.1-8,9.9-7.7,20.9-0.9
		C447.3,294.3,445,297.6,445.5,300.6z M405.5,404.1c20.6,0.3,37.9-16.9,38.7-37.6c0.7-17.9-15.1-39.4-38.2-39.5
		c-20.8-0.1-39.2,18.8-38.9,38.6C367.4,384.1,382,404.3,405.5,404.1z"/>
	<path class="st0" d="M509.9,812.9c-16.9,0-33.8,0-50.7,0c-9.9,0-12.4-2.3-10.8-12c3.6-22.2,3.5-44.9,10.2-66.6
		c1.9-6.2,5.1-9.7,10.9-11.5c5.1-1.6,10.3-2.9,14.7-6.4c3.2-2.5,7-3.5,11.2-3.3c5.2,0.3,10.5,0.8,15.6,0c14.5-2.2,26.9,3.8,39.6,9
		c8,3.3,12.3,9.9,13.4,18.3c2.8,20.9,5.4,41.8,7.9,62.8c0.7,6-2.7,9.6-9.1,9.7C545.1,813,527.5,812.9,509.9,812.9
		C509.9,812.9,509.9,812.9,509.9,812.9z"/>
	<path class="st0" d="M510,704.2c-11.6-0.2-23.2,0-34.2-4.9c-3.5-1.6-4.4-3.4-4-6.7c1.7-16.5,6.4-32.3,12.5-47.6
		c4.6-11.6,15.1-15.1,26.9-14.7c11.7,0.4,21,5.2,25.2,16.7c5.8,15.5,9.3,31.6,11.5,47.9c0.6,4.4-3.6,4.8-6.3,5.7
		C531.4,703.9,520.7,704.4,510,704.2z"/>
	<path class="st0" d="M623.1,320.4c-0.7,14-5.4,26.4-14.9,36.8c-8.7,9.4-24.4,8.7-33.1-0.7c-10.8-11.8-15.6-25.5-14.2-41.3
		c1.6-17.9,19.4-27.6,33-26.5C610.7,290.1,623.1,303.6,623.1,320.4z"/>
	<path class="st0" d="M660.1,694.6c-9.5,2.4-15.4-3.9-20.5-12c-10.1-15.9-10.5-36-1.2-47.5c6.7-8.3,23.4-13.4,34.5-8.5
		c11.6,5.1,19.5,16.5,18.8,29.3c-0.6,12.4-5,23.3-12.8,32.9C674.6,694,672.2,694.7,660.1,694.6z"/>
	<path class="st0" d="M358.9,694.7c-14.4,2.7-21.6-9.2-27.3-25.4c-4.3-12.2-4.3-24.4,5.6-35.1c7.3-7.8,15.9-11,26-9.3
		c13.1,2.2,23,9.5,25.2,23.2c2.4,14.9-1.8,28.5-11.5,40.2C372,694.2,369.9,694.7,358.9,694.7z"/>
</g>
</svg>
