<?xml version="1.0" encoding="utf-8"?>
<!-- Generator: Adobe Illustrator 25.2.1, SVG Export Plug-In . SVG Version: 6.00 Build 0)  -->
<svg version="1.1" id="Layer_1" xmlns="http://www.w3.org/2000/svg" xmlns:xlink="http://www.w3.org/1999/xlink" x="0px" y="0px"
	 viewBox="0 0 93.2 80.2" style="enable-background:new 0 0 93.2 80.2;" xml:space="preserve">
<style type="text/css">
	.st0{fill:#1B212F;}
</style>
<g>
	<g>
		<g>
			<g>
				<path class="st0" d="M66.9,62.2l-2,0.1c-0.3,0-0.7,0-1,0c-0.3,0-0.7,0-1.1-0.3c-0.4-0.3-0.5-0.7-0.6-1c-0.1-0.4-0.2-0.6-0.2-1.1
					c0-0.7-0.1-1.2-0.6-1.5c-0.2-0.2-0.5-0.3-0.8-0.4c-0.1,0-0.3-0.1-0.5-0.1c-0.1,0,0,0-0.1,0c0,0-0.1,0-0.1,0c0,0-0.1,0-0.1,0.1
					l-0.2,0.2l-0.4,0.3l-0.8,0.6l-0.4,0.3c-0.1,0.1-0.3,0.2-0.5,0.3c-0.4,0.2-1,0.3-1.5,0c-0.5-0.2-0.7-0.5-0.9-0.7l-0.7-0.7
					L52.9,57l-0.7-0.7c-0.3-0.3-0.6-0.7-0.7-1.2c-0.1-0.6,0.1-1.1,0.4-1.5l0.6-0.9c0.1-0.2,0.2-0.3,0.4-0.5c0.1-0.1,0.2-0.2,0.2-0.3
					c0.1-0.2,0.1-0.3,0.1-0.5c0-0.3-0.4-1.1-0.6-1.1c-0.1-0.1-0.2-0.1-0.6-0.1l-1.1-0.1l-0.5-0.1c-0.2,0-0.4-0.1-0.7-0.1
					c-0.5-0.1-1.1-0.6-1.2-1.2c-0.1-0.3-0.1-0.5-0.1-0.7l0-0.5l0-1l0-2l0-1c0-0.3,0-1,0.4-1.5c0.4-0.5,0.9-0.8,1.4-0.9
					c0.3-0.1,0.7-0.2,1.1-0.2c0.7,0,1.1-0.1,1.3-0.3c0.1-0.1,0.2-0.3,0.3-0.5c0.1-0.2,0.1-0.5,0.1-0.6l0-0.1c0,0,0,0,0,0l-0.1-0.1
					c-0.1-0.1-0.2-0.2-0.3-0.4l-0.6-0.8l-0.3-0.4c-0.1-0.2-0.2-0.3-0.4-0.6c-0.1-0.2-0.2-0.5-0.2-0.8c0-0.3,0.1-0.7,0.2-0.9
					c0.3-0.5,0.6-0.8,0.8-1l0.7-0.7l1.5-1.4l0.7-0.7c0.3-0.2,0.6-0.6,1.3-0.7c0.7-0.1,1.2,0.2,1.5,0.4c0.3,0.2,0.6,0.4,0.9,0.6
					c0.3,0.2,0.5,0.4,0.8,0.6c0.1,0.1,0.3,0.2,0.3,0.2c0.1,0,0.2,0,0.3,0c0.2,0,0.5-0.1,0.7-0.1c0.2-0.1,0.4-0.2,0.5-0.4
					c0.1-0.2,0.2-0.4,0.2-0.7c0-0.1,0-0.3,0-0.4l0-0.1l0-0.1l0-0.1l0-0.3c0.1-0.3,0.1-0.7,0.2-1.1c0.1-0.2,0.2-0.4,0.4-0.6
					c0.2-0.2,0.5-0.3,0.7-0.4c0.9-0.2,1.5-0.1,2.2-0.1l2,0l1,0c0.4,0,0.8,0,1.2,0.3c0.4,0.3,0.6,0.8,0.7,1.1
					c0.1,0.4,0.1,0.6,0.2,1.1c0,0.2,0,0.4,0,0.5c0,0.1,0,0.3,0.1,0.4c0.1,0.3,0.2,0.5,0.4,0.7c0.2,0.2,0.5,0.3,0.7,0.4
					c0.3,0.1,0.6,0.2,0.8,0.1c0.2,0,0.4-0.3,0.7-0.5l0.8-0.6c0.3-0.2,0.5-0.4,0.9-0.6c0.3-0.2,0.9-0.3,1.2-0.1
					c0.4,0.2,0.6,0.5,0.9,0.7l0.7,0.7l1.5,1.4l0.7,0.7c0.2,0.2,0.6,0.6,0.6,1c0.1,0.5-0.1,0.9-0.3,1.2c-0.2,0.3-0.4,0.6-0.6,0.9
					c-0.1,0.1-0.2,0.3-0.4,0.4c-0.1,0.1-0.2,0.2-0.3,0.4c-0.2,0.2-0.2,0.5-0.2,0.8c0,0.3,0.1,0.5,0.2,0.8c0.1,0.3,0.3,0.6,0.5,0.7
					c0.2,0.1,0.4,0.1,0.8,0.1l1,0.1c0.4,0,0.6,0,1.1,0.1c0.4,0.1,0.9,0.4,1.1,0.9c0.2,0.4,0.2,0.9,0.2,1.2l0,1l0,2l0,1
					c0,0.3,0,0.8-0.2,1.3c-0.3,0.5-0.8,0.7-1.2,0.8l-1,0.2l-1,0.2c-0.2,0-0.4,0.1-0.4,0.1c-0.1,0,0,0-0.1,0.1c0,0.1-0.1,0.2-0.2,0.3
					c-0.1,0.1-0.1,0.2-0.2,0.4c-0.1,0.2-0.1,0.4-0.1,0.6c0.1,0.4,0.5,0.8,0.9,1.4c0.2,0.3,0.5,0.5,0.7,0.9c0.1,0.2,0.2,0.4,0.3,0.7
					c0.1,0.3,0,0.7-0.1,1c-0.2,0.5-0.5,0.8-0.7,1L79.2,57l-1.4,1.5L77,59.2c-0.3,0.2-0.6,0.6-1.2,0.8c-0.3,0.1-0.7,0.1-1,0
					c-0.3-0.1-0.5-0.2-0.7-0.3c-0.1-0.1-0.2-0.1-0.3-0.2l-0.2-0.1c-0.1-0.1-0.3-0.2-0.5-0.3c-0.4-0.3-0.5-0.5-0.7-0.6
					c-0.2-0.1-0.3-0.2-0.5-0.2c-0.2,0-0.3,0-0.6,0.1c-0.2,0.1-0.5,0.3-0.5,0.3c0,0,0,0,0,0l0,0.4l-0.1,1c0,0.3,0,0.7-0.2,1.2
					c-0.1,0.2-0.2,0.5-0.3,0.8c-0.2,0.3-0.5,0.5-0.8,0.7c-0.6,0.3-1,0.3-1.4,0.3l-1,0l1-1l0.1,8.7l0,2.2c0,0.7,0,1.6-0.2,2.4
					c-0.2,0.8-0.5,1.7-1.1,2.4c-0.6,0.7-1.3,1.3-2.1,1.6c-0.8,0.3-1.7,0.5-2.5,0.5c-0.8,0-1.5,0-2.2,0l-4.3,0l-8.7-0.1
					c-5.8-0.1-11.6-0.1-17.3-0.3c-0.7,0-1.4,0-2.2-0.1c-0.8,0-1.6-0.2-2.3-0.5c-0.7-0.3-1.4-0.8-1.9-1.5c-0.5-0.6-0.8-1.4-1-2.1
					c-0.2-0.7-0.2-1.5-0.1-2.2l0.1-2.2l0.2-4.3l0.2,0l0.2,4.3l0.1,2.2c0,0.7,0.1,1.4,0.2,2.1c0.3,1.3,1.3,2.4,2.5,2.8
					c0.6,0.2,1.3,0.3,1.9,0.3c0.7,0,1.4,0,2.1,0c5.8-0.2,11.6-0.2,17.3-0.3l8.7-0.1l4.3,0c0.7,0,1.5,0,2.1,0c0.6,0,1.2-0.1,1.7-0.4
					c1-0.4,1.8-1.3,2-2.5c0.1-0.6,0.2-1.1,0.1-1.9l0-2.2l0.1-8.7l0-1l1,0l1,0c0.3,0,0.5,0,0.6-0.1c0,0,0,0,0,0c0,0,0-0.1,0.1-0.2
					c0.1-0.2,0.1-0.5,0.1-0.8l0.1-1l0.1-0.6c0-0.3,0.2-0.7,0.4-0.9c0.5-0.5,0.8-0.6,1.2-0.8c0.4-0.2,0.9-0.3,1.4-0.3
					c0.5,0,1,0.2,1.4,0.5c0.4,0.2,0.7,0.6,0.8,0.7c0.1,0.1,0.2,0.2,0.4,0.3l0.4,0.3c0.2,0.1,0.3,0.1,0.3,0.1c0.1,0,0.7-0.6,1.2-1.1
					l1.4-1.4l0.7-0.7c0.2-0.2,0.4-0.5,0.5-0.6c0-0.1,0,0,0,0c0,0,0-0.1-0.1-0.2c-0.1-0.2-0.3-0.5-0.5-0.7c-0.4-0.5-1-1.1-1.2-2.1
					c-0.1-0.5,0-1,0.2-1.4c0.1-0.2,0.2-0.4,0.3-0.6c0.1-0.1,0.2-0.3,0.4-0.5c0.2-0.2,0.5-0.4,0.7-0.5c0.3-0.1,0.4-0.1,0.6-0.1l1-0.2
					l1-0.2c0.2,0,0.4-0.1,0.5-0.2c0.2-0.2,0.1-1.1,0.1-1.7l0-2l0-1c0-0.4,0-0.6-0.1-0.8c-0.1-0.2-0.2-0.3-0.5-0.4
					c-0.2-0.1-0.6-0.1-0.9-0.1l-1-0.1c-0.3-0.1-0.8,0-1.2-0.3c-0.4-0.3-0.5-0.7-0.7-1c-0.2-0.3-0.3-0.7-0.3-1.1
					c0-0.4,0.1-0.8,0.4-1.2c0.1-0.2,0.2-0.3,0.4-0.4c0.1-0.1,0.2-0.2,0.3-0.4c0.2-0.2,0.4-0.6,0.6-0.8c0.2-0.2,0.2-0.5,0.2-0.7
					c0-0.2-0.2-0.4-0.4-0.7l-0.7-0.7L76.8,33l-0.7-0.7c-0.2-0.2-0.5-0.5-0.7-0.6c-0.5-0.3-0.9,0.2-1.5,0.6L73.1,33l-0.4,0.3
					c-0.1,0.1-0.4,0.3-0.6,0.3c-0.2,0-0.4,0-0.6,0c-0.2,0-0.4-0.1-0.5-0.1c-0.4-0.1-0.7-0.3-1-0.6c-0.6-0.5-0.7-1.5-0.7-2.1
					c0-0.2-0.1-0.7-0.2-0.9c-0.1-0.3-0.2-0.5-0.3-0.6c-0.3-0.2-1.1-0.1-1.8-0.1l-2,0c-0.7,0-1.4,0-1.9,0.1c-0.2,0.1-0.2,0.1-0.3,0.4
					c-0.1,0.2-0.1,0.6-0.1,0.9l0,0.2l0,0.1l0,0c0,0,0,0.1,0,0.1c0,0.2,0,0.4,0,0.6c0,0.4-0.1,0.8-0.4,1.2c-0.2,0.4-0.6,0.7-1,0.9
					C60.8,33.9,60.4,34,60,34c-0.2,0-0.5,0-0.7-0.1c-0.3-0.1-0.5-0.2-0.6-0.3c-0.3-0.2-0.6-0.4-0.9-0.6c-0.3-0.2-0.6-0.4-0.8-0.5
					c-0.2-0.2-0.4-0.2-0.4-0.2c-0.1-0.1-0.7,0.6-1.1,1.1L54,34.9l-0.7,0.7c-0.3,0.3-0.4,0.5-0.5,0.6c0,0.1,0,0,0,0.2
					c0.1,0.1,0.3,0.4,0.5,0.7l0.7,0.8c0.1,0.1,0.2,0.3,0.3,0.5l0.1,0.1c0,0.1,0.1,0.2,0.1,0.2c0.1,0.2,0.1,0.3,0.1,0.4
					c0.1,0.5,0,1-0.1,1.4c-0.1,0.4-0.3,0.9-0.7,1.3c-0.8,0.8-1.8,0.9-2.5,0.9c-0.2,0-0.5,0.1-0.9,0.1c-0.2,0-0.3,0.1-0.3,0.1
					c0,0.1-0.1,0.1-0.1,0.5l0,1l0,2l0,1l0,0.5c0,0.1,0,0.2,0,0.3c0,0.1,0,0.1,0.2,0.2c0.1,0,0.2,0.1,0.3,0.1l0.5,0.1l0.9,0.1
					c0.3,0,0.9,0,1.4,0.4c0.5,0.3,0.7,0.8,0.9,1.1c0.2,0.4,0.3,0.8,0.4,1.3c0,0.5-0.1,1-0.4,1.4c-0.1,0.2-0.3,0.4-0.4,0.5
					c-0.1,0.1-0.2,0.2-0.3,0.3L53,54.4c-0.1,0.2-0.2,0.3-0.2,0.4c0,0.1,0.1,0.3,0.3,0.5l0.7,0.7l1.4,1.5l0.7,0.7
					c0.2,0.3,0.4,0.5,0.6,0.6c0.3,0.2,0.6,0,1.2-0.5l0.8-0.6l0.4-0.3l0.2-0.2c0.1-0.1,0.2-0.1,0.3-0.2c0.1,0,0.2-0.1,0.4-0.1
					c0.1,0,0.4,0,0.4,0.1c0.2,0.1,0.3,0.1,0.5,0.2c0.3,0.1,0.7,0.3,1,0.6c0.3,0.3,0.6,0.6,0.7,1c0.1,0.2,0.1,0.4,0.1,0.6
					c0,0.2,0,0.4,0,0.5c0.1,0.6,0.1,1.4,0.4,1.7c0.2,0.2,0.5,0.2,0.8,0.2c0.3,0,0.7,0.1,1,0.1l2,0.1L66.9,62.2z"/>
				<path class="st0" d="M25.1,67.4c0.2,2.5,0.4,4.7,0.6,6.8c0.2,1,0.8,1.5,1.8,1.5c0.5,0,1.1,0,1.7,0l1.7,0c4.7-0.1,9.3-0.1,14,0.2
					c2.3,0.1,4.7,0.3,7,0.3c2.3,0.1,4.7,0.1,7,0c1.2,0,2.4-0.1,3.5-0.1c1-0.1,1.8-0.8,1.8-1.8c0-0.2,0-0.5,0-0.8l0-0.9L64,70.8
					l-0.1-3.5l0.9,0.9c-3.3,0.1-6.5,0.1-9.7,0.2c-3.2,0-6.5,0-9.7-0.1c-3.3-0.1-6.6-0.2-9.9-0.4l-5.1-0.2L25.1,67.4z M24.9,67.2
					l4.7-0.3l4.9-0.2c3.3-0.2,6.6-0.3,9.9-0.4c3.4-0.1,6.7-0.1,10.1-0.1c3.4,0.1,6.8,0.1,10.1,0.2l0.9,0l0,0.8l-0.1,3.5l-0.1,1.7
					l0,0.9c0,0.3,0,0.6-0.1,0.9c-0.1,0.7-0.4,1.4-1,1.8c-0.6,0.5-1.3,0.7-1.9,0.7l-3.5-0.1c-2.3-0.1-4.7-0.1-7,0
					c-2.3,0-4.7,0.2-7,0.3c-4.7,0.3-9.3,0.3-14,0.2l-1.7,0c-0.6,0-1.1,0-1.8-0.1c-0.6-0.1-1.4-0.3-2-0.8c-0.6-0.5-0.8-1.3-0.9-2
					c-0.1-1.3,0.1-2.5,0.2-3.7L24.9,67.2z"/>
			</g>
		</g>
		<g>
			<g>
				<path class="st0" d="M22.5,66.8c-0.4-5.4-0.6-10.9-0.7-16.3c-0.1-5.4-0.2-10.9-0.1-16.3c0.1-5.4,0.4-10.9,0.5-16.3
					c0-2.7,0-5.4,0-8.1l0-2c0-0.7-0.1-1.4,0.1-2.1c0.2-1.4,1-2.8,2.3-3.7c0.6-0.4,1.3-0.8,2-0.9c0.7-0.2,1.5-0.2,2.2-0.2
					c1.4,0,2.7-0.1,4.1-0.1c2.7-0.1,5.4-0.1,8.1-0.1c5.4-0.1,10.9-0.1,16.3-0.1l4.1,0c1.4,0,3.1,0.2,4.4,1.1c1.4,1,2.1,2.6,2.2,4.1
					c0.1,0.4,0,0.8,0,1.1l0,1l-0.1,2c-0.2,5.4-0.4,10.9-0.7,16.3l-0.2,0c-0.3-5.4-0.5-10.9-0.7-16.3l-0.1-2l0-1c0-0.3,0-0.6-0.1-0.9
					c-0.2-1.2-0.7-2.2-1.6-2.8c-0.4-0.3-1-0.5-1.5-0.6c-0.6-0.1-1.1-0.1-1.8-0.1l-4.1,0c-5.4,0-10.9-0.1-16.3-0.1
					c-2.7,0-5.4-0.1-8.1-0.2c-1.4,0-2.7-0.1-4.1-0.1C28,2,27.4,2,26.8,2.1c-0.6,0.1-1.2,0.3-1.7,0.6c-1,0.6-1.8,1.7-2,3
					c-0.1,0.6-0.1,1.3-0.2,2l0,2c0,2.7,0,5.4,0,8.1c0.1,5.4,0.4,10.9,0.5,16.3c0.1,5.4,0.1,10.9,0,16.3c-0.1,5.4-0.3,10.9-0.7,16.3
					L22.5,66.8z"/>
				<path class="st0" d="M64.6,10.4l-0.3-3.2c-0.1-0.5-0.1-1.1-0.1-1.4c-0.1-0.3-0.4-0.8-0.7-1c-0.6-0.4-1.6-0.3-2.7-0.3
					c-1.1,0.1-2.1,0.1-3.2,0.1c-4.2,0.1-8.5,0.2-12.7-0.1l-6.4-0.3c-2.1-0.1-4.2-0.1-6.4-0.1c-1.1,0-2.1,0-3.2,0.1l-1.6,0.1
					c-0.4,0-0.9,0.2-1.2,0.5c-0.3,0.3-0.5,0.6-0.5,1c0,0.4,0,1,0.1,1.5c0,1.1,0.1,2.1,0.1,3.1L25,9.7c3.3-0.1,6.5-0.2,9.7-0.2
					c3.2-0.1,6.4,0,9.7,0.1c3.3,0.1,6.6,0.2,9.9,0.3C57.7,10,61.1,10.2,64.6,10.4z M64.8,10.5c-3.1,0.2-6.3,0.4-9.6,0.5
					c-3.3,0.1-6.6,0.3-9.9,0.3c-3.3,0.1-6.7,0.1-10.1,0.1c-3.4,0-6.8-0.1-10.1-0.2l-0.8,0l0-0.8c0-1.1,0.1-2.1,0.1-3.2
					c0-0.6,0-1,0.1-1.7c0.1-0.7,0.6-1.3,1.1-1.6c0.5-0.4,1.2-0.6,1.8-0.6L29,3.4c1.1,0,2.1,0.1,3.2,0.1c2.1,0,4.2,0,6.4-0.1l6.4-0.3
					c4.2-0.3,8.5-0.2,12.7-0.1c1.1,0,2.1,0,3.2,0.1c0.5,0,1,0,1.6,0.1c0.6,0.1,1.3,0.3,1.8,0.7c0.3,0.2,0.4,0.5,0.6,0.8
					c0.2,0.3,0.3,0.6,0.4,0.9c0,0.2,0,0.3,0,0.5l0,0.4L65,7.3L64.8,10.5z"/>
			</g>
		</g>
		<g>
			<g>
				<path class="st0" d="M66,38.9c1.7,0,3.5,0.4,5,1.6c0.7,0.6,1.4,1.3,1.7,2.2c0.4,0.9,0.6,1.9,0.5,2.8c-0.1,1.9-1.3,3.6-2.5,4.7
					c-1.3,1.2-2.9,2-4.8,2.2c-1.8,0.2-3.8-0.5-5.2-1.8c-1.4-1.3-2.3-3.3-2.2-5.2c0-1.9,0.9-3.9,2.5-5C62.5,39.2,64.3,38.9,66,38.9z
					 M66,39.1c-1.7,0-3.2,1-4.1,2.2c-0.9,1.3-1.3,2.6-1.3,4.1c0,1.4,0.5,2.8,1.5,3.9c1,1.1,2.3,1.8,3.8,2c1.5,0.2,3.2-0.4,4.3-1.6
					c1.1-1.2,1.5-2.9,1.3-4.3c-0.1-1.5-0.6-2.8-1.5-4.1C69.2,40.1,67.7,39.1,66,39.1z"/>
				<path class="st0" d="M67.2,49c1.5-0.9,2.2-2.7,1.8-4.1c-0.2-0.7-0.6-1.4-1.1-1.9c-0.5-0.5-1.2-0.9-2-1.1
					c-0.8-0.2-1.7,0.1-2.4,0.7c-0.7,0.6-1.1,1.4-1.1,2.2c0,1.7,1.2,3.2,2.4,3.3l-1.1,1c-0.1-1.1-0.1-2.1-0.1-3.2c0-0.3,0-0.5,0-0.8
					c0-0.3,0-0.5,0.1-1c0.1-0.5,0.4-0.9,0.8-1.2c0.4-0.3,0.9-0.4,1.4-0.4c0.5,0,0.9,0.2,1.3,0.5c0.4,0.3,0.6,0.8,0.6,1.2
					c0.1,0.4,0,0.7,0,1c0,0.3-0.1,0.6-0.1,0.8C67.7,46.8,67.4,47.8,67.2,49z M67.1,49.2c-0.2-0.9-0.4-2-0.6-3.2
					c0-0.3-0.1-0.6-0.1-0.8c0-0.2,0-0.5-0.1-0.6c-0.1-0.2-0.2-0.2-0.4-0.2c-0.1,0-0.1,0.1-0.1,0.2l0,0.6c0,0.3,0,0.5,0,0.8
					c0,1.1-0.1,2.1-0.1,3.2l-0.1,1.2L64.6,50c-1.3-0.3-2.2-1.2-2.7-2.2c-0.5-1-0.6-2.2-0.3-3.2c0.3-1,0.9-1.9,1.6-2.6
					c0.8-0.7,1.7-1.1,2.8-1.2c1-0.1,2.2,0.1,3.1,0.8c0.9,0.7,1.5,1.8,1.6,2.9C71.1,46.9,69.3,49.2,67.1,49.2z"/>
			</g>
		</g>
		<g id="Group_3122_5_" transform="translate(45.092 10.251)">
			<path id="Path_12265_5_" class="st0" d="M7.4-4.4c-0.9-0.4-10,0-10.6,0c-0.8,0-2,0-2.3,1C-5.9-2-4.5-1.3-3.1-1.3
				c3.2,0.1,6.3-0.1,9.5-0.4C9-2,8.7-3.9,7.4-4.4z M2.5-3.9L2.5-3.9L2.5-3.9L2.5-3.9L2.5-3.9z M0.5-3.4C0.4-3.4,0.5-3.4,0.5-3.4
				C0.4-3.4,0.4-3.4,0.5-3.4l-0.5-0.5c0.4,0,0.7,0,1.1,0l0,0L0.5-3.4z M-1.3-3.5l-0.3-0.3c0.2,0,0.4,0,0.7,0L-1.3-3.5z M-4.3-3.6
				c0.1,0,0.2-0.1,0.3-0.1l-0.2,0.2L-4.3-3.6z M6.3-2.3C3.2-1.9,0.1-1.8-3-1.9c-0.4,0-0.9-0.1-1.2-0.2c0,0,0-0.1,0-0.1l0.2-0.2
				c0,0,0.1-0.2,0-0.2c0,0-0.2-0.1-0.2,0l0,0l-0.2,0.2l-0.4-0.4c0-0.2,0.1-0.5,0.3-0.6l0.2,0.2c0,0,0,0.2,0,0.2s0.2,0,0.2,0l0,0
				l0.3,0.3c0,0,0.2,0,0.2,0s0-0.2,0-0.2L-4-3.3l0.4-0.4l0.7,0.7c0,0,0,0.1,0,0.2c0,0,0.1,0,0.2,0l0,0c0,0,0.2,0.1,0.2,0
				c0,0,0.1-0.2,0-0.2l0,0l0,0L-2-3.6c0,0,0-0.2,0-0.2c-0.1,0-0.2,0-0.2,0l-0.5,0.5l-0.5-0.5c0,0,0.1,0,0.2,0c0.7,0,1,0,1,0l0,0
				l0.5,0.5c0,0,0,0.2,0,0.2c0,0,0.2,0,0.2,0l0,0c0,0,0.1,0,0.2,0c0,0,0-0.1,0-0.2l0.5-0.5c0,0,0,0,0,0c0,0,0,0,0.1,0l0.8,0.7
				c0,0,0.2,0,0.2,0l0,0v0c0,0,0.2,0,0.2,0l0.5-0.5l0.4,0.4c0,0,0.2,0.1,0.2,0c0,0,0.1-0.2,0-0.2l0,0L1.3-3.9H2l0.2,0.2L2-3.5
				c0,0,0,0.2,0,0.2c0,0,0.2,0,0.2,0l0.2-0.2l0.3,0.3c0,0,0.2,0.1,0.2,0c0,0,0.1-0.2,0-0.2l0,0L2.7-3.7l0.2-0.2h0.3l0.1,0.1L3.2-3.8
				c0,0-0.1,0.2,0,0.2c0,0,0.2,0.1,0.2,0l0,0l0.1-0.1l0.1,0.1c0,0,0.2,0,0.2,0c0,0,0-0.2,0-0.2L3.7-3.9l0.1-0.1
				c2.3,0,2.9-0.1,3.4,0.1C8-3.5,8.2-2.5,6.3-2.3L6.3-2.3z"/>
		</g>
		<g id="Group_3122_6_" transform="translate(45.092 10.251)">
			<path id="Path_12265_6_" class="st0" d="M6.1,60.8c-0.9-0.4-10,0-10.6,0c-0.8,0-2,0-2.3,1c-0.5,1.4,0.9,2.1,2.3,2.1
				c3.2,0.1,6.3-0.1,9.5-0.4C7.7,63.2,7.4,61.3,6.1,60.8z M1.2,61.3L1.2,61.3L1.2,61.3L1.2,61.3L1.2,61.3z M-0.8,61.8
				C-0.9,61.8-0.8,61.8-0.8,61.8C-0.9,61.8-0.9,61.8-0.8,61.8l-0.5-0.5c0.4,0,0.7,0,1.1,0l0,0L-0.8,61.8z M-2.6,61.7l-0.3-0.3
				c0.2,0,0.4,0,0.7,0L-2.6,61.7z M-5.6,61.5c0.1,0,0.2-0.1,0.3-0.1l-0.2,0.2L-5.6,61.5z M5,62.9c-3.1,0.4-6.2,0.5-9.4,0.4
				c-0.4,0-0.9-0.1-1.2-0.2c0,0,0-0.1,0-0.1l0.2-0.2c0,0,0.1-0.2,0-0.2c0,0-0.2-0.1-0.2,0l0,0l-0.2,0.2l-0.4-0.4
				c0-0.2,0.1-0.5,0.3-0.6l0.2,0.2c0,0,0,0.2,0,0.2c0,0,0.2,0,0.2,0l0,0l0.3,0.3c0,0,0.2,0,0.2,0c0,0,0-0.2,0-0.2l-0.3-0.3l0.4-0.4
				l0.7,0.7c0,0,0,0.1,0,0.2c0,0,0.1,0,0.2,0l0,0c0,0,0.2,0.1,0.2,0c0,0,0.1-0.2,0-0.2l0,0l0,0l0.5-0.5c0,0,0-0.2,0-0.2
				c-0.1,0-0.2,0-0.2,0L-4,61.9l-0.5-0.5c0,0,0.1,0,0.2,0c0.7,0,1,0,1,0l0,0l0.5,0.5c0,0,0,0.2,0,0.2c0,0,0.2,0,0.2,0l0,0
				c0,0,0.1,0,0.2,0c0,0,0-0.1,0-0.2l0.5-0.5c0,0,0,0,0,0c0,0,0,0,0.1,0l0.8,0.7c0,0,0.2,0,0.2,0l0,0v0c0,0,0.2,0,0.2,0l0.5-0.5
				L0.3,62c0,0,0.2,0.1,0.2,0c0,0,0.1-0.2,0-0.2l0,0L0,61.3h0.7l0.2,0.2l-0.2,0.2c0,0,0,0.2,0,0.2c0,0,0.2,0,0.2,0l0.2-0.2L1.4,62
				c0,0,0.2,0.1,0.2,0c0,0,0.1-0.2,0-0.2l0,0l-0.2-0.3l0.2-0.2h0.3L2,61.3l-0.1,0.1c0,0-0.1,0.2,0,0.2c0,0,0.2,0.1,0.2,0l0,0
				l0.1-0.1l0.1,0.1c0,0,0.2,0,0.2,0c0,0,0-0.2,0-0.2l-0.1-0.1l0.1-0.1c2.3,0,2.9-0.1,3.4,0.1C6.7,61.7,6.9,62.7,5,62.9L5,62.9z"/>
		</g>
	</g>
	<g>
		<g id="Group_3123_1_" transform="translate(58.713 37.814)">
			<path id="Path_12266_1_" class="st0" d="M-5.3-17.3C-6-17.8-8-20.2-9.2-18.7C-9.8-18-9.7-16.9-9-16c1,1.3,3,1.8,3.4,3.3
				c0.5,1.9-2.1,3.3-3.2,4.5c-0.4,0.4-0.8,0.9-0.9,1.5c-0.3,1,0.3,2.1,1.5,2.1c1,0,1.8-0.7,5.1-2.9c1.3-0.8,2.4-1.7,2.8-3.2
				C0.4-14.2-4-16.4-5.3-17.3L-5.3-17.3z M-5-11.6l0.3,0.3c0,0-0.1,0-0.2,0L-5.2-11C-5.1-11.2-5.1-11.4-5-11.6L-5-11.6z M-7.6-8.4
				C-7.6-8.4-7.6-8.4-7.6-8.4L-8-8l0,0C-7.9-8.2-7.7-8.3-7.6-8.4z M-8.6-7.5c0.1-0.1,0.1-0.2,0.2-0.3c0,0,0.1,0,0.1-0.1l0,0
				L-8.6-7.5L-8.6-7.5z M-8.9-7.2l0.4,0.4l-0.5,0.5l-0.2-0.2c0,0,0-0.1,0-0.1C-9.1-6.8-9-7-8.9-7.2z M-1.1-11
				c-0.3,1.2-1.4,2-2.5,2.7C-6.7-6.1-8.3-4.8-9-5.8h0l0,0c0,0,0.2,0,0.2,0c0,0,0-0.2,0-0.2l0,0l0.5-0.5l0,0c0,0,0.1,0,0.2,0
				c0,0,0-0.2,0-0.2l0,0l0.1-0.1c0,0,0-0.2,0-0.2s-0.2,0-0.2,0L-8.2-7l-0.1-0.1L-8-7.5l0.5,0.5c0,0,0.2,0.1,0.2,0c0,0,0.1-0.2,0-0.2
				l0,0l-0.5-0.5l0.4-0.4L-7-7.8c0,0,0.2,0.1,0.2,0c0,0,0.1-0.2,0-0.2l0,0l-0.6-0.6l0,0C-7-8.9-6.7-9.1-6.5-9.4l0.3,0.3l-0.4,0.4
				c0,0-0.1,0.2,0,0.2c0,0,0.2,0.1,0.2,0l0,0l0.4-0.4c0,0,0.1,0,0.2,0c0,0,0-0.1,0-0.2l0.3-0.3c0,0,0-0.2,0-0.2c0,0-0.2,0-0.2,0l0,0
				l-0.3,0.3l-0.3-0.3c0.1-0.1,0.2-0.3,0.3-0.4h0c0,0,0.1,0,0.1,0l0.3-0.3l0.2,0.2c0,0,0.2,0,0.2,0c0,0,0-0.2,0-0.2l-0.2-0.1
				l0.5-0.5c0,0,0-0.1,0-0.2c0,0,0.1,0,0.2,0c0,0,0-0.2,0-0.2l0,0L-4.9-12c0-0.3,0-0.5,0-0.8c-0.4-1.9-2.5-2.4-3.5-3.7
				C-9-17.2-9-17.9-8.7-18.3c0.8-0.8,2.3,1,3,1.6C-4.3-15.8-0.4-13.8-1.1-11L-1.1-11z"/>
		</g>
		<g id="Group_3124_1_" transform="translate(16.06 37.869)">
			<path id="Path_12267_1_" class="st0" d="M18.9-10.3c-0.8-0.8-1.1-1.7-0.9-2.4c0.4-1.5,2.4-2.1,3.4-3.3c0.7-0.8,0.8-2,0.2-2.7
				c-0.5-0.6-1.3-0.6-2.1-0.1c-0.7,0.4-1.2,1-1.8,1.5c-1.1,0.8-5.7,3.1-4.9,6.5c0.5,1.8,2,2.6,6,5.3c0.9,0.6,2,1.1,2.9,0.4
				c0.5-0.4,0.7-1.1,0.5-1.8C21.8-8.3,20-9.2,18.9-10.3L18.9-10.3z M17.4-16.1l-0.2-0.2c0.2-0.1,0.4-0.3,0.6-0.4l0.1,0.1L17.4-16.1z
				 M15.9-15.4L15.9-15.4l-0.5,0.7l-0.2-0.2c0.1-0.1,0.2-0.2,0.4-0.3C15.7-15.3,15.8-15.3,15.9-15.4L15.9-15.4z M14.2-13.7l0.5,0.5
				L14-12.6l-0.3-0.3C13.8-13.2,14-13.5,14.2-13.7L14.2-13.7z M13.5-11l0.1,0.1l0,0C13.6-10.8,13.5-10.9,13.5-11z M21.2-5.6
				c-0.5,0.4-1.4,0-2-0.5c-3.7-2.4-4.9-3.2-5.5-4.3l0.1-0.1l0.3,0.3c0,0,0.2,0,0.2,0c0,0,0-0.2,0-0.2l-0.3-0.3l1-1c0,0,0-0.2,0-0.2
				c0,0-0.2,0-0.2,0l-1,1l-0.5-0.5c0-0.3,0-0.7,0.1-1l0.2,0.2l0,0c-0.1,0.1-0.1,0.2,0,0.3c0,0,0.2,0,0.2,0l0,0l0.3,0.3
				c0,0,0.2,0,0.2,0c0,0,0-0.2,0-0.2l-0.3-0.3l0.7-0.7l0,0c0,0,0.1,0,0.1,0c0,0,0-0.1,0-0.1l0.5-0.5c0,0,0-0.2,0-0.2
				c0,0-0.2,0-0.2,0l-0.5,0.5l-0.5-0.5c0.2-0.2,0.4-0.5,0.6-0.7l0.2,0.2l-0.1,0.1c0,0,0,0.2,0,0.2c0,0,0.2,0,0.2,0l0.1-0.1l0,0
				c0,0,0.2,0,0.2,0c0,0,0-0.2,0-0.2l0,0l0.6-0.6l0.3,0.3c0.1,0,0.2,0,0.2,0s0-0.1,0-0.2l-0.5-0.7c0.2-0.1,0.5-0.3,0.8-0.5l0.2,0.2
				L17-15.6c-0.1,0-0.1,0.1,0,0.2c0,0,0.2,0,0.2,0l0.9-0.9c0,0,0.1,0,0.2,0c0,0,0-0.1,0-0.2v0c0,0,0,0,0-0.1c0,0,0,0-0.1,0l-0.1-0.1
				c0.1-0.1,0.3-0.2,0.5-0.4c0,0,0,0.1,0,0.1c0,0,0.2,0,0.2,0l0.1-0.1l0.1,0.1c0,0,0.2,0,0.2,0s0-0.2,0-0.2l-0.1-0.1l0.4-0.4
				l0.4,0.4c0,0,0.2,0.1,0.2,0s0.1-0.2,0-0.2l0,0l-0.4-0.4c0,0,0-0.1,0-0.1c0,0,0,0,0,0c0.2-0.1,0.5-0.2,0.8-0.2
				c0.2,0,0.3,0,0.5,0.2c0.3,0.3,0.3,1.1-0.2,1.8c-0.9,1.2-3.1,1.8-3.5,3.6c-0.2,1,0.1,2.1,1.1,3.1c1.1,1.1,2.8,2,3.1,3.2
				C21.6-6.3,21.5-5.9,21.2-5.6z"/>
		</g>
		<g id="Group_3125_1_" transform="translate(37.703 30.875)">
			<path id="Path_12268_1_" class="st0" d="M9.5-15.5c-0.8-0.2-1.5,0.4-2,1.6c-0.6,1.4-1.2,2.7-1.8,4.1C5-8.3,4.3-6.8,3.7-5.4
				S2.5-2.5,2.1-0.9C2-0.8,2-0.6,1.9-0.3c-0.5,1.6-1,3.1-0.4,3.7c0.9,1.1,2.4,0.1,3.2-1c0.9-1.3,1-1.7,5.6-14.9
				c0.2-0.5,0.3-1,0.3-1.6C10.5-14.8,10.1-15.3,9.5-15.5L9.5-15.5z M9.2-14.8l-0.6,0.6l-0.1-0.1C8.6-14.6,8.9-14.8,9.2-14.8
				L9.2-14.8z M8.3-14L8.3-14l0,0.1C8.2-13.9,8.3-13.9,8.3-14L8.3-14z M7.6-12.4L8-12l-1.1,1.1C7.1-11.4,7.3-11.9,7.6-12.4L7.6-12.4
				z M6-8.9l0.3,0.3L5.5-7.7C5.6-8.2,5.8-8.5,6-8.9L6-8.9z M4.5-5.5L4.5-5.5L4.4-5.2C4.4-5.3,4.5-5.4,4.5-5.5L4.5-5.5z M2.6-0.3
				l0.2,0.2L2.4,0.4c0-0.2,0.1-0.4,0.2-0.5C2.6-0.2,2.6-0.2,2.6-0.3L2.6-0.3z M9.6-12.8C5.1,0.2,5.1,0.7,4.2,1.9
				c-0.5,0.7-1.5,1.6-2.1,1l0.1-0.1c0,0,0.2,0,0.2,0l0,0c0,0,0-0.2,0-0.2L3,2c0,0,0-0.2,0-0.2c0,0-0.2,0-0.2,0L2.2,2.3L2,2.1
				C2,1.7,2.1,1.4,2.2,1h0l0.1-0.1l0.3,0.3c0,0,0.2,0,0.2,0c0,0,0-0.2,0-0.2L2.6,0.7l0.5-0.5c0,0,0,0,0,0s0.1,0,0.1,0
				c0,0,0-0.1,0-0.1L4-0.7c0,0,0-0.2,0-0.2c0,0-0.2,0-0.2,0L3.1-0.2L2.8-0.6c0,0,0-0.1,0-0.1C2.9-0.9,3-1.2,3-1.4l0,0l0.3-0.3
				l0.2,0.2c0,0,0.2,0.1,0.2,0c0,0,0.1-0.2,0-0.2l0,0L3.6-2l0.8-0.8c0,0,0-0.2,0-0.2s-0.2,0-0.2,0L3.3-2.3l0,0
				c0.1-0.5,0.3-0.9,0.5-1.4l0.4,0.4c0,0,0.2,0,0.2,0s0-0.2,0-0.2L3.9-4.2C3.9-4.3,4-4.3,4-4.4l0.8-0.7L5-5c0,0,0.2,0.1,0.2,0
				c0,0,0.1-0.2,0-0.2l0,0L5-5.4l0.5-0.5c0,0,0-0.2,0-0.2c0,0-0.2,0-0.2,0L4.8-5.7L4.6-5.9C4.8-6.3,5-6.7,5.2-7.2l0.4,0.4
				c0,0,0.2,0,0.2,0c0,0,0-0.2,0-0.2L5.5-7.3l1-1c0,0,0.1,0,0.2,0c0,0,0-0.1,0-0.2l0.8-0.8c0,0,0.1-0.2,0-0.2c0,0-0.2-0.1-0.2,0l0,0
				L6.5-8.8L6.1-9.2c0-0.1,0.1-0.2,0.1-0.3c0.1-0.3,0.2-0.6,0.4-0.8c0,0,0,0,0.1,0c0,0,0,0,0,0l0.4,0.4c0,0,0.2,0.1,0.2,0
				c0,0,0.1-0.2,0-0.2l0,0L7-10.5l1.6-1.6c0,0,0.1-0.2,0-0.2c0,0-0.2-0.1-0.2,0l0,0l0,0.1l-0.5-0.5C7.8-13,7.9-13.2,8-13.4
				c0,0,0.2,0,0.2,0l0.3-0.3l0.3,0.2c0,0,0.2,0,0.2,0c0,0,0-0.2,0-0.2L8.8-14l0.7-0.7c0,0,0,0,0,0c0.2,0.1,0.3,0.4,0.3,0.7
				C9.9-13.6,9.8-13.2,9.6-12.8L9.6-12.8z"/>
		</g>
	</g>
</g>
</svg>
