<?xml version="1.0" encoding="utf-8"?>
<!-- Generator: Adobe Illustrator 25.2.1, SVG Export Plug-In . SVG Version: 6.00 Build 0)  -->
<svg version="1.1" id="Layer_1" xmlns="http://www.w3.org/2000/svg" xmlns:xlink="http://www.w3.org/1999/xlink" x="0px" y="0px"
	 viewBox="0 0 93.2 80.2" style="enable-background:new 0 0 93.2 80.2;" xml:space="preserve">
<style type="text/css">
	.st0{fill:#1B212F;}
	.st1{fill:none;stroke:#1B212F;stroke-width:2;stroke-miterlimit:10;}
</style>
<g>
	<g id="Group_3122_1_" transform="translate(45.092 10.251)">
		<path id="Path_12265_1_" class="st0" d="M3.7,50.7c-0.3-0.4-3.1,0-3.2,0c-0.2,0-0.6,0-0.7,1C-0.4,53,0,53.8,0.4,53.8
			c1,0.1,1.9-0.1,2.9-0.4C4.1,53.1,4.1,51.3,3.7,50.7z M2.2,51.2L2.2,51.2L2.2,51.2L2.2,51.2L2.2,51.2z M1.5,51.7
			C1.5,51.7,1.5,51.7,1.5,51.7C1.5,51.7,1.5,51.7,1.5,51.7l-0.2-0.5c0.1,0,0.2,0,0.3,0l0,0L1.5,51.7z M1,51.6l-0.1-0.3
			c0.1,0,0.1,0,0.2,0L1,51.6z M0.1,51.5c0,0,0.1-0.1,0.1-0.1l-0.1,0.2L0.1,51.5z M3.3,52.8c-0.9,0.4-1.9,0.5-2.9,0.4
			c-0.1,0-0.3-0.1-0.4-0.2c0,0,0-0.1,0-0.1l0.1-0.2c0,0,0-0.2,0-0.2c0,0-0.1-0.1-0.1,0l0,0L0,52.6l-0.1-0.4c0-0.2,0-0.4,0.1-0.6
			L0,51.8c0,0,0,0.2,0,0.2c0,0,0.1,0,0.1,0l0,0l0.1,0.3c0,0,0.1,0,0.1,0c0,0,0-0.2,0-0.2l-0.1-0.3l0.1-0.4L0.5,52c0,0,0,0.1,0,0.2
			c0,0,0,0,0.1,0l0,0c0,0,0.1,0.1,0.1,0c0,0,0-0.2,0-0.2l0,0l0,0l0.2-0.5c0,0,0-0.2,0-0.2c0,0-0.1,0-0.1,0l-0.2,0.5l-0.2-0.5
			c0,0,0,0,0.1,0c0.2,0,0.3,0,0.3,0l0,0l0.2,0.5c0,0,0,0.2,0,0.2c0,0,0.1,0,0.1,0l0,0c0,0,0,0,0.1,0c0,0,0-0.1,0-0.2l0.2-0.5
			c0,0,0,0,0,0c0,0,0,0,0,0l0.2,0.7c0,0,0.1,0,0.1,0l0,0v0c0,0,0.1,0,0.1,0l0.2-0.5l0.1,0.4c0,0,0.1,0.1,0.1,0c0,0,0-0.2,0-0.2l0,0
			l-0.1-0.4H2l0.1,0.2L2,51.6c0,0,0,0.2,0,0.2s0.1,0,0.1,0l0.1-0.2l0.1,0.3c0,0,0.1,0.1,0.1,0c0,0,0-0.2,0-0.2l0,0l-0.1-0.3l0.1-0.2
			h0.1l0,0.1l0,0.1c0,0,0,0.2,0,0.2c0,0,0.1,0.1,0.1,0l0,0l0-0.1l0,0.1c0,0,0.1,0,0.1,0c0,0,0-0.2,0-0.2l0-0.1l0-0.1
			c0.7,0,0.9-0.1,1,0.1C3.8,51.6,3.9,52.6,3.3,52.8L3.3,52.8z"/>
	</g>
	<g id="Group_3122_2_" transform="translate(45.092 10.251)">
		<path id="Path_12265_2_" class="st0" d="M-12.9,26.5c-0.8-0.4-9.7,0-10.2,0c-0.8,0-1.9,0-2.2,1c-0.5,1.3,0.9,2.1,2.3,2.1
			c3.1,0.1,6.1-0.1,9.2-0.4C-11.5,28.9-11.7,27.1-12.9,26.5z M-17.7,27L-17.7,27L-17.7,27L-17.7,27L-17.7,27z M-19.7,27.6
			C-19.7,27.6-19.7,27.6-19.7,27.6C-19.7,27.6-19.7,27.6-19.7,27.6l-0.5-0.5c0.4,0,0.7,0,1,0l0,0L-19.7,27.6z M-21.4,27.4l-0.3-0.3
			c0.2,0,0.4,0,0.6,0L-21.4,27.4z M-24.3,27.3c0.1,0,0.2-0.1,0.3-0.1l-0.2,0.2L-24.3,27.3z M-14,28.6c-3,0.4-6,0.5-9.1,0.4
			c-0.4,0-0.8-0.1-1.2-0.2c0,0,0-0.1,0-0.1l0.2-0.2c0,0,0.1-0.2,0-0.2c0,0-0.2-0.1-0.2,0l0,0l-0.2,0.2l-0.4-0.4
			c0-0.2,0.1-0.4,0.3-0.6l0.2,0.2c0,0,0,0.2,0,0.2c0,0,0.2,0,0.2,0l0,0l0.3,0.3c0,0,0.2,0,0.2,0c0,0,0-0.2,0-0.2l-0.3-0.3l0.4-0.4
			l0.6,0.6c0,0,0,0.1,0,0.2c0,0,0.1,0,0.2,0l0,0c0,0,0.2,0.1,0.2,0c0,0,0.1-0.2,0-0.2l0,0l0,0l0.5-0.5c0,0,0-0.2,0-0.2
			c-0.1,0-0.2,0-0.2,0l-0.5,0.5l-0.5-0.5c0,0,0.1,0,0.2,0c0.7,0,1,0,1,0l0,0l0.5,0.5c0,0,0,0.2,0,0.2c0,0,0.2,0,0.2,0l0,0
			c0,0,0.1,0,0.2,0c0,0,0-0.1,0-0.2l0.5-0.5c0,0,0,0,0,0c0,0,0,0,0.1,0l0.8,0.7c0,0,0.2,0,0.2,0l0,0v0c0,0,0.2,0,0.2,0l0.5-0.5
			l0.4,0.4c0,0,0.2,0.1,0.2,0c0,0,0.1-0.2,0-0.2l0,0l-0.4-0.4h0.6l0.2,0.2l-0.2,0.2c0,0,0,0.2,0,0.2c0,0,0.2,0,0.2,0l0.2-0.2
			l0.3,0.3c0,0,0.2,0.1,0.2,0c0,0,0.1-0.2,0-0.2l0,0l-0.2-0.3l0.2-0.2h0.3l0.1,0.1l-0.1,0.1c0,0-0.1,0.2,0,0.2c0,0,0.2,0.1,0.2,0
			l0,0l0.1-0.1l0.1,0.1c0,0,0.2,0,0.2,0c0,0,0-0.2,0-0.2l-0.1-0.1l0.1-0.1c2.3,0,2.8-0.1,3.3,0.1C-12.4,27.4-12.2,28.4-14,28.6
			L-14,28.6z"/>
	</g>
	<g id="Group_3122_3_" transform="translate(45.092 10.251)">
		<path id="Path_12265_3_" class="st0" d="M-13,31.3c-0.8-0.4-9.7,0-10.2,0c-0.8,0-1.9,0-2.2,1c-0.5,1.3,0.9,2.1,2.3,2.1
			c3.1,0.1,6.1-0.1,9.2-0.4C-11.5,33.7-11.8,31.9-13,31.3z M-17.8,31.8L-17.8,31.8L-17.8,31.8L-17.8,31.8L-17.8,31.8z M-19.7,32.3
			C-19.8,32.3-19.7,32.3-19.7,32.3C-19.8,32.3-19.8,32.3-19.7,32.3l-0.5-0.5c0.4,0,0.7,0,1,0l0,0L-19.7,32.3z M-21.5,32.2l-0.3-0.3
			c0.2,0,0.4,0,0.6,0L-21.5,32.2z M-24.4,32.1c0.1,0,0.2-0.1,0.3-0.1l-0.2,0.2L-24.4,32.1z M-14.1,33.4c-3,0.4-6,0.5-9.1,0.4
			c-0.4,0-0.8-0.1-1.2-0.2c0,0,0-0.1,0-0.1l0.2-0.2c0,0,0.1-0.2,0-0.2c0,0-0.2-0.1-0.2,0l0,0l-0.2,0.2l-0.4-0.4
			c0-0.2,0.1-0.4,0.3-0.6l0.2,0.2c0,0,0,0.2,0,0.2c0,0,0.2,0,0.2,0l0,0l0.3,0.3c0,0,0.2,0,0.2,0c0,0,0-0.2,0-0.2l-0.3-0.3l0.4-0.4
			l0.6,0.6c0,0,0,0.1,0,0.2c0,0,0.1,0,0.2,0l0,0c0,0,0.2,0.1,0.2,0c0,0,0.1-0.2,0-0.2l0,0l0,0l0.5-0.5c0,0,0-0.2,0-0.2
			c-0.1,0-0.2,0-0.2,0l-0.5,0.5l-0.5-0.5c0,0,0.1,0,0.2,0c0.7,0,1,0,1,0l0,0l0.5,0.5c0,0,0,0.2,0,0.2c0,0,0.2,0,0.2,0l0,0
			c0,0,0.1,0,0.2,0c0,0,0-0.1,0-0.2l0.5-0.5c0,0,0,0,0,0c0,0,0,0,0.1,0l0.8,0.7c0,0,0.2,0,0.2,0l0,0v0c0,0,0.2,0,0.2,0l0.5-0.5
			l0.4,0.4c0,0,0.2,0.1,0.2,0c0,0,0.1-0.2,0-0.2l0,0l-0.4-0.4h0.6L-18,32l-0.2,0.2c0,0,0,0.2,0,0.2c0,0,0.2,0,0.2,0l0.2-0.2l0.3,0.3
			c0,0,0.2,0.1,0.2,0c0,0,0.1-0.2,0-0.2l0,0l-0.2-0.3l0.2-0.2h0.3l0.1,0.1l-0.1,0.1c0,0-0.1,0.2,0,0.2c0,0,0.2,0.1,0.2,0l0,0
			l0.1-0.1l0.1,0.1c0,0,0.2,0,0.2,0c0,0,0-0.2,0-0.2l-0.1-0.1l0.1-0.1c2.3,0,2.8-0.1,3.3,0.1C-12.5,32.2-12.3,33.2-14.1,33.4
			L-14.1,33.4z"/>
	</g>
	<g id="Group_3122_4_" transform="translate(45.092 10.251)">
		<path id="Path_12265_4_" class="st0" d="M-13,36.5c-0.8-0.4-9.7,0-10.2,0c-0.8,0-1.9,0-2.2,1c-0.5,1.3,0.9,2.1,2.3,2.1
			c3.1,0.1,6.1-0.1,9.2-0.4C-11.5,38.8-11.8,37-13,36.5z M-17.8,36.9L-17.8,36.9L-17.8,36.9L-17.8,36.9L-17.8,36.9z M-19.7,37.5
			C-19.8,37.5-19.7,37.5-19.7,37.5C-19.8,37.5-19.8,37.5-19.7,37.5l-0.5-0.5c0.4,0,0.7,0,1,0l0,0L-19.7,37.5z M-21.5,37.3l-0.3-0.3
			c0.2,0,0.4,0,0.6,0L-21.5,37.3z M-24.4,37.2c0.1,0,0.2-0.1,0.3-0.1l-0.2,0.2L-24.4,37.2z M-14.1,38.6c-3,0.4-6,0.5-9.1,0.4
			c-0.4,0-0.8-0.1-1.2-0.2c0,0,0-0.1,0-0.1l0.2-0.2c0,0,0.1-0.2,0-0.2c0,0-0.2-0.1-0.2,0l0,0l-0.2,0.2L-25,38c0-0.2,0.1-0.4,0.3-0.6
			l0.2,0.2c0,0,0,0.2,0,0.2c0,0,0.2,0,0.2,0l0,0l0.3,0.3c0,0,0.2,0,0.2,0c0,0,0-0.2,0-0.2l-0.3-0.3l0.4-0.4l0.6,0.6c0,0,0,0.1,0,0.2
			c0,0,0.1,0,0.2,0l0,0c0,0,0.2,0.1,0.2,0c0,0,0.1-0.2,0-0.2l0,0l0,0l0.5-0.5c0,0,0-0.2,0-0.2c-0.1,0-0.2,0-0.2,0l-0.5,0.5l-0.5-0.5
			c0,0,0.1,0,0.2,0c0.7,0,1,0,1,0l0,0l0.5,0.5c0,0,0,0.2,0,0.2c0,0,0.2,0,0.2,0l0,0c0,0,0.1,0,0.2,0c0,0,0-0.1,0-0.2l0.5-0.5
			c0,0,0,0,0,0c0,0,0,0,0.1,0l0.8,0.7c0,0,0.2,0,0.2,0l0,0v0c0,0,0.2,0,0.2,0l0.5-0.5l0.4,0.4c0,0,0.2,0.1,0.2,0c0,0,0.1-0.2,0-0.2
			l0,0l-0.4-0.4h0.6l0.2,0.2l-0.2,0.2c0,0,0,0.2,0,0.2c0,0,0.2,0,0.2,0l0.2-0.2l0.3,0.3c0,0,0.2,0.1,0.2,0c0,0,0.1-0.2,0-0.2l0,0
			l-0.2-0.3l0.2-0.2h0.3L-17,37l-0.1,0.1c0,0-0.1,0.2,0,0.2c0,0,0.2,0.1,0.2,0l0,0l0.1-0.1l0.1,0.1c0,0,0.2,0,0.2,0c0,0,0-0.2,0-0.2
			l-0.1-0.1l0.1-0.1c2.3,0,2.8-0.1,3.3,0.1C-12.5,37.3-12.3,38.4-14.1,38.6L-14.1,38.6z"/>
	</g>
	<g>
		<g>
			<g>
				<path class="st0" d="M76.1,32.7c0.8-0.3,1.7,0.1,2,0.9c0.1,0.4,0.1,0.8,0.1,1.2l0,1.1l0.1,4.5c0.1,3,0.1,5.9,0.2,8.9l0.1,8.9
					l0,2.2l0,1.1c0,0.4,0,0.8-0.1,1.2c-0.2,1.6-1,3.3-2.2,4.4c-1.1,1.2-2.8,2-4.4,2.2c-0.9,0.1-1.6,0-2.3,0.1l-2.2,0
					c-3,0-5.9,0-8.9-0.1l-4.5-0.1l-0.3,0l-0.1,0l0.1,0c0.1,0,0.2,0,0.3-0.2c0.1-0.2,0.1-0.3,0.1-0.4c0-0.1,0-0.1,0-0.1l0,0.1
					l0.1,0.3l0.3,1.1l0.7,2.1l0.7,2.1l0.3,1.1l0.2,0.5l0.1,0.2c0,0-0.1-0.1-0.1-0.1l4.3,0.1l0.4,0l0,0.4l0,2.8l0,0.4l-0.4,0
					c-5-0.1-10.1-0.1-15.1,0c-5,0-10.1,0.1-15.1,0.2l-0.6,0l0-0.6l-0.1-2.8l0-0.6l0.6,0l3.2-0.1l0.8,0c0.1,0,0.4,0,0.3,0
					c0,0-0.2,0.1-0.2,0.1c-0.1,0.1-0.1,0.1-0.1,0.1l0.5-1.5l2-6.1l0.8,1.1l-10.7,0.1l-5.4,0c-0.9,0-1.8,0-2.8-0.1
					c-1-0.2-2-0.5-2.9-1.1c-1.8-1.1-3-2.9-3.5-4.9c-0.2-1-0.2-2-0.2-2.9l0-2.7L12.4,47l0.1-10.7l0.1-5.4l0-2.7c0-0.9,0-1.9,0.3-2.8
					c0.4-1.9,1.8-3.6,3.4-4.6c0.8-0.5,1.8-0.9,2.7-1c1-0.1,1.9,0,2.8,0l5.4,0.2l2.7,0.1l0.7,0c0.3,0,0.5,0.1,0.7,0.2
					c0.4,0.3,0.7,0.8,0.7,1.2l-0.2,0c0-0.4-0.3-0.8-0.6-1c-0.2-0.1-0.4-0.1-0.6-0.1l-0.7,0l-2.7,0.1l-5.4,0.1c-0.9,0-1.8,0-2.6,0.1
					c-0.8,0.1-1.6,0.5-2.2,0.9c-1.4,0.9-2.4,2.3-2.7,3.9c-0.2,0.8-0.1,1.6-0.1,2.5l0,2.7l0.1,5.4L14.4,47l0.1,10.7l0,2.7
					c0,0.9,0,1.7,0.1,2.4c0.3,1.5,1.2,2.8,2.5,3.6c0.6,0.4,1.4,0.7,2.1,0.8c0.8,0.1,1.6,0.1,2.5,0.1l5.4,0l10.7,0.1l1.2,0l-0.4,1.1
					l-2.1,6L36,76.3c0,0.1-0.1,0.2-0.2,0.4c-0.2,0.2-0.4,0.3-0.6,0.3c-0.4,0-0.4,0-0.5,0l-0.8,0L30.6,77l0.6-0.6l-0.1,2.8l-0.6-0.6
					c5,0.1,10.1,0.2,15.1,0.2c5,0,10.1,0.1,15.1,0l-0.4,0.4l0-2.8l0.4,0.4l-2.2,0.1l-1.1,0l-0.6,0l-0.3,0c-0.1,0-0.2,0-0.4,0
					c-0.2-0.1-0.5-0.3-0.5-0.5c-0.1-0.2-0.1-0.2-0.1-0.3l-0.2-0.5l-0.4-1l-0.8-2.1l-0.8-2.1l-0.4-1L53,69c0,0,0-0.1-0.1-0.2
					c0,0,0-0.1,0-0.2c0-0.1,0-0.3,0.1-0.5c0.2-0.2,0.3-0.3,0.4-0.3c0.1,0,0.1,0,0.2,0l0.2,0l0.3,0l4.5-0.1c3-0.1,5.9-0.1,8.9-0.1
					l2.2,0c0.7,0,1.5,0,2.1,0c1.3-0.1,2.5-0.7,3.4-1.6c1-0.9,1.6-2.1,1.7-3.4c0.1-0.3,0.1-0.6,0.1-1l0-1.1l0-2.2l0.2-8.9
					c0.1-3,0.1-5.9,0.2-8.9l0.2-4.5l0-1.1c0-0.4,0.1-0.7,0-1.1c-0.1-0.6-0.9-1.1-1.6-0.9L76.1,32.7z"/>
				<path class="st0" d="M16.3,57.3l0.1,0.4l-0.2-0.2c2.5-0.4,4.9-0.5,7.4-0.6c2.5-0.1,4.9-0.2,7.4,0c2.5,0.1,4.9,0.5,7.4,0.5
					c2.5,0.1,4.9-0.1,7.4-0.2c2.5-0.2,4.9-0.3,7.4-0.4c2.5-0.1,4.9-0.2,7.4-0.1c4.9,0.1,9.8,0.3,14.8,0.9l-0.1,0.1l0-0.3l0.2,0
					l0,0.3l0,0.1l-0.2,0c-4.9,0.6-9.8,0.8-14.8,0.9c-2.5,0-4.9-0.1-7.4-0.1c-2.5,0-4.9-0.2-7.4-0.4c-2.5-0.2-4.9-0.3-7.4-0.2
					c-2.5,0.1-4.9,0.4-7.4,0.5c-2.5,0.1-4.9,0.1-7.4,0c-2.5-0.1-4.9-0.3-7.4-0.6l-0.2,0l0-0.1l0.1-0.4L16.3,57.3z"/>
				<path class="st0" d="M38.2,76.3l4.2-0.4c1.3-0.1,2.6-0.2,3.8-0.3c1.2-0.1,2.4-0.1,3.6,0.1c1.2,0.1,2.4,0.3,3.6,0.4L53,76.4
					c-0.5-2.1-1.5-4.1-2.4-6.1l-0.3-0.8l-0.2-0.4L50,69c0-0.1,0,0,0.1,0.2c0.2,0.2,0.4,0.2,0.3,0.2c0,0-0.1,0-0.2,0l-0.4,0l-0.8,0
					l-3.3,0.1c-1.1,0-2.2,0-3.3,0l-0.8,0l-0.4,0c-0.2,0-0.1,0.1,0.2-0.2c0.3-0.3,0.2-0.3,0.1-0.1l-0.2,0.4l-0.3,0.8
					c-0.4,1-0.9,2-1.3,3C39.3,74.2,38.7,75.1,38.2,76.3z M38,76.4c0.2-0.9,0.3-2.1,0.6-3.4c0.2-1.1,0.5-2.1,0.8-3.2l0.2-0.8l0.1-0.4
					c0-0.1,0-0.4,0.5-0.8c0.5-0.4,0.9-0.3,1-0.3l0.4,0l0.8,0c1.1,0,2.2,0,3.3,0l3.3,0.1l0.8,0l0.4,0l0.2,0c0.1,0,0.4,0,0.7,0.3
					c0.2,0.2,0.3,0.5,0.3,0.5l0.1,0.2l0.1,0.4l0.2,0.8c0.5,2.2,1,4.3,1.8,6.4l0.2,0.4l-0.5,0c-1.3,0.1-2.6,0.3-4,0.4
					c-1.4,0.1-2.7,0.1-4,0.1c-1.3-0.1-2.6-0.2-3.8-0.3C40.2,76.7,39.1,76.5,38,76.4z"/>
			</g>
		</g>
		<path class="st1" d="M69.6,17.7c-0.1,1.1-0.3,2.2-0.8,3.2c-0.1,0.1-0.1,0.3,0,0.4c1.2,2.4,2.4,4.8,3.6,7.2c0.2,0.3,0.3,0.7,0.3,1
			c0,0.9-0.9,1.5-1.7,1.3c-1.1-0.3-2.2-0.6-3.3-0.8c-2.3-0.5-4.7-0.6-7-0.5c-2.4,0.1-4.8,0.4-7.2,1c-0.7,0.2-1.3-0.1-1.7-0.8
			c-1.3-2.5-2.5-5-3.8-7.5c-0.5-1-1-1.9-1.5-2.9c-0.4-0.8-0.2-1.4,0.4-1.9c2.4-2,4.4-4.3,6.2-6.9c1.3-1.9,2.4-3.9,3.2-6.1
			c0.2-0.4,0.3-0.8,0.4-1.2c0.2-0.6,0.6-1,1.2-1c0.7-0.1,1.1,0.2,1.4,0.9c1.3,2.6,2.6,5.2,3.9,7.8c0.1,0.2,0.1,0.3,0.4,0.3
			c2.8,0.4,4.9,2.3,5.6,5.1C69.5,16.7,69.5,17.2,69.6,17.7z"/>
		<path class="st1" d="M43.3,20c2.1,4.2,4.2,8.3,6.2,12.4c-2.3,1.2-4.5,2.3-6.8,3.5c-2.1-4.1-4.2-8.3-6.2-12.4
			C38.8,22.3,41,21.1,43.3,20z"/>
		<g>
			<path class="st0" d="M45.4,37.6c1-0.9,2.4-2,3.9-2.9l0.7-0.4l0.4,0.8c0.6,1,1.2,2,1.6,3.1c0.4,1.1,0.7,2.2,1.2,3.3
				c0.4,1.1,1,2.1,1.6,3.1c0.3,0.6,0.4,1.4,0.2,2.1c-0.2,0.7-0.7,1.4-1.3,1.8c-0.7,0.4-1.5,0.6-2.3,0.4c-0.8-0.2-1.5-0.7-2-1.4
				l-0.2-0.3L49,47.1l-0.2-0.4l-0.4-0.8c-0.3-0.5-0.5-1.1-0.7-1.6c-0.5-1.1-0.9-2.2-1.3-3.3c-0.2-0.6-0.4-1.1-0.6-1.7l-0.2-0.9
				l-0.1-0.4C45.4,37.9,45.4,37.7,45.4,37.6z M45.6,37.7c0.1,0.1,0.2,0.2,0.3,0.3l0.3,0.3l0.5,0.7c0.3,0.5,0.7,1,1,1.4
				c0.6,1,1.3,2,1.8,3c0.3,0.5,0.6,1,0.8,1.5l0.4,0.8l0.3,0.7c0.3,0.6,1.1,0.9,1.8,0.6c0.4-0.1,0.7-0.4,0.9-0.7
				c0.2-0.4,0.3-0.9,0.2-1.3c0-0.2-0.2-0.5-0.3-0.8c-0.1-0.3-0.2-0.5-0.4-0.8c-0.2-0.5-0.5-1-0.8-1.5c-0.6-1-1.4-1.9-2-2.9
				c-0.6-1-1.1-2.1-1.6-3.1l1.1,0.4C48.8,36.7,47.4,37.1,45.6,37.7z"/>
		</g>
		<path class="st1" d="M34.4,25.1c2,3.9,3.9,7.8,5.9,11.6c-2.7,0.8-6-0.4-7.6-3.3C31.1,30.4,32.1,26.9,34.4,25.1z"/>
		<g>
			<path class="st0" d="M71.8,13.9c-0.5,0.2-1.1-0.1-1.4-0.6c-0.3-0.5-0.2-1.4,0.3-1.9c0.3-0.3,0.4-0.3,0.6-0.4l0.5-0.3
				c0.3-0.2,0.7-0.4,1.1-0.5c0.8-0.3,1.6-0.3,2.4-0.7c0.4-0.2,0.7-0.4,1.1-0.6c0.2-0.1,0.3-0.2,0.5-0.4c0.2-0.1,0.5-0.3,0.8-0.3
				c0.3,0,0.7,0.1,1,0.2c0.3,0.1,0.6,0.4,0.7,0.8c0.2,0.4,0.2,0.7,0.1,1.1c-0.1,0.4-0.3,0.8-0.6,1c-0.1,0.1-0.3,0.2-0.4,0.3
				l-0.3,0.2l-0.5,0.3c-0.3,0.2-0.7,0.4-1.1,0.6c-0.7,0.3-1.5,0.6-2.3,0.8c-0.4,0.1-0.8,0.2-1.2,0.3c-0.2,0-0.4,0.1-0.6,0.1
				C72.3,14,72,14,71.8,13.9z M71.8,13.7c0.2-0.2,0.3-0.2,0.4-0.4c0.2-0.1,0.3-0.3,0.5-0.4c0.3-0.3,0.6-0.5,1-0.8
				c0.6-0.5,1.3-0.9,2-1.3c0.4-0.2,0.7-0.4,1.1-0.5l0.6-0.2l0.3-0.1l0.1,0c0,0,0,0,0.1,0c0-0.1,0.1-0.1,0.1-0.1c0.1,0,0-0.3-0.2-0.4
				c-0.1,0-0.2-0.1-0.4,0c-0.2,0.1-0.4,0.1-0.6,0.2c-0.4,0.2-0.7,0.3-1.1,0.5c-0.7,0.4-1.3,1.1-1.9,1.6c-0.3,0.2-0.7,0.4-1,0.6
				l-0.6,0.2c-0.2,0.1-0.4,0.2-0.4,0.2C71.5,12.6,71.1,13.2,71.8,13.7z"/>
		</g>
		<g>
			<path class="st0" d="M71.6,3.1c-0.1,0.4-0.2,0.8-0.2,1.1c-0.1,0.4,0,0.8-0.1,1.2c0,0.8-0.3,1.5-0.7,2.2c-0.2,0.3-0.4,0.6-0.7,0.9
				c-0.1,0.2-0.2,0.3-0.3,0.5c-0.1,0.2-0.3,0.4-0.5,0.5c-0.4,0.3-1,0.3-1.4,0.1c-0.5-0.2-0.8-0.7-0.9-1.3c0-0.1,0-0.3,0-0.4l0-0.3
				c0-0.2,0.1-0.4,0.1-0.6C67,6.7,67.1,6.4,67.2,6c0.2-0.7,0.4-1.5,0.7-2.2c0.2-0.3,0.3-0.7,0.5-1c0.1-0.2,0.2-0.3,0.3-0.5
				C69,2,69.2,1.8,69.5,1.7c0.6-0.3,1.3-0.1,1.6,0.2C71.5,2.3,71.6,2.7,71.6,3.1z M71.4,3.1c0-0.3-0.2-0.7-0.5-0.7
				c-0.3-0.1-0.5,0.2-0.5,0.4c0,0.1,0,0.2,0,0.2c0,0.2,0,0.4-0.1,0.6c-0.1,0.4-0.2,0.7-0.3,1.1c-0.3,0.7-0.6,1.4-1,2.1
				c-0.2,0.3-0.4,0.7-0.6,1c-0.1,0.2-0.2,0.3-0.3,0.5C68,8.2,68,8.4,67.9,8.4c0,0-0.1,0.1-0.1,0.1c-0.1,0.2-0.1,0.5,0.1,0.6
				c0.2,0.2,0.5,0.2,0.7,0c0.1-0.1,0.2-0.2,0.2-0.3c0-0.2,0.1-0.4,0.1-0.6c0-0.4,0.1-0.8,0.2-1.2c0.2-0.7,0.5-1.4,1-2
				C70.6,4.4,71.2,3.8,71.4,3.1z"/>
		</g>
		<g>
			<path class="st0" d="M80,19.7c0,0.4-0.2,0.8-0.5,1.1c-0.2,0.1-0.4,0.3-0.7,0.3c-0.3,0-0.4,0-0.6,0.1c-0.8,0.1-1.5,0-2.2-0.4
				c-0.7-0.3-1.4-0.8-2.1-1c-0.2-0.1-0.4-0.1-0.5-0.2c-0.2,0-0.3-0.1-0.6-0.1c-0.5-0.2-0.9-0.6-1-1.2c0-0.3,0-0.6,0.1-0.9
				c0.1-0.3,0.3-0.6,0.6-0.8c0.3-0.2,0.7-0.3,1-0.3c0.1,0,0.2,0,0.3,0l0.1,0l0.3,0c0.7,0.1,1.5,0.2,2.2,0.4c0.7,0.2,1.4,0.5,2.1,0.9
				l1,0.7C79.8,18.8,80,19.3,80,19.7z M79.8,19.7c0-0.3-0.3-0.6-0.6-0.7c-0.1,0-0.3,0-0.5,0L78,19.1c-0.8,0.1-1.6,0-2.3-0.1
				c-0.7-0.1-1.4-0.4-2.2-0.7l-0.3-0.1l-0.1,0c0,0,0,0,0,0c0,0-0.1,0-0.1-0.1c0,0-0.1,0-0.2,0c-0.1,0-0.2,0.1-0.2,0.2
				c-0.1,0.2-0.1,0.4,0.2,0.6c0.1,0.1,0.3,0.1,0.5,0.2c0.2,0.1,0.4,0.1,0.6,0.1c0.7,0.1,1.6,0,2.3,0c0.8,0.1,1.5,0.3,2.1,0.7
				c0.1,0.1,0.4,0.2,0.5,0.3c0.1,0.1,0.2,0.1,0.4,0.1C79.5,20.3,79.8,20,79.8,19.7z"/>
		</g>
	</g>
</g>
</svg>
