<?xml version="1.0" encoding="utf-8"?>
<!-- Generator: Adobe Illustrator 25.2.1, SVG Export Plug-In . SVG Version: 6.00 Build 0)  -->
<svg version="1.1" id="Layer_1" xmlns="http://www.w3.org/2000/svg" xmlns:xlink="http://www.w3.org/1999/xlink" x="0px" y="0px"
	 viewBox="0 0 93.2 80.2" style="enable-background:new 0 0 93.2 80.2;" xml:space="preserve">
<style type="text/css">
	.st0{fill:#1B212F;}
	.st1{fill:none;stroke:#1B212F;stroke-miterlimit:10;}
</style>
<g>
	<g id="web-development" transform="translate(-1.008 -5.476)">
		<g id="Group_3118" transform="translate(1.008 5.476)">
			<path id="Path_12261" class="st0" d="M80.2,27.6l-37.6-0.2c-11.2-0.1-14,3.1-13.7,11c0.4,10.8,0.4,21.7,0.8,32.7
				c0.3,7.4,3.3,9.1,10.8,9.1l36.3-0.1c8.7,0,12.3-1.8,12.5-10.2l0.8-32.2C90.5,29.5,87.2,27.7,80.2,27.6L80.2,27.6z M76.9,79.2
				l-36.3,0.1c-8,0-9.6-2.1-9.9-8.2c-0.4-10.4-0.4-20.5-0.8-31.3l59.3,0.3l-0.8,29.8C88.2,77.5,85.5,79.2,76.9,79.2z M89.3,37.8
				l0,1.4l-59.3-0.3c-0.3-7.3,1.5-10.5,12.7-10.4l37.6,0.2C86.6,28.6,89.5,29.9,89.3,37.8z"/>
		</g>
		<g id="Group_3119" transform="translate(10.334 10.992)">
			<path id="Path_12262" class="st0" d="M26,27.4c-0.5,0.4,0,1.6,0.4,2.1c1.6,1.9,4.2,0.3,4.1-1.7C30.3,25.1,26.4,24.8,26,27.4z
				 M26.8,28.3c0.1-0.1,0.2-0.3,0.1-0.4c-0.3-1.6,2.5-1.8,2.6,0C29.6,29.4,27.2,30.1,26.8,28.3z"/>
		</g>
		<g id="Group_3120" transform="translate(21.482 10.992)">
			<path id="Path_12263" class="st0" d="M22.2,27.4c-0.8,0.6,0.3,3,2.1,3c1.3,0,2.4-1.2,2.4-2.5C26.5,25.1,22.6,24.8,22.2,27.4
				L22.2,27.4z M23,28.3c0.1-0.1,0.2-0.3,0.1-0.4c-0.3-1.6,2.5-1.8,2.6,0c0,0.8-0.6,1.4-1.3,1.5C23.7,29.4,23.1,28.9,23,28.3z"/>
		</g>
		<g id="Group_3121" transform="translate(33.522 10.974)">
			<path id="Path_12264" class="st0" d="M21.1,25.8c-1.1-0.5-2.4,0-2.9,1.1c-0.1,0.2-0.1,0.3-0.2,0.5c-0.7,0.5,0.2,2.9,2.1,3h0.1
				c1.3,0,2.4-1.2,2.4-2.5C22.5,26.9,21.9,26.1,21.1,25.8z M20.2,29.4c-0.6-0.1-1.2-0.5-1.3-1.1C19,28.2,19,28,19,27.8
				c-0.1-0.7,0.4-1.2,1.1-1.3c0.2,0,0.4,0,0.6,0.1c0.5,0.2,0.8,0.7,0.9,1.2C21.6,28.7,21,29.4,20.2,29.4L20.2,29.4z"/>
		</g>
		<g id="Group_3122" transform="translate(45.092 10.251)">
			<path id="Path_12265" class="st0" d="M34.6,26.1c-1.4-0.6-15.9-0.1-16.8,0c-1.3,0-3.2,0.1-3.7,1.6c-0.8,2.2,1.5,3.3,3.8,3.4
				c5,0.1,10.1-0.1,15.1-0.7C37,29.9,36.6,26.9,34.6,26.1z M26.6,26.9L26.6,26.9L26.6,26.9C26.6,26.9,26.6,26.9,26.6,26.9L26.6,26.9
				z M23.4,27.8C23.4,27.8,23.4,27.8,23.4,27.8C23.4,27.8,23.4,27.7,23.4,27.8l-0.9-0.9c0.6,0,1.1,0,1.7,0l0,0L23.4,27.8z
				 M20.6,27.5L20.1,27c0.3,0,0.7,0,1,0L20.6,27.5z M15.8,27.3c0.2-0.1,0.3-0.1,0.5-0.1L16,27.5L15.8,27.3z M32.8,29.5
				c-5,0.6-9.9,0.8-14.9,0.7c-0.7,0-1.3-0.2-2-0.4c0-0.1,0-0.1,0-0.2l0.4-0.4c0.1-0.1,0.1-0.2,0-0.3c-0.1-0.1-0.2-0.1-0.3,0
				c0,0,0,0,0,0l-0.4,0.4l-0.7-0.7c0-0.4,0.2-0.7,0.5-1l0.3,0.3c-0.1,0.1-0.1,0.2,0,0.3c0.1,0.1,0.2,0.1,0.3,0c0,0,0,0,0,0l0.5,0.5
				c0.1,0.1,0.2,0.1,0.3,0c0.1-0.1,0.1-0.2,0-0.3l-0.5-0.5l0.6-0.6l1,1c-0.1,0.1-0.1,0.2,0,0.3c0.1,0.1,0.2,0.1,0.3,0l0,0
				c0.1,0.1,0.2,0.1,0.3,0s0.1-0.2,0-0.3c0,0,0,0,0,0l0,0l0.8-0.8c0.1-0.1,0.1-0.2,0-0.3c-0.1-0.1-0.2-0.1-0.3,0l-0.8,0.8L17.5,27
				c0.1,0,0.2,0,0.3,0c1.2,0,1.7,0,1.7,0s0,0,0,0l0.8,0.8c-0.1,0.1-0.1,0.2,0,0.3c0.1,0.1,0.2,0.1,0.3,0l0,0c0.1,0.1,0.2,0.1,0.3,0
				c0.1-0.1,0.1-0.2,0-0.3l0.9-0.9c0,0,0,0,0,0c0,0,0.1,0,0.1,0l1.1,1.1c0.1,0.1,0.2,0.1,0.3,0c0,0,0,0,0,0c0,0,0,0,0,0.1
				c0.1,0.1,0.2,0.1,0.3,0l0.9-0.9l0.7,0.7c0.1,0.1,0.2,0.1,0.3,0s0.1-0.2,0-0.3c0,0,0,0,0,0l-0.7-0.7l1.1,0l0.3,0.3l-0.4,0.4
				c-0.1,0.1-0.1,0.2,0,0.3c0.1,0.1,0.2,0.1,0.3,0l0.4-0.4l0.5,0.5c0.1,0.1,0.2,0.1,0.3,0c0.1-0.1,0.1-0.2,0-0.3c0,0,0,0,0,0
				L27,27.2l0.3-0.3l0.4,0l0.1,0.1l-0.2,0.2c-0.1,0.1-0.1,0.2,0,0.3s0.2,0.1,0.3,0c0,0,0,0,0,0l0.2-0.2l0.2,0.2
				c0.1,0.1,0.2,0.1,0.3,0c0.1-0.1,0.1-0.2,0-0.3L28.6,27l0.1-0.1c3.7,0,4.7-0.2,5.5,0.2C35.4,27.5,35.8,29.1,32.8,29.5L32.8,29.5z"
				/>
		</g>
	</g>
	<g id="web-development_2_" transform="translate(-1.008 -5.476)">
		<g id="Group_3119_2_" transform="translate(10.334 10.992)">
			<path id="Path_12262_2_" class="st0" d="M8.1,42.7c-0.3,0.4,0,1.6,0.2,2.1c0.9,1.9,2.3,0.3,2.2-1.7C10.4,40.5,8.4,40.1,8.1,42.7z
				 M8.6,43.6c0.1-0.1,0.1-0.3,0.1-0.4c-0.1-1.6,1.3-1.8,1.4,0C10.1,44.8,8.8,45.5,8.6,43.6z"/>
		</g>
		<g id="Group_3120_2_" transform="translate(21.482 10.992)">
			<path id="Path_12263_2_" class="st0" d="M0.9,42.7c-0.4,0.6,0.2,3,1.1,3c0.7,0,1.3-1.2,1.3-2.5C3.2,40.5,1.1,40.1,0.9,42.7
				L0.9,42.7z M1.3,43.6c0.1-0.1,0.1-0.3,0.1-0.4c-0.1-1.6,1.3-1.8,1.4,0c0,0.8-0.3,1.4-0.7,1.5C1.7,44.8,1.4,44.3,1.3,43.6z"/>
		</g>
		<g id="Group_3121_2_" transform="translate(33.522 10.974)">
			<path id="Path_12264_2_" class="st0" d="M-5.3,41.1c-0.6-0.5-1.3,0-1.5,1.1c0,0.2-0.1,0.3-0.1,0.5c-0.4,0.5,0.1,2.9,1.1,3h0
				c0.7,0,1.3-1.2,1.3-2.5C-4.6,42.3-4.9,41.5-5.3,41.1z M-5.8,44.8c-0.3-0.1-0.6-0.5-0.7-1.1c0.1-0.1,0.1-0.3,0.1-0.4
				c0-0.7,0.2-1.2,0.6-1.3c0.1,0,0.2,0,0.3,0.1c0.3,0.2,0.4,0.7,0.5,1.2C-5,44.1-5.4,44.7-5.8,44.8L-5.8,44.8z"/>
		</g>
	</g>
	<g>
		<g>
			<path class="st0" d="M36.9,27.7l0.5,0l-0.1,0.1c-0.3-5-0.4-9.9-0.4-14.9c0-2.5,0-4.9-0.4-7.2c-0.2-1.1-0.6-2.2-1.3-2.9
				c-0.3-0.3-0.7-0.5-1.2-0.7c-0.5-0.1-1-0.2-1.6-0.2l-0.9,0l0-0.8l0,0l0.9,0.9C28.2,1.8,24.1,1.6,20,1.4c-2.1-0.1-4.1-0.2-6.2-0.2
				c-1,0-2.1-0.1-3,0c-1,0.1-2,0.4-2.8,0.9C6.4,3.3,5.9,5.4,5.7,7.4c-0.2,2-0.1,4,0,6.1c0.2,4.1,0.3,8.2,0.5,12.3l0.3,12.3
				c0,2.1,0.1,4.1,0.1,6.2c0,2,0.1,4.1,0.7,5.8c0.3,0.9,0.7,1.6,1.3,2c0.6,0.4,1.5,0.6,2.5,0.6l6.2,0.2c4.1,0.1,8.2,0.3,12.4,0.5
				l0,0.2c-4.1,0.3-8.2,0.5-12.4,0.6c-2.1,0.1-4.1,0.2-6.2,0.2c-1.1,0-2.3-0.1-3.4-0.8c-0.6-0.3-1-0.8-1.4-1.3
				c-0.3-0.5-0.6-1.1-0.8-1.6c-0.4-1.1-0.6-2.2-0.7-3.2c-0.1-1.1-0.2-2.1-0.2-3.2c-0.1-2.1-0.1-4.1-0.1-6.2l0-12.4
				c0-4.1,0-8.2,0.1-12.4c0-2,0-4.2,0.3-6.2c0.1-1,0.4-2.1,0.8-3.1c0.4-1,1.1-1.9,2-2.5c1.9-1.2,4.2-1.1,6.2-1.1
				c2.1,0,4.1,0,6.2-0.1c4.1-0.1,8.2-0.3,12.4-0.3l0.8,0l0,0.9l0,0l-0.9-0.9c0.7,0,1.4,0,2.1,0.2c0.7,0.2,1.4,0.6,2,1.1
				c1.1,1.1,1.5,2.5,1.7,3.8c0.5,2.6,0.3,5.1,0.3,7.6c-0.2,5-0.4,9.9-0.8,14.9l0,0.1l-0.1,0l-0.5,0V27.7z"/>
		</g>
	</g>
	<g>
		<path class="st1" d="M42.5,51.3c0-1.3,0-2.6,0-3.9c0-1.2,0.9-2.1,2-2.3c1.2-0.2,2.3,0.5,2.7,1.7c0.1,0.3,0.1,0.7,0.1,1
			c0,2.3,0,4.6,0,6.9c0,1.5,1.1,2.5,2.5,2.5c1.3-0.1,2.2-1.1,2.3-2.5c0-2.3,0-4.6,0-6.9c0-0.2,0-0.4,0-0.6c0.2-1.3,1.3-2.1,2.5-2
			c1.2,0.1,2.2,1.1,2.2,2.3c0,2.6,0,5.1,0,7.7c0,1.3-0.5,2.5-1.2,3.6c-1.7,2.6-4.9,3.8-8,3c-2.9-0.8-5.1-3.5-5.2-6.5
			C42.5,53.9,42.5,52.6,42.5,51.3C42.5,51.3,42.5,51.3,42.5,51.3z"/>
		<path class="st1" d="M47.3,72.5c-0.8,0-1.7,0-2.5,0c-1.1,0-2.1-0.9-2.3-2c-0.2-1.1,0.4-2.2,1.4-2.6c0.3-0.1,0.6-0.2,0.9-0.2
			c1.6,0,3.2,0,4.8,0c1.3,0,2.3,1,2.4,2.3c0.1,1.1-0.7,2.3-1.9,2.5c-0.7,0.1-1.5,0.1-2.2,0.1C47.8,72.5,47.5,72.5,47.3,72.5
			L47.3,72.5z"/>
		<g>
			<g>
				<path class="st1" d="M72.5,61.3c0.4,0.4,1,0.7,1.6,0.7c1.3,0,2.3-1,2.3-2.3c0-0.5-0.2-1-0.5-1.4"/>
			</g>
			<g>
				<path class="st1" d="M62.5,58.1L62.5,58.1c-0.4,0.4-0.6,0.9-0.6,1.5c0,1.3,1,2.3,2.3,2.3c0.6,0,1.2-0.3,1.6-0.7"/>
			</g>
			<g>
				<path class="st1" d="M65.9,45.8c-0.4-0.5-1.1-0.8-1.7-0.8c-1.3,0-2.3,1-2.3,2.3c0,0.4,0.1,0.9,0.3,1.2"/>
			</g>
			<g>
				<path class="st1" d="M76.1,48.4c0.1-0.3,0.3-0.7,0.3-1.1c0-1.3-1-2.3-2.3-2.3c-0.7,0-1.3,0.3-1.7,0.8"/>
			</g>
			<polyline class="st1" points="75.9,58.3 75.8,58.2 72,53.4 75.5,49 76,48.4 76,48.4 			"/>
			<polyline class="st1" points="65.7,61.3 65.7,61.3 66.1,60.8 69.1,57.1 72.1,60.8 72.5,61.3 72.5,61.3 			"/>
			<polyline class="st1" points="62.2,48.5 62.2,48.5 62.2,48.5 62.6,48.9 66.2,53.4 62.5,58.1 62.5,58.1 			"/>
			<polyline class="st1" points="72.3,45.8 72.3,45.8 72.3,45.8 72.2,45.9 69.1,49.8 66,45.9 65.8,45.8 65.8,45.8 65.8,45.8 			"/>
		</g>
		<g id="Group_3122_3_" transform="translate(45.092 10.251)">
			<path id="Path_12265_3_" class="st0" d="M32.7,57.1c-1.4-0.6-15.9-0.1-16.8,0c-1.3,0-3.2,0.1-3.7,1.6c-0.8,2.2,1.5,3.3,3.8,3.4
				C21,62.2,26,62,31,61.4C35.1,60.9,34.7,57.9,32.7,57.1z M24.8,57.8L24.8,57.8L24.8,57.8C24.8,57.8,24.8,57.8,24.8,57.8L24.8,57.8
				z M21.6,58.7C21.5,58.7,21.6,58.7,21.6,58.7C21.5,58.7,21.5,58.7,21.6,58.7l-0.9-0.9c0.6,0,1.1,0,1.7,0l0,0L21.6,58.7z
				 M18.7,58.4l-0.5-0.5c0.3,0,0.7,0,1,0L18.7,58.4z M13.9,58.2c0.2-0.1,0.3-0.1,0.5-0.1l-0.3,0.3L13.9,58.2z M30.9,60.4
				C26,61,21,61.2,16,61.1c-0.7,0-1.3-0.2-2-0.4c0-0.1,0-0.1,0-0.2l0.4-0.4c0.1-0.1,0.1-0.2,0-0.3c-0.1-0.1-0.2-0.1-0.3,0
				c0,0,0,0,0,0l-0.4,0.4L13,59.4c0-0.4,0.2-0.7,0.5-1l0.3,0.3c-0.1,0.1-0.1,0.2,0,0.3c0.1,0.1,0.2,0.1,0.3,0c0,0,0,0,0,0l0.5,0.5
				c0.1,0.1,0.2,0.1,0.3,0c0.1-0.1,0.1-0.2,0-0.3l-0.5-0.5l0.6-0.6l1,1c-0.1,0.1-0.1,0.2,0,0.3c0.1,0.1,0.2,0.1,0.3,0l0,0
				c0.1,0.1,0.2,0.1,0.3,0s0.1-0.2,0-0.3c0,0,0,0,0,0l0,0l0.8-0.8c0.1-0.1,0.1-0.2,0-0.3c-0.1-0.1-0.2-0.1-0.3,0l-0.8,0.8L15.6,58
				c0.1,0,0.2,0,0.3,0c1.2,0,1.7,0,1.7,0s0,0,0,0l0.8,0.8c-0.1,0.1-0.1,0.2,0,0.3c0.1,0.1,0.2,0.1,0.3,0l0,0c0.1,0.1,0.2,0.1,0.3,0
				c0.1-0.1,0.1-0.2,0-0.3l0.9-0.9c0,0,0,0,0,0c0,0,0.1,0,0.1,0l1.1,1.1c0.1,0.1,0.2,0.1,0.3,0c0,0,0,0,0,0c0,0,0,0,0,0.1
				c0.1,0.1,0.2,0.1,0.3,0l0.9-0.9l0.7,0.7c0.1,0.1,0.2,0.1,0.3,0s0.1-0.2,0-0.3c0,0,0,0,0,0l-0.7-0.7l1.1,0l0.3,0.3L24,58.6
				c-0.1,0.1-0.1,0.2,0,0.3c0.1,0.1,0.2,0.1,0.3,0l0.4-0.4l0.5,0.5c0.1,0.1,0.2,0.1,0.3,0s0.1-0.2,0-0.3c0,0,0,0,0,0l-0.5-0.5
				l0.3-0.3l0.4,0l0.1,0.1l-0.2,0.2c-0.1,0.1-0.1,0.2,0,0.3c0.1,0.1,0.2,0.1,0.3,0c0,0,0,0,0,0l0.2-0.2l0.2,0.2
				c0.1,0.1,0.2,0.1,0.3,0c0.1-0.1,0.1-0.2,0-0.3l-0.2-0.2l0.1-0.1c3.7,0,4.7-0.2,5.5,0.2C33.5,58.4,33.9,60.1,30.9,60.4L30.9,60.4z
				"/>
		</g>
	</g>
	<path class="st1" d="M8.9,17.5c0-1.3,0-2.6,0-3.9c0-1.2,0.9-2.2,2-2.3c1.2-0.2,2.3,0.5,2.7,1.7c0.1,0.3,0.1,0.7,0.1,1
		c0,2.3,0,4.6,0,6.9c0,1.5,1.1,2.6,2.6,2.5c1.3-0.1,2.2-1.1,2.3-2.5c0-2.3,0-4.7,0-7c0-0.2,0-0.4,0-0.6c0.2-1.3,1.3-2.1,2.6-2
		c1.2,0.1,2.2,1.1,2.2,2.3c0,2.6,0,5.2,0,7.7c0,1.3-0.5,2.5-1.2,3.6c-1.7,2.6-4.9,3.8-8,3c-2.9-0.8-5.1-3.5-5.2-6.5
		C8.8,20.1,8.9,18.8,8.9,17.5C8.9,17.5,8.9,17.5,8.9,17.5z"/>
	<path class="st1" d="M28.3,19.7c0-2,0-3.9,0-5.9c0-1.9,1.5-2.7,2.8-2.6c1.2,0.2,2.1,1.2,2.1,2.6c0,3.4,0,6.7,0,10.1
		c0,0.7,0,1.4-0.1,2.1c-0.1,1.3-1.2,2.2-2.5,2.1c-1.2-0.1-2.2-1.1-2.2-2.4c0-1.8,0-3.7,0-5.5C28.2,20.2,28.2,19.9,28.3,19.7
		C28.2,19.7,28.3,19.7,28.3,19.7z"/>
</g>
</svg>
