<?xml version="1.0" encoding="utf-8"?>
<!-- Generator: Adobe Illustrator 25.2.1, SVG Export Plug-In . SVG Version: 6.00 Build 0)  -->
<svg version="1.1" id="Layer_1" xmlns="http://www.w3.org/2000/svg" xmlns:xlink="http://www.w3.org/1999/xlink" x="0px" y="0px"
	 viewBox="0 0 93.2 80.2" style="enable-background:new 0 0 93.2 80.2;" xml:space="preserve">
<style type="text/css">
	.st0{fill:#1B212F;}
	.st1{fill:none;stroke:#1B212F;stroke-miterlimit:10;}
</style>
<g>
	<g>
		<g id="web-development" transform="translate(-1.008 -5.476)">
			<g id="Group_3122_1_" transform="translate(45.092 10.251)">
				<path id="Path_12265_1_" class="st0" d="M-5.9,7.4c-1.6-0.7-18.6-0.1-19.8,0c-1.5,0-3.7,0.1-4.4,1.9c-0.9,2.6,1.8,4,4.5,4.1
					c5.9,0.2,11.8-0.1,17.7-0.8C-3.1,12-3.6,8.4-5.9,7.4z M-15.3,8.3L-15.3,8.3L-15.3,8.3C-15.3,8.3-15.3,8.3-15.3,8.3L-15.3,8.3z
					 M-19,9.4C-19,9.4-19,9.4-19,9.4C-19.1,9.4-19.1,9.4-19,9.4l-1-1c0.7,0,1.3,0,2,0l0,0L-19,9.4z M-22.4,9.1L-23,8.5
					c0.4,0,0.8,0,1.2,0L-22.4,9.1z M-28,8.8c0.2-0.1,0.4-0.1,0.6-0.2l-0.4,0.4L-28,8.8z M-8.1,11.4c-5.8,0.7-11.7,0.9-17.5,0.8
					c-0.8,0-1.6-0.2-2.3-0.5c0-0.1,0-0.2,0-0.3l0.4-0.4c0.1-0.1,0.1-0.3,0-0.4c-0.1-0.1-0.3-0.1-0.4,0c0,0,0,0,0,0l-0.4,0.4
					l-0.8-0.8c0-0.5,0.2-0.9,0.6-1.1l0.4,0.4c-0.1,0.1-0.1,0.3,0,0.4c0.1,0.1,0.3,0.1,0.4,0c0,0,0,0,0,0l0.6,0.6
					c0.1,0.1,0.3,0.1,0.4,0c0.1-0.1,0.1-0.3,0-0.4l-0.6-0.6l0.7-0.8l1.2,1.2c-0.1,0.1-0.1,0.3,0,0.4c0.1,0.1,0.2,0.1,0.4,0l0,0
					c0.1,0.1,0.3,0.1,0.4,0c0.1-0.1,0.1-0.3,0-0.4c0,0,0,0,0,0l0,0l0.9-0.9c0.1-0.1,0.1-0.3,0-0.4c-0.1-0.1-0.3-0.1-0.4,0L-25,9.5
					l-1-1c0.1,0,0.2,0,0.3,0c1.4,0,2-0.1,2-0.1s0,0,0,0l0.9,1c-0.1,0.1-0.1,0.3,0,0.4c0.1,0.1,0.3,0.1,0.4,0l0,0
					c0.1,0.1,0.2,0.1,0.3,0c0.1-0.1,0.1-0.2,0-0.3l1-1c0,0,0,0,0-0.1c0,0,0.1,0,0.1,0l1.3,1.4c0.1,0.1,0.3,0.1,0.4,0c0,0,0,0,0,0
					c0,0,0,0,0,0.1c0.1,0.1,0.3,0.1,0.4,0l1-1l0.8,0.8c0.1,0.1,0.3,0.1,0.4,0s0.1-0.3,0-0.4c0,0,0,0,0,0l-0.8-0.8l1.2,0l0.4,0.4
					l-0.5,0.5c-0.1,0.1-0.1,0.3,0,0.4c0.1,0.1,0.3,0.1,0.4,0l0.5-0.5l0.6,0.6c0.1,0.1,0.3,0.1,0.4,0c0.1-0.1,0.1-0.3,0-0.4
					c0,0,0,0,0,0l-0.6-0.6l0.4-0.4l0.5,0l0.2,0.2L-14,8.6c-0.1,0.1-0.1,0.3,0,0.4c0.1,0.1,0.3,0.1,0.4,0c0,0,0,0,0,0l0.2-0.2
					l0.2,0.2c0.1,0.1,0.3,0.1,0.4,0c0.1-0.1,0.1-0.3,0-0.4L-13,8.4l0.2-0.2c4.4,0,5.5-0.2,6.4,0.2C-5,9.1-4.5,11-8.1,11.4L-8.1,11.4
					z"/>
			</g>
			<g id="Group_3122_2_" transform="translate(45.092 10.251)">
				<path id="Path_12265_2_" class="st0" d="M-6.1,16.5c-1.6-0.7-18.6-0.1-19.8,0c-1.5,0-3.7,0.1-4.4,1.9c-0.9,2.6,1.8,4,4.5,4.1
					c5.9,0.2,11.8-0.1,17.7-0.8C-3.3,21.1-3.7,17.5-6.1,16.5z M-15.4,17.4L-15.4,17.4L-15.4,17.4C-15.4,17.4-15.4,17.4-15.4,17.4
					L-15.4,17.4z M-19.2,18.5C-19.2,18.5-19.2,18.5-19.2,18.5C-19.2,18.5-19.2,18.5-19.2,18.5l-1-1c0.7,0,1.3,0,2,0l0,0L-19.2,18.5z
					 M-22.5,18.2l-0.6-0.6c0.4,0,0.8,0,1.2,0L-22.5,18.2z M-28.2,18c0.2-0.1,0.4-0.1,0.6-0.2l-0.4,0.4L-28.2,18z M-8.2,20.6
					c-5.8,0.7-11.7,0.9-17.5,0.8c-0.8,0-1.6-0.2-2.3-0.5c0-0.1,0-0.2,0-0.3l0.4-0.4c0.1-0.1,0.1-0.3,0-0.4c-0.1-0.1-0.3-0.1-0.4,0
					c0,0,0,0,0,0l-0.4,0.4l-0.8-0.8c0-0.5,0.2-0.9,0.6-1.1l0.4,0.4c-0.1,0.1-0.1,0.3,0,0.4c0.1,0.1,0.3,0.1,0.4,0c0,0,0,0,0,0
					l0.6,0.6c0.1,0.1,0.3,0.1,0.4,0c0.1-0.1,0.1-0.3,0-0.4l-0.6-0.6l0.7-0.8l1.2,1.2c-0.1,0.1-0.1,0.3,0,0.4c0.1,0.1,0.2,0.1,0.4,0
					l0,0c0.1,0.1,0.3,0.1,0.4,0c0.1-0.1,0.1-0.3,0-0.4c0,0,0,0,0,0l0,0l0.9-0.9c0.1-0.1,0.1-0.3,0-0.4c-0.1-0.1-0.3-0.1-0.4,0
					l-0.9,0.9l-1-1c0.1,0,0.2,0,0.3,0c1.4,0,2-0.1,2-0.1s0,0,0,0l0.9,1c-0.1,0.1-0.1,0.3,0,0.4c0.1,0.1,0.3,0.1,0.4,0l0,0
					c0.1,0.1,0.2,0.1,0.3,0c0.1-0.1,0.1-0.2,0-0.3l1-1c0,0,0,0,0-0.1c0,0,0.1,0,0.1,0l1.3,1.4c0.1,0.1,0.3,0.1,0.4,0c0,0,0,0,0,0
					c0,0,0,0,0,0.1c0.1,0.1,0.3,0.1,0.4,0l1-1l0.8,0.8c0.1,0.1,0.3,0.1,0.4,0c0.1-0.1,0.1-0.3,0-0.4c0,0,0,0,0,0l-0.8-0.8l1.2,0
					l0.4,0.4l-0.5,0.5c-0.1,0.1-0.1,0.3,0,0.4c0.1,0.1,0.3,0.1,0.4,0l0.5-0.5l0.6,0.6c0.1,0.1,0.3,0.1,0.4,0c0.1-0.1,0.1-0.3,0-0.4
					c0,0,0,0,0,0l-0.6-0.6l0.4-0.4l0.5,0l0.2,0.2l-0.2,0.2c-0.1,0.1-0.1,0.3,0,0.4c0.1,0.1,0.3,0.1,0.4,0c0,0,0,0,0,0l0.2-0.2
					l0.2,0.2c0.1,0.1,0.3,0.1,0.4,0c0.1-0.1,0.1-0.3,0-0.4l-0.2-0.2l0.2-0.2c4.4,0,5.5-0.2,6.4,0.2C-5.1,18.2-4.7,20.1-8.2,20.6
					L-8.2,20.6z"/>
			</g>
			<g id="Group_3122_4_" transform="translate(45.092 10.251)">
				<path id="Path_12265_4_" class="st0" d="M-9.8,25.3c-1.3-0.6-15.8-0.1-16.7,0c-1.3,0-3.1,0.1-3.7,1.6c-0.8,2.2,1.5,3.4,3.8,3.4
					c5,0.1,10-0.1,15-0.7C-7.4,29.2-7.8,26.2-9.8,25.3z M-17.7,26.1L-17.7,26.1L-17.7,26.1C-17.7,26.1-17.7,26.1-17.7,26.1
					L-17.7,26.1z M-20.9,27C-20.9,27-20.9,27-20.9,27C-20.9,27-20.9,27-20.9,27l-0.8-0.9c0.6,0,1.1,0,1.7,0l0,0L-20.9,27z
					 M-23.7,26.7l-0.5-0.5c0.3,0,0.7,0,1,0L-23.7,26.7z M-28.5,26.5c0.2-0.1,0.3-0.1,0.5-0.1l-0.3,0.3L-28.5,26.5z M-11.6,28.7
					c-4.9,0.6-9.9,0.8-14.8,0.7c-0.7,0-1.3-0.2-2-0.4c0-0.1,0-0.2,0-0.2l0.4-0.4c0.1-0.1,0.1-0.2,0-0.3c-0.1-0.1-0.2-0.1-0.3,0
					c0,0,0,0,0,0l-0.4,0.4l-0.7-0.7c0-0.4,0.2-0.8,0.5-1l0.3,0.3c-0.1,0.1-0.1,0.2,0,0.3c0.1,0.1,0.2,0.1,0.3,0c0,0,0,0,0,0l0.5,0.5
					c0.1,0.1,0.2,0.1,0.3,0c0.1-0.1,0.1-0.2,0-0.3L-28,27l0.6-0.6l1,1c-0.1,0.1-0.1,0.2,0,0.3c0.1,0.1,0.2,0.1,0.3,0l0,0
					c0.1,0.1,0.2,0.1,0.3,0c0.1-0.1,0.1-0.2,0-0.3c0,0,0,0,0,0l0,0l0.8-0.8c0.1-0.1,0.1-0.3,0-0.3c-0.1-0.1-0.2-0.1-0.3,0l-0.8,0.8
					l-0.8-0.8c0.1,0,0.2,0,0.3,0c1.2,0,1.7,0,1.7,0s0,0,0,0l0.8,0.8c-0.1,0.1-0.1,0.2,0,0.3c0.1,0.1,0.2,0.1,0.3,0l0,0
					c0.1,0.1,0.2,0.1,0.3,0c0.1-0.1,0.1-0.2,0-0.3l0.9-0.9c0,0,0,0,0,0c0,0,0.1,0,0.1,0l1.1,1.2c0.1,0.1,0.2,0.1,0.3,0c0,0,0,0,0,0
					c0,0,0,0,0,0.1c0.1,0.1,0.2,0.1,0.3,0l0.9-0.9l0.7,0.7c0.1,0.1,0.2,0.1,0.3,0c0.1-0.1,0.1-0.2,0-0.3c0,0,0,0,0,0l-0.7-0.7l1,0
					l0.3,0.3l-0.4,0.4c-0.1,0.1-0.1,0.3,0,0.3c0.1,0.1,0.2,0.1,0.3,0l0.4-0.4l0.5,0.5c0.1,0.1,0.2,0.1,0.3,0c0.1-0.1,0.1-0.2,0-0.3
					c0,0,0,0,0,0l-0.5-0.5l0.3-0.4l0.4,0l0.1,0.1l-0.2,0.2c-0.1,0.1-0.1,0.2,0,0.3c0.1,0.1,0.2,0.1,0.3,0c0,0,0,0,0,0l0.2-0.2
					l0.2,0.2c0.1,0.1,0.2,0.1,0.3,0c0.1-0.1,0.1-0.2,0-0.3l-0.2-0.2l0.1-0.1c3.7,0,4.6-0.2,5.5,0.2C-9,26.7-8.6,28.4-11.6,28.7
					L-11.6,28.7z"/>
			</g>
		</g>
	</g>
	<g>
		<g>
			<g>
				<path class="st0" d="M70,8.2l5.8,0c1,0,2,0,2.9,0.3c1,0.3,1.8,0.8,2.6,1.5c0.7,0.7,1.3,1.5,1.7,2.5c0.4,0.9,0.5,2,0.5,3l0.1,5.8
					c0.1,7.7,0.2,15.5,0.3,23.2L84,56c0,2.1-0.9,4.3-2.6,5.7c-0.9,0.7-1.9,1.2-2.9,1.4c-1.1,0.3-2.1,0.2-3.1,0.2
					c-7.7-0.1-15.5,0-23.2-0.2l0.7-0.9c0.3,1.7,0.7,3.3,1.1,5l0.5,2.4c-0.3,0.1,1,0,1.8,0.1l1.3,0c0.5,0,0.9,0.1,1.4,0.1
					c0.9,0.2,1.8,0.6,2.5,1.2c1.5,1.3,1.9,3.4,1.8,5.1l-0.4-0.4l4.8,0.1c0.4,0,0.9,0.1,1.3,0.4c0.4,0.3,0.7,0.8,0.8,1.2
					c0.1,0.4,0,1-0.3,1.4c-0.3,0.4-0.7,0.6-1,0.9l-0.1,0l-0.1,0l-10.7-0.1l-10.7,0c-7.1,0-14.3,0.1-21.4,0.2l-0.1,0L25,80
					c-0.4-0.2-0.8-0.5-1.1-0.9c-0.3-0.4-0.5-1.1-0.4-1.6c0.1-0.5,0.4-1.1,0.8-1.4c0.5-0.3,1-0.5,1.5-0.5l4.7-0.1l-0.7,0.6
					c0-0.8,0-1.8,0.3-2.7c0.3-0.9,0.8-1.8,1.6-2.5c0.7-0.7,1.7-1.1,2.7-1.3c1-0.2,1.8-0.1,2.7-0.1l1.7,0l0.5-2.3l1.1-5l0.9,1.1
					l-16,0.1l-8,0c-1.4,0-3-0.2-4.3-1c-1.4-0.7-2.5-2-3.1-3.4c-0.3-0.7-0.5-1.5-0.6-2.2c-0.1-0.7-0.1-1.5-0.1-2.1l0-4l0-8l0-16
					l0.1-8c0-1.3,0-2.6,0-4c0-1.5,0.5-3,1.4-4.2c0.9-1.2,2.1-2.2,3.5-2.7c0.7-0.3,1.4-0.4,2.2-0.5c0.8,0,1.4,0,2.1,0l8,0.1l16,0.3
					l16,0.4l0,0.2l-16,0.3l-16,0.2l-8,0.1c-0.7,0-1.4,0-1.9,0c-0.6,0.1-1.2,0.2-1.7,0.4c-1.1,0.4-2,1.2-2.7,2.1c-0.6,1-1,2.1-1,3.3
					c0,1.3,0,2.6,0,4l0.1,8l0,16l0,8l0,4c0,0.7,0,1.3,0.1,1.9c0.1,0.6,0.2,1.1,0.4,1.6c0.4,1,1.2,1.9,2.2,2.4c1,0.5,2.1,0.8,3.4,0.8
					l8,0l16,0.1l1.1,0l-0.3,1.1l-1.2,5L40.7,69c-0.1,0.2-0.1,0.4-0.1,0.6c0,0.2-0.1,0.5-0.3,0.8c-0.3,0.5-0.6,0.7-0.9,0.8
					c-0.1,0-0.2,0.1-0.4,0.1l-0.2,0l-0.3,0l-1.3,0c-0.8,0-1.7,0-2.4,0.1c-0.7,0.1-1.4,0.4-1.9,0.9c-0.5,0.5-0.9,1.1-1.2,1.8
					c-0.3,0.7-0.3,1.4-0.3,2.4L31.2,77l-0.6,0L25.9,77c-0.6,0-1,0.2-1.1,0.8c-0.1,0.3,0,0.5,0.1,0.7c0.1,0.2,0.4,0.4,0.7,0.6
					L25.3,79c7.1,0.1,14.3,0.2,21.4,0.2l10.7,0l10.7-0.1l-0.2,0c0.7-0.4,1.1-0.9,1-1.5c-0.1-0.7-0.6-1-1.4-1l-2.4,0l-2.4,0l-0.4,0
					l0-0.4c0-1.7-0.3-3.3-1.5-4.3c-0.6-0.5-1.3-0.8-2.1-0.9c-0.4-0.1-0.8-0.1-1.2-0.1l-1.3,0c-0.4,0-0.8,0-1.3,0
					c-0.2,0-0.5,0.1-0.8,0c-0.4-0.1-0.8-0.5-0.9-0.8c-0.1-0.3-0.2-0.5-0.2-0.7l-0.1-0.6l-0.3-1.2c-0.4-1.6-0.9-3.3-1.2-5l-0.2-0.9
					l0.9,0c7.7-0.1,15.5-0.1,23.2-0.2c1,0,1.9,0,2.7-0.2c0.8-0.2,1.6-0.5,2.2-1.1c1.3-1,2-2.7,2.1-4.5l0.1-11.6
					c0-7.7,0.2-15.5,0.3-23.2l0.1-5.8c0-0.9,0-1.9-0.3-2.7c-0.3-0.9-0.8-1.7-1.4-2.3c-0.7-0.6-1.5-1.2-2.4-1.5
					c-0.4-0.1-0.9-0.3-1.4-0.3c-0.5-0.1-1,0-1.4,0L70,8.4L70,8.2z"/>
				<path class="st0" d="M82.5,48.7c-4.5,0.4-9.1,0.6-13.6,0.7c-4.5,0.1-9.1,0.2-13.6,0.1c-4.5-0.1-9.1-0.4-13.6-0.5
					c-2.3,0-4.5,0-6.8,0c-1.1,0-2.3,0-3.4,0.1c-0.3,0-0.6,0-0.9,0c-0.3,0-0.7,0-1-0.2c-0.7-0.3-1.1-1.1-1.1-1.8
					c0-0.7,0.4-1.6,1.1-1.9c0.8-0.4,1.4-0.3,1.9-0.4c1.1-0.1,2.3-0.1,3.4-0.1c2.3-0.1,4.5-0.1,6.8-0.1c4.5-0.1,9.1-0.2,13.6-0.1
					c9.1,0.1,18.1,0.3,27.2,1v0.2c-9.1,0.6-18.1,0.9-27.2,1c-4.5,0-9.1-0.1-13.6-0.1c-2.3,0-4.5-0.1-6.8-0.1c-1.1,0-2.3-0.1-3.4-0.1
					c-0.5,0-1.1,0-1.4,0.1c-0.3,0.1-0.5,0.5-0.6,0.8c0,0.4,0.2,0.8,0.5,1c0.3,0.2,0.9,0.2,1.5,0.2c1.1,0,2.3,0.1,3.4,0.1
					c2.3,0,4.5,0,6.8,0c4.5-0.1,9.1-0.4,13.6-0.5c4.5-0.1,9.1,0,13.6,0.1c4.5,0.1,9.1,0.3,13.6,0.7V48.7z"/>
				<path class="st0" d="M11,45.3c1.6-0.4,3.3-0.6,4.9-0.7l1.2-0.1l0.6,0c0.3,0,0.6,0.1,0.8,0.3c0.5,0.4,0.7,0.9,1,1.3
					c0.2,0.4,0.5,0.9,0.6,1.5c0,0.6-0.5,1.3-1,1.6c-0.3,0.2-0.6,0.3-0.9,0.3c-0.3,0-0.6,0-0.8,0c-0.8-0.1-1.6-0.1-2.5-0.2
					c-1.6-0.2-3.3-0.3-4.9-0.7l0-0.2c1.6-0.3,3.3-0.5,4.9-0.7c0.8-0.1,1.6-0.1,2.4-0.2c0.2,0,0.4-0.1,0.5-0.1c0.1,0,0.2-0.1,0.3-0.1
					c0.2,0,0.3,0,0.5-0.2c0.2-0.1,0.5-0.5,0.4-0.8c-0.1-0.3-0.6-0.3-0.9-0.2c-0.1,0.1-0.3,0.1-0.4,0.1c-0.2,0-0.4,0-0.6,0
					c-0.4,0-0.8,0-1.2,0c-1.6-0.1-3.3-0.3-4.9-0.7V45.3z"/>
				<path class="st0" d="M55.1,17c2,1.1,3.6,2.1,5.2,3.1l-1,0.1c1.2-1.6,2.3-3.1,3.6-4.6c1.3-1.5,2.7-2.9,4.1-4.3
					c0.7-0.7,1.3-1.4,2-2.2c0.3-0.4,0.6-0.8,0.9-1.1c0.3-0.4,0.6-0.8,0.8-1.2c0.5-0.8,0.6-1.7,0.3-2.5c-0.2-0.8-0.7-1.6-1.4-1.9
					c-0.6-0.4-1.5-0.5-2.2-0.5C66.6,2,66,2.4,65.5,3c-0.1,0.1-0.1,0.2-0.2,0.2l-0.2,0.3l-0.4,0.6L64,5.4c-0.5,0.8-1.1,1.6-1.7,2.4
					c-1.1,1.6-2.3,3.2-3.4,4.6C57.7,13.9,56.4,15.4,55.1,17z M54.9,17.1c0.8-1.6,1.7-3.4,2.7-5.2c1.1-1.9,2-3.5,3.1-5.2
					c0.5-0.8,1-1.7,1.6-2.5L63,3l0.4-0.6l0.2-0.3C63.8,2,63.9,1.9,64,1.8c0.7-0.9,2-1.6,3.2-1.7c0.6,0,1.2,0,1.8,0.2
					c0.6,0.2,1.1,0.4,1.6,0.8c0.9,0.8,1.4,1.9,1.5,3c0.2,1.1-0.2,2.2-0.8,3.1c-0.6,0.9-1.3,1.5-1.9,2.3c-0.6,0.8-1.2,1.5-1.7,2.4
					c-1.1,1.6-2.2,3.3-3.4,4.8c-1.2,1.5-2.5,3-3.8,4.5l-0.5,0.6l-0.5-0.4C57.6,19.9,56.1,18.4,54.9,17.1z"/>
				<path class="st0" d="M39.7,38.7c1.5-0.8,3.4-1.5,5.3-1.6c1.9-0.1,3.8,0.1,5.2-0.2c1.4-0.3,2.8-1.6,3-3.4c0-0.4,0-0.9,0-1.3
					c0-0.2-0.1-0.4-0.1-0.6c0-0.1-0.1-0.2-0.1-0.3c0-0.1-0.1-0.2-0.1-0.2c-0.2-0.2-0.6-0.5-1-0.7l-1.2-0.7c-0.8-0.5-1.6-0.9-2.3-1.5
					c-0.4-0.2-0.8-0.5-1.1-0.8c-0.1-0.1-0.3-0.1-0.2-0.1c-0.2,0-0.4,0-0.6,0c-1.5,0.1-3,0.8-4.2,1.9c-0.6,0.5-1,1.1-1.3,1.8
					c-0.3,0.8-0.6,1.6-0.8,2.4c-0.2,0.8-0.3,1.7-0.3,2.6l0,1.4l0,0.7C39.7,38.4,39.7,38.5,39.7,38.7z M39.6,38.9
					c-0.1-0.2-0.2-0.5-0.3-0.7l-0.2-0.7c-0.1-0.4-0.3-0.9-0.3-1.4c-0.2-0.9-0.3-1.9-0.2-2.9c0-1,0.2-2,0.5-2.9
					c0.3-1,0.9-1.9,1.7-2.7c1.5-1.5,3.5-2.3,5.7-2.3c0.3,0,0.5,0,0.8,0.1c0.5,0.1,0.8,0.3,1,0.5c0.4,0.3,0.7,0.6,1,0.9
					c0.7,0.6,1.3,1.2,2,1.9l1,0.9l0.5,0.5c0.2,0.1,0.4,0.3,0.6,0.6c0.1,0.2,0.1,0.3,0.1,0.4c0,0.1,0.1,0.2,0.1,0.3
					c0.1,0.2,0.1,0.5,0.1,0.7c0.1,0.5,0.1,0.9,0.1,1.4c0,1-0.2,2-0.7,2.9c-0.5,0.9-1.3,1.7-2.3,2.1c-1,0.4-2.1,0.4-3,0.3
					c-0.9,0-1.8-0.1-2.7-0.2c-0.9-0.1-1.7-0.1-2.6,0L41,38.8l-0.7,0.1l-0.3,0C39.9,38.9,39.7,38.9,39.6,38.9z"/>
				<path class="st0" d="M54.1,27.5c0.5-1.1,1-2,1.4-2.7c0.5-0.8,0.9-1.4,1.5-2l0.1,1.2c-0.7-0.7-1.2-1.5-2-2.1
					c-0.7-0.6-1.6-1.1-2.4-1.5l0.9-0.1c-0.2,0.4-0.4,0.9-0.6,1.3c-0.2,0.4-0.4,0.8-0.7,1.2c-0.5,0.8-0.9,1.6-1.5,2.4l-0.2-1.4
					C51.8,24.6,52.7,25.8,54.1,27.5z M54.2,27.7c-1.3-0.4-3.1-1.3-4.8-2.4l-0.8-0.5l0.5-0.9c0.5-0.8,1-1.5,1.6-2.3
					c0.3-0.4,0.6-0.7,0.9-1.1c0.3-0.4,0.6-0.7,1-1l0.5-0.5l0.3,0.4c0.6,0.7,1.3,1.4,2.1,2c0.8,0.5,1.7,0.9,2.6,1.3l0.6,0.3l-0.5,0.8
					c-0.5,0.9-1.3,1.6-2,2.3C55.6,26.7,54.8,27.3,54.2,27.7z"/>
			</g>
		</g>
		<path class="st1" d="M24.2,48.6c-0.9,0-1.5-0.7-1.5-1.6c0-0.9,0.7-1.6,1.6-1.6c0.9,0,1.6,0.8,1.6,1.6C25.7,47.9,25,48.6,24.2,48.6
			z"/>
	</g>
	<path class="st1" d="M59.5,76.3c0.2-2-0.4-2.6-2.2-2.6c-7.1,0-14.3,0-21.4,0c-1.7,0-2.4,0.8-2,2.6C42.4,76.3,51,76.3,59.5,76.3z"/>
	<path class="st1" d="M42.7,70.4c2.7,0,5.3,0,8,0c-0.6-2.7-1.2-5.2-1.8-7.8c-1.5,0-2.9,0-4.3,0C43.9,65.2,43.3,67.8,42.7,70.4z"/>
</g>
</svg>
