<?xml version="1.0" encoding="utf-8"?>
<!-- Generator: Adobe Illustrator 25.2.1, SVG Export Plug-In . SVG Version: 6.00 Build 0)  -->
<svg version="1.1" id="Layer_1" xmlns="http://www.w3.org/2000/svg" xmlns:xlink="http://www.w3.org/1999/xlink" x="0px" y="0px" height="500px" width="500px"
	 viewBox="0 0 500 500" style="enable-background:new 0 0 500 500;" xml:space="preserve">
<style type="text/css">
	.st0{fill:#E3E5E8;}
	.st1{fill:#D4D5D6;}
	.st2{fill:#C6C6C6;}
	.st3{fill:#2543B1;}
	.st4{fill:#0070D4;}
	.st5{fill:#1E93D9;}
	.st6{fill:none;stroke:#1E93D9;stroke-miterlimit:10;}
	.st7{opacity:0.5;fill:#1E93D9;enable-background:new    ;}
	.st8{fill:#CC8E05;}
	.st9{opacity:0.5;}
	.st10{fill:#E2AF5D;}
	.st11{fill:#FCBB8C;}
	.st12{fill:#FB927E;}
	.st13{fill:#3C3C48;}
	.st14{fill:#445279;}
	.st15{fill:#E505E5;}
	.st16{fill:#AA00D3;}
	.st17{fill:#FFFFFF;}
	.st18{fill:#E6765D;}
	.st19{fill:#37054C;}
	.st20{fill:#343435;}
	.st21{fill:#CCCCCC;}
	.st22{fill:#442402;}
	.st23{fill:#1A100E;}
	.st24{fill:#FFB703;}
	.st25{fill:#444444;}
	.st26{fill:#939393;}
	.st27{fill:#045999;}
	.st28{fill:#603E02;}
	.st29{fill:#10E04B;}
	.st30{fill:#04BA3C;}
	.st31{opacity:0.15;}
</style>
<g id="Illustration_1_">
	<g>
		<g>
			<ellipse class="st0" cx="255" cy="401.7" rx="196.9" ry="12.5"/>
		</g>
		<g>
			<g>
				<path class="st1" d="M250.6,397.1c11.9-15.4,41.3-57.2,25-77.8c-6.2-7.8-20.1-4.7-22.6,25.7c-1.8,21.4-9.7,42.9-13.5,52H250.6z"
					/>
				<g>
					<path class="st2" d="M245,397.1c7.7-13.1,13.1-27,16.4-37.2c4.5-13.7,6.4-24,6.5-24.1c0-0.3-0.2-0.7-0.5-0.8
						c-0.3,0-0.7,0.2-0.8,0.5c0,0.1-1.9,10.3-6.4,23.9c-3.4,10.3-8.8,24.4-16.7,37.6H245z"/>
				</g>
			</g>
			<g>
				<path class="st0" d="M329.4,309c-4.7-13.7-25.1-16.2-43.3,24.2c-12.5,27.8-33.3,52.9-43.1,63.9h23.6
					C293.7,378.5,340.4,341,329.4,309z"/>
				<g>
					<g>
						<path class="st1" d="M310.5,326.5c-0.5-0.3-1.1-0.1-1.3,0.3c-0.1,0.1-7.6,13.1-20.3,29.5c-9,11.7-22.2,27.1-38.1,40.7h3
							c15.2-13.4,27.9-28.2,36.6-39.6c12.8-16.6,20.3-29.6,20.4-29.7C311.1,327.4,311,326.8,310.5,326.5z"/>
					</g>
				</g>
			</g>
			<g>
				<path class="st1" d="M96.1,389.8c-0.1,2.8,0.5,5.6,1.6,8h26.2c6.7-6.1,8.6-16,4.2-24.2c-2-3.6-4.9-6.5-9.5-7
					c-14.2-1.7-4.2-12.4-9.4-21c-6-9.9-16.4-6.1-20.1-13.8c-5.1-10.9-20.1-16.5-21.6-3.4c-1.5,13.1,10.3,17.7,6,27.1
					c-4.3,9.3-1.4,19,7.5,20.8C89.8,378,96.4,378.8,96.1,389.8z"/>
				<g>
					<path class="st2" d="M120.1,397.7l-38.1-59c-0.3-0.5-0.9-0.6-1.4-0.3c-0.5,0.3-0.6,0.9-0.3,1.4l37.4,57.9L120.1,397.7
						L120.1,397.7L120.1,397.7z"/>
				</g>
			</g>
			<g>
				<path class="st0" d="M102.2,355.3c9,6.7,16,11.2,9.8,23.2c-3.3,6.4-3.2,13.8-0.7,19.2h36c5.9-4.8,9.5-12.2,9.1-20.3
					c-0.3-5.1-2.1-9.8-6.9-12.9c-15-9.4,1.9-16.1,0.6-28.5c-1.4-14.2-15.1-15.5-15.1-26.2c0.1-14.8-13.6-29.2-22.4-15.4
					c-8.7,13.8,2,25.2-7.8,33.4C95.2,336.2,93.2,348.6,102.2,355.3z"/>
				<g>
					<path class="st1" d="M131.7,397.7h2.5L123.6,314c-0.1-0.7-0.7-1.2-1.4-1.1s-1.2,0.7-1.1,1.4L131.7,397.7z"/>
				</g>
			</g>
			<g>
				<g>
					<path class="st1" d="M197.9,393.1c-23-56.3-30.1-96.1-20.5-115.5c0.4-0.8,0-1.7-0.7-2.1s-1.7,0-2.1,0.7
						c-5.8,11.7-5.9,29.9-0.5,54.3c4,17.8,10.8,38.8,20.5,62.6H197.9z"/>
				</g>
				<path class="st0" d="M171,308.5c0,0-12.4,4.2-18.8-18C152.2,290.5,173,289.5,171,308.5z"/>
				<path class="st0" d="M173.7,320c0,0-4.8-12.1,16.9-19.8C190.6,300.2,192.7,320.9,173.7,320z"/>
				<path class="st0" d="M172.9,286.3c0,0-8.6-9.8,9.3-24.3C182.2,262,191.1,280.8,172.9,286.3z"/>
				<path class="st0" d="M178.5,343.4c0,0-10.3,8.1-23.8-10.5C154.7,332.9,173.9,325,178.5,343.4z"/>
				<path class="st0" d="M183.1,354.8c0,0-6.8-11.1,13.2-22.5C196.3,332.3,202,352.3,183.1,354.8z"/>
				<path class="st0" d="M187.8,370.9c0,0-10.1,8.3-24-10C163.8,360.9,182.9,352.6,187.8,370.9z"/>
			</g>
			<g>
				<g>
					<path class="st1" d="M326.3,395.5c37.5-47.8,55.2-84.2,51.3-105.6c-0.1-0.8,0.4-1.7,1.3-1.8c0.8-0.1,1.7,0.4,1.8,1.3
						c2.3,12.8-2.4,30.4-14.3,52.4c-8.7,16-21,34.3-36.8,54.6L326.3,395.5z"/>
				</g>
				<path class="st0" d="M375.3,321.4c0,0,10.8,7.4,23-12.1C398.3,309.3,378.6,302.7,375.3,321.4z"/>
				<path class="st0" d="M369.5,331.8c0,0,8-10.4-10.8-23.7C358.7,308.1,351,327.5,369.5,331.8z"/>
				<path class="st0" d="M379.5,299.5c0,0,11-7.1-2.3-25.9C377.2,273.6,363.5,289.2,379.5,299.5z"/>
				<path class="st0" d="M358.5,353c0,0,7.7,10.6,25.8-3.6C384.2,349.4,367.9,336.5,358.5,353z"/>
				<path class="st0" d="M351,362.7c0,0,9.6-8.9-6.6-25.2C344.4,337.5,333.5,355.2,351,362.7z"/>
				<path class="st0" d="M342,376.9c0,0,7.4,10.8,25.8-3.1C367.9,373.8,351.8,360.6,342,376.9z"/>
			</g>
		</g>
		<g>
			<g>
				<g>
					<g>
						<g>
							<path class="st3" d="M426.8,228.8c2.2,0,4,1.8,4,4c0,2.2-1.8,4-4,4c-2.2,0-4-1.8-4-4C422.8,230.6,424.6,228.8,426.8,228.8z
								 M426.8,235.6c1.5,0,2.7-1.2,2.7-2.7c0-1.5-1.2-2.7-2.7-2.7c-1.5,0-2.7,1.2-2.7,2.7C424.1,234.4,425.3,235.6,426.8,235.6z"/>
						</g>
						<g>
							<g>
								<g>
									<g>
										<path class="st4" d="M410.5,223.5c2.2,0,4,1.8,4,4s-1.8,4-4,4c-2.2,0-4-1.8-4-4S408.3,223.5,410.5,223.5z M410.5,230.2
											c1.5,0,2.7-1.2,2.7-2.7s-1.2-2.7-2.7-2.7c-1.5,0-2.7,1.2-2.7,2.7C407.8,229,409,230.2,410.5,230.2z"/>
									</g>
								</g>
							</g>
						</g>
						<g>
							<g>
								<g>
									<path class="st5" d="M406,210.3c0.3,0,0.6,0.3,0.6,0.6v2.8c0,0.3-0.3,0.6-0.6,0.6c-0.3,0-0.6-0.3-0.6-0.6v-2.8
										C405.4,210.6,405.7,210.3,406,210.3z"/>
								</g>
								<g>
									<path class="st5" d="M406,205.5c0.3,0,0.6,0.3,0.6,0.6v2.8c0,0.3-0.3,0.6-0.6,0.6c-0.3,0-0.6-0.3-0.6-0.6v-2.8
										C405.4,205.7,405.7,205.5,406,205.5z"/>
								</g>
							</g>
							<g>
								<g>
									<path class="st5" d="M402.1,209.3h2.5c0.3,0,0.6,0.3,0.6,0.6c0,0.3-0.3,0.6-0.6,0.6h-2.5c-0.3,0-0.6-0.3-0.6-0.6
										C401.5,209.5,401.7,209.3,402.1,209.3z"/>
								</g>
								<g>
									<g>
										<g>
											<path class="st5" d="M407.4,209.3h2.5c0.3,0,0.6,0.3,0.6,0.6c0,0.3-0.3,0.6-0.6,0.6h-2.5c-0.3,0-0.6-0.3-0.6-0.6
												C406.8,209.5,407,209.3,407.4,209.3z"/>
										</g>
									</g>
								</g>
							</g>
						</g>
						<g>
							<g>
								<g>
									<g>
										<g>
											<path class="st4" d="M422.9,214.7c0.3,0,0.6,0.3,0.6,0.6v2.8c0,0.3-0.3,0.6-0.6,0.6c-0.3,0-0.6-0.3-0.6-0.6v-2.8
												C422.3,215,422.6,214.7,422.9,214.7z"/>
										</g>
									</g>
									<g>
										<g>
											<path class="st4" d="M422.9,209.9c0.3,0,0.6,0.3,0.6,0.6v2.8c0,0.3-0.3,0.6-0.6,0.6c-0.3,0-0.6-0.3-0.6-0.6v-2.8
												C422.3,210.1,422.6,209.9,422.9,209.9z"/>
										</g>
									</g>
								</g>
								<g>
									<g>
										<g>
											<path class="st4" d="M419.1,213.7h2.5c0.3,0,0.6,0.3,0.6,0.6c0,0.3-0.3,0.6-0.6,0.6h-2.5c-0.3,0-0.6-0.3-0.6-0.6
												C418.4,214,418.7,213.7,419.1,213.7z"/>
										</g>
									</g>
									<g>
										<g>
											<path class="st4" d="M424.3,213.7h2.5c0.3,0,0.6,0.3,0.6,0.6c0,0.3-0.3,0.6-0.6,0.6h-2.5c-0.3,0-0.6-0.3-0.6-0.6
												S424,213.7,424.3,213.7z"/>
										</g>
									</g>
								</g>
							</g>
						</g>
					</g>
				</g>
			</g>
			<g>
				<g>
					<g>
						<g>
							<path class="st3" d="M84.8,243.4c0,2.2-1.8,4-4,4s-4-1.8-4-4s1.8-4,4-4S84.8,241.2,84.8,243.4z M83.5,243.4
								c0-1.5-1.2-2.7-2.7-2.7s-2.7,1.2-2.7,2.7s1.2,2.7,2.7,2.7S83.5,244.9,83.5,243.4z"/>
						</g>
						<g>
							<g>
								<g>
									<g>
										<path class="st4" d="M101.2,238c0,2.2-1.8,4-4,4s-4-1.8-4-4s1.8-4,4-4S101.2,235.8,101.2,238z M99.9,238
											c0-1.5-1.2-2.7-2.7-2.7c-1.5,0-2.7,1.2-2.7,2.7s1.2,2.7,2.7,2.7C98.7,240.7,99.9,239.5,99.9,238z"/>
									</g>
								</g>
							</g>
						</g>
						<g>
							<g>
								<g>
									<path class="st5" d="M101.6,220.8c-0.3,0-0.6,0.3-0.6,0.6v2.8c0,0.3,0.3,0.6,0.6,0.6s0.6-0.3,0.6-0.6v-2.8
										C102.3,221.1,102,220.8,101.6,220.8z"/>
								</g>
								<g>
									<path class="st5" d="M101.6,216c-0.3,0-0.6,0.3-0.6,0.6v2.8c0,0.3,0.3,0.6,0.6,0.6s0.6-0.3,0.6-0.6v-2.8
										C102.3,216.3,102,216,101.6,216z"/>
								</g>
							</g>
							<g>
								<g>
									<path class="st5" d="M105.5,219.8H103c-0.3,0-0.6,0.3-0.6,0.6c0,0.3,0.3,0.6,0.6,0.6h2.5c0.3,0,0.6-0.3,0.6-0.6
										S105.9,219.8,105.5,219.8z"/>
								</g>
								<g>
									<g>
										<g>
											<path class="st5" d="M100.2,219.8h-2.5c-0.3,0-0.6,0.3-0.6,0.6c0,0.3,0.3,0.6,0.6,0.6h2.5c0.3,0,0.6-0.3,0.6-0.6
												C100.9,220.1,100.6,219.8,100.2,219.8z"/>
										</g>
									</g>
								</g>
							</g>
						</g>
						<g>
							<g>
								<g>
									<g>
										<g>
											<path class="st4" d="M84.7,225.3c-0.3,0-0.6,0.3-0.6,0.6v2.8c0,0.3,0.3,0.6,0.6,0.6s0.6-0.3,0.6-0.6v-2.8
												C85.3,225.6,85.1,225.3,84.7,225.3z"/>
										</g>
									</g>
									<g>
										<g>
											<path class="st4" d="M84.7,220.4c-0.3,0-0.6,0.3-0.6,0.6v2.8c0,0.3,0.3,0.6,0.6,0.6s0.6-0.3,0.6-0.6v-2.8
												C85.3,220.7,85.1,220.4,84.7,220.4z"/>
										</g>
									</g>
								</g>
								<g>
									<g>
										<g>
											<path class="st4" d="M88.6,224.2h-2.5c-0.3,0-0.6,0.3-0.6,0.6c0,0.3,0.3,0.6,0.6,0.6h2.5c0.3,0,0.6-0.3,0.6-0.6
												C89.2,224.5,88.9,224.2,88.6,224.2z"/>
										</g>
									</g>
									<g>
										<g>
											<path class="st4" d="M83.3,224.2h-2.5c-0.3,0-0.6,0.3-0.6,0.6c0,0.3,0.3,0.6,0.6,0.6h2.5c0.3,0,0.6-0.3,0.6-0.6
												C83.9,224.5,83.6,224.2,83.3,224.2z"/>
										</g>
									</g>
								</g>
							</g>
						</g>
					</g>
				</g>
			</g>
			<g>
				<g>
					<g>
						<path class="st6" d="M279.5,225.9v12.2c0,1.6,1.3,2.9,2.9,2.9h22.2l6.7,2.4c0.7,0.2,1.4-0.4,1.1-1.1l-2.5-6.6v-9.9
							c0-1.6-1.3-2.9-2.9-2.9h-24.6C280.8,223.1,279.5,224.3,279.5,225.9z"/>
					</g>
				</g>
				<g>
					<path class="st7" d="M298.8,232.5c0,1.2,0.9,2.1,2.1,2.1c1.2,0,2.1-0.9,2.1-2.1c0-1.2-0.9-2.1-2.1-2.1
						C299.7,230.3,298.8,231.3,298.8,232.5z"/>
					<path class="st7" d="M292,232.5c0,1.2,0.9,2.1,2.1,2.1c1.2,0,2.1-0.9,2.1-2.1c0-1.2-0.9-2.1-2.1-2.1
						C293,230.3,292,231.3,292,232.5z"/>
					<path class="st7" d="M285.3,232.5c0,1.2,0.9,2.1,2.1,2.1c1.2,0,2.1-0.9,2.1-2.1c0-1.2-0.9-2.1-2.1-2.1
						C286.3,230.3,285.3,231.3,285.3,232.5z"/>
				</g>
			</g>
		</g>
		<g>
			<g>
				<path class="st0" d="M444.8,288l-4-3.8l-3.6,3.7c-1.1-0.7-2.3-1.2-3.7-1.6l-0.1-5l-5.5,0.1l0.1,4.8c-1.7,0.3-3.2,1-4.5,2
					l-3.7-3.6l-3.8,4l3.9,3.7c-0.5,1-1,2-1.2,3.1l-5,0.1l0.1,5.5l4.8-0.1c0.3,1.7,1,3.2,2,4.5l-3.1,3.3l4,3.8l3.2-3.4
					c1.2,0.7,2.6,1.2,4,1.4l0.1,4.8l5.5,0l-0.1-5c1.5-0.4,2.9-1.2,4.2-2.2l3.8,3.6l3.8-4l-4.1-3.9c0.5-1.1,0.9-2.3,1.1-3.4l4.8-0.1
					l-0.1-5.5l-5,0.1c-0.3-1.1-0.8-2.1-1.4-3L444.8,288z M435.7,298.2c0,2.8-2.2,5.1-4.9,5.1c-2.8,0-5.1-2.2-5.1-4.9
					c0-2.8,2.2-5.1,4.9-5.1C433.3,293.3,435.6,295.5,435.7,298.2z"/>
				<path class="st0" d="M433.9,263.6l-2.2-2.1l-2,2.1c-0.6-0.4-1.3-0.7-2-0.8l0-2.7l-3,0l0,2.6c-0.9,0.2-1.8,0.5-2.5,1.1l-2.1-2
					l-2.1,2.2l2.1,2c-0.3,0.5-0.5,1.1-0.7,1.7l-2.7,0l0,3l2.6,0c0.2,0.9,0.5,1.8,1.1,2.5L419,275l2.2,2.1l1.8-1.9
					c0.7,0.4,1.4,0.6,2.2,0.8l0,2.6l3,0l0-2.7c0.8-0.2,1.6-0.6,2.3-1.2l2.1,2l2.1-2.2l-2.2-2.1c0.3-0.6,0.5-1.2,0.6-1.9l2.6,0l0-3
					l-2.7,0c-0.2-0.6-0.4-1.2-0.7-1.7L433.9,263.6z M428.9,269.2c0,1.5-1.2,2.8-2.7,2.8c-1.5,0-2.8-1.2-2.8-2.7
					c0-1.5,1.2-2.8,2.7-2.8C427.6,266.5,428.9,267.7,428.9,269.2z"/>
			</g>
			<g>
				<path class="st0" d="M109.2,174c0.9-0.6,1.7-1.4,2.4-2.3l4.6,2.1l2.3-5l-4.4-2c0.3-1.2,0.4-2.4,0.3-3.6l5.2-2l-2-5.1l-4.8,1.9
					c-0.7-1.4-1.8-2.5-3-3.6l2.1-4.6l-5-2.3l-2,4.4c-1.4-0.3-2.9-0.4-4.3-0.2l-1.7-4.4l-5.1,2l1.6,4.2c-1.4,0.9-2.6,2-3.6,3.4
					l-4.4-2l-2.3,5l4.6,2.1c-0.2,1.1-0.2,2.3,0,3.3l-4.9,1.9l2,5.1l4.8-1.9c0.9,1.4,2,2.6,3.4,3.6l-2,4.4l5,2.3l2.1-4.6
					c1.4,0.2,2.7,0.2,4,0l1.9,4.8l5.1-2L109.2,174z M100,168.5c-2.5-1.1-3.7-4.1-2.5-6.7s4.1-3.7,6.7-2.5c2.5,1.1,3.7,4.1,2.5,6.7
					C105.6,168.5,102.6,169.6,100,168.5z"/>
				<path class="st0" d="M127,147.8c0.5-0.3,0.9-0.8,1.3-1.3l2.5,1.1l1.2-2.7l-2.4-1.1c0.1-0.6,0.2-1.3,0.1-2l2.9-1.1l-1.1-2.8
					l-2.6,1c-0.4-0.7-1-1.4-1.6-2l1.1-2.5l-2.7-1.2l-1.1,2.4c-0.8-0.2-1.6-0.2-2.3-0.1l-0.9-2.4l-2.8,1.1l0.9,2.3
					c-0.7,0.5-1.4,1.1-2,1.9l-2.4-1.1l-1.2,2.7l2.5,1.1c-0.1,0.6-0.1,1.2,0,1.8l-2.7,1l1.1,2.8l2.6-1c0.5,0.7,1.1,1.4,1.9,2
					l-1.1,2.4l2.7,1.2l1.1-2.5c0.7,0.1,1.5,0.1,2.2,0l1,2.6l2.8-1.1L127,147.8z M121.9,144.8c-1.4-0.6-2-2.3-1.4-3.6
					c0.6-1.4,2.3-2,3.6-1.4c1.4,0.6,2,2.3,1.4,3.6C124.9,144.8,123.3,145.4,121.9,144.8z"/>
			</g>
			<path class="st0" d="M310.3,139.4c0,1.3-0.5,2.5-1.4,3.3c-0.8,0.9-2.1,1.4-3.3,1.4H204.2c-2.6,0-4.7-2.2-4.7-4.7
				c0-1.3,0.5-2.5,1.4-3.3c0.8-0.9,2.1-1.4,3.3-1.4h4.8c1.9-4.4,6.3-7.5,11.3-7.5c3.4,0,6.5,1.4,8.8,3.6c3-5.1,8.5-8.5,14.8-8.5
				c1.7,0,3.4,0.2,5,0.7c3.3-6.2,9.8-10.4,17.3-10.4c9,0,16.6,6.1,18.9,14.4c1.7-0.8,3.5-1.3,5.5-1.3c5.6,0,10.4,3.8,11.9,8.9h3
				C308.1,134.7,310.3,136.8,310.3,139.4z"/>
			<path class="st0" d="M427.4,110.2c0,1.1-0.4,2-1.1,2.7c-0.7,0.7-1.7,1.1-2.7,1.1h-82.2c-2.1,0-3.8-1.7-3.8-3.9
				c0-1.1,0.4-2,1.1-2.7c0.7-0.7,1.7-1.1,2.7-1.1h3.9c1.5-3.6,5.1-6.1,9.2-6.1c2.8,0,5.3,1.1,7.1,2.9c2.4-4.1,6.9-6.8,12-6.8
				c1.4,0,2.7,0.2,4,0.6c2.7-5,8-8.5,14-8.5c7.3,0,13.5,4.9,15.3,11.6c1.4-0.7,2.9-1.1,4.5-1.1c4.5,0,8.4,3,9.6,7.2h2.5
				C425.7,106.3,427.4,108.1,427.4,110.2z"/>
			<path class="st0" d="M162.1,104.6c0,1.1-0.4,2-1.1,2.7s-1.7,1.1-2.7,1.1H76.1c-2.1,0-3.8-1.7-3.8-3.9c0-1.1,0.4-2,1.1-2.7
				c0.7-0.7,1.7-1.1,2.7-1.1h3.9c1.5-3.6,5.1-6.1,9.2-6.1c2.8,0,5.3,1.1,7.1,2.9c2.4-4.1,6.9-6.8,12-6.8c1.4,0,2.7,0.2,4,0.6
				c2.7-5,8-8.5,14-8.5c7.3,0,13.5,4.9,15.3,11.6c1.4-0.7,2.9-1.1,4.5-1.1c4.5,0,8.4,3,9.6,7.2h2.5
				C160.3,100.7,162.1,102.5,162.1,104.6z"/>
			<g>
				<path class="st1" d="M371.7,218.3c0.2,0.2,0.5,0.4,0.8,0.4c0.2,0,0.4,0,0.6-0.2c0.4-0.3,0.5-1,0.2-1.4c-1-1.3-2-2.6-3-3.9
					c-0.3-0.4-1-0.5-1.4-0.1c-0.4,0.3-0.5,1-0.1,1.4C369.7,215.7,370.7,217,371.7,218.3z"/>
				<path class="st1" d="M352.3,197.4c0.2,0.1,0.4,0.2,0.7,0.2c0.3,0,0.5-0.1,0.7-0.3c0.4-0.4,0.3-1-0.1-1.4
					c-1.2-1.1-2.5-2.2-3.7-3.2c-0.4-0.3-1.1-0.3-1.4,0.1c-0.3,0.4-0.3,1.1,0.1,1.4C349.9,195.3,351.2,196.4,352.3,197.4z"/>
				<path class="st1" d="M129,399.9c0.4-0.3,0.5-0.9,0.2-1.4c-0.9-1.3-1.9-2.6-2.8-4c-0.3-0.4-0.9-0.6-1.4-0.2
					c-0.4,0.3-0.6,0.9-0.3,1.4c0.9,1.4,1.9,2.7,2.8,4c0.1,0.1,0.2,0.2,0.3,0.3L129,399.9C129,400,129,400,129,399.9z"/>
				<path class="st1" d="M359.2,204c0.2,0.2,0.4,0.3,0.7,0.3c0.2,0,0.5-0.1,0.7-0.3c0.4-0.4,0.4-1,0-1.4c-1.1-1.2-2.3-2.3-3.5-3.5
					c-0.4-0.4-1-0.3-1.4,0c-0.4,0.4-0.3,1,0,1.4C356.9,201.7,358.1,202.9,359.2,204z"/>
				<path class="st1" d="M382.3,234.1c0.2,0.3,0.5,0.5,0.9,0.5c0.2,0,0.3,0,0.5-0.1c0.5-0.3,0.6-0.9,0.3-1.4
					c-0.8-1.4-1.7-2.8-2.5-4.2c-0.3-0.5-0.9-0.6-1.4-0.3c-0.5,0.3-0.6,0.9-0.3,1.4C380.6,231.3,381.4,232.7,382.3,234.1z"/>
				<path class="st1" d="M376.8,396.7c0.2,0.1,0.4,0.2,0.6,0.2c0.3,0,0.6-0.1,0.8-0.4c0.9-1.4,1.9-2.7,2.7-4.1
					c0.3-0.5,0.1-1.1-0.3-1.4c-0.5-0.3-1.1-0.1-1.4,0.3c-0.9,1.4-1.8,2.7-2.7,4.1C376.2,395.7,376.4,396.3,376.8,396.7z"/>
				<path class="st1" d="M375.6,400c0.1-0.4,0-0.9-0.3-1.2c-0.4-0.3-1.1-0.2-1.4,0.2c-0.2,0.3-0.5,0.6-0.7,1H375.6z"/>
				<path class="st1" d="M377.2,226c0.2,0.3,0.5,0.4,0.8,0.4c0.2,0,0.4,0,0.5-0.1c0.4-0.3,0.6-0.9,0.3-1.4c-0.9-1.4-1.9-2.7-2.8-4.1
					c-0.3-0.4-0.9-0.5-1.4-0.2c-0.4,0.3-0.5,0.9-0.2,1.4C375.4,223.4,376.4,224.7,377.2,226z"/>
				<path class="st1" d="M365.7,211c0.2,0.2,0.5,0.3,0.7,0.3c0.2,0,0.5-0.1,0.6-0.2c0.4-0.3,0.4-1,0.1-1.4c-1.1-1.2-2.2-2.4-3.3-3.7
					c-0.4-0.4-1-0.4-1.4,0c-0.4,0.4-0.4,1,0,1.4C363.5,208.5,364.6,209.8,365.7,211z"/>
				<path class="st1" d="M299.1,166.6c1.5,0.5,3.1,1,4.6,1.6c0.1,0,0.2,0,0.3,0c0.4,0,0.8-0.2,0.9-0.6c0.2-0.5-0.1-1.1-0.6-1.3
					c-1.5-0.6-3.1-1.1-4.6-1.6c-0.5-0.2-1.1,0.1-1.3,0.6C298.3,165.9,298.6,166.5,299.1,166.6z"/>
				<path class="st1" d="M308,169.9c1.5,0.6,3,1.2,4.5,1.9c0.1,0,0.2,0.1,0.4,0.1c0.4,0,0.7-0.2,0.9-0.6c0.2-0.5,0-1.1-0.5-1.3
					c-1.5-0.6-3-1.3-4.5-1.9c-0.5-0.2-1.1,0-1.3,0.5C307.3,169.1,307.5,169.7,308,169.9z"/>
				<path class="st1" d="M261.9,159.4c1.6,0.1,3.2,0.2,4.8,0.4c0,0,0,0,0.1,0c0.5,0,0.9-0.4,1-0.9c0-0.5-0.3-1-0.9-1.1
					c-1.6-0.1-3.3-0.3-4.9-0.4c-0.5,0-1,0.4-1.1,0.9C260.9,158.9,261.4,159.4,261.9,159.4z"/>
				<path class="st1" d="M341.2,188.4c1.3,1,2.6,2,3.9,2.9c0.2,0.1,0.4,0.2,0.6,0.2c0.3,0,0.6-0.1,0.8-0.4c0.3-0.4,0.2-1.1-0.1-1.4
					c-1.3-1-2.6-2-3.9-3c-0.4-0.3-1.1-0.2-1.4,0.2C340.7,187.5,340.8,188.1,341.2,188.4z"/>
				<path class="st1" d="M280.7,161.8c1.6,0.3,3.2,0.6,4.7,1c0.1,0,0.1,0,0.2,0c0.4,0,0.9-0.3,1-0.8c0.1-0.5-0.2-1.1-0.7-1.2
					c-1.6-0.3-3.2-0.7-4.8-1c-0.5-0.1-1.1,0.2-1.2,0.8C279.8,161.2,280.2,161.7,280.7,161.8z"/>
				<path class="st1" d="M333.4,183c1.4,0.9,2.7,1.8,4.1,2.7c0.2,0.1,0.4,0.2,0.6,0.2c0.3,0,0.6-0.1,0.8-0.4
					c0.3-0.4,0.2-1.1-0.2-1.4c-1.3-0.9-2.7-1.9-4.1-2.7c-0.5-0.3-1.1-0.1-1.4,0.3C332.8,182.1,332.9,182.7,333.4,183z"/>
				<path class="st1" d="M316.8,173.8c1.5,0.7,2.9,1.4,4.4,2.2c0.1,0.1,0.3,0.1,0.4,0.1c0.3,0,0.7-0.2,0.9-0.5
					c0.2-0.5,0-1.1-0.4-1.4c-1.5-0.7-2.9-1.5-4.4-2.2c-0.5-0.2-1.1,0-1.3,0.5C316,172.9,316.2,173.5,316.8,173.8z"/>
				<path class="st1" d="M325.2,178.1c1.4,0.8,2.8,1.6,4.2,2.4c0.1,0.1,0.3,0.1,0.5,0.1c0.3,0,0.7-0.2,0.9-0.5
					c0.3-0.5,0.1-1.1-0.3-1.4c-1.4-0.8-2.8-1.7-4.3-2.5c-0.5-0.3-1.1-0.1-1.4,0.4C324.6,177.2,324.8,177.8,325.2,178.1z"/>
				<path class="st1" d="M290,163.9c1.6,0.4,3.1,0.8,4.7,1.3c0.1,0,0.2,0,0.3,0c0.4,0,0.8-0.3,1-0.7c0.1-0.5-0.1-1.1-0.7-1.2
					c-1.6-0.4-3.2-0.9-4.7-1.3c-0.5-0.1-1.1,0.2-1.2,0.7C289.1,163.2,289.4,163.8,290,163.9z"/>
				<path class="st1" d="M392.2,365.8c-0.6,1.5-1.2,3-1.9,4.5c-0.2,0.5,0,1.1,0.5,1.3c0.1,0,0.2,0.1,0.4,0.1c0.4,0,0.7-0.2,0.9-0.6
					c0.6-1.5,1.3-3,1.9-4.5c0.2-0.5,0-1.1-0.5-1.3C393,365.1,392.4,365.3,392.2,365.8z"/>
				<path class="st1" d="M395.4,356.9c-0.5,1.5-1,3.1-1.6,4.6c-0.2,0.5,0.1,1.1,0.6,1.3c0.1,0,0.2,0,0.3,0c0.4,0,0.8-0.2,0.9-0.7
					c0.5-1.6,1.1-3.1,1.6-4.7c0.1-0.5-0.1-1.1-0.6-1.3C396.2,356,395.6,356.3,395.4,356.9z"/>
				<path class="st1" d="M389.7,374.1c-0.5-0.2-1.1,0-1.3,0.5c-0.7,1.5-1.4,2.9-2.2,4.4c-0.2,0.5,0,1.1,0.4,1.4
					c0.1,0.1,0.3,0.1,0.4,0.1c0.3,0,0.7-0.2,0.9-0.5c0.7-1.5,1.5-2.9,2.2-4.5C390.5,374.9,390.3,374.3,389.7,374.1z"/>
				<path class="st1" d="M403.8,309.1c-0.5,0-1,0.4-1,1c0,1.6,0,3.2-0.1,4.8c0,0.5,0.4,1,1,1c0,0,0,0,0,0c0.5,0,1-0.4,1-1
					c0-1.6,0.1-3.3,0.1-4.9C404.8,309.5,404.3,309.1,403.8,309.1z"/>
				<path class="st1" d="M398.1,347.7c-0.4,1.6-0.8,3.1-1.3,4.7c-0.1,0.5,0.1,1.1,0.7,1.2c0.1,0,0.2,0,0.3,0c0.4,0,0.8-0.3,1-0.7
					c0.4-1.6,0.9-3.2,1.3-4.7c0.1-0.5-0.2-1.1-0.7-1.2C398.8,346.9,398.2,347.2,398.1,347.7z"/>
				<path class="st1" d="M381.6,387.2c-0.3,0.5-0.1,1.1,0.3,1.4c0.1,0.1,0.3,0.1,0.5,0.1c0.3,0,0.7-0.2,0.9-0.5
					c0.8-1.4,1.7-2.8,2.4-4.3c0.2-0.5,0.1-1.1-0.4-1.4c-0.5-0.2-1.1-0.1-1.4,0.4C383.3,384.4,382.5,385.9,381.6,387.2z"/>
				<path class="st1" d="M403.1,325.5c0.5,0,0.9-0.4,1-0.9c0.1-1.6,0.3-3.3,0.4-4.9c0-0.5-0.4-1-0.9-1.1c-0.5,0-1,0.4-1.1,0.9
					c-0.1,1.6-0.2,3.2-0.4,4.8c0,0.5,0.3,1,0.9,1.1C403.1,325.5,403.1,325.5,403.1,325.5z"/>
				<path class="st1" d="M400.1,338.5c-0.3,1.6-0.6,3.2-1,4.7c-0.1,0.5,0.2,1.1,0.8,1.2c0.1,0,0.1,0,0.2,0c0.4,0,0.9-0.3,1-0.8
					c0.3-1.6,0.7-3.2,1-4.8c0.1-0.5-0.2-1.1-0.8-1.2C400.8,337.6,400.2,337.9,400.1,338.5z"/>
				<path class="st1" d="M401.6,329.1c-0.2,1.6-0.4,3.2-0.7,4.8c-0.1,0.5,0.3,1.1,0.8,1.1c0,0,0.1,0,0.1,0c0.5,0,0.9-0.3,1-0.8
					c0.2-1.6,0.5-3.3,0.7-4.9c0-0.5-0.3-1-0.9-1.1C402.2,328.1,401.7,328.5,401.6,329.1z"/>
				<path class="st1" d="M390.8,251c0.1,0.4,0.5,0.6,0.9,0.6c0.1,0,0.2,0,0.4-0.1c0.5-0.2,0.7-0.8,0.5-1.3c-0.6-1.5-1.3-3-2-4.5
					c-0.2-0.5-0.8-0.7-1.3-0.5s-0.7,0.8-0.5,1.3C389.5,248,390.2,249.5,390.8,251z"/>
				<path class="st1" d="M392.6,255.3c0.6,1.5,1.2,3,1.7,4.5c0.1,0.4,0.5,0.7,0.9,0.7c0.1,0,0.2,0,0.3,0c0.5-0.2,0.8-0.7,0.6-1.3
					c-0.5-1.6-1.1-3.1-1.7-4.6c-0.2-0.5-0.8-0.8-1.3-0.6C392.6,254.2,392.3,254.8,392.6,255.3z"/>
				<path class="st1" d="M386.8,242.4c0.2,0.3,0.5,0.5,0.9,0.5c0.1,0,0.3,0,0.4-0.1c0.5-0.2,0.7-0.8,0.4-1.3
					c-0.7-1.5-1.5-2.9-2.3-4.4c-0.2-0.5-0.9-0.7-1.4-0.4c-0.5,0.2-0.7,0.9-0.4,1.4C385.3,239.5,386.1,241,386.8,242.4z"/>
				<path class="st1" d="M395.7,264.2c0.5,1.5,1,3.1,1.4,4.6c0.1,0.4,0.5,0.7,1,0.7c0.1,0,0.2,0,0.3,0c0.5-0.1,0.8-0.7,0.7-1.2
					c-0.4-1.6-0.9-3.2-1.4-4.7c-0.1-0.5-0.7-0.8-1.3-0.6C395.8,263.1,395.5,263.7,395.7,264.2z"/>
				<path class="st1" d="M398.3,273.3c0.4,1.6,0.8,3.1,1.1,4.7c0.1,0.5,0.5,0.8,1,0.8c0,0,0.1,0,0.2,0c0.5-0.1,0.9-0.6,0.8-1.2
					c-0.3-1.6-0.7-3.2-1.1-4.8c-0.1-0.5-0.7-0.9-1.2-0.7C398.5,272.3,398.2,272.8,398.3,273.3z"/>
				<path class="st1" d="M402.6,290.9c-0.5,0-0.9,0.6-0.9,1.1c0.2,1.6,0.3,3.2,0.5,4.8c0,0.5,0.5,0.9,1,0.9c0,0,0,0,0.1,0
					c0.5,0,1-0.5,0.9-1.1c-0.1-1.6-0.3-3.3-0.5-4.9C403.7,291.3,403.2,290.9,402.6,290.9z"/>
				<path class="st1" d="M402.5,301.5c0.1,1.6,0.1,3.2,0.2,4.8c0,0.5,0.4,1,1,1c0,0,0,0,0,0c0.5,0,1-0.5,1-1c0-1.6-0.1-3.3-0.2-4.9
					c0-0.5-0.5-1-1.1-0.9C402.9,300.4,402.5,300.9,402.5,301.5z"/>
				<path class="st1" d="M401.1,281.5c-0.5,0.1-0.9,0.6-0.8,1.2c0.3,1.6,0.5,3.2,0.8,4.8c0.1,0.5,0.5,0.8,1,0.8c0,0,0.1,0,0.1,0
					c0.5-0.1,0.9-0.6,0.8-1.1c-0.2-1.6-0.5-3.2-0.8-4.8C402.2,281.7,401.7,281.4,401.1,281.5z"/>
				<path class="st1" d="M271.3,160.3c1.6,0.2,3.2,0.4,4.8,0.7c0,0,0.1,0,0.1,0c0.5,0,0.9-0.3,1-0.8c0.1-0.5-0.3-1.1-0.8-1.1
					c-1.6-0.2-3.2-0.5-4.9-0.7c-0.5,0-1,0.3-1.1,0.9C270.4,159.8,270.8,160.3,271.3,160.3z"/>
				<path class="st1" d="M100.8,291.6c0,0,0.1,0,0.1,0c0.5,0,0.9-0.4,1-0.9c0.2-1.6,0.4-3.2,0.7-4.8c0.1-0.5-0.3-1.1-0.8-1.1
					c-0.5-0.1-1.1,0.3-1.1,0.8c-0.2,1.6-0.5,3.3-0.7,4.9C99.8,291,100.2,291.5,100.8,291.6z"/>
				<path class="st1" d="M110.2,254.6c0.1,0,0.2,0,0.4,0c0.4,0,0.8-0.2,0.9-0.6c0.6-1.5,1.2-3,1.9-4.5c0.2-0.5,0-1.1-0.5-1.3
					c-0.5-0.2-1.1,0-1.3,0.5c-0.6,1.5-1.3,3-1.9,4.5C109.4,253.8,109.6,254.4,110.2,254.6z"/>
				<path class="st1" d="M99.9,301.1L99.9,301.1c0.6,0,1-0.4,1-0.9c0.1-1.6,0.2-3.2,0.4-4.8c0-0.5-0.3-1-0.9-1.1s-1,0.3-1.1,0.9
					c-0.1,1.6-0.3,3.3-0.4,4.9C99,300.6,99.4,301.1,99.9,301.1z"/>
				<path class="st1" d="M100,320.2c0.5,0,1-0.5,0.9-1.1c-0.1-1.6-0.1-3.2-0.2-4.8c0-0.5-0.5-1-1-1s-1,0.5-1,1
					c0,1.6,0.1,3.3,0.2,4.9C99,319.8,99.4,320.2,100,320.2C100,320.2,100,320.2,100,320.2z"/>
				<path class="st1" d="M104.3,272.8c0.1,0,0.1,0,0.2,0c0.4,0,0.8-0.3,1-0.7c0.4-1.6,0.8-3.1,1.3-4.7c0.1-0.5-0.1-1.1-0.7-1.2
					c-0.5-0.1-1.1,0.1-1.2,0.7c-0.4,1.6-0.9,3.2-1.3,4.7C103.5,272.1,103.7,272.7,104.3,272.8z"/>
				<path class="st1" d="M106.9,263.6c0.1,0,0.2,0,0.3,0c0.4,0,0.8-0.2,0.9-0.7c0.5-1.5,1-3.1,1.6-4.6c0.2-0.5-0.1-1.1-0.6-1.3
					c-0.5-0.2-1.1,0.1-1.3,0.6c-0.5,1.5-1.1,3.1-1.6,4.6C106.1,262.9,106.4,263.4,106.9,263.6z"/>
				<path class="st1" d="M102.2,282.2c0,0,0.1,0,0.2,0c0.5,0,0.9-0.3,1-0.8c0.3-1.6,0.6-3.2,1-4.7c0.1-0.5-0.2-1.1-0.7-1.2
					c-0.5-0.1-1.1,0.2-1.2,0.7c-0.3,1.6-0.7,3.2-1,4.8C101.4,281.5,101.7,282.1,102.2,282.2z"/>
				<path class="st1" d="M100.9,329.8c0.5,0,0.9-0.6,0.9-1.1c-0.2-1.6-0.4-3.2-0.5-4.8c0-0.5-0.5-1-1.1-0.9c-0.5,0-1,0.5-0.9,1.1
					c0.1,1.6,0.3,3.3,0.5,4.9C99.9,329.3,100.3,329.7,100.9,329.8C100.9,329.8,100.9,329.8,100.9,329.8z"/>
				<path class="st1" d="M99.7,310.7L99.7,310.7c0.5,0,1-0.4,1-1c0-1.6,0-3.2,0.1-4.8c0-0.5-0.4-1-1-1c-0.5,0-1,0.4-1,1
					c0,1.6-0.1,3.3-0.1,4.9C98.7,310.2,99.1,310.7,99.7,310.7z"/>
				<path class="st1" d="M122,232.6c0.3-0.5,0.1-1.1-0.3-1.4c-0.5-0.3-1.1-0.1-1.4,0.3c-0.8,1.4-1.7,2.8-2.4,4.3
					c-0.2,0.5-0.1,1.1,0.4,1.4c0.1,0.1,0.3,0.1,0.5,0.1c0.3,0,0.7-0.2,0.9-0.5C120.4,235.4,121.2,234,122,232.6z"/>
				<path class="st1" d="M102.4,339.2c0.5-0.1,0.9-0.6,0.8-1.2c-0.3-1.6-0.6-3.2-0.8-4.8c-0.1-0.5-0.6-0.9-1.1-0.8s-0.9,0.6-0.8,1.1
					c0.2,1.6,0.5,3.2,0.8,4.8c0.1,0.5,0.5,0.8,1,0.8C102.3,339.2,102.4,339.2,102.4,339.2z"/>
				<path class="st1" d="M123.1,392.2c0.2,0,0.4,0,0.5-0.1c0.5-0.3,0.6-0.9,0.3-1.4c-0.9-1.4-1.7-2.7-2.5-4.2
					c-0.3-0.5-0.9-0.6-1.4-0.3s-0.6,0.9-0.3,1.4c0.8,1.4,1.7,2.8,2.5,4.2C122.4,392.1,122.8,392.2,123.1,392.2z"/>
				<path class="st1" d="M112.8,369.7c-0.2-0.5-0.8-0.7-1.3-0.5c-0.5,0.2-0.7,0.8-0.5,1.3c0.6,1.5,1.3,3,2,4.5
					c0.1,0.3,0.5,0.6,0.9,0.6c0.1,0,0.3,0,0.4-0.1c0.5-0.2,0.7-0.8,0.5-1.3C114.2,372.6,113.5,371.1,112.8,369.7z"/>
				<path class="st1" d="M116.9,378.2c-0.2-0.5-0.8-0.7-1.4-0.4c-0.5,0.2-0.7,0.8-0.4,1.4c0.7,1.5,1.5,2.9,2.3,4.4
					c0.2,0.3,0.5,0.5,0.9,0.5c0.1,0,0.3,0,0.5-0.1c0.5-0.2,0.7-0.9,0.4-1.4C118.4,381.1,117.6,379.7,116.9,378.2z"/>
				<path class="st1" d="M105.3,347.3c-0.4-1.6-0.8-3.2-1.1-4.7c-0.1-0.5-0.6-0.9-1.2-0.8c-0.5,0.1-0.9,0.6-0.8,1.2
					c0.3,1.6,0.7,3.2,1.1,4.8c0.1,0.4,0.5,0.7,1,0.7c0.1,0,0.1,0,0.2,0C105.1,348.4,105.4,347.8,105.3,347.3z"/>
				<path class="st1" d="M107.9,356.4c-0.5-1.5-1-3.1-1.4-4.6c-0.1-0.5-0.7-0.8-1.2-0.7c-0.5,0.1-0.8,0.7-0.7,1.2
					c0.4,1.6,0.9,3.2,1.4,4.7c0.1,0.4,0.5,0.7,0.9,0.7c0.1,0,0.2,0,0.3,0C107.8,357.5,108.1,356.9,107.9,356.4z"/>
				<path class="st1" d="M111.1,365.4c-0.6-1.5-1.2-3-1.7-4.5c-0.2-0.5-0.7-0.8-1.3-0.6c-0.5,0.2-0.8,0.8-0.6,1.3
					c0.5,1.5,1.1,3.1,1.7,4.6c0.1,0.4,0.5,0.6,0.9,0.6c0.1,0,0.2,0,0.3,0C111,366.5,111.3,365.9,111.1,365.4z"/>
				<path class="st1" d="M155.3,193.5c0.2,0,0.4-0.1,0.6-0.2c1.2-1,2.5-2.1,3.8-3c0.4-0.3,0.5-1,0.2-1.4s-1-0.5-1.4-0.2
					c-1.3,1-2.6,2-3.9,3.1c-0.4,0.3-0.5,1-0.1,1.4C154.8,193.4,155,193.5,155.3,193.5z"/>
				<path class="st1" d="M196.3,169.5c0.1,0,0.2,0,0.3,0c1.5-0.6,3-1.2,4.5-1.7c0.5-0.2,0.8-0.7,0.6-1.3s-0.7-0.8-1.3-0.6
					c-1.5,0.5-3.1,1.1-4.6,1.7c-0.5,0.2-0.8,0.8-0.6,1.3C195.6,169.3,195.9,169.5,196.3,169.5z"/>
				<path class="st1" d="M214.5,163.6c0.1,0,0.1,0,0.2,0c1.6-0.4,3.2-0.8,4.7-1.1c0.5-0.1,0.9-0.6,0.8-1.2c-0.1-0.5-0.6-0.9-1.2-0.8
					c-1.6,0.3-3.2,0.7-4.8,1.1c-0.5,0.1-0.9,0.7-0.7,1.2C213.7,163.3,214.1,163.6,214.5,163.6z"/>
				<path class="st1" d="M205.3,166.3c0.1,0,0.2,0,0.3,0c1.5-0.5,3.1-1,4.6-1.4c0.5-0.1,0.8-0.7,0.7-1.2c-0.1-0.5-0.7-0.8-1.2-0.7
					c-1.6,0.4-3.2,0.9-4.7,1.4c-0.5,0.1-0.8,0.7-0.6,1.3C204.5,166,204.9,166.3,205.3,166.3z"/>
				<path class="st1" d="M187.5,173.2c0.1,0,0.3,0,0.4-0.1c1.5-0.7,2.9-1.3,4.4-2c0.5-0.2,0.7-0.8,0.5-1.3c-0.2-0.5-0.8-0.7-1.3-0.5
					c-1.5,0.6-3,1.3-4.5,2c-0.5,0.2-0.7,0.8-0.5,1.3C186.8,173,187.2,173.2,187.5,173.2z"/>
				<path class="st1" d="M113.9,245.8c0.1,0,0.3,0.1,0.4,0.1c0.4,0,0.7-0.2,0.9-0.6c0.7-1.5,1.4-2.9,2.2-4.4c0.2-0.5,0-1.1-0.4-1.4
					c-0.5-0.2-1.1,0-1.4,0.4c-0.7,1.5-1.5,2.9-2.2,4.4C113.2,244.9,113.4,245.5,113.9,245.8z"/>
				<path class="st1" d="M179,177.5c0.1,0,0.3,0,0.5-0.1c1.4-0.8,2.8-1.5,4.3-2.3c0.5-0.2,0.7-0.8,0.4-1.3s-0.8-0.7-1.3-0.4
					c-1.5,0.7-2.9,1.5-4.4,2.3c-0.5,0.2-0.7,0.9-0.4,1.4C178.3,177.3,178.7,177.5,179,177.5z"/>
				<path class="st1" d="M223.9,161.6c0,0,0.1,0,0.2,0c1.6-0.3,3.2-0.6,4.8-0.8c0.5-0.1,0.9-0.6,0.8-1.1c-0.1-0.5-0.6-0.9-1.1-0.8
					c-1.6,0.2-3.2,0.5-4.8,0.8c-0.5,0.1-0.9,0.6-0.8,1.2C223,161.3,223.4,161.6,223.9,161.6z"/>
				<path class="st1" d="M233.3,160.2C233.4,160.2,233.4,160.2,233.3,160.2c1.7-0.2,3.3-0.3,4.9-0.5c0.5,0,1-0.5,0.9-1.1
					s-0.5-1-1.1-0.9c-1.6,0.1-3.3,0.3-4.9,0.5c-0.5,0-0.9,0.6-0.9,1.1C232.4,159.8,232.8,160.2,233.3,160.2z"/>
				<path class="st1" d="M242.8,159.3L242.8,159.3c1.7-0.1,3.3-0.1,4.9-0.2c0.5,0,1-0.5,1-1s-0.5-1-1-1c-1.6,0-3.3,0.1-4.9,0.2
					c-0.5,0-1,0.5-0.9,1.1C241.9,158.9,242.3,159.3,242.8,159.3z"/>
				<path class="st1" d="M128.5,221.1c0.2,0.1,0.4,0.2,0.6,0.2c0.3,0,0.6-0.1,0.8-0.4c1-1.3,2-2.6,2.9-3.9c0.3-0.4,0.2-1.1-0.1-1.4
					c-0.4-0.3-1.1-0.2-1.4,0.1c-1,1.3-2,2.6-3,3.9C128,220.1,128.1,220.7,128.5,221.1z"/>
				<path class="st1" d="M135,213.7c0.3,0,0.6-0.1,0.8-0.3c1-1.2,2.1-2.5,3.2-3.7c0.4-0.4,0.3-1-0.1-1.4c-0.4-0.4-1-0.3-1.4,0.1
					c-1.1,1.2-2.2,2.5-3.2,3.7c-0.3,0.4-0.3,1.1,0.1,1.4C134.5,213.6,134.8,213.7,135,213.7z"/>
				<path class="st1" d="M170.8,182.4c0.2,0,0.4,0,0.5-0.1c1.4-0.9,2.7-1.7,4.2-2.5c0.5-0.3,0.6-0.9,0.3-1.4
					c-0.3-0.5-0.9-0.6-1.4-0.3c-1.4,0.8-2.8,1.7-4.2,2.5c-0.5,0.3-0.6,0.9-0.3,1.4C170.1,182.2,170.5,182.4,170.8,182.4z"/>
				<path class="st1" d="M123.1,229c0.1,0.1,0.3,0.1,0.5,0.1c0.3,0,0.6-0.1,0.8-0.4c0.9-1.4,1.8-2.7,2.7-4.1
					c0.3-0.4,0.2-1.1-0.2-1.4c-0.4-0.3-1.1-0.2-1.4,0.2c-0.9,1.4-1.9,2.7-2.7,4.1C122.5,228.1,122.6,228.7,123.1,229z"/>
				<path class="st1" d="M141.3,206.5c0.2,0,0.5-0.1,0.7-0.3c1.1-1.2,2.3-2.3,3.4-3.5c0.4-0.4,0.4-1,0-1.4s-1-0.4-1.4,0
					c-1.2,1.2-2.3,2.3-3.4,3.5c-0.4,0.4-0.3,1,0,1.4C140.8,206.5,141.1,206.5,141.3,206.5z"/>
				<path class="st1" d="M162.9,187.7c0.2,0,0.4,0,0.6-0.2c1.3-0.9,2.6-1.9,4-2.8c0.4-0.3,0.6-0.9,0.3-1.4s-0.9-0.6-1.4-0.3
					c-1.4,0.9-2.7,1.9-4,2.8c-0.4,0.3-0.5,0.9-0.2,1.4C162.3,187.5,162.6,187.7,162.9,187.7z"/>
				<path class="st1" d="M252.4,159.1c1.6,0,3.2,0,4.8,0.1c0,0,0,0,0,0c0.5,0,1-0.4,1-1s-0.4-1-1-1c-1.6,0-3.3-0.1-4.9-0.1l0,0
					c-0.5,0-1,0.4-1,1S251.9,159.1,252.4,159.1z"/>
				<path class="st1" d="M148.1,199.8c0.2,0,0.5-0.1,0.7-0.2c1.2-1.1,2.4-2.2,3.6-3.3c0.4-0.3,0.4-1,0.1-1.4c-0.3-0.4-1-0.4-1.4-0.1
					c-1.2,1.1-2.4,2.2-3.7,3.3c-0.4,0.4-0.4,1,0,1.4C147.6,199.7,147.9,199.8,148.1,199.8z"/>
			</g>
		</g>
		<g>
			<path class="st8" d="M441.4,348.5h-28.9V345c0-0.7-0.6-1.4-1.4-1.4h-30.8c-0.7,0-1.4,0.6-1.4,1.4v46.5c0,1.7,0,7.9,1.7,7.9h58.9
				c1.7,0,2.7-1.8,2.7-3.5l2.2-44.2C444.5,350,443.1,348.5,441.4,348.5z"/>
			<g>
				<path class="st0" d="M440.7,353.9v-11.1c0-1.1-0.9-1.9-1.9-1.9h-29.6c-1.1,0-1.9,0.9-1.9,1.9v11.1H440.7z"/>
				<path class="st1" d="M419.5,345.5h-8.3c-0.3,0-0.5-0.2-0.5-0.5v-0.3c0-0.3,0.2-0.5,0.5-0.5h8.3c0.3,0,0.5,0.2,0.5,0.5v0.3
					C420,345.3,419.8,345.5,419.5,345.5z"/>
				<g class="st9">
					<path class="st1" d="M437.7,349.3h-26.4c-0.4,0-0.7-0.3-0.7-0.7l0,0c0-0.4,0.3-0.7,0.7-0.7h26.4c0.4,0,0.7,0.3,0.7,0.7l0,0
						C438.4,349,438.1,349.3,437.7,349.3z"/>
					<path class="st1" d="M437.7,352.9h-26.4c-0.4,0-0.7-0.3-0.7-0.7l0,0c0-0.4,0.3-0.7,0.7-0.7h26.4c0.4,0,0.7,0.3,0.7,0.7l0,0
						C438.4,352.6,438.1,352.9,437.7,352.9z"/>
				</g>
			</g>
			<g>
				<path class="st0" d="M405.2,350.1V339c0-1.1-0.6-1.9-1.4-1.9h-21.9c-0.8,0-1.4,0.9-1.4,1.9v11.1H405.2z"/>
				<path class="st1" d="M389.4,341.7h-5.9c-0.3,0-0.5-0.2-0.5-0.5v-0.3c0-0.3,0.2-0.5,0.5-0.5h5.9c0.3,0,0.5,0.2,0.5,0.5v0.3
					C389.9,341.5,389.7,341.7,389.4,341.7z"/>
				<g class="st9">
					<path class="st1" d="M403,345.5h-19.5c-0.3,0-0.5-0.3-0.5-0.7l0,0c0-0.4,0.2-0.7,0.5-0.7H403c0.3,0,0.5,0.3,0.5,0.7l0,0
						C403.5,345.2,403.3,345.5,403,345.5z"/>
					<path class="st1" d="M403,349.1h-19.5c-0.3,0-0.5-0.3-0.5-0.7l0,0c0-0.4,0.2-0.7,0.5-0.7H403c0.3,0,0.5,0.3,0.5,0.7l0,0
						C403.5,348.8,403.3,349.1,403,349.1z"/>
				</g>
			</g>
			<path class="st10" d="M439.2,353.3h-28.9v-3.6c0-0.7-0.6-1.4-1.4-1.4h-30.8c-0.7,0-1.4,0.6-1.4,1.4v46.5c0,1.7,1.4,3.1,3.1,3.1
				h59.2c1.7,0,3.1-1.4,3.1-3.1v-39.9C442.4,354.7,440.9,353.3,439.2,353.3z"/>
		</g>
		<g>
			<g>
				<path class="st11" d="M343.3,293.7l-0.9,8.5l-0.5,5.3l-8.2,79c-2.9,0.9-5.4,1.4-7.9-1.2c0,0-1.6-30.3-1.6-56.6
					c0-5.2,0.1-11.5,0.2-18c0-2.8,0.1-5.7,0.2-8.5c0.3-14.1,0.8-26.7,0.8-26.7L343.3,293.7z"/>
				<path class="st12" d="M324.6,302.3h17.8l-0.5,5.3c-1.9-0.2-5-0.1-7.8,1.6c-2.7,1.7-6.8,1.8-9.6,1.6
					C324.5,307.9,324.6,305,324.6,302.3z"/>
			</g>
			<g>
				<path class="st11" d="M369.8,384.6l-7.1,1l-9.2-74.8l-1.1-8.6l-0.9-7.4l16-18.2c0,0,0.6,12,1.4,25.5c0.1,2.3,0.2,4.7,0.4,7
					c0.5,9.5,1,18.9,1.3,24.8C371.5,350,369.8,384.6,369.8,384.6z"/>
				<path class="st12" d="M369.3,309.3c-1.3-0.3-2.9-0.6-4.3-0.8c-3.2-0.4-8.9,2.6-11.6,2.4l-1.1-8.6h16.5
					C369,304.6,369.2,306.9,369.3,309.3z"/>
			</g>
			<g>
				<path class="st13" d="M381.4,303.1c0,0-0.1,0.3-0.3,0.7c-0.9,1.6-4,4.8-12.1,2.3c-0.2-0.1-0.5-0.1-0.8-0.2
					c-1.7-0.4-3.1-0.5-4.4-0.4c-4.8,0.4-7.7,3.4-17.4,0.2c-8.8-2.8-11.1-0.6-15.3,0.4c-0.8,0.2-1.7,0.4-2.7,0.5c-0.5,0-1,0-1.5,0
					c-3.9-0.2-7.5-2.4-9.6-4c-1.3-0.9-2.1-1.7-2.1-1.7c0.2-0.7,0.4-1.5,0.6-2.3c0.8-3.2,1.7-7,2.6-11.2c0.2-1.3,0.5-2.5,0.8-3.9
					c0.6-3.2,1.3-6.5,1.9-9.8l0,0v0c0.2-1.4,0.5-2.7,0.7-4.1c0,0,0-0.1,0-0.2c0.8-4.4,1.5-8.7,2.2-12.6c0.2-1.5,0.5-2.9,0.7-4.3
					c1.2-7.4,2-12.5,2-12.5l23.4,1.7l23.4-0.1c0,0,0.2,2.6,0.6,6.8c0.1,1.3,0.2,2.8,0.4,4.4c0.4,4.2,0.9,9.2,1.5,14.6
					c0.1,1.4,0.3,2.8,0.5,4.3c1.1,10,2.5,20.4,3.9,27.9C380.9,300.7,381.2,302,381.4,303.1z"/>
				<g>
					<path class="st14" d="M332,247.3c0,1.2-1.1,2.2-2.3,2.2c-1.2,0-2.2-1.1-2.2-2.3c0-1.2,1.1-2.2,2.3-2.2
						C331.1,245,332.1,246.1,332,247.3z"/>
					<path class="st14" d="M337.2,256c0,1.2-1.1,2.2-2.3,2.2c-1.2,0-2.2-1.1-2.2-2.3c0-1.2,1.1-2.2,2.3-2.2
						C336.3,253.7,337.3,254.8,337.2,256z"/>
					<path class="st14" d="M348.1,251.9c0,1.2-1.1,2.2-2.3,2.2c-1.2,0-2.2-1.1-2.2-2.3c0-1.2,1.1-2.2,2.3-2.2
						C347.3,249.7,348.2,250.7,348.1,251.9z"/>
					<path class="st14" d="M330.7,264.8c0,1.2-1.1,2.2-2.3,2.2c-1.2,0-2.2-1.1-2.2-2.3c0-1.2,1.1-2.2,2.3-2.2
						C329.8,262.6,330.8,263.6,330.7,264.8z"/>
					<path class="st14" d="M344.2,264.3c0,1.2-1.1,2.2-2.3,2.2c-1.2,0-2.2-1.1-2.2-2.3c0-1.2,1.1-2.2,2.3-2.2
						C343.3,262.1,344.2,263.1,344.2,264.3z"/>
					<path class="st14" d="M326.3,254.7c0,1.1-0.9,2.1-2.1,2.2c0.2-1.5,0.5-2.9,0.7-4.3C325.7,252.9,326.3,253.7,326.3,254.7z"/>
					<path class="st14" d="M365.7,278c0,1.2-1.1,2.2-2.3,2.2c-1.2,0-2.2-1.1-2.2-2.3c0-1.2,1.1-2.2,2.3-2.2
						C364.8,275.8,365.7,276.8,365.7,278z"/>
					<path class="st14" d="M365.1,266c0,1.2-1.1,2.2-2.3,2.2c-1.2,0-2.2-1.1-2.2-2.3c0-1.2,1.1-2.2,2.3-2.2
						C364.1,263.7,365.1,264.7,365.1,266z"/>
					<path class="st14" d="M376.8,271.5c-0.3,0.1-0.6,0.1-0.9,0.1c-1.2,0-2.2-1.1-2.2-2.3c0-1.2,1.1-2.2,2.3-2.2c0.1,0,0.1,0,0.2,0
						C376.5,268.7,376.6,270.1,376.8,271.5z"/>
					<path class="st14" d="M366.6,286.9c0,1.2-1.1,2.2-2.3,2.2c-1.2,0-2.2-1.1-2.2-2.3c0-1.2,1.1-2.2,2.3-2.2
						C365.6,284.6,366.6,285.6,366.6,286.9z"/>
					<path class="st14" d="M376.1,283.6c0,1.2-1.1,2.2-2.3,2.2c-1.2,0-2.2-1.1-2.2-2.3c0-1.2,1.1-2.2,2.3-2.2
						C375.2,281.4,376.2,282.4,376.1,283.6z"/>
					<path class="st14" d="M356.6,291.1c0,1.2-1.1,2.2-2.3,2.2c-1.2,0-2.2-1.1-2.2-2.3c0-1.2,1.1-2.2,2.3-2.2
						C355.7,288.9,356.6,289.8,356.6,291.1z"/>
					<path class="st14" d="M353.7,300.7c0,1.2-1.1,2.2-2.3,2.2c-1.2,0-2.2-1.1-2.2-2.3c0-1.2,1.1-2.2,2.3-2.2
						C352.8,298.5,353.7,299.5,353.7,300.7z"/>
					<path class="st14" d="M331.2,305.8c0,0.1,0,0.2,0,0.3c-0.8,0.2-1.7,0.4-2.7,0.5c-0.5,0-1,0-1.5,0c-0.1-0.3-0.2-0.6-0.2-1
						c0-1.2,1.1-2.2,2.3-2.2C330.3,303.6,331.3,304.6,331.2,305.8z"/>
					<path class="st14" d="M368.2,305.8C368.2,305.8,368.2,305.8,368.2,305.8c-1.7-0.3-3.1-0.4-4.4-0.3c0.1-1.1,1.1-2,2.3-2
						C367.3,303.5,368.2,304.6,368.2,305.8z"/>
					<path class="st14" d="M376.2,295c0,1.2-1.1,2.2-2.3,2.2c-1.2,0-2.2-1.1-2.2-2.3c0-1.2,1.1-2.2,2.3-2.2
						C375.3,292.8,376.2,293.8,376.2,295z"/>
					<path class="st14" d="M381.4,303.1c0,0-0.1,0.3-0.3,0.7c-0.1,0-0.2,0-0.3,0c-1.2,0-2.2-1.1-2.2-2.3c0-1.1,0.9-2.1,2.1-2.2
						C380.9,300.7,381.2,302,381.4,303.1z"/>
					<path class="st14" d="M328.8,278.7c0,1.2-1.1,2.2-2.3,2.2c-1.2,0-2.2-1.1-2.2-2.3c0-1.2,1.1-2.2,2.3-2.2
						C327.9,276.5,328.9,277.5,328.8,278.7z"/>
					<path class="st14" d="M323.2,271.6c0,1.1-0.9,2-2,2.1v0c0.2-1.4,0.5-2.7,0.7-4.1C322.7,269.9,323.2,270.7,323.2,271.6z"/>
					<path class="st14" d="M320.2,285.3c0,1-0.7,1.8-1.7,2.1c0.2-1.3,0.5-2.5,0.8-3.9C319.9,284,320.2,284.6,320.2,285.3z"/>
					<path class="st14" d="M334,286.8c0,1.2-1.1,2.2-2.3,2.2c-1.2,0-2.2-1.1-2.2-2.3c0-1.2,1.1-2.2,2.3-2.2
						C333.1,284.5,334,285.5,334,286.8z"/>
					<path class="st14" d="M345.7,285.4c0,1.2-1.1,2.2-2.3,2.2c-1.2,0-2.2-1.1-2.2-2.3c0-1.2,1.1-2.2,2.3-2.2
						C344.8,283.1,345.7,284.2,345.7,285.4z"/>
					<path class="st14" d="M337.8,274.3c0,1.2-1.1,2.2-2.3,2.2c-1.2,0-2.2-1.1-2.2-2.3c0-1.2,1.1-2.2,2.3-2.2
						C336.8,272,337.8,273.1,337.8,274.3z"/>
					<path class="st14" d="M349.7,272.5c0,1.2-1.1,2.2-2.3,2.2c-1.2,0-2.2-1.1-2.2-2.3c0-1.2,1.1-2.2,2.3-2.2
						C348.8,270.2,349.8,271.2,349.7,272.5z"/>
					<path class="st14" d="M355.4,261c0,1.2-1.1,2.2-2.3,2.2c-1.2,0-2.2-1.1-2.2-2.3c0-1.2,1.1-2.2,2.3-2.2
						C354.5,258.7,355.4,259.8,355.4,261z"/>
					<path class="st14" d="M374.8,252.7c-0.1,0-0.3,0-0.5,0c-1.2,0-2.2-1.1-2.2-2.3c0-1.2,1-2.1,2.2-2.2
						C374.5,249.7,374.6,251.1,374.8,252.7z"/>
					<path class="st14" d="M363.3,252.4c0,1.2-1.1,2.2-2.3,2.2c-1.2,0-2.2-1.1-2.2-2.3c0-1.2,1.1-2.2,2.3-2.2
						C362.4,250.2,363.4,251.2,363.3,252.4z"/>
					<path class="st14" d="M371.1,260.5c0,1.2-1.1,2.2-2.3,2.2c-1.2,0-2.2-1.1-2.2-2.3c0-1.2,1.1-2.2,2.3-2.2
						C370.2,258.3,371.2,259.3,371.1,260.5z"/>
					<path class="st14" d="M357,279.7c0,1.2-1.1,2.2-2.3,2.2c-1.2,0-2.2-1.1-2.2-2.3c0-1.2,1.1-2.2,2.3-2.2
						C356.1,277.4,357,278.4,357,279.7z"/>
					<path class="st14" d="M326.1,293.8c0,1.2-1.1,2.2-2.3,2.2c-1.2,0-2.2-1.1-2.2-2.3c0-1.2,1.1-2.2,2.3-2.2
						C325.2,291.6,326.1,292.6,326.1,293.8z"/>
					<path class="st14" d="M340.9,296c0,1.2-1.1,2.2-2.3,2.2c-1.2,0-2.2-1.1-2.2-2.3c0-1.2,1.1-2.2,2.3-2.2
						C340.1,293.8,341,294.8,340.9,296z"/>
					<path class="st14" d="M318.3,300.9c0,0.7-0.4,1.4-0.9,1.8c-1.3-0.9-2.1-1.7-2.1-1.7c0.2-0.7,0.4-1.5,0.6-2.3c0,0,0.1,0,0.2,0
						C317.4,298.6,318.3,299.7,318.3,300.9z"/>
				</g>
				<path class="st15" d="M375.1,242.2c-12.6,7.7-35.3,6.3-49.3-1.6c1.6-8.4,3.7-16.9,3.7-28.2c0-1.2,0-2.4,0-3.7
					c0-1.1,0-2.1-0.1-3.2c-0.6-18.8-3.3-34.2-1.7-36.2c0.7-0.8,1.9-1.8,3.3-2.6c0.6-0.3,1.2-0.7,1.8-1.1c1.5-0.8,3.2-1.7,4.8-2.5
					c4-2,8-3.8,10.1-5c2,0.9,3.5,1.5,5.2,1.5c0,0,0.1,0,0.1,0c0,0,0.1,0,0.1,0c1.7,0,3.3-0.3,5.3-1.2c1.8,1.3,5.2,3.1,8.7,5.1
					c2.5,1.5,5.2,3,7.2,4.5c1.3,1,2.4,1.9,3,2.8c0.7,1,0.3,5.3-0.6,11.7c-0.9,6.3-2.1,14.5-3,23.6c-0.2,2.5-0.5,5.1-0.6,7.7
					C372.5,225.1,374.1,233.7,375.1,242.2z"/>
				<g>
					<path class="st16" d="M366.8,233.1L366.8,233.1c-9.9-0.3-18.3-5.2-23.5-9.1c-5.7-4.3-9-8.6-9.1-8.6c-0.1-0.2-0.1-0.5,0.1-0.7
						c0.2-0.1,0.5-0.1,0.7,0.1c0,0,3.4,4.2,9,8.4c5.1,3.9,13.3,8.6,22.9,8.9c0.2,0,0.5,0.2,0.4,0.5
						C367.3,232.9,367,233.1,366.8,233.1z"/>
				</g>
				<g>
					<path class="st16" d="M356.3,236.1c-8.6-0.3-17.1-5.5-17.5-5.7c-0.2-0.1-0.3-0.4-0.1-0.6c0.1-0.2,0.4-0.3,0.6-0.1
						c0.1,0,10,6.2,19,5.5c0.2,0,0.5,0.2,0.5,0.4s-0.2,0.5-0.4,0.5C357.7,236.1,357,236.1,356.3,236.1z"/>
				</g>
				<g>
					<g>
						<g>
							<path class="st16" d="M350.4,182.4c-0.2,0-0.4-0.2-0.4-0.4c0-0.2,0.1-0.5,0.4-0.5c12.2-1.9,16.1-9.6,16.1-9.7
								c0.1-0.2,0.4-0.3,0.6-0.2c0.2,0.1,0.3,0.4,0.2,0.6C367.2,172.5,363.2,180.4,350.4,182.4C350.5,182.4,350.4,182.4,350.4,182.4
								z"/>
						</g>
					</g>
				</g>
				<path class="st11" d="M367.4,163.5c-2.6,5.4-8.5,12.7-16.1,11.1c-7.4-1.5-11-7.3-13.5-11.5c4-2,8-3.8,10.1-5
					c2,0.9,3.5,1.5,5.2,1.5c0,0,0.1,0,0.1,0c0,0,0.1,0,0.1,0c1.7,0,3.3-0.3,5.3-1.2C360.4,159.7,363.8,161.5,367.4,163.5z"/>
				<g>
					<path class="st17" d="M352.8,167.4c7.8,0.2,9.5-7.2,9.5-7.3c0-0.2-0.1-0.5-0.3-0.5c-0.2,0-0.5,0.1-0.5,0.3
						c0,0.3-1.5,6.8-8.6,6.6s-8.4-6.4-8.4-6.7c0-0.2-0.3-0.4-0.5-0.3c-0.2,0-0.4,0.3-0.3,0.5C343.5,160.1,345,167.2,352.8,167.4z"/>
				</g>
			</g>
			<path class="st13" d="M353.3,159.8L353.3,159.8c0,0-0.1,0-0.1,0C353.2,159.8,353.3,159.8,353.3,159.8z"/>
			<g>
				<g>
					<g>
						<path class="st12" d="M341.7,136.2c0,0-2.2-3.2-4-0.7c-1.8,2.5,0.4,10.1,4.6,8.4L341.7,136.2z"/>
						<g>
							<path class="st18" d="M341.5,141.6c-0.1,0-0.3-0.1-0.3-0.3c-0.6-2.3-3-3.4-3-3.4c-0.2-0.1-0.2-0.3-0.2-0.5
								c0.1-0.2,0.3-0.2,0.5-0.2c0.1,0,2.7,1.2,3.4,3.9c0,0.2,0,0.4-0.2,0.4C341.6,141.6,341.5,141.6,341.5,141.6z"/>
						</g>
						<g>
							<path class="st18" d="M339.1,140.3c0,0-0.1,0-0.2,0c-0.1-0.1-0.2-0.3-0.1-0.5c0,0,0.5-0.7,1.4-1c0.2-0.1,0.4,0,0.5,0.2
								s0,0.4-0.2,0.5c-0.7,0.3-1.1,0.8-1.1,0.8C339.3,140.3,339.2,140.3,339.1,140.3z"/>
						</g>
					</g>
					<g>
						<path class="st12" d="M365.6,137c0,0,2.4-3,4.1-0.4c1.7,2.6-1,10.1-5.2,8.1L365.6,137z"/>
						<g>
							<path class="st18" d="M365.5,142.4c0.1,0,0.3-0.1,0.3-0.2c0.7-2.3,3.2-3.2,3.2-3.2c0.2,0,0.3-0.2,0.2-0.4
								c0-0.2-0.2-0.3-0.4-0.2c-0.1,0-2.8,1-3.7,3.7C365.1,142.2,365.2,142.4,365.5,142.4C365.4,142.4,365.4,142.4,365.5,142.4z"/>
						</g>
						<g>
							<g>
								<path class="st18" d="M367.9,141.3c0,0,0.1,0,0.2,0c0.1-0.1,0.2-0.3,0.1-0.5c0,0-0.4-0.7-1.3-1.1c-0.2-0.1-0.4,0-0.5,0.1
									c-0.1,0.2,0,0.4,0.1,0.5c0.7,0.3,1,0.8,1,0.8C367.7,141.2,367.8,141.3,367.9,141.3z"/>
							</g>
						</g>
					</g>
					<path class="st11" d="M358.9,150.9l-0.2,7.5c0,0-2.3,3.8-5.4,3.9s-5.6-3.5-5.6-3.5l0.2-7.8L358.9,150.9z"/>
					<path class="st12" d="M358.9,150.9l-0.1,3.3c-2.1,2.2-5.7,2.9-11.1,1.9l0.1-5.1L358.9,150.9z"/>
					<path class="st11" d="M367.5,131.9c-0.2,2.9-0.6,6.6-1.3,9.4c-0.1,0.7-0.3,1.4-0.5,2c-1.8,5.5-6,14.8-17,10.5
						c-4.8-1.9-6.9-7.4-7.7-13c-0.6-3.8-0.5-7.6-0.4-10.3c0.1-2.8,1.8-5.2,4.2-6.6c6.7-3.5,13.5-1.9,18,0
						C365.8,125.4,367.7,128.6,367.5,131.9z"/>
					<path class="st13" d="M348.6,136.9c0,0.8-0.4,1.4-1,1.4c-0.5,0-0.9-0.7-0.9-1.5c0-0.8,0.4-1.4,1-1.4
						C348.2,135.4,348.6,136.1,348.6,136.9z"/>
					<path class="st13" d="M360,137.3c0,0.8-0.4,1.4-1,1.4c-0.5,0-0.9-0.7-0.9-1.5c0-0.8,0.4-1.4,1-1.4
						C359.6,135.8,360,136.5,360,137.3z"/>
					<path class="st13" d="M346.2,132.5c0.8-0.2,2.3-0.5,4-0.4c0.4,0,0.7,0.4,0.6,0.8l0,0c0,0.3-0.4,0.6-0.7,0.5
						c-1.1-0.1-4,0-5.4,0.5c0-0.2,0.1-0.5,0.3-0.7C345.3,132.8,345.7,132.6,346.2,132.5z"/>
					<path class="st13" d="M361.1,133c-0.8-0.2-2.3-0.7-3.9-0.7c-0.4,0-0.8,0.3-0.7,0.8l0,0c0,0.3,0.3,0.6,0.7,0.6
						c1.1,0,4,0.2,5.4,0.8c0-0.2-0.1-0.5-0.3-0.7C361.9,133.4,361.5,133.2,361.1,133z"/>
					<g>
						<g>
							<path class="st12" d="M353.6,143.7c-0.3,0-0.5,0-0.8-0.2c-0.2-0.1-0.4-0.4-0.5-0.9c-0.1-1.3,0.4-5.4,0.4-5.6
								c0-0.2,0.2-0.3,0.4-0.3c0.2,0,0.3,0.2,0.3,0.4c0,0-0.5,4.2-0.4,5.5c0,0.2,0.1,0.3,0.1,0.3c0.3,0.2,1.1,0,1.4-0.1
								c0.2,0,0.4,0,0.4,0.2c0,0.2,0,0.4-0.2,0.4C354.7,143.5,354.2,143.7,353.6,143.7z"/>
						</g>
					</g>
					<path class="st17" d="M349,145.8c0.2,1.4,1,3.9,4.1,4c3,0.1,4-2.2,4.3-3.7L349,145.8z"/>
					<g>
						<path class="st12" d="M352.9,151.8c-0.9,0-1.6-0.5-1.7-0.5c-0.1-0.1-0.2-0.3-0.1-0.5s0.3-0.2,0.5-0.1l0,0c0,0,0.6,0.4,1.3,0.4
							c0.7,0,1.4-0.3,1.4-0.3c0.2-0.1,0.4,0,0.5,0.1s0,0.4-0.1,0.5C354.6,151.4,353.8,151.9,352.9,151.8z"/>
					</g>
				</g>
				<path class="st13" d="M368.9,131.3c-0.1,0.3-0.4,0.5-0.9,0.6c0,0.8-0.1,1.7-0.2,2.6c-0.6,5.1-2,6-2.2,4.7
					c-0.1-0.8,0-5.7,0.1-7.3c-1-0.1-1.9-0.3-1.9-0.3l-1-5l-0.6,4.9c-1.8,0.6-6-0.6-6-0.6l-1.2-5l-1,4.7c-2.7,1.2-6.1,0.2-6.1,0.2
					l-0.6-5.1l-2,5.1c0,0-2.1,0.7-3.8,0.8c0.1,1.9,0.3,5.6,0,6.1c-1.3,1.5-1.8-1-1.7-3.4c0-1.2,0.1-2.2,0.2-2.9
					c-0.3-0.1-0.5-0.4-0.5-0.8c0-1.2,1-4.5,1.8-7.1c0.9-2.8,2.8-5.2,5.4-6.5c7.2-3.6,14.7-1.3,17.2,0.3
					C369.5,121,368.9,131.3,368.9,131.3z"/>
				<circle class="st13" cx="356.4" cy="114" r="10.2"/>
				<path class="st17" d="M367.1,144.9c0,0.4-0.4,0.8-0.9,0.8c-0.4,0-0.8-0.4-0.8-0.9c0-0.4,0.4-0.8,0.9-0.8
					C366.8,144.1,367.1,144.5,367.1,144.9z"/>
				<g>
					<g>
						<path class="st17" d="M363.6,136.6c-0.1-0.2-0.2-0.4-0.3-0.6c-0.5-0.8-1.2-1.5-2.1-1.9l0,0c-0.5-0.2-1.1-0.3-1.7-0.4
							c-0.2,0-0.4,0-0.6,0c-1.5,0.1-2.8,1.1-3.5,2.4c-0.1,0.2-0.2,0.5-0.3,0.7c-0.1,0.3-0.1,0.7-0.2,1.1c-0.1,2.4,1.9,4.5,4.3,4.6
							c2.4,0.1,4.5-1.9,4.6-4.3C364,137.8,363.8,137.2,363.6,136.6z M359.3,142c-2.1,0-3.7-1.8-3.6-3.9c0-2.1,1.8-3.7,3.9-3.6
							c2.1,0,3.7,1.8,3.6,3.9C363.2,140.4,361.4,142,359.3,142z"/>
					</g>
					<g>
						<path class="st17" d="M351.7,136.8c0-0.2-0.1-0.5-0.2-0.7c-0.6-1.4-1.9-2.4-3.5-2.7c-0.1,0-0.3,0-0.5,0c-0.6,0-1.1,0-1.7,0.2
							l0,0c-0.9,0.3-1.7,1-2.3,1.8c-0.1,0.2-0.2,0.4-0.3,0.6c-0.2,0.5-0.3,1-0.3,1.6c-0.1,2.4,1.9,4.5,4.3,4.6
							c2.4,0.1,4.5-1.9,4.6-4.3C351.8,137.6,351.7,137.2,351.7,136.8z M347.2,141.6c-2.1,0-3.7-1.8-3.7-3.9c0-2.1,1.8-3.7,3.9-3.7
							c2.1,0,3.7,1.8,3.6,3.9C351,140,349.3,141.6,347.2,141.6z"/>
					</g>
					<g>
						<path class="st17" d="M365.6,134.9c-1.6,0.4-2.5,1.3-2.6,1.4c-0.1,0.1-0.1,0.3,0,0.5c0,0,0.1,0.1,0.2,0.1s0.2,0,0.2-0.1
							c0,0,0.8-0.8,2.1-1.1V134.9z"/>
					</g>
					<g>
						<path class="st17" d="M343.8,135.6c-0.1,0-0.7-0.7-2.1-1.3l-0.1,0.9c1.2,0.5,1.8,1,1.8,1c0,0,0.1,0,0.2,0c0.1,0,0.2,0,0.3-0.1
							C343.9,135.9,343.9,135.7,343.8,135.6z"/>
					</g>
					<g>
						<path class="st17" d="M351.6,136.9c0,0,0.9-1.1,2-1.1c1.1,0,1.8,1.2,1.8,1.2l0.6-0.3c0,0-0.9-1.5-2.3-1.5
							c-1.5,0-2.5,1.3-2.5,1.3L351.6,136.9z"/>
					</g>
				</g>
			</g>
			<path class="st11" d="M329.5,205.6c-0.6-18.8-3.3-34.2-1.7-36.2c0.7-0.8,1.9-1.8,3.3-2.6C332.3,173.6,335.3,194,329.5,205.6z"/>
			<path class="st11" d="M376.9,182.5c-0.9,6.3-2.1,14.5-3,23.6c-4.5-11.9-1.1-31.3,0.6-38.1c1.3,1,2.4,1.9,3,2.8
				C378.3,171.8,377.8,176.1,376.9,182.5z"/>
			<g>
				<g>
					<path class="st11" d="M390.9,222.6c-1.6,6.9-6.1,13.5-9.4,17.6l0,0c-2.2,2.7-3.9,4.4-3.9,4.4l-4.4-3.9c0,0,2.4-4,4.6-9.7
						c2.1-5.4,4-12.3,3.4-18.8l0,0c0-0.1,0-0.3,0-0.4L381,211l0,0l-7.8-20.7l4.5-19.2c0,0,9.6,24.5,12.8,36.7
						C390.5,207.9,392.9,214,390.9,222.6z"/>
					<g>
						<path class="st12" d="M387.1,210.2c0,0.3-0.1,0.5-0.4,0.6c-2,0.4-3.8,0.9-5.4,1.3l0,0c0-0.1,0-0.3,0-0.4l-0.2-0.6
							c1.7-0.4,3.5-0.9,5.4-1.3C386.7,209.7,387,209.9,387.1,210.2C387.1,210.1,387.1,210.2,387.1,210.2z"/>
					</g>
				</g>
				<path class="st12" d="M373.2,240.7l4.4,3.9c0,0,1.7-1.7,3.9-4.4l0,0c-0.1-3.6-1.6-8.5-3.7-9.2
					C375.6,236.7,373.2,240.7,373.2,240.7z"/>
				<path class="st11" d="M374.4,237.1c-0.7,0.1-4.4,0.7-4.1-0.6c0.3-1.5,3.7-3.5,3.7-3.5s0,0,0-0.2l0-0.3l-0.3-2.7
					c0.7-0.1,0.9,0,1.2,0c1.7,0.3,2.5,3.7,2.5,3.7s2.1,0.5,2.2,2s-1.5,1.9-1.5,1.9s2.3,0.8,2,2.2c-0.4,1.3-2,1.9-2,1.9s2.1,1,1.5,2
					c-0.5,1-2.1,1.6-2.1,1.6s1.5,1.6,0.3,2.8c-1.2,1.1-3.2,1.1-4.5,0.8c-1.3-0.3-1.3-2,1.1-3.4c0,0-2.2,0.5-3.5-1.2
					c-1.1-1.4,1.2-2.3,3.1-2.8c-1.6,0.3-4.3,0.5-4.9-0.9C368.2,238.4,373.6,237.2,374.4,237.1z"/>
			</g>
			<g>
				<g>
					<path class="st19" d="M365.6,384.4c0,0,3.9-1,4.9-1c1.1,0,8.3,8.1,10.7,8.6c4.4,0.9,4.4,7.7,1.7,8.1c-7.7,1-21-2.3-21-2.3
						s-1.2-8.8-0.7-11.6C361.9,383.4,363.4,385.2,365.6,384.4z"/>
					<g>
						<g>
							<path class="st17" d="M372,391.9c-0.1,0-0.3,0-0.4-0.1c-0.2-0.1-0.3-0.5-0.1-0.7c0-0.1,1.4-2,3-2.7c2.2-0.9,3.7,0.4,3.8,0.4
								c0.2,0.2,0.2,0.5,0,0.7c-0.2,0.2-0.5,0.2-0.7,0c0,0-1.1-0.9-2.6-0.3c-1.3,0.5-2.5,2.3-2.5,2.3
								C372.3,391.8,372.2,391.9,372,391.9z"/>
						</g>
						<g>
							<path class="st17" d="M370.5,390.3c-0.1,0-0.3,0-0.4-0.1c-0.2-0.1-0.3-0.5-0.1-0.7c0-0.1,1.4-2,3-2.7
								c2.2-0.9,3.7,0.4,3.8,0.4c0.2,0.2,0.2,0.5,0,0.7c-0.2,0.2-0.5,0.2-0.7,0c0,0-1.1-0.9-2.6-0.3c-1.3,0.5-2.5,2.3-2.5,2.3
								C370.8,390.2,370.7,390.3,370.5,390.3z"/>
						</g>
						<g>
							<g>
								<g>
									<path class="st17" d="M374.1,393.3c-0.1,0-0.3,0-0.4-0.1c-0.2-0.1-0.3-0.5-0.1-0.7c0-0.1,1.4-2,3-2.7
										c2.2-0.9,3.7,0.4,3.8,0.4c0.2,0.2,0.2,0.5,0,0.7c-0.2,0.2-0.5,0.2-0.7,0c0,0-1.1-0.9-2.6-0.3c-1.3,0.5-2.5,2.3-2.5,2.3
										C374.4,393.2,374.2,393.3,374.1,393.3z"/>
								</g>
							</g>
						</g>
					</g>
				</g>
			</g>
			<g>
				<g>
					<path class="st19" d="M327.6,386.5c0,0-1.7-2.3-3.1-2.3s-12,8.5-15.7,9.1c-3.6,0.7-3.4,5.2-2,5.7c1.6,0.6,28.6-0.2,28.6-0.2
						s0.9-9.6,0-12.2C334.6,384.1,330.5,387.1,327.6,386.5z"/>
					<g>
						<g>
							<path class="st17" d="M321.7,392.4c0.1,0,0.3,0,0.4,0c0.2-0.1,0.3-0.4,0.2-0.7c0-0.1-1.1-2-2.6-2.8c-2-1-3.5,0.1-3.6,0.1
								c-0.2,0.1-0.3,0.5-0.1,0.7c0.1,0.2,0.5,0.3,0.7,0.1c0,0,1.1-0.8,2.5,0c1.2,0.6,2.2,2.3,2.2,2.3
								C321.5,392.2,321.6,392.3,321.7,392.4z"/>
						</g>
						<g>
							<path class="st17" d="M323.3,390.9c0.1,0,0.3,0,0.4,0c0.2-0.1,0.3-0.4,0.2-0.7c0-0.1-1.1-2-2.6-2.8c-2-1-3.5,0.1-3.6,0.1
								c-0.2,0.1-0.3,0.5-0.1,0.7c0.1,0.2,0.5,0.3,0.7,0.1c0,0,1.1-0.8,2.5,0c1.2,0.6,2.2,2.3,2.2,2.3
								C323,390.8,323.1,390.9,323.3,390.9z"/>
						</g>
						<g>
							<path class="st17" d="M319.7,393.5c0.1,0,0.3,0,0.4,0c0.2-0.1,0.3-0.4,0.2-0.7c0-0.1-1.1-2-2.6-2.8c-2-1-3.5,0.1-3.6,0.1
								c-0.2,0.1-0.3,0.5-0.1,0.7c0.1,0.2,0.5,0.3,0.7,0.1c0,0,1.1-0.8,2.5,0c1.2,0.6,2.2,2.3,2.2,2.3
								C319.5,393.4,319.6,393.5,319.7,393.5z"/>
						</g>
					</g>
				</g>
			</g>
			<g>
				<path class="st11" d="M328.8,185.9c0,0-3.7-2.5-5.1-4.1c-4.9-5.5-17.3-18.5-21-29.7c-2.3-7.1-6.2-40.2-6.2-40.7l0,0l6.2-1.5
					c0,0,0,0,0,0l0,0c0.3,1.3,4.4,20.9,9,33.2c0.1,0.3,0.2,0.7,0.4,1c0.2,0.6,0.5,1.2,0.7,1.8c0.1,0.2,0.2,0.5,0.3,0.7
					c0.1,0.3,0.3,0.7,0.4,1c4.5,9.5,10.9,14.9,12.6,16.2c0.2,0.2,4.4,3.2,4.4,3.2C332.3,177.6,328.8,185.9,328.8,185.9z"/>
				<g>
					<path class="st12" d="M312,144.2c-1.3,0.6-2.7,1.2-4.2,2c-0.2,0.1-0.5,0-0.7-0.2l0,0c-0.1-0.3,0-0.6,0.2-0.7
						c1.5-0.7,2.9-1.4,4.3-2C311.8,143.5,311.9,143.8,312,144.2z"/>
				</g>
				<path class="st11" d="M301.7,111c0,0,2.6-2.2,2.8-4.9c0.2-2.7,1-7.4-0.5-9.7c-1.3-2-1,3-2.4,5c0,0-2.3-2.3-3.8-4.5
					c-1.2-1.9-4-5.1-5.3-6.6c-0.3-0.4-1-0.1-0.9,0.4c0.1,0.8,0.8,2.3,2.6,4.5c0,0-4.6-5.3-5.9-4.9c-1.2,0.4,4.7,6.9,4.7,6.9
					s-5.1-4.5-5.9-3.8c-0.5,0.4,4.1,5.9,4.1,5.9s-5.1-3.8-4.5-2.1c0.2,0.5,9.8,9.2,10,15.8C296.8,113.3,300.2,112.8,301.7,111z"/>
			</g>
		</g>
		<g>
			<g>
				<g>
					<path class="st20" d="M222.5,399.1h46.5c0-2.4-1-4.5-2.5-6.1c-1.6-1.6-3.7-2.5-6.1-2.5h-0.1c0,0-9.9-1.3-9.9-9.3V333h-9.2v48.1
						c0,8.1-9.9,9.3-9.9,9.3h-0.1C226.4,390.5,222.5,394.3,222.5,399.1z"/>
					<path class="st21" d="M201,333h89.4c-1.5-8.2-8.6-14.1-16.9-14l-27.8,0.1l-27.8-0.1C209.6,318.9,202.5,324.9,201,333z"/>
				</g>
				<g>
					<g>
						<g>
							<g>
								<path class="st8" d="M264.7,228.5c2.3,8.6,14.1,31.1,18.6,34.3c5.9,4.2,24.6,12,34.2,16c1.8,0.7-4.7,8.4-4.7,8.4
									s-25-6.4-35.3-12.9c-2.9-1.9-9.1-8.1-17.1-20.6c-2.4-3.8-8-11.3-8.6-16.8C251.3,230.7,258.3,226.5,264.7,228.5z"/>
							</g>
						</g>
					</g>
					<g>
						<g>
							<g>
								<path class="st11" d="M330.8,378.5l4.5,8.2c0,0,2.9,0.3,6.6-2.9l-3.4-9.7L330.8,378.5z"/>
								<g>
									<path class="st22" d="M340.4,383.3c0,0,0.2-2.8,1.4-3.4s14.1,1,17.5-0.2c3.3-1.3,5.4,2.6,4.5,3.7c-1.1,1.3-23.6,14-23.6,14
										s-5.5-7.4-6.1-10C333.5,384.8,338.3,385.2,340.4,383.3z"/>
									<g>
										<g>
											<path class="st17" d="M348.1,385.2c-0.1,0.1-0.2,0.1-0.3,0.1c-0.3,0-0.5-0.2-0.5-0.5c0-0.1,0-2.3,0.8-3.6
												c1.1-1.8,3-1.7,3-1.7c0.3,0,0.5,0.2,0.4,0.5c0,0.3-0.2,0.5-0.5,0.4c0,0-1.3-0.1-2.1,1.2c-0.7,1.1-0.6,3-0.6,3
												C348.2,385,348.2,385.1,348.1,385.2z"/>
										</g>
										<g>
											<path class="st17" d="M346.1,384.8c-0.1,0.1-0.2,0.1-0.3,0.1c-0.3,0-0.5-0.2-0.5-0.5c0-0.1,0-2.3,0.8-3.6
												c1.1-1.8,3-1.7,3-1.7c0.3,0,0.5,0.2,0.4,0.5c0,0.3-0.2,0.5-0.5,0.4c0,0-1.3-0.1-2.1,1.2c-0.7,1.1-0.6,3-0.6,3
												C346.3,384.5,346.2,384.7,346.1,384.8z"/>
										</g>
										<g>
											<path class="st17" d="M350.4,385.1c-0.1,0.1-0.2,0.1-0.3,0.1c-0.3,0-0.5-0.2-0.5-0.5c0-0.1,0-2.3,0.8-3.6
												c1.1-1.8,3-1.7,3-1.7c0.3,0,0.5,0.2,0.4,0.5c0,0.3-0.2,0.5-0.5,0.4c0,0-1.3-0.1-2.1,1.2c-0.7,1.1-0.6,3-0.6,3
												C350.5,384.9,350.5,385,350.4,385.1z"/>
										</g>
									</g>
								</g>
							</g>
							<path class="st23" d="M290.5,297.3c0,0,14.6,0.8,18.1,4.1c3.4,3.3,32.9,73.8,32.9,73.8c-3.4,2.5-7,4.2-10.9,5.2
								c0,0-21.1-36.2-27.4-45.7c-6.6-9.8-7.3-15.3-7.3-15.3l-15.1-2.2L290.5,297.3z"/>
						</g>
						<g>
							<path class="st24" d="M235.9,217.6c0,0-10.1,3.3-15.5,8c-5.4,4.7-1.4,18.8-1,26.8c1.1,23,1.2,54.4,12.7,60.3
								c8.7,4.4,42.3-2.1,39.6-14c-1.8-7.9-4.8-20.3-7.1-40c-1.5-13,1.6-24.8,0.1-30.1c-1.4-5.4-18.3-11.5-18.3-11.5L235.9,217.6z"
								/>
							<g>
								<path class="st4" d="M243.4,227.1c-5.2,0-10.1-5.6-10.3-5.8c-0.1-0.1-0.1-0.4,0-0.5c0.1-0.1,0.4-0.1,0.5,0
									c0,0,5.1,5.9,10.2,5.5c0.2,0,0.4,0.1,0.4,0.3c0,0.2-0.1,0.4-0.3,0.4C243.7,227.1,243.6,227.1,243.4,227.1z"/>
							</g>
							<g>
								<path class="st4" d="M238.9,289.8c-0.2,0-0.3-0.1-0.4-0.3c0-0.2,0.1-0.4,0.3-0.4c13.5-1.6,19.2-25,19.2-25.2
									c0-0.2,0.2-0.3,0.4-0.3c0.2,0,0.3,0.2,0.3,0.4C258.5,265,253,288.2,238.9,289.8C238.9,289.8,238.9,289.8,238.9,289.8z"/>
							</g>
							<g>
								<path class="st4" d="M244.3,282.7c-0.1,0-0.2,0-0.3-0.2c-0.1-0.2,0-0.4,0.1-0.5c7.2-4.5,8.3-11,8.3-11.1
									c0-0.2,0.2-0.3,0.4-0.3c0.2,0,0.3,0.2,0.3,0.4c0,0.3-1.1,6.9-8.6,11.6C244.4,282.7,244.3,282.7,244.3,282.7z"/>
							</g>
						</g>
						<g>
							<g>
								<path class="st11" d="M272.4,378.1l-0.3,9.4c0,0,2.3,1.7,7.1,0.9l2-10.1L272.4,378.1z"/>
								<g>
									<path class="st22" d="M278.2,387.1c0,0,1.6-2.3,2.9-2.2c1.3,0.1,11.6,8,15.2,8.7c3.5,0.6,3.3,5,2,5.5
										c-1.6,0.6-27.5,0.1-27.5,0.1s-1-9.2-0.1-11.7C271.5,385,275.4,387.8,278.2,387.1z"/>
									<g>
										<g>
											<path class="st17" d="M283.9,392.7c-0.1,0-0.2,0-0.4,0c-0.2-0.1-0.3-0.4-0.2-0.7c0-0.1,1.1-2,2.5-2.7
												c1.9-1,3.4,0,3.5,0.1c0.2,0.1,0.2,0.4,0.1,0.7c-0.1,0.2-0.4,0.3-0.7,0.1c0,0-1.1-0.7-2.4,0c-1.2,0.6-2.1,2.3-2.1,2.3
												C284.1,392.6,284,392.7,283.9,392.7z"/>
										</g>
										<g>
											<path class="st17" d="M282.4,391.3c-0.1,0-0.2,0-0.4,0c-0.2-0.1-0.3-0.4-0.2-0.7c0-0.1,1.1-2,2.5-2.7
												c1.9-1,3.4,0,3.5,0.1c0.2,0.1,0.3,0.4,0.1,0.7c-0.1,0.2-0.4,0.3-0.7,0.1c0,0-1.1-0.7-2.4,0c-1.2,0.6-2.1,2.3-2.1,2.3
												C282.6,391.2,282.5,391.3,282.4,391.3z"/>
										</g>
										<g>
											<path class="st17" d="M285.9,393.8c-0.1,0-0.2,0-0.4,0c-0.2-0.1-0.3-0.4-0.2-0.7c0-0.1,1.1-2,2.5-2.7
												c1.9-1,3.4,0,3.5,0.1c0.2,0.1,0.2,0.4,0.1,0.7c-0.1,0.2-0.4,0.3-0.7,0.1c0,0-1.1-0.7-2.4,0c-1.2,0.6-2.1,2.3-2.1,2.3
												C286.1,393.7,286,393.8,285.9,393.8z"/>
										</g>
									</g>
								</g>
							</g>
							<g>
								<path class="st13" d="M226.2,315.1c0.2,0.3,0.5,0.7,0.8,1c1.8,2,4.4,3.1,7.9,3.1l41.8-0.2c-3.7,14-4.1,24.8-4.5,28.3
									c-3.1,26.1-1.1,30.8-1.1,30.8c0.3,0.3,0.8,0.7,1.2,1c0.3,0.2,0.6,0.4,1,0.5c2.5,1.2,6.1,1.9,8.9,1c0,0,25.4-78.7,16.1-81.6
									c-10.8-3.4-74.5-0.8-74.5-0.8l-0.5,4.6C222.6,307.6,224.1,312,226.2,315.1z"/>
								<g>
									<path class="st23" d="M280.5,316.6c0.2,0.3,0.3,0.8,0.2,1.2c-2.1,8.8-8.6,37.8-8.6,61.2c0.3,0.2,0.6,0.4,1,0.5
										c-0.1-23.4,6.4-52.8,8.5-61.6c0.1-0.7,0-1.5-0.4-2.1c-0.4-0.6-1.1-0.9-1.9-0.9h-53.1c0.2,0.3,0.5,0.7,0.8,1h52.4
										C279.8,316.1,280.2,316.3,280.5,316.6z"/>
								</g>
							</g>
						</g>
						<g>
							<g>
								<path class="st13" d="M232,190.5c-1.6,8.3,2.4,15,10.7,16.6c8.3,1.6,15.3-3.4,16.9-11.7c1.6-8.3-2.1-15.6-10.4-17.1
									C239.2,176.3,233.6,182.2,232,190.5z"/>
								<g>
									<path class="st12" d="M257,199c0,0,2.9-2.6,4.1,0.2c1.2,2.9-2.6,9.9-6.5,7.3L257,199z"/>
									<g>
										<g>
											<path class="st18" d="M256,204.4c0.1,0,0.3,0,0.4-0.2c1.1-2.2,3.7-2.7,3.7-2.7c0.2,0,0.3-0.2,0.3-0.4
												c0-0.2-0.2-0.3-0.4-0.3c-0.1,0-3,0.5-4.2,3.1C255.6,204,255.7,204.2,256,204.4C255.9,204.4,255.9,204.4,256,204.4z"/>
										</g>
									</g>
									<g>
										<path class="st18" d="M258.6,203.7c0,0,0.1,0,0.2,0c0.2-0.1,0.3-0.3,0.2-0.5c0,0-0.3-0.8-1.1-1.3
											c-0.1-0.1-0.4-0.1-0.5,0.1c-0.1,0.1-0.1,0.4,0.1,0.5c0.6,0.4,0.9,1,0.9,1C258.4,203.5,258.5,203.6,258.6,203.7z"/>
									</g>
								</g>
								<path class="st11" d="M248.1,211.9l-1.5,7.9c0,0-2.2,2.4-4.7,2.2c-3.5-0.2-6.2-4.2-6.2-4.2l1.5-7.5L248.1,211.9z"/>
								<path class="st12" d="M248.1,211.9l-0.6,3.3c-2.4,1.9-6.2,1.7-11.3-0.1l0.9-4.8L248.1,211.9z"/>
								<path class="st11" d="M232,194.1c0,0.4-0.1,0.9-0.1,1.3c-0.1,1.1-0.2,2.3-0.2,3.5c0,0,0,0.1,0,0.1c0,5.7,1.2,11.5,5.7,14.2
									c10.2,6.1,16-2.6,18.6-7.8c0.3-0.6,0.6-1.2,0.9-1.9c0,0,0,0,0-0.1c0.3-0.8,0.6-1.6,0.9-2.5c0.2-0.6,0.4-1.3,0.6-2
									c0.5-1.6,0.9-3.2,1.3-4.7c0.8-3.3-0.6-6.8-3.5-8.6c-4.2-2.6-10.8-5.3-18-2.9c-2.6,0.9-4.6,3.1-5.2,5.9
									C232.6,190.1,232.3,192,232,194.1z"/>
								<path class="st13" d="M242,196.6c-0.1,0.8-0.7,1.4-1.2,1.3c-0.5-0.1-0.8-0.8-0.6-1.6c0.1-0.8,0.7-1.4,1.2-1.3
									S242.1,195.9,242,196.6z"/>
								<path class="st13" d="M252.4,198.7c-0.1,0.8-0.7,1.4-1.2,1.3c-0.5-0.1-0.8-0.8-0.6-1.6c0.1-0.8,0.7-1.4,1.2-1.3
									C252.3,197.2,252.6,197.9,252.4,198.7z"/>
								<path class="st13" d="M255.4,193.9c0,0-2.7-1.7-5.1-1.2v1.3c0,0,3.3,0.3,4.8,1.3C255.4,194.8,255.5,194.4,255.4,193.9z"/>
								<path class="st13" d="M239,190.5c0,0,3.1-0.6,5.1,0.8l-0.4,1.2c0,0-3.2-0.9-5-0.5C238.6,191.5,238.7,191,239,190.5z"/>
								<g>
									<g>
										<path class="st12" d="M244.1,203.5c-0.6,0-1.2-0.3-1.3-0.3c-0.2-0.1-0.2-0.3-0.1-0.5s0.3-0.2,0.5-0.1
											c0.3,0.1,1.1,0.4,1.4,0.2c0,0,0.1-0.1,0.2-0.3c0.2-1.3,0.1-5.5,0.1-5.5c0-0.2,0.1-0.3,0.3-0.3c0.2,0,0.3,0.1,0.3,0.3
											c0,0.2,0,4.4-0.2,5.7c-0.1,0.5-0.3,0.7-0.6,0.8C244.7,203.4,244.4,203.5,244.1,203.5z"/>
									</g>
								</g>
								<path class="st17" d="M238.9,204.7c0,1.5,0.4,4.4,3.7,5c3.3,0.6,4.6-1.7,5.3-3.3L238.9,204.7z"/>
								<path class="st13" d="M258.2,199.3l-1.6-0.3c0.5-1.6,0.3-3.6,0-5c-0.5-3.2,2.1-4,0.4-5.9c-1.6-1.9-5.3-2.2-8.6-2.9
									s-7-1.1-8.4-1c-1.3,0-1.8,1.5-1.6,3.3c0.1,1.8-2.7,1.6-3.5,5.2c-0.1,0.5-0.6,1.6-0.7,2.3l-2.4-0.7c0.2-2.1,0.6-4.1,0.9-5.6
									c0.6-2.7,2.6-5,5.2-5.9c7.2-2.4,13.8,0.2,18,2.9c2.9,1.8,4.3,5.3,3.5,8.6C259.3,195.8,258.8,197.6,258.2,199.3z"/>
								<g>
									<g>
										<path class="st17" d="M247.6,198.2c0.4-2.3,2.7-3.9,5-3.4s3.9,2.7,3.4,5c-0.4,2.3-2.7,3.9-5,3.4S247.1,200.5,247.6,198.2z
											 M248.2,198.3c-0.4,2,0.9,3.9,2.9,4.3c2,0.4,3.9-0.9,4.3-2.9s-0.9-3.9-2.9-4.3C250.5,195.1,248.6,196.4,248.2,198.3z"/>
									</g>
									<g>
										<path class="st17" d="M236,196c0.4-2.3,2.7-3.9,5-3.4s3.9,2.7,3.4,5s-2.7,3.9-5,3.4C237.1,200.6,235.6,198.3,236,196z
											 M236.7,196.1c-0.4,2,0.9,3.9,2.9,4.3c2,0.4,3.9-0.9,4.3-2.9c0.4-2-0.9-3.9-2.9-4.3C239,192.8,237,194.2,236.7,196.1z"/>
									</g>
									<g>
										<path class="st17" d="M255.6,198.3c0.1,0,0.2,0,0.2,0l0,0c0,0,2.3-1.5,4.7-0.4c0.1,0.1,0.4,0,0.4-0.1
											c0.1-0.1,0-0.4-0.1-0.4c-2.7-1.2-5.2,0.4-5.3,0.5c-0.1,0.1-0.2,0.3-0.1,0.5C255.4,198.3,255.5,198.3,255.6,198.3z"/>
									</g>
									<g>
										<path class="st17" d="M236.9,194.7c0.1,0,0.2,0,0.3-0.1c0.1-0.1,0.1-0.3,0-0.5c-0.1-0.1-2.7-2.6-5.3-2.7
											c-0.2,0-0.3,0.1-0.3,0.3c0,0.2,0.1,0.3,0.3,0.3c2.3,0,4.9,2.4,4.9,2.5C236.8,194.7,236.9,194.7,236.9,194.7z"/>
									</g>
									<g>
										<path class="st17" d="M244.4,196.6c0,0,1-0.9,2-0.7s1.5,1.4,1.5,1.4l0.6-0.2c0,0-0.6-1.5-2-1.8c-1.4-0.2-2.5,0.8-2.6,0.9
											L244.4,196.6z"/>
									</g>
								</g>
								<g>
									<path class="st11" d="M233.2,194.4c0,0-1.7-3.5-3.9-1.3c-2.2,2.2-1.2,10.2,3.3,9.1L233.2,194.4z"/>
									<g>
										<path class="st12" d="M232.2,199.8c-0.1,0-0.3-0.1-0.3-0.3c-0.2-2.4-2.4-3.9-2.4-3.9c-0.1-0.1-0.2-0.3-0.1-0.5
											c0.1-0.1,0.3-0.2,0.5-0.1c0.1,0,2.5,1.6,2.8,4.4C232.6,199.6,232.4,199.8,232.2,199.8
											C232.2,199.8,232.2,199.8,232.2,199.8z"/>
									</g>
									<g>
										<path class="st12" d="M230,198.2c0,0-0.1,0-0.2-0.1c-0.1-0.1-0.1-0.3,0-0.5c0,0,0.6-0.6,1.5-0.8c0.2,0,0.4,0.1,0.4,0.3
											s-0.1,0.4-0.3,0.4c-0.7,0.2-1.2,0.6-1.2,0.6C230.2,198.1,230.1,198.2,230,198.2z"/>
									</g>
								</g>
							</g>
						</g>
					</g>
					<g>
						<path class="st11" d="M285.1,279.8c0,0,9.5,1.6,13.5,4.9c4,3.3,9.2,6.2,8.5,7.8c-0.8,1.7-6.4-1.9-6.4-1.9s-1.3,3.1-5.9,4.4
							c-4.5,1.3-14.3-6.5-14.3-6.5L285.1,279.8z"/>
						<g>
							<g>
								<g>
									<path class="st8" d="M222.6,223.9c5.3,8,25.5,35.7,30.1,38.9c5.9,4.2,22.6,12.9,32.2,16.9c1.8,0.7-3.9,9-3.9,9
										s-23.9-7.8-34.1-14.3c-2.9-1.9-14.9-13.9-22.6-24.6c-2.6-3.7-6.9-8.8-7.5-14.1C216.2,229.5,218.1,226.1,222.6,223.9z"/>
								</g>
							</g>
						</g>
					</g>
					<g>
						<path class="st25" d="M271.4,299H320c1.1,0,2-0.9,2-2v-2.8c0-1.1-0.9-2-2-2h-48.6c-1.1,0-2,0.9-2,2v2.8
							C269.4,298.1,270.4,299,271.4,299z"/>
						<path class="st26" d="M330.9,299l10.7-40.1c0.6-2.3-1.1-4.5-3.4-4.5h-23.5c-1.6,0-3,1.1-3.4,2.6l-11.8,42L330.9,299L330.9,299
							z"/>
						<path class="st25" d="M311.2,257.1l-11.7,41.6h-2.7l11.7-41.6c0.4-1.5,1.8-2.6,3.4-2.6h2.7C313,254.5,311.6,255.5,311.2,257.1
							z"/>
						<path class="st25" d="M317.3,278.5c-0.6,2.6,1,4.8,3.7,4.8s5.3-2.2,5.9-4.8c0.6-2.6-1-4.8-3.7-4.8
							C320.5,273.7,317.9,275.9,317.3,278.5z"/>
					</g>
				</g>
			</g>
		</g>
		<g>
			<g>
				<g>
					<g>
						<polygon class="st11" points="117.7,375.3 116.2,384.6 123.8,385.6 125.8,375.8 						"/>
						<g>
							<path class="st27" d="M119.4,383.6c0,0,4-0.5,5.1-0.3c1.1,0.1,7.1,9.1,9.4,10c4.3,1.5,3.3,8.3,0.6,8.2
								c-7.8-0.1-20.5-5.2-20.5-5.2s0-8.9,0.9-11.6C115.8,382,117.2,384.1,119.4,383.6z"/>
							<g>
								<g>
									<path class="st17" d="M124.7,392c-0.1,0-0.3,0-0.4-0.1c-0.2-0.2-0.2-0.5,0-0.7c0-0.1,1.7-1.8,3.3-2.3
										c2.3-0.6,3.6,0.9,3.7,1c0.2,0.2,0.2,0.5,0,0.7s-0.5,0.2-0.7,0c0,0-1-1.1-2.6-0.6c-1.4,0.3-2.8,1.9-2.8,2
										C125,391.9,124.8,391.9,124.7,392z"/>
								</g>
								<g>
									<path class="st17" d="M123.5,390.1c-0.1,0-0.3,0-0.4-0.1c-0.2-0.2-0.2-0.5,0-0.7c0-0.1,1.7-1.8,3.3-2.3
										c2.3-0.6,3.6,0.9,3.7,1c0.2,0.2,0.2,0.5,0,0.7s-0.5,0.2-0.7,0c0,0-1-1.1-2.6-0.6c-1.4,0.3-2.8,1.9-2.8,2
										C123.7,390.1,123.6,390.1,123.5,390.1z"/>
								</g>
								<g>
									<path class="st17" d="M126.5,393.6c-0.1,0-0.3,0-0.4-0.1c-0.2-0.2-0.2-0.5,0-0.8c0-0.1,1.7-1.8,3.3-2.3
										c2.3-0.6,3.6,0.9,3.7,1c0.2,0.2,0.2,0.5,0,0.7c-0.2,0.2-0.5,0.2-0.7,0c0,0-1-1.1-2.6-0.6c-1.4,0.3-2.8,1.9-2.8,2
										C126.8,393.5,126.7,393.6,126.5,393.6z"/>
								</g>
							</g>
						</g>
					</g>
					<g>
						<path class="st13" d="M157.3,264.1c0,0-0.4,2.2-1,5.8c-0.2,1-0.3,2-0.6,3.2c-2.3,12.1-6.4,34-10.1,49.6
							c-5.1,21.7-18,56.9-18,56.9l-9.4-1.3l-0.9-0.1l-2.3-0.3c0,0,3.9-22.7,7.9-42.4c2.6-13,6.6-43.9,9-63.4
							c1.2-10.1,2.1-17.1,2.1-17.1L157.3,264.1z"/>
					</g>
					<path class="st23" d="M157.3,264.1c0,0-0.4,2.2-1,5.8c-0.2,1-0.3,2-0.6,3.2c-4.5,0.4-16.5-0.3-23.8-1
						c1.2-10.1,2.1-17.1,2.1-17.1L157.3,264.1z"/>
					<g>
						<path class="st23" d="M137.7,267.8c-0.1,0.7-8.2,72-19.6,110.4l-0.9-0.1c11.4-38.3,19.6-109.6,19.6-110.4L137.7,267.8z"/>
					</g>
				</g>
				<g>
					<g>
						<polygon class="st11" points="187.7,378.7 187.5,387.2 179.8,386.8 179.5,377.8 						"/>
						<g>
							<g>
								<g>
									<path class="st27" d="M185.5,386.8c0,0,1.7-2.2,3-2.1s11.4,8.3,14.9,9c3.5,0.7,2.8,3.2,2.2,4.5c-0.6,1.3-27.7-0.7-27.7-0.7
										s-0.7-8.1,0.2-10.6C178.9,384.5,182.8,387.4,185.5,386.8z"/>
									<g>
										<g>
											<path class="st17" d="M191.1,392.5c-0.1,0-0.2,0-0.4,0c-0.2-0.1-0.3-0.4-0.2-0.7c0-0.1,1.1-1.9,2.5-2.6
												c1.9-0.9,3.4,0.1,3.4,0.2c0.2,0.1,0.2,0.5,0.1,0.7s-0.5,0.2-0.7,0.1c0,0-1.1-0.8-2.4-0.1c-1.2,0.6-2.2,2.3-2.2,2.3
												C191.3,392.4,191.2,392.5,191.1,392.5z"/>
										</g>
										<g>
											<path class="st17" d="M189.6,391.1c-0.1,0-0.2,0-0.4,0c-0.2-0.1-0.3-0.4-0.2-0.7c0-0.1,1.1-1.9,2.5-2.6
												c1.9-0.9,3.4,0.1,3.5,0.2c0.2,0.1,0.2,0.5,0.1,0.7s-0.5,0.2-0.7,0.1c0,0-1.1-0.8-2.4-0.1c-1.2,0.6-2.2,2.2-2.2,2.3
												C189.9,391,189.8,391.1,189.6,391.1z"/>
										</g>
										<g>
											<path class="st17" d="M193.1,393.6c-0.1,0-0.2,0-0.4,0c-0.2-0.1-0.3-0.4-0.2-0.7c0-0.1,1.1-1.9,2.5-2.6
												c1.9-0.9,3.4,0.1,3.5,0.2c0.2,0.1,0.2,0.5,0.1,0.7s-0.5,0.2-0.7,0.1c0,0-1.1-0.8-2.4-0.1c-1.2,0.6-2.2,2.3-2.2,2.3
												C193.3,393.5,193.2,393.6,193.1,393.6z"/>
										</g>
									</g>
								</g>
							</g>
						</g>
					</g>
					<path class="st13" d="M189.2,380.9l-7.9-0.5l-0.9,0l-1.9-0.1c0,0-5.2-46.1-6.8-58.4c-1.4-10.7-7.7-34.6-11.8-49.5
						c-1.2-4.2-2.2-7.7-2.8-10c-0.5-1.8-0.8-2.8-0.8-2.8l26.4-2.7c0,0,0.1,0.6,0.2,1.6c0.3,2.2,0.8,6.2,1.4,11.3
						c1.8,14,4.5,35.7,5.5,46.8C192.5,345.1,189.2,380.9,189.2,380.9z"/>
					<path class="st23" d="M184.3,269.8l-24.4,2.5c-1.2-4.2-2.2-7.7-2.8-10l25.8-3.9C183.1,260.6,183.6,264.7,184.3,269.8z"/>
					<g>
						<path class="st23" d="M181.3,380.4l-0.9,0c-0.6-14.2-2.3-49.8-5.2-64.9c-3.7-19-12.2-46.7-12.3-46.9l0.9-0.3
							c0.1,0.3,8.6,28,12.3,47C179,330.4,180.7,366.1,181.3,380.4z"/>
					</g>
				</g>
				<path class="st4" d="M180.6,200.2c3.5,11.6,12.6,20.1,12.6,20.1c5.2,2.4,22,6.8,26.8,5.9c3.7-0.5,9-1.4,9.6-5.5
					c-6.6-0.2-30.3-10.9-30.3-10.9c-8.7-20.9-14.9-41.4-14.9-41.4C177.5,175.4,180.6,200.2,180.6,200.2z"/>
				<g>
					<path class="st27" d="M157.5,156c0,0-13.6,3.6-19.3,8.3c0,0-7.6,3.1-7.5,50.2c0,26.3,2.5,45.7,2.5,45.7s9.2,3.1,23.2,3.7
						s28.2-3.7,28.2-3.7s-5.2-29.4-5.3-44.3c0-15,5.2-47.7,5.2-47.7l-16-10.1L157.5,156z"/>
					<g>
						<g>
							<g>
								<path class="st4" d="M164,168.3c-5.2-0.3-9.7-6.2-9.9-6.4c-0.1-0.1-0.1-0.4,0-0.5c0.1-0.1,0.4-0.1,0.5,0
									c0,0,4.7,6.2,9.8,6.1c0.2,0,0.4,0.1,0.4,0.3c0,0.2-0.1,0.4-0.3,0.4C164.4,168.3,164.2,168.3,164,168.3z"/>
							</g>
						</g>
					</g>
					<g>
						<g>
							<g>
								<path class="st4" d="M150.8,236.9c-0.2,0-0.3-0.1-0.3-0.3c0-0.2,0.1-0.4,0.3-0.4c13.6-0.7,20.6-23.8,20.6-24
									c0-0.2,0.2-0.3,0.4-0.2s0.3,0.2,0.2,0.4C171.9,213.4,164.9,236.2,150.8,236.9L150.8,236.9z"/>
							</g>
						</g>
					</g>
					<g>
						<g>
							<g>
								<path class="st4" d="M156.6,230.2c-0.1,0-0.2-0.1-0.3-0.2c-0.1-0.2,0-0.4,0.1-0.5c7.4-4,8.9-10.5,8.9-10.5
									c0-0.2,0.2-0.3,0.4-0.3s0.3,0.2,0.3,0.4c0,0.3-1.5,6.8-9.3,11C156.7,230.2,156.7,230.2,156.6,230.2z"/>
							</g>
						</g>
					</g>
				</g>
				<g>
					<g>
						<path class="st11" d="M193.5,221.2h1.7c1.5,0,2.7-0.9,3.3-2.3c0.3-0.6,0.7-1.7,1-2.1c0.8-1.1,2-3.7,2.8-3.7s0.6,1.9,0.4,2.7
							c-0.2,1-0.6,2.2-1.1,3.1s3.7,0.8,5.5,1.3c1.8,0.4,3.5,0.6,3.9,2.2c0.3,1.5-0.5,2-0.5,2s0.7,1.4-1.3,2.5c0,0,0.4,1.3-0.9,2.1
							c0,0,0.1,1.7-1.3,2.2c-1.5,0.4-6.1,1.9-15.3-3.6L193.5,221.2z"/>
					</g>
					<path class="st4" d="M193.6,220.2c0,0-27.6-6.9-38.1-12.5c0,0-3.7-10.8-6.3-19.6c-1.7-5.7-4-11.2-6.8-16.4
						c-1.6-2.9-2.7-6-4.3-7.4c0,0-8.3,6-2.9,27c2.9,11.4,7.4,19.3,9.2,23.8c0.9,2.3,4.9,4.7,7,5.8c6.8,3.4,21.8,9.2,39.9,7.4
						C191.3,228.3,194,223.1,193.6,220.2z"/>
				</g>
				<g>
					<path class="st11" d="M229.5,218.9c0,0,2.6,1.8,2.2,3.8c-0.4,2-4.1-2.7-4.1-2.7s3.7,4.7,2.5,6.1c-1.2,1.3-4.9-3.2-4.9-3.2
						s3.6,5.2,2.8,6.3c-0.8,1.1-5.4-3.6-5.4-3.6s2.1,3.4,1.2,4.4c-0.7,0.8-3.9-1.9-4.9-3.9s1.9-2.8,1.9-2.8s1.4-2.3,2.7-2.2
						c0,0,1-2.3,2.4-2.7C225.7,218.3,227.3,216.9,229.5,218.9z"/>
					<path class="st11" d="M219.1,225.5c0,0-2.7,0.6-1.9,4.2c0,0,0.6-1.8,1.9-3.2V225.5z"/>
				</g>
				<g>
					<path class="st13" d="M181.2,133.7c-1.4,8.1-9.1,13.5-17.2,12c-8.1-1.4-12.7-9-11.3-17.1s8.4-13.5,16.4-12.1
						C177.3,117.9,182.7,125.7,181.2,133.7z"/>
					<path class="st13" d="M180.5,128.4c0,0,5.3-1.6,3.4-5.5c-1.8-4,1.6-4.5-0.5-7.5c-1.9-2.7-5.7-0.1-7.4-2.3s-5.9-3.8-8.1-1.3
						c-2,2.3-4.5,1-7.2,1c-4.4,0-2.9,4.3-4,6.8c-1.1,2.4-4.5,5.1-0.8,7.1C159.6,128.7,180.5,128.4,180.5,128.4z"/>
					<g>
						<path class="st12" d="M178.1,137.4c0,0,2.8-2.7,4.1,0.2c1.3,2.8-2.5,10-6.4,7.4L178.1,137.4z"/>
						<g>
							<path class="st18" d="M177.1,142.8c0.1,0,0.3,0,0.4-0.2c1.1-2.2,3.6-2.7,3.7-2.7c0.2,0,0.3-0.2,0.3-0.4s-0.2-0.3-0.4-0.3
								c-0.1,0-3,0.6-4.2,3.1c-0.1,0.2,0,0.4,0.1,0.5C177.1,142.7,177.1,142.8,177.1,142.8z"/>
						</g>
						<g>
							<g>
								<path class="st18" d="M179.8,142.1c0,0,0.1,0,0.2,0c0.2-0.1,0.3-0.3,0.2-0.5c0,0-0.3-0.7-1.1-1.3c-0.1-0.1-0.4,0-0.5,0.1
									c-0.1,0.1,0,0.4,0.1,0.5c0.6,0.4,0.9,1,0.9,1C179.6,142,179.7,142,179.8,142.1z"/>
							</g>
						</g>
					</g>
					<path class="st11" d="M158.8,148.5l-1.3,7.5c0,0,2.5,3.9,5.5,4.6s5.4-2.4,5.4-2.4l1.3-7.2L158.8,148.5z"/>
					<path class="st12" d="M158.8,148.5l-0.6,3.3c1.6,2.6,5.1,3.8,10.6,4l0.8-4.8L158.8,148.5z"/>
					<path class="st11" d="M153.6,137.5c0,0.7,0,1.5,0.1,2.1s0.1,1.3,0.3,2.1c0.9,5.8,3.9,13.7,14.3,11.9c5.2-0.9,8.4-5.9,10.4-11.3
						c0.5-1.3,0.9-2.6,1.2-3.9c0.6-2.3,1-4.5,1.3-6.3c0.4-2.8-0.6-5.6-2.8-7.4c-5.9-4.8-13-4.7-17.9-3.8c-3.4,0.6-5.9,3.4-6.4,6.8
						C153.9,130.8,153.5,134.5,153.6,137.5z"/>
					<g>
						<path class="st13" d="M154,141.7c0.9,5.8,3.9,13.7,14.3,11.9c5.2-0.9,8.4-5.9,10.4-11.3c0.5-1.3,0.9-2.6,1.2-3.9l-1.5,0.1
							c-0.8,2.3-2.1,5.7-3.2,7.2c-1-2.7-8.6-2.1-8.6-2.1s-7.1-3.7-9.7-1.4c-0.7-3-0.1-6.9-0.1-6.9l-1.9-0.6
							C155,134.9,154.4,138.3,154,141.7z M165.8,145.1c2.4,0,4,0.4,4.9,1c1.5,0.9,1.3,3.2-0.3,3.9c-1,0.4-1.9,0.6-2.9,0.6
							c-1.7,0.1-4.7-0.3-7.1-2.1c-1-0.8-1.4-2.3-0.7-3.3C160.3,144.1,162,143.5,165.8,145.1z"/>
					</g>
					<path class="st13" d="M172.3,137.4c-0.1,0.8,0.1,1.5,0.7,1.6c0.5,0.1,1-0.5,1.2-1.3s-0.1-1.5-0.7-1.6
						C173,136,172.5,136.6,172.3,137.4z"/>
					<path class="st13" d="M161.6,135.5c-0.1,0.8,0.1,1.5,0.7,1.6c0.5,0.1,1-0.5,1.2-1.3s-0.1-1.5-0.7-1.6S161.7,134.7,161.6,135.5z
						"/>
					<path class="st13" d="M177,133.6c0,0-3.6-2.2-6.8-1.4v1.4c0,0,3.3-0.1,6.3,1.6C176.9,134.6,177.2,134.3,177,133.6z"/>
					<path class="st13" d="M159.5,130.5c0,0,4.1-0.8,6.8,1l-0.5,1.3c0,0-3.1-1.3-6.4-0.7C159.4,131.5,159.1,131.1,159.5,130.5z"/>
					<g>
						<path class="st12" d="M166.2,142.2c-0.6-0.1-1.2-0.4-1.2-0.5c-0.1-0.1-0.2-0.3-0.1-0.5c0.1-0.1,0.3-0.2,0.5-0.1
							c0.3,0.2,1,0.5,1.4,0.4c0,0,0.2-0.1,0.2-0.3c0.3-1.2,0.7-5.4,0.7-5.5c0-0.2,0.2-0.3,0.4-0.3s0.3,0.2,0.3,0.4s-0.4,4.4-0.8,5.6
							c-0.1,0.5-0.4,0.7-0.7,0.8C166.8,142.3,166.5,142.3,166.2,142.2z"/>
					</g>
					<path class="st17" d="M170.3,146.5c-0.5,1.4-2,3.9-5.2,3.4c-3.3-0.6-3.8-3.2-3.8-4.9L170.3,146.5z"/>
					<path class="st13" d="M178,139.8c0.5-1.4,1.1-3.3,1.1-4.3c0-1.8-1.3-3-0.5-4.6c0.8-1.6-0.7-3.7-1.9-4.2s-4.4-0.4-7.1-2.3
						c-2.6-1.9-7.7-1.8-8.8-0.1c-1.4,2-0.1,2.5-3.1,4.4c-1.2,0.8-0.4,3.4-0.5,5.1c0,0.7-0.1,1.1-0.3,1.9l-0.1,0.4l-3.2-0.5
						c0.1-2.5,0.4-5.3,0.7-7.6c0.4-3.4,3-6.1,6.4-6.8c4.8-0.9,12-1.1,17.9,3.8c2.2,1.8,3.2,4.6,2.8,7.3c-0.3,2.2-0.9,5-1.8,7.9
						L178,139.8z"/>
					<g>
						<path class="st11" d="M154.8,137.1c0.1-0.8,0.2-1.7,0.2-2.5c0-1.2-0.1-2.2-1.2-2.9c-0.8-0.5-1.9-0.7-2.7,0.2
							c-2.2,2.3-1.7,10.5,2.9,9.4L154.8,137.1z"/>
						<g>
							<g>
								<path class="st12" d="M153.5,138.9c-0.1,0-0.2-0.2-0.2-0.4c0.2-2.4-1.7-4.2-1.7-4.3c-0.1-0.1-0.1-0.3,0-0.5
									c0.1-0.1,0.3-0.1,0.5,0c0.1,0.1,2.2,2.1,2,4.8C154,138.8,153.8,138.9,153.5,138.9C153.6,138.9,153.6,138.9,153.5,138.9z"/>
							</g>
						</g>
						<g>
							<g>
								<path class="st12" d="M151.7,136.9c0,0-0.1,0-0.1-0.1c-0.1-0.1-0.1-0.4,0.1-0.5c0,0,0.7-0.5,1.7-0.5c0.2,0,0.4,0.1,0.4,0.3
									c0,0.2-0.1,0.4-0.3,0.4c-0.8,0-1.3,0.4-1.3,0.4C151.9,136.9,151.8,136.9,151.7,136.9z"/>
							</g>
						</g>
					</g>
				</g>
			</g>
		</g>
		<g>
			<path class="st13" d="M96.3,400.8H77.8c-2.5,0-4.7-1.6-5.5-4l-7.8-24.1c-0.3-1,0.4-2,1.4-2.1c14.3-1.1,28.4-1.1,42.4,0
				c1,0.1,1.7,1.1,1.4,2.1l-7.8,24.2C101,399.2,98.8,400.8,96.3,400.8z"/>
			<path class="st23" d="M108,372.4c0,0.6-9.3,1.2-20.8,1.2s-20.8-0.5-20.8-1.2s9.3-1.2,20.8-1.2S108,371.7,108,372.4z"/>
			<g>
				<g>
					<g>
						<g>
							<path class="st28" d="M86,328.4v43.9c0.7,0.2,1.4,0.2,2,0v-43.9c0-0.5-0.4-1-1-1l0,0C86.5,327.4,86,327.8,86,328.4z"/>
						</g>
					</g>
					<g>
						<g>
							<path class="st29" d="M86.8,340.7c0,0,10,9.4,21.4-9C108.2,331.8,88.4,327.8,86.8,340.7z"/>
						</g>
					</g>
					<g>
						<g>
							<path class="st29" d="M87.7,332.8c0,0,11.2-8-4.7-22.7C82.9,310.1,75.3,328.8,87.7,332.8z"/>
						</g>
					</g>
					<g>
						<g>
							<path class="st30" d="M87.5,357.2c0,0,11.2,8,20-11.7C107.5,345.5,87.4,344.2,87.5,357.2z"/>
						</g>
					</g>
					<g>
						<g>
							<path class="st29" d="M87,364.3c0,0-0.4-13.7-21.5-8.8C65.5,355.5,76.7,372.3,87,364.3z"/>
						</g>
					</g>
					<g>
						<g>
							<path class="st30" d="M88,344.7c0,0,0-13.7-21.2-9.3C66.8,335.4,77.6,352.4,88,344.7z"/>
						</g>
					</g>
				</g>
			</g>
		</g>
		<g>
			<g>
				<ellipse class="st0" cx="404.1" cy="149.2" rx="20.5" ry="20.5"/>
			</g>
			<g>
				<ellipse class="st13" cx="404.1" cy="147.1" rx="20.5" ry="20.5"/>
			</g>
			<g>
				<ellipse class="st17" cx="404.1" cy="147.1" rx="18.9" ry="18.9"/>
			</g>
			<g>
				<g>
					<rect x="403.4" y="129.9" class="st13" width="0.7" height="4"/>
				</g>
				<g>
					<rect x="403.4" y="160.3" class="st13" width="0.7" height="4"/>
				</g>
			</g>
			<g>
				<g>
					<rect x="386.6" y="146.7" class="st13" width="4" height="0.7"/>
				</g>
				<g>
					<rect x="417" y="146.7" class="st13" width="4" height="0.7"/>
				</g>
			</g>
			<g>
				<g>
					
						<rect x="412.6" y="135.9" transform="matrix(0.7072 -0.7071 0.7071 0.7072 25.077 333.0005)" class="st13" width="4" height="0.7"/>
				</g>
				<g>
					
						<rect x="391" y="157.4" transform="matrix(0.707 -0.7072 0.7072 0.707 3.5966 324.1498)" class="st13" width="4" height="0.7"/>
				</g>
			</g>
			<g>
				<g>
					
						<rect x="392.7" y="134.4" transform="matrix(0.7072 -0.707 0.707 0.7072 18.6768 317.8166)" class="st13" width="0.7" height="4"/>
				</g>
				<g>
					
						<rect x="414.2" y="155.8" transform="matrix(0.7071 -0.7071 0.7071 0.7071 9.8376 339.3215)" class="st13" width="0.7" height="4"/>
				</g>
			</g>
			<g class="st31">
				<path class="st13" d="M423,147.1c0,0.3,0,0.7,0,1.1c-0.5-9.9-8.8-17.9-18.9-17.9s-18.3,7.9-18.9,17.9c0-0.3,0-0.7,0-1.1
					c0-10.4,8.5-18.9,18.9-18.9C414.5,128.2,423,136.7,423,147.1z"/>
			</g>
			<g>
				<path class="st4" d="M409.8,149.7l-6.1-2.4c-0.1,0-0.2-0.2-0.1-0.4l0,0c0-0.1,0.2-0.2,0.4-0.2l6.1,2.4c0.1,0,0.2,0.2,0.2,0.4
					l0,0C410.2,149.6,410,149.7,409.8,149.7z"/>
			</g>
			<g>
				<polygon class="st13" points="404.1,147.3 393,147.3 393,146.8 403.5,146.8 403.5,138.2 404.1,138.2 				"/>
			</g>
		</g>
	</g>
</g>
</svg>
